<?xml version="1.0" encoding="UTF-8"?>
<svg id="ur" xmlns="http://www.w3.org/2000/svg" viewBox="0 0 945 324">
  <defs>
    <style>
      .cls-1 {
        fill: #f4b63e;
      }

      .cls-1, .cls-2 {
        stroke-width: 0px;
      }

      .cls-2 {
        fill: #822f0b;
      }
    </style>
  </defs>
  <g>
    <path class="cls-1" d="m77.22,227.6l-1.98-21.96-11.34,2.16-.36,15.66-35.64,5.58c7.74-43.2,12.6-85.5,14.76-127.07l51.66-9.18c1.26,34.56,7.38,76.68,18.36,126.17l-35.46,8.64Zm-4.14-45.54l-6.12-66.42h-.18l-1.98,68.04,8.28-1.62Z"/>
    <path class="cls-1" d="m198.18,175.95c0,5.58-1.26,11.34-3.78,17.46-4.86,11.34-13.14,20.88-24.66,28.62-5.94,4.14-12.42,6.12-19.08,6.12-5.94,0-12.24-1.62-18.9-4.86,1.44-7.02,3.96-17.28,7.38-31.14,4.32,2.52,8.64,3.78,12.78,3.78,1.98,0,3.96-.36,5.94-.9,9.9-2.7,14.76-6.48,14.58-11.16,0-3.42-2.7-5.22-7.92-5.22-3.06,0-7.74.72-13.86,2.16-6.12,1.26-10.8,1.98-14.04,1.98-12.78,0-19.26-6.84-19.26-20.34,0-12.6,5.22-26.46,15.48-41.76,12.06-17.46,23.4-26.64,34.38-27.54,13.14-.9,20.88,11.88,23.58,38.52l-12.24,5.04-12.06,5.22c-1.26-5.58-3.42-8.28-6.48-8.28-4.32,0-8.1,2.52-11.16,7.38-1.62,2.34-2.34,4.86-2.34,7.2,0,4.5,2.52,6.84,7.74,6.84,2.34,0,5.22-.36,8.64-1.08,5.04-1.08,9.54-1.62,13.32-1.62,9.9,0,16.2,3.42,19.26,10.08,1.8,4.32,2.7,8.82,2.7,13.5Z"/>
    <path class="cls-1" d="m284.93,175.95c0,5.58-1.26,11.34-3.78,17.46-4.86,11.34-13.14,20.88-24.66,28.62-5.94,4.14-12.42,6.12-19.08,6.12-5.94,0-12.24-1.62-18.9-4.86,1.44-7.02,3.96-17.28,7.38-31.14,4.32,2.52,8.64,3.78,12.78,3.78,1.98,0,3.96-.36,5.94-.9,9.9-2.7,14.76-6.48,14.58-11.16,0-3.42-2.7-5.22-7.92-5.22-3.06,0-7.74.72-13.86,2.16-6.12,1.26-10.8,1.98-14.04,1.98-12.78,0-19.26-6.84-19.26-20.34,0-12.6,5.22-26.46,15.48-41.76,12.06-17.46,23.4-26.64,34.38-27.54,13.14-.9,20.88,11.88,23.58,38.52l-12.24,5.04-12.06,5.22c-1.26-5.58-3.42-8.28-6.48-8.28-4.32,0-8.1,2.52-11.16,7.38-1.62,2.34-2.34,4.86-2.34,7.2,0,4.5,2.52,6.84,7.74,6.84,2.34,0,5.22-.36,8.64-1.08,5.04-1.08,9.54-1.62,13.32-1.62,9.9,0,16.2,3.42,19.26,10.08,1.8,4.32,2.7,8.82,2.7,13.5Z"/>
    <path class="cls-1" d="m361.79,212.66c-16.02,1.44-36.54,5.58-61.56,12.24l-5.94-125.99,56.7-8.64,4.68,32.76c-10.62.9-20.88,2.16-30.96,3.78-.18,3.42-.18,6.66-.18,9.9v9.9l26.82-6.12,3.6,24.3c-5.04.9-10.08,1.8-14.94,2.88l-15.12,3.24c0,2.34,0,4.68.18,7.02l.36,7.02,31.68-4.86,4.68,32.58Z"/>
    <path class="cls-1" d="m444.41,125.91l-23.04,1.8c-.18,6.3-.18,12.78-.18,19.08,0,25.38,1.26,48.78,3.6,70.38l-27.9,7.74-3.78-93.6-18,3.42-9.18-32.94,72.54-8.64,5.94,32.76Z"/>
    <path class="cls-1" d="m529.01,175.95c0,5.58-1.26,11.34-3.78,17.46-4.86,11.34-13.14,20.88-24.66,28.62-5.94,4.14-12.42,6.12-19.08,6.12-5.94,0-12.24-1.62-18.9-4.86,1.44-7.02,3.96-17.28,7.38-31.14,4.32,2.52,8.64,3.78,12.78,3.78,1.98,0,3.96-.36,5.94-.9,9.9-2.7,14.76-6.48,14.58-11.16,0-3.42-2.7-5.22-7.92-5.22-3.06,0-7.74.72-13.86,2.16-6.12,1.26-10.8,1.98-14.04,1.98-12.78,0-19.26-6.84-19.26-20.34,0-12.6,5.22-26.46,15.48-41.76,12.06-17.46,23.4-26.64,34.38-27.54,13.14-.9,20.88,11.88,23.58,38.52l-12.24,5.04-12.06,5.22c-1.26-5.58-3.42-8.28-6.48-8.28-4.32,0-8.1,2.52-11.16,7.38-1.62,2.34-2.34,4.86-2.34,7.2,0,4.5,2.52,6.84,7.74,6.84,2.34,0,5.22-.36,8.64-1.08,5.04-1.08,9.54-1.62,13.32-1.62,9.9,0,16.2,3.42,19.26,10.08,1.8,4.32,2.7,8.82,2.7,13.5Z"/>
    <path class="cls-1" d="m602.81,212.66c-16.02,1.44-35.28,5.58-58.14,12.24l-4.86-124.19,28.98-5.58c-.72,14.94-1.08,29.88-1.26,44.82-.18,14.94.18,30.06.9,45l29.88-4.86,4.5,32.58Z"/>
    <path class="cls-1" d="m620.63,224.9l-4.86-124.19,28.8-5.58c-.9,20.34-1.26,40.5-1.08,60.84.18,20.34,1.26,40.86,3.24,61.2l-26.1,7.74Z"/>
    <path class="cls-1" d="m737.63,175.95c0,5.58-1.26,11.34-3.78,17.46-4.86,11.34-13.14,20.88-24.66,28.62-5.94,4.14-12.42,6.12-19.08,6.12-5.94,0-12.24-1.62-18.9-4.86,1.44-7.02,3.96-17.28,7.38-31.14,4.32,2.52,8.64,3.78,12.78,3.78,1.98,0,3.96-.36,5.94-.9,9.9-2.7,14.76-6.48,14.58-11.16,0-3.42-2.7-5.22-7.92-5.22-3.06,0-7.74.72-13.86,2.16-6.12,1.26-10.8,1.98-14.04,1.98-12.78,0-19.26-6.84-19.26-20.34,0-12.6,5.22-26.46,15.48-41.76,12.06-17.46,23.4-26.64,34.38-27.54,13.14-.9,20.88,11.88,23.58,38.52l-12.24,5.04-12.06,5.22c-1.26-5.58-3.42-8.28-6.48-8.28-4.32,0-8.1,2.52-11.16,7.38-1.62,2.34-2.34,4.86-2.34,7.2,0,4.5,2.52,6.84,7.74,6.84,2.34,0,5.22-.36,8.64-1.08,5.04-1.08,9.54-1.62,13.32-1.62,9.9,0,16.2,3.42,19.26,10.08,1.8,4.32,2.7,8.82,2.7,13.5Z"/>
    <path class="cls-1" d="m818.63,125.91l-23.04,1.8c-.18,6.3-.18,12.78-.18,19.08,0,25.38,1.26,48.78,3.6,70.38l-27.9,7.74-3.78-93.6-18,3.42-9.18-32.94,72.54-8.64,5.94,32.76Z"/>
    <path class="cls-1" d="m893.33,212.66c-16.02,1.44-36.54,5.58-61.56,12.24l-5.94-125.99,56.7-8.64,4.68,32.76c-10.62.9-20.88,2.16-30.96,3.78-.18,3.42-.18,6.66-.18,9.9v9.9l26.82-6.12,3.6,24.3c-5.04.9-10.08,1.8-14.94,2.88l-15.12,3.24c0,2.34,0,4.68.18,7.02l.36,7.02,31.68-4.86,4.68,32.58Z"/>
  </g>
  <g>
    <path class="cls-2" d="m86.22,227.6l-1.98-21.96-11.34,2.16-.36,15.66-35.64,5.58c7.74-43.2,12.6-85.5,14.76-127.07l51.66-9.18c1.26,34.56,7.38,76.68,18.36,126.17l-35.46,8.64Zm-4.14-45.54l-6.12-66.42h-.18l-1.98,68.04,8.28-1.62Z"/>
    <path class="cls-2" d="m207.18,175.95c0,5.58-1.26,11.34-3.78,17.46-4.86,11.34-13.14,20.88-24.66,28.62-5.94,4.14-12.42,6.12-19.08,6.12-5.94,0-12.24-1.62-18.9-4.86,1.44-7.02,3.96-17.28,7.38-31.14,4.32,2.52,8.64,3.78,12.78,3.78,1.98,0,3.96-.36,5.94-.9,9.9-2.7,14.76-6.48,14.58-11.16,0-3.42-2.7-5.22-7.92-5.22-3.06,0-7.74.72-13.86,2.16-6.12,1.26-10.8,1.98-14.04,1.98-12.78,0-19.26-6.84-19.26-20.34,0-12.6,5.22-26.46,15.48-41.76,12.06-17.46,23.4-26.64,34.38-27.54,13.14-.9,20.88,11.88,23.58,38.52l-12.24,5.04-12.06,5.22c-1.26-5.58-3.42-8.28-6.48-8.28-4.32,0-8.1,2.52-11.16,7.38-1.62,2.34-2.34,4.86-2.34,7.2,0,4.5,2.52,6.84,7.74,6.84,2.34,0,5.22-.36,8.64-1.08,5.04-1.08,9.54-1.62,13.32-1.62,9.9,0,16.2,3.42,19.26,10.08,1.8,4.32,2.7,8.82,2.7,13.5Z"/>
    <path class="cls-2" d="m293.94,175.95c0,5.58-1.26,11.34-3.78,17.46-4.86,11.34-13.14,20.88-24.66,28.62-5.94,4.14-12.42,6.12-19.08,6.12-5.94,0-12.24-1.62-18.9-4.86,1.44-7.02,3.96-17.28,7.38-31.14,4.32,2.52,8.64,3.78,12.78,3.78,1.98,0,3.96-.36,5.94-.9,9.9-2.7,14.76-6.48,14.58-11.16,0-3.42-2.7-5.22-7.92-5.22-3.06,0-7.74.72-13.86,2.16-6.12,1.26-10.8,1.98-14.04,1.98-12.78,0-19.26-6.84-19.26-20.34,0-12.6,5.22-26.46,15.48-41.76,12.06-17.46,23.4-26.64,34.38-27.54,13.14-.9,20.88,11.88,23.58,38.52l-12.24,5.04-12.06,5.22c-1.26-5.58-3.42-8.28-6.48-8.28-4.32,0-8.1,2.52-11.16,7.38-1.62,2.34-2.34,4.86-2.34,7.2,0,4.5,2.52,6.84,7.74,6.84,2.34,0,5.22-.36,8.64-1.08,5.04-1.08,9.54-1.62,13.32-1.62,9.9,0,16.2,3.42,19.26,10.08,1.8,4.32,2.7,8.82,2.7,13.5Z"/>
    <path class="cls-2" d="m370.79,212.66c-16.02,1.44-36.54,5.58-61.56,12.24l-5.94-125.99,56.7-8.64,4.68,32.76c-10.62.9-20.88,2.16-30.96,3.78-.18,3.42-.18,6.66-.18,9.9v9.9l26.82-6.12,3.6,24.3c-5.04.9-10.08,1.8-14.94,2.88l-15.12,3.24c0,2.34,0,4.68.18,7.02l.36,7.02,31.68-4.86,4.68,32.58Z"/>
    <path class="cls-2" d="m453.41,125.91l-23.04,1.8c-.18,6.3-.18,12.78-.18,19.08,0,25.38,1.26,48.78,3.6,70.38l-27.9,7.74-3.78-93.6-18,3.42-9.18-32.94,72.54-8.64,5.94,32.76Z"/>
    <path class="cls-2" d="m538.01,175.95c0,5.58-1.26,11.34-3.78,17.46-4.86,11.34-13.14,20.88-24.66,28.62-5.94,4.14-12.42,6.12-19.08,6.12-5.94,0-12.24-1.62-18.9-4.86,1.44-7.02,3.96-17.28,7.38-31.14,4.32,2.52,8.64,3.78,12.78,3.78,1.98,0,3.96-.36,5.94-.9,9.9-2.7,14.76-6.48,14.58-11.16,0-3.42-2.7-5.22-7.92-5.22-3.06,0-7.74.72-13.86,2.16-6.12,1.26-10.8,1.98-14.04,1.98-12.78,0-19.26-6.84-19.26-20.34,0-12.6,5.22-26.46,15.48-41.76,12.06-17.46,23.4-26.64,34.38-27.54,13.14-.9,20.88,11.88,23.58,38.52l-12.24,5.04-12.06,5.22c-1.26-5.58-3.42-8.28-6.48-8.28-4.32,0-8.1,2.52-11.16,7.38-1.62,2.34-2.34,4.86-2.34,7.2,0,4.5,2.52,6.84,7.74,6.84,2.34,0,5.22-.36,8.64-1.08,5.04-1.08,9.54-1.62,13.32-1.62,9.9,0,16.2,3.42,19.26,10.08,1.8,4.32,2.7,8.82,2.7,13.5Z"/>
    <path class="cls-2" d="m611.81,212.66c-16.02,1.44-35.28,5.58-58.14,12.24l-4.86-124.19,28.98-5.58c-.72,14.94-1.08,29.88-1.26,44.82-.18,14.94.18,30.06.9,45l29.88-4.86,4.5,32.58Z"/>
    <path class="cls-2" d="m629.63,224.9l-4.86-124.19,28.8-5.58c-.9,20.34-1.26,40.5-1.08,60.84.18,20.34,1.26,40.86,3.24,61.2l-26.1,7.74Z"/>
    <path class="cls-2" d="m746.63,175.95c0,5.58-1.26,11.34-3.78,17.46-4.86,11.34-13.14,20.88-24.66,28.62-5.94,4.14-12.42,6.12-19.08,6.12-5.94,0-12.24-1.62-18.9-4.86,1.44-7.02,3.96-17.28,7.38-31.14,4.32,2.52,8.64,3.78,12.78,3.78,1.98,0,3.96-.36,5.94-.9,9.9-2.7,14.76-6.48,14.58-11.16,0-3.42-2.7-5.22-7.92-5.22-3.06,0-7.74.72-13.86,2.16-6.12,1.26-10.8,1.98-14.04,1.98-12.78,0-19.26-6.84-19.26-20.34,0-12.6,5.22-26.46,15.48-41.76,12.06-17.46,23.4-26.64,34.38-27.54,13.14-.9,20.88,11.88,23.58,38.52l-12.24,5.04-12.06,5.22c-1.26-5.58-3.42-8.28-6.48-8.28-4.32,0-8.1,2.52-11.16,7.38-1.62,2.34-2.34,4.86-2.34,7.2,0,4.5,2.52,6.84,7.74,6.84,2.34,0,5.22-.36,8.64-1.08,5.04-1.08,9.54-1.62,13.32-1.62,9.9,0,16.2,3.42,19.26,10.08,1.8,4.32,2.7,8.82,2.7,13.5Z"/>
    <path class="cls-2" d="m827.63,125.91l-23.04,1.8c-.18,6.3-.18,12.78-.18,19.08,0,25.38,1.26,48.78,3.6,70.38l-27.9,7.74-3.78-93.6-18,3.42-9.18-32.94,72.54-8.64,5.94,32.76Z"/>
    <path class="cls-2" d="m902.33,212.66c-16.02,1.44-36.54,5.58-61.56,12.24l-5.94-125.99,56.7-8.64,4.68,32.76c-10.62.9-20.88,2.16-30.96,3.78-.18,3.42-.18,6.66-.18,9.9v9.9l26.82-6.12,3.6,24.3c-5.04.9-10.08,1.8-14.94,2.88l-15.12,3.24c0,2.34,0,4.68.18,7.02l.36,7.02,31.68-4.86,4.68,32.58Z"/>
  </g>
</svg>