<?xml version="1.0" encoding="UTF-8"?>
<svg id="Alt" xmlns="http://www.w3.org/2000/svg" viewBox="0 0 1920 1080">
  <defs>
    <style>
      .cls-1 {
        opacity: .1;
      }

      .cls-1, .cls-2, .cls-3, .cls-4, .cls-5, .cls-6, .cls-7, .cls-8, .cls-9, .cls-10, .cls-11 {
        stroke-width: 0px;
      }

      .cls-2 {
        fill: #fff;
        opacity: .8;
      }

      .cls-3 {
        opacity: .5;
      }

      .cls-4 {
        fill: #9b824b;
      }

      .cls-5 {
        fill: #a38954;
      }

      .cls-6 {
        fill: #38230d;
      }

      .cls-7 {
        fill: #ccb25e;
      }

      .cls-8 {
        fill: #ccc17f;
      }

      .cls-9 {
        fill: #c6ab5d;
      }

      .cls-10 {
        fill: #c1a75d;
      }

      .cls-11 {
        fill: #b29a5b;
      }
    </style>
  </defs>
  <g>
    <g>
      <ellipse class="cls-1" cx="307.02" cy="946.01" rx="90.59" ry="135.89"/>
      <path class="cls-9" d="m353.13,829.02c0,4.11-.05,8.21-.11,12.29-.03,2.37-.07,4.73-.12,7.1h0c-.06,3.14-.14,6.25-.22,9.35-.06,2.24-.14,4.47-.21,6.7-.03.95-.06,1.91-.09,2.85-.03.74-.06,1.47-.08,2.21-.23,6.25-.5,12.45-.81,18.64,0,.27-.02.54-.04.81-.19,4.08-.41,8.15-.63,12.21v.02c-.23,4.23-.47,8.42-.73,12.63-.03.47-.06.93-.09,1.4-.22,3.89-.47,7.78-.71,11.68-.06.79-.1,1.58-.16,2.39v.04s0,0,0,0c0,0,0,0,0,0-.54,8.49-1.09,16.98-1.65,25.5h0c-.12,1.89-.24,3.75-.36,5.62h0c-.37,5.86-.74,11.7-1.1,17.57-.14,2.35-.28,4.7-.41,7.06v.02c-.37,6.24-.72,12.49-1.02,18.78v.04h0c-.03.46-.06.91-.06,1.37-.06,1.06-.11,2.13-.16,3.21-.2,4.08-.37,8.16-.55,12.27-.3,7.51-.55,15.09-.72,22.74-.08,2.99-.15,5.99-.19,9.03,0,.16-.02.32,0,.48-.06,2.89-.09,5.78-.11,8.7-.02,1.69-.03,3.39-.03,5.09-.02,1.36-.02,2.72-.02,4.09h0c0,4.81.02,9.64.08,14.51-6.11.19-11.94.3-17.53.34h0c-7.46.07-14.46.05-21.09-.07-8.05-.15-15.54-.43-22.57-.83h0c-.82-.04-1.62-.09-2.43-.14h0c-1.03-.07-2.08-.13-3.09-.2-7.42-.49-14.33-1.12-20.85-1.84h0c-58.72-6.53-87.05-21.28-184.18-24.43-28.5-15.54-48.84-41.45-61.03-71.8h0c-12.57-31.28-16.49-67.27-11.76-101.49,6.74-48.7,31.01-93.8,72.8-116.6,110.91-1.8,137.02,7.94,215.7,9.51,4.48.1,9.13.17,13.97.2,10.67.07,22.28,0,35.12-.25h0c5.14-.11,10.48-.24,16.03-.4.94,17.63,1.3,34.79,1.25,51.59Z"/>
      <path class="cls-10" d="m404.03,937.8s0,.02,0,.04t0,.03h0c-1.25,8.05-3.65,16.08-6.96,23.27h0v.02c-.83,1.81-1.72,3.56-2.67,5.24-1.94,3.47-4,10.58-7.35,19.76t0,.02s0,.03,0,.04c-.4,1.06-.8,2.14-1.23,3.26-.62,1.66-1.31,3.37-2.04,5.14-4.74,11.52-11.56,25.1-22.15,38.48-5.23,6.63-11.39,13.2-18.68,19.46-.21.18-.42.36-.63.53-4.35,3.7-9.1,7.29-14.3,10.69-.16.11-.32.22-.49.33-9.47,6.18-20.39,11.79-33.02,16.49h0c-4.11,1.54-8.37,2.96-12.84,4.28h0c-.44.14-.87.27-1.31.39-.98.28-1.96.57-2.96.84-.42-.52-.84-1.05-1.26-1.57-7.42-.49-14.33-1.12-20.85-1.84h0c-58.72-6.53-87.05-21.28-184.18-24.43-28.5-15.54-48.84-41.45-61.03-71.8h0c-12.57-31.28-16.49-67.27-11.76-101.49,23.77,16.25,53.71,34.83,72.8,25.43,64.33-31.67,99.65,9.06,108.7-18.12,0,0-44.74-18.11-36.24-18.11,5.26,0,42.74,8.19,77.59,17.39.9.23,1.8.47,2.69.72h0c10.28,2.74,20.25,5.55,29,8.25.31.09.62.2.93.3,3.13.97,6.1,1.93,8.85,2.85.29.1.59.2.87.29,4.44,1.53,8.32,2.97,11.44,4.31.18.07.35.16.52.22.74.33,1.43.64,2.08.95h0c.11.06.21.11.33.16.57.27,1.09.54,1.57.81.5.27,1,.53,1.5.78,4.18,2.1,8.32,3.55,12.42,4.43h0c1.78.37,3.54.64,5.29.82h0c.43.06.84.09,1.26.12,2.25.18,4.46.2,6.66.08,6.93-.34,13.66-1.98,20.17-4.32.02,0,.04-.02.06-.02,1.02-.35,2.03-.74,3.05-1.14.02,0,.05,0,.07-.02,7.3-2.88,14.28-6.49,20.9-9.96h0c2.1-1.1,4.17-2.2,6.2-3.24h0c1.39-.72,2.76-1.42,4.11-2.09,2.74-1.35,5.39-2.58,7.95-3.59,1.08-.44,2.15-.83,3.2-1.18.34-.12.7-.24,1.05-.34,3.53-1.11,6.84-1.71,9.97-1.57,2.28.1,4.44.59,6.49,1.57h0c1.42.66,2.77,1.55,4.06,2.71h0c.17.16.34.32.51.47,9.84,9.44,12.36,26.7,9.65,43.88Z"/>
      <path class="cls-4" d="m413.56,1034.03c-1.11,9.61-3.88,19.33-7.96,27.83-.69,1.44-1.41,2.83-2.17,4.19-.3.54-.61,1.17-.92,1.89-3.17,1.99-6.64,3.66-10.38,4.86-.25.08-.5.17-.74.24-10.55,7.87-21.15,14.87-26.8,17.58-.52.25-1.4.37-2.55.39-5.55,3.79-15.42,4.88-53.87,1.27-.54-.06-1.08-.11-1.62-.18-10.35-1.12-19.04-3.52-26.26-6.84-.98.28-1.96.57-2.96.84-.42-.52-.84-1.05-1.26-1.57-7.42-.49-14.33-1.12-20.85-1.84h0c-58.72-6.53-87.05-21.28-184.18-24.43-28.5-15.54-48.84-41.45-61.03-71.8,23.31,15.78,51.72,32.64,70.09,23.59,64.33-31.67,99.65,9.06,108.71-18.11,0,0-44.75-18.12-36.24-18.12,4.78,0,36.44,6.83,68.44,15.02h0c2.68.68,5.36,1.38,8.03,2.08,3.43.91,6.83,1.82,10.18,2.73,2.5.69,4.99,1.37,7.42,2.06,4.53,1.28,8.91,2.56,13.04,3.82.28.07.56.17.84.26h0c6.25,1.9,11.88,3.75,16.64,5.48,1.72.62,3.31,1.24,4.78,1.82,2.61,1.06,4.79,2.06,6.49,2.97,8.68,4.7,17.2,6.45,25.48,6.3h.02c2.1-.04,4.17-.2,6.24-.47h0c6.65-.87,13.12-2.83,19.36-5.33,1.61-.63,3.2-1.32,4.78-2.02,8.39-3.74,16.32-8.21,23.67-11.93h0c.1-.06.2-.11.3-.15,0,0,0,0,0,0,2.23-1.13,4.4-2.19,6.52-3.13.76-.34,1.51-.67,2.23-.96h0c3.03-1.27,5.9-2.25,8.68-2.87.2-.06.41-.09.62-.12,2.3-.47,4.51-.66,6.61-.49.15,0,.31.02.46.05,2.36.23,4.61.93,6.71,2.19.38.21.75.45,1.12.72.73.51,1.45,1.11,2.14,1.77,9.2,8.81,11.99,24.43,10.13,40.45Z"/>
      <path class="cls-7" d="m413.91,856.38c11.49,21.56,25.01,24.28,21.3,60.34-1.38,13.38,7.77,37.71,14.23,53.52-4.56,2.07-9.42,4.32-14.42,6.61-1.9.43-3.55,1.16-4.78,2.15,0,0,0,0,0,0-9.67,4.37-19.6,8.62-28.57,11.59-.12.39-.24.79-.37,1.21.73.51,1.45,1.11,2.14,1.77,9.2,8.81,11.99,24.43,10.13,40.45,6.53-8.97,11.57-19.45,14.22-16.52-2.29,10.45-5.26,20.54-6.18,26.06,1.03,2.68-6.2,10.06-16,18.29-4.39,3.69-9.3,7.53-14.21,11.18-10.55,7.87-21.15,14.87-26.8,17.58-.52.25-1.4.37-2.55.39-6.71.13-23.1-3.19-36.75-5.24h0c-10.84-1.62-19.95-2.43-21.09-.07-.15.31-.17.67-.03,1.09.42,1.3,1.27,3.13,2.39,5.32-10.35-1.12-19.04-3.52-26.26-6.84-.98.28-1.96.57-2.96.84-.42-.52-.84-1.05-1.26-1.57-.67-.85-1.35-1.7-2.02-2.56-5.06-6.45-9.89-13.06-14.21-19.93,0,0,0,0,0-.02-5.05-8.03-9.41-16.44-12.63-25.35-2.62-7.18-4.48-14.68-5.39-22.62-.57-4.87-1.4-12.37-2.57-20.42-1.87-12.82-4.59-27.05-8.41-34.34-.78-1.5-1.62-3.06-2.46-4.6-3.05-5.62-6.18-11-7.41-12.81-1.2-1.77-2.7-3.52-4.31-5.24h0c-6.25-6.66-14.17-12.94-13.8-19.27.51-8.95,9.74-6.12,13.88-12.94,2.37-3.91,3.73-8.26,4.38-12.89,2.41-17.18-4.95-38.04-6-53.36-1.39-20.54,32.18-29.44,45.3-37.95,5.03-3.25,16.69-14.62,26.35-22.35,6.24-4.97,11.63-8.42,13.87-7.2,1.85,1.02,1.4,3.88.1,7.39-2.69,7.35-8.95,17.59-5.07,19.84,5.59,3.25,21.96-13.06,40.19-20.09h0c4.56-1.76,9.23-2.94,13.89-3.08,10.83-.34,54.31,35.52,61.34,41.69,7.85,6.9,40.87,36.08,38.44,38.02-11.75,9.45-31.48-16.66-42.29-7.86-4.35,3.56,3.8,4.39,6.66,9.78Z"/>
      <path class="cls-1" d="m333.23,923.82c2.33-1.08,5.98,5.65,6.36,13.14.45,8.86-3.82,16.12-5.22,18.5-7.66,13.02-18.66,11.19-19.47,11.03-1.18-.23-12.54-2.77-16.92-20.31-4.34-17.4,1.93-34.52,3.07-37.61,6.42-17.51,17.29-22.39,20.49-23.57,12.61-4.61,25.25,4.86,31.68,21.51,10.1,26.13.21,57.77-1.42,62.98-1.98,6.35-6.88,21.5-17.32,30.14-10.43,8.63-19.97,5.43-22.65,4.46-23.25-8.4-30.58-56.81-31.79-65.69-1.78-13.02-7.08-51.8,6.13-75.21,19.42-34.43,60.55-3.26,63.24-1.15,8.95,7,23.91,18.7,29.63,46.58,6.98,33.96-4.54,68.54-10.84,87.45-6.08,18.25-12.65,37.99-26.23,48.34-17.87,13.63-34.78,1.02-40.59-3.31-2.26-1.68-21.24-16.45-29.12-52.85-4.36-20.11-13.57-42.44-12.78-60.74,1.73-40.47,19.65-57.41,12.44-71.78-2.72-5.42-8.89,23.17-11.97,25.73-4.49,3.73-6.88,14.92-7.11,38.46-.55,57.25-3.35,34.75,1.47,60.57,3.31,17.74,9.53,29.13,18.56,45.68,5.94,10.89,11.15,20.23,20.1,26.88,5.33,3.96,10.76,5.33,21.63,8.07,13.49,3.41,20.24,5.11,25.83,2.11,8.15-4.38,12.89-13.78,21.01-29.83,10.91-21.6,16.08-42,19.36-55.21,2.95-11.89,5.53-22.49,6.76-37.31.74-8.95,1.92-23.19-.62-37.91-3.87-22.35-14.23-33.58-25.94-46.28-7.49-8.12-17.06-18.23-31.68-21.51-13.34-2.99-23.9,1.28-30.03,3.86-8.07,3.4-12.18,5.22-15.78,11.33-3.9,6.6-4.49,13.4-7.27,43.57-3.55,38.55-3.69,39.43-3.58,43.87.28,11.01.73,28.59,7.49,44.78,6.17,14.76,14.31,20.5,23.79,27.18,10.12,7.13,16.65,11.73,25.32,8.37,11.04-4.27,18.01-18.49,20.49-23.57,5.58-11.39,7.37-22.02,10.96-43.27,3.13-18.57,4.7-27.85,3.07-37.61-.61-3.67-1.55-6.99-12.72-26.27-13.67-23.61-16.54-26.01-20.1-26.88-6.33-1.54-11.83,2.53-15.27,5.06-2.36,1.74-10.84,8.49-16.8,23.87-2.86,7.38-4.03,15.36-6.24,31.04-2.88,20.38-4.32,30.57-3.07,37.61,2.88,16.16,13.48,26.81,23.79,27.18,7.92.28,13.89-5.57,19.47-11.03,7.14-6.99,15.77-15.43,17.32-30.14,1.53-14.58-4.96-25.09-5.34-25.67-.61-.95-6.07-9.2-14.25-7.47-3.63.77-11.34,4.26-12.09,11.63-.79,7.75,6.49,16.13,10.05,13.44,2.93-2.22,2.28-11.11,4.71-12.23Z"/>
      <path class="cls-5" d="m402.51,1067.94c-3.17,1.99-6.64,3.66-10.38,4.86-.25.08-.5.17-.74.24-10.55,7.87-21.15,14.87-26.8,17.58-.52.25-1.4.37-2.55.39-5.55,3.79-15.42,4.88-53.87,1.27-.54-.06-1.08-.11-1.62-.18-10.35-1.12-19.04-3.52-26.26-6.84-.98.28-1.96.57-2.96.84-.42-.52-.84-1.05-1.26-1.57-7.42-.49-14.33-1.12-20.85-1.84h0c-6.28-15.2-11.61-31.4-15.81-46.23v-.02c-5.41-19.06-8.95-35.9-10.36-45.54-.28-1.97-.48-3.63-.59-4.96-1.13-13.98-.4-23.33-.1-31.25.07-1.72.1-3.38.1-4.99,0-9.52-13.53-46.26,9.06-45.29,8.14.35,11.39,5.32,14.4,9.24.33.43.65.86,1,1.26h0c1.91,2.32,3.93,3.93,7.23,3.38.18-.03.34-.07.53-.1,2.93-.66,6.87-2.93,12.53-7.74.56-.47,1.1-.95,1.61-1.43.2-.17.39-.35.59-.54.74-.7,1.41-1.38,2.05-2.07.26-.27.51-.54.74-.81.99-1.1,1.85-2.19,2.62-3.25,7.65-10.55,6.44-19.51,19.58-28.14,3.54-2.33,7.61-4.3,11.99-5.84,5.98-2.11,12.54-3.43,19.02-3.8h0c1.69-.07,3.37-.11,5.03-.07,4.43.09,8.77.68,12.79,1.8,1.06.3,2.1.62,3.13,1,2.62.95,5.08,2.15,7.32,3.62,0,0,0,0,0,0,1.49.97,2.86,2.06,4.12,3.28,3.55,3.41,5.87,7.48,7.3,12.07h0c.49,1.55.87,3.15,1.16,4.78.39,2.22.62,4.54.72,6.93v.02c.2,4.84-.17,9.98-.83,15.28-.2,1.58-.44,3.17-.69,4.78-1.09,7.08-2.6,14.38-3.98,21.56v.02c-1.15,6.02-2.22,11.94-2.86,17.6v.02c-1.04,9.08-1.01,17.46,1.41,24.37,1.01,2.87,2.42,5.48,4.35,7.77.26.34.55.65.85.96.51.56,1.06,1.09,1.64,1.6.59.51,1.26.96,1.98,1.31.55.27,1.14.5,1.77.69,2.01.61,4.4.8,7.11.62.56-.02,1.12-.07,1.69-.13,2-.2,4.14-.57,6.4-1.09.04,0,.07-.02.12-.03,2.6-.59,5.35-1.36,8.22-2.27.49-.16,1-.33,1.49-.49-.12.39-.24.79-.37,1.21.73.51,1.45,1.11,2.14,1.77,9.2,8.81,11.99,24.43,10.13,40.45,6.53-8.97,11.57-19.45,14.22-16.52.21.23.41.54.59.94,3.66,8.2-4.73,36.23-25.86,49.49Z"/>
      <path class="cls-11" d="m402.51,1067.94c-3.17,1.99-6.64,3.66-10.38,4.86-.25.08-.5.17-.74.24-22.52,7.4-23.67,14.1-29.35,17.97-5.55,3.79-15.42,4.88-53.87,1.27-.54-.06-1.08-.11-1.62-.18-10.35-1.12-19.04-3.52-26.26-6.84-.38-.17-.74-.34-1.12-.53h0c-1.8-.86-3.5-1.79-5.11-2.76-12.85-7.74-20.14-18.77-23.85-30.1h0c-1.67-5.1-2.61-10.25-3.01-15.19,0-.04-.02-.07-.02-.11-1.36-17.02,0-27.17,0-36.23,0-1.18-.2-2.76-.52-4.64-2.04-12.09-8.75-36.27,4.66-40.16.18-.05.38-.09.58-.15,1.27-.29,2.72-.42,4.35-.35,3.26.15,5.72,1.02,7.72,2.28.5.32.98.66,1.42,1.01,0,0,0,0,0,0,4.5,3.65,6.32,9.11,10.39,10.4h0c1.01.33,2.14.38,3.51.09,1.76-.37,3.88-1.33,6.54-3.09,1.24-.83,2.6-1.82,4.09-3.03.2-.15.38-.3.58-.45.46-.38.93-.79,1.42-1.2,1.33-1.13,2.52-2.23,3.57-3.33,1.81-1.85,3.28-3.64,4.5-5.41,2.01-2.88,3.38-5.63,4.61-8.31,3.04-6.69,5.15-12.81,13.88-18.77.2-.14.41-.28.62-.42,4.14-2.73,9.02-4.95,14.24-6.58,3.09-.97,6.3-1.72,9.56-2.24h0c2.35-.38,4.7-.64,7.06-.78,1.15-.07,2.3-.1,3.43-.1.8,0,1.59,0,2.38.03h0c2.83.1,5.6.4,8.28.9,2.57.47,5.05,1.15,7.38,2.04.87.31,1.71.66,2.54,1.04,2.54,1.17,4.89,2.61,6.97,4.33.53.44,1.04.89,1.54,1.37.52.5,1.01,1.01,1.48,1.55,1.69,1.91,3.06,4.01,4.15,6.26v.05c6.72,13.93,2.69,33.89-1.14,53.48t0,.02s0,.03,0,.04c-.2,1.05-.41,2.09-.6,3.14-.34,1.72-.66,3.43-.97,5.13-1.41,7.64-2.53,15.06-2.7,21.89h0c-.04,1.44-.04,2.84.02,4.21.15,4.14.74,8.01,1.95,11.5,1.39,4.07,3.6,7.62,6.9,10.52,8.16,7.19,15.75,0,21.97-8.56,6.53-8.97,11.57-19.45,14.22-16.52.21.23.41.54.59.94,3.66,8.2-4.73,36.23-25.86,49.49Z"/>
      <path class="cls-8" d="m411.7,944.3c-1.23,14.81-4.12,25.39-7.44,37.25-.76,2.73-1.61,5.75-2.6,9.05-.12.39-.24.79-.37,1.21-3.44,11.29-8.44,25.4-16.6,40.27-.82,1.47-1.65,2.96-2.52,4.45-9.37,15.95-14.86,25.3-24.43,29.55-2.88,1.28-6.04,1.66-10.03,1.37-1.52-.11-3.16-.33-4.95-.61-3.06-.49-6.57-1.23-10.67-2.13-1.31-.3-2.68-.61-4.11-.93-.28-.06-.57-.12-.87-.19-12.9-2.91-19.36-4.36-25.72-8.41-10.7-6.8-17.01-16.22-24.21-27.21-6.89-10.51-12.41-18.95-16.62-28.2h0c-2.11-4.68-3.9-9.56-5.35-15.03h0c-.24-.91-.47-1.83-.69-2.78-4.2-17.82-3.78-12.72-3.17-26.42.27-6.22.59-16.33.52-34.24,0-2.71.02-5.26.08-7.64.13-5.06.42-9.42.87-13.14.83-6.73,2.16-11.41,4.02-14.44,0-.02.02-.03.03-.05.83-1.38,1.78-2.4,2.82-3.14,3.25-2.25,9.1-25.43,12.67-26.24h0c.41-.1.77.1,1.12.67,6.68,11.06-3.96,23.4-10.01,46.63-1.14,4.36-2.1,9.08-2.76,14.24-.45,3.4-.75,7-.89,10.81-.32,9.03,2.25,19.05,5.59,29.33,0,0,0,0,0,0,3.43,10.58,7.69,21.42,10.46,31.67,1.71,6.32,3.8,12,6.12,17.07,11.02,24.29,26.93,34.87,29.16,36.28,2.8,1.79,7.75,4.93,14.05,7.2t.02,0c4.98,1.78,10.8,3.01,17.06,2.52.2,0,.41-.03.62-.05,2.98-.28,6.06-.95,9.19-2.14,2.38-.89,4.78-2.09,7.19-3.62,10.97-6.98,17.93-18.48,23.47-30.89h0c2.5-5.62,4.72-11.44,6.88-17.11.69-1.82,1.43-3.79,2.22-5.88.11-.32.22-.64.34-.96,0,0,0-.03,0-.04.43-1.14.85-2.29,1.28-3.49,4.87-13.66,10.21-31.71,10.56-51.03h0s0-.03,0-.04c0-.02,0-.03,0-.04.15-8.48-.65-17.21-2.9-25.91-1.83-7.12-4.35-13.21-7.27-18.43h0c-1.89-3.41-3.95-6.43-6.1-9.15h0c-5.03-6.39-10.54-11.07-15.48-14.69,0,0,0,0,0,0-2.49-1.84-4.84-3.42-6.92-4.8-.94-.62-5.75-3.75-12.67-7.05-7.17-3.4-16.59-6.98-26.27-8.11-13.13-1.55-26.77,1.41-35.95,15.36-6.92,10.53-9.3,24.26-9.62,37.35-.07,3-.04,5.96.07,8.82.48,12.35,2.39,23.24,3.43,29.04.58,3.33,2.27,12.21,5.6,22.49,5.27,16.27,14.64,36.03,30.32,42.74,0,0,.02,0,.03,0,.87.37,1.77.71,2.68,1,2.63.84,10.74,3.24,20.33-.63,0,0,0,0,.02,0,.41-.15.8-.33,1.2-.51,1.71-.76,3.45-1.75,5.21-2.97,7.94-5.52,13.08-13.82,16.32-20.68,1.75-3.72,2.95-7.01,3.73-9.22,1.62-4.56,10.5-29.46,4.24-53.3-.5-1.95-1.12-3.89-1.85-5.82-.49-1.32-1.05-2.62-1.66-3.93-2.49-5.29-5.69-9.87-9.38-13.53-2.76-2.73-5.78-4.94-8.98-6.54-.23-.13-.47-.24-.71-.34-4.42-2.09-9.14-3.01-13.93-2.53h0c-1.6.15-3.22.47-4.83.94-3.78,1.14-16.58,5.86-23.92,23.3-.38.9-1.27,3.01-2.2,5.97-1.96,6.32-4.11,16.55-1.94,27.38.28,1.41.63,2.83,1.07,4.26,3.22,10.42,9.25,15.63,13.93,18.19,3.24,1.78,5.84,2.29,6.41,2.39.69.12,7.6,1.19,14.73-2.99,2.15-1.26,4.32-2.99,6.35-5.39h0c.62-.74,1.23-1.52,1.82-2.37,1.63-2.36,6.57-9.56,5.91-18.45-.44-5.72-3.09-11.02-5.56-12.75-.33-.24-.65-.4-.97-.5h0c-.43-.13-.83-.13-1.2,0-2.86,1.1-1.96,10.01-5.4,12.18-.6.4-1.31.54-2.08.47h-.02c-3.04-.2-6.95-3.66-8.86-7.95-.88-1.95-1.35-4.07-1.13-6.13.3-2.79,1.78-5.02,3.75-6.73,2.3-2.01,5.23-3.33,7.7-4.09h0c1-.3,1.92-.51,2.68-.64,2.3-.38,4.42-.2,6.33.31,1.2.33,2.32.76,3.34,1.29,1.01.51,1.94,1.1,2.75,1.69,2.61,1.9,4.24,3.95,4.57,4.4.2.26,1.82,2.46,3.45,6.07,1.42,3.16,2.83,7.39,3.3,12.36v.02c.22,2.3.23,4.76-.06,7.33-.42,3.83-1.41,7.23-2.8,10.28v.02c-1.74,3.81-4.1,7.09-6.71,9.99-2.48,2.76-5.19,5.18-7.86,7.41-.9.76-1.8,1.5-2.68,2.22-.45.38-.91.75-1.38,1.14-6.13,5.03-12.79,9.99-21.52,9.62-3.16-.13-6.37-.97-9.43-2.4-8.76-4.09-16.43-13.14-19.15-25.17-.17-.74-.3-1.53-.4-2.35-.56-4.64-.07-10.67,1.14-19.58.61-4.45,1.41-9.61,2.33-15.68.33-2.11.62-4.08.9-5.93.53-3.28,1.01-6.18,1.47-8.79v-.03h0c1.24-6.8,2.5-11.64,4.55-16.23,6.83-15.3,16.78-21.93,19.55-23.64,1.62-1,3.63-2.24,5.96-3.28h0c1.21-.53,2.51-1.01,3.88-1.35,2.5-.64,5.25-.86,8.16-.21,1.74.38,3.34,1.01,5.77,3.3.89.83,1.89,1.87,3.04,3.2,3.38,3.91,8.13,10.25,15.39,20.72.48.69.95,1.37,1.41,2.02,1.45,2.11,2.76,4.02,3.92,5.75v.02c2.46,3.64,4.28,6.48,5.64,8.74,0,0,0,0,0,0,3.39,5.62,4,7.73,4.48,9.95.67,3.16.95,6.26.88,9.64-.09,7.09-1.63,15.4-3.96,27.96-3.11,16.78-4.98,26.94-8.81,36.05-.86,2.05-1.82,4.04-2.9,6.04,0,0,0,0,0,0-.2.35-.39.71-.6,1.06,0,0,0,.03-.02.04,0,0,0,0,0,.02-2.9,5.1-10.94,19.15-23.89,23.23h-.02c-6.26,1.98-11.61.98-17.6-1.77,0,0,0,0-.02,0-1.9-.88-3.89-1.94-5.98-3.14h0c-2.05-1.16-4.19-2.47-6.5-3.85-11.32-6.82-21.05-12.7-28.58-27.57-2.61-5.17-4.48-10.44-5.82-15.62-2.9-11.16-3.39-21.78-3.73-29.32-.17-3.69-.08-4.92,2.01-27.21v-.04c.08-.86.18-1.74.25-2.67.12-1.27.25-2.6.38-3.98.29-3.02.6-6.32.94-9.98.77-8.27,1.39-14.77,1.95-20.01,1.5-13.86,2.72-18.74,5.99-23.5,4.18-6.06,9.01-7.83,18.52-11.1,6.16-2.13,16.1-5.43,28.74-4.37h0c2.18.19,4.43.49,6.76.96,4.31.87,8.26,2.15,11.89,3.71,8.82,3.82,15.82,9.28,21.74,14.48h0c1.47,1.31,2.87,2.59,4.22,3.82,14.06,12.89,26.5,24.29,31.42,46.73,3.24,14.77,2.05,29.01,1.3,37.97Z"/>
      <path class="cls-3" d="m413.91,856.38c11.49,21.56,25.01,24.28,21.3,60.34-1.38,13.38,7.77,37.71,14.23,53.52-4.56,2.07-9.42,4.32-14.42,6.61-1.9.43-3.55,1.16-4.78,2.15,0,0,0,0,0,0-9.67,4.37-19.6,8.62-28.57,11.59-.12.39-.24.79-.37,1.21.73.51,1.45,1.11,2.14,1.77,9.2,8.81,11.99,24.43,10.13,40.45,6.53-8.97,11.57-19.45,14.22-16.52.21.23.41.54.59.94,3.66,8.2-4.73,36.23-25.86,49.49-3.17,1.99-6.64,3.66-10.38,4.86-.25.08-.5.17-.74.24-10.55,7.87-21.15,14.87-26.8,17.58-.52.25-1.4.37-2.55.39-5.55,3.79-15.42,4.88-53.87,1.27-.54-.06-1.08-.11-1.62-.18-10.35-1.12-19.04-3.52-26.26-6.84-.98.28-1.96.57-2.96.84-.42-.52-.84-1.05-1.26-1.57-7.42-.49-14.33-1.12-20.85-1.84h0c-58.72-6.53-87.05-21.28-184.18-24.43-28.5-15.54-48.84-41.45-61.03-71.8h0c-12.57-31.28-16.49-67.27-11.76-101.49,6.74-48.7,31.01-93.8,72.8-116.6,110.91-1.8,137.02,7.94,215.7,9.51,6.24-4.97,11.63-8.42,13.87-7.2,1.85,1.02,1.4,3.88.1,7.39,10.67.07,22.28,0,35.12-.25h0c4.56-1.76,9.23-2.94,13.89-3.08,10.83-.34,54.31,35.52,61.34,41.69,7.85,6.9,40.87,36.08,38.44,38.02-11.75,9.45-31.48-16.66-42.29-7.86-4.35,3.56,3.8,4.39,6.66,9.78Z"/>
    </g>
    <g>
      <path class="cls-1" d="m228.88,1001.08c0,4.33-.12,8.61-.34,12.85-.09,1.65-.2,3.29-.32,4.92v.02c-.83,11.23-2.44,22.1-4.74,32.5-.21.95-.42,1.88-.64,2.82-.1.44-.2.87-.31,1.3,0,.01-.01.02-.01.03s-.01.03-.01.04c-.09.37-.17.73-.26,1.09-.13.52-.26,1.05-.4,1.56-.24.96-.49,1.92-.75,2.86-.07.27-.13.54-.22.8-1.39,5.08-2.96,10.04-4.69,14.84-1.46,4.08-3.04,8.04-4.74,11.89h0c-5.59,12.79-12.4,24.29-20.13,34.15H53.81c-3.76-4.8-7.31-9.99-10.59-15.51-2.09-3.49-4.05-7.1-5.92-10.85-2-4.02-3.88-8.18-5.62-12.48-2.76-6.81-5.19-13.94-7.25-21.36-.08-.22-.13-.45-.19-.68-.35-1.21-.67-2.43-.97-3.66-.23-.84-.44-1.69-.64-2.55-.35-1.43-.69-2.87-1.01-4.34-3.5-15.8-5.39-32.7-5.39-50.25,0-.31,0-.61.01-.92h0c0-3.17.08-6.3.22-9.41,0-.23.01-.46.02-.68.46-10.15,1.55-20.04,3.22-29.57.36-2.05.74-4.09,1.16-6.11.28-1.42.59-2.84.9-4.24.21-.9.42-1.79.62-2.68.76-3.21,1.59-6.37,2.5-9.48,3.11-10.89,7.04-21.16,11.63-30.64,11.5-23.74,27.27-42.52,45.61-53.84.28-.17.56-.35.84-.51,2.59-1.55,5.22-2.96,7.9-4.22,1.97-.92,3.95-1.76,5.98-2.5.27-.11.54-.21.82-.31h.01c.39-.14.78-.28,1.17-.42.42-.14.83-.27,1.25-.4,5.27-1.7,10.66-2.82,16.18-3.3h.01c.86-.08,1.73-.13,2.59-.17,1.22-.07,2.45-.1,3.68-.1,4.94,0,9.77.5,14.52,1.49h.02c4.36.88,8.64,2.18,12.81,3.85.33.13.66.26.97.4.5.2.99.4,1.47.62.63.27,1.26.55,1.88.84,2.97,1.39,5.89,2.97,8.74,4.73.25.15.51.32.76.47,1.05.67,2.1,1.35,3.12,2.08,3.36,2.32,6.64,4.88,9.81,7.7,6.82,6.05,13.13,13.21,18.86,21.31h0c2.27,3.23,4.45,6.6,6.52,10.11h.01c2.71,4.59,5.24,9.4,7.58,14.41,2.8,5.95,5.31,12.16,7.55,18.67v.03c.03.12.07.23.11.35h.01c.84,2.49,1.64,5,2.38,7.56h.01c.64,2.17,1.27,4.37,1.85,6.59h0c.28,1.09.56,2.17.83,3.28.33,1.35.64,2.71.96,4.09.21.93.4,1.86.6,2.8.52,2.49,1.02,5,1.45,7.55,1.72,9.77,2.82,19.89,3.24,30.29.15,3.4.23,6.83.23,10.28Z"/>
      <path class="cls-9" d="m176.68,855.49c.01,2.76.01,5.52,0,8.27-.01,4.83-.05,9.64-.13,14.42-.01.81-.02,1.61-.03,2.41h0c-.03,1.99-.07,3.94-.11,5.92h0c-.03,1.46-.07,2.91-.1,4.35-.04,2.22-.11,4.42-.16,6.63-.01.39-.02.79-.03,1.18-.07,2.24-.14,4.46-.22,6.69-.03,1.11-.07,2.24-.11,3.34-.03.86-.07,1.73-.1,2.59-.27,7.33-.59,14.62-.95,21.87-.01.32-.02.63-.04.95-.19,4.06-.4,8.13-.62,12.18-.04.72-.08,1.43-.12,2.15v.02c-.03.56-.07,1.13-.1,1.68-.05,1.02-.11,2.03-.16,3.04-.14,2.45-.28,4.87-.43,7.31-.05.93-.11,1.87-.16,2.8-.03.55-.07,1.09-.11,1.64-.24,4.12-.49,8.25-.74,12.38-.03.45-.05.88-.09,1.33-.07.93-.12,1.85-.19,2.8v.05s.01.01.01.01c0,0-.01,0-.01.01-.07,1.07-.14,2.15-.21,3.22-.36,5.63-.72,11.26-1.09,16.9-.21,3.27-.42,6.53-.63,9.8h0c-.14,2.22-.28,4.4-.43,6.6h0c-.44,6.88-.87,13.73-1.29,20.63-.16,2.75-.33,5.52-.48,8.28v.02c-.15,2.49-.29,4.99-.44,7.49-.07,1.25-.14,2.49-.21,3.75-.05,1.05-.11,2.1-.16,3.15-.01.17-.02.34-.02.51-.1,1.8-.2,3.61-.28,5.42-.03.57-.05,1.15-.09,1.73v.04h0c-.03.54-.07,1.07-.08,1.61-.07,1.25-.13,2.5-.19,3.77-.23,4.78-.44,9.58-.64,14.4-.35,8.82-.64,17.71-.84,26.69-.07,2.39-.12,4.8-.16,7.22H-4.32v-325.3c12.5,1.04,24.6,2.1,37.26,3.07h.01c9.83.74,20,1.43,30.94,2,.52.02,1.04.05,1.56.08,1.8.09,3.62.17,5.46.26.43.02.85.03,1.28.05,8.32.36,17.12.66,26.57.84,2.31.05,4.64.1,7.02.13h.01c1.55.02,3.12.04,4.71.05h.01c1.53.02,3.08.03,4.64.04,3.65.02,7.4.03,11.24.03,2.14,0,4.32-.01,6.52-.02h.01c7.43-.04,15.22-.15,23.44-.31h.01c3.23-.07,6.54-.14,9.92-.23.61-.02,1.21-.03,1.84-.04.01.01.01,0,.01,0,2.32-.07,4.66-.13,7.05-.2.04.73.08,1.47.11,2.21.12,2.15.22,4.29.32,6.42,0,.15.01.31.01.46.19,4.16.35,8.3.48,12.42.04,1.4.09,2.8.12,4.18.17,6.15.29,12.25.36,18.3.01.52.02,1.05.01,1.57.02,1.03.03,2.05.03,3.07.01.56.01,1.11.01,1.66,0,.21.01.42,0,.61.01.46.01.92.01,1.37Z"/>
      <path class="cls-10" d="m237.41,982.42c-.19,2.98-.51,6.01-.99,9.02,0,.01,0,.02-.01.04t0,.03h0c-.07.44-.13.86-.22,1.29h0c-.87,5.27-2.17,10.48-3.85,15.54v.02c-.87,2.65-1.85,5.27-2.93,7.79-.38.91-.78,1.79-1.18,2.68h-.01v.03c-.97,2.12-2.02,4.16-3.14,6.14-2.27,4.07-4.7,12.42-8.63,23.19t-.01.02s-.01.03-.01.04c-.47,1.25-.94,2.51-1.44,3.82-.26.7-.54,1.41-.82,2.13-.5,1.28-1.03,2.58-1.57,3.9-.01.03-.02.07-.04.1-.39.96-.8,1.92-1.22,2.91-.1.25-.21.5-.32.75-1.76,4.06-3.74,8.31-6,12.68-4.75,9.24-10.74,19.02-18.41,28.71h-.01c-5.21,6.61-11.21,13.16-18.12,19.48H-4.32v-192.21c.45.11.91.22,1.37.33,8.13,2.01,16.46,4.13,24.67,6.29,1.06.27,2.11.56,3.16.84h.01c11.39,3.04,22.46,6.15,32.32,9.14.58.19,1.16.36,1.73.54.36.11.73.23,1.09.35,2.32.72,4.57,1.43,6.72,2.13,1.26.4,2.48.82,3.67,1.21h.01c.34.12.68.24,1.02.34,2.14.73,4.17,1.45,6.07,2.16,2.73,1.01,5.2,1.97,7.35,2.9h.01c.21.09.4.19.6.26.87.38,1.68.75,2.44,1.11h.01c.13.07.25.13.38.19.67.32,1.28.63,1.85.95.59.32,1.17.62,1.76.92.21.11.43.21.63.31,4.69,2.31,9.34,3.9,13.94,4.89h.01c2.09.44,4.15.75,6.21.96h.01c.5.07.98.11,1.47.14,2.64.21,5.23.23,7.82.1,8.13-.4,16.04-2.33,23.67-5.07.02,0,.04-.01.07-.02.92-.32,1.81-.64,2.72-1.01.28-.11.58-.22.86-.34.02-.01.05-.01.08-.02,5.21-2.05,10.29-4.44,15.22-6.89,2.04-1.02,4.05-2.05,6.04-3.09,1.09-.57,2.18-1.14,3.27-1.7h.01c1.4-.73,2.79-1.46,4.15-2.17,1.05-.56,2.09-1.09,3.12-1.63h.01c1.63-.84,3.23-1.67,4.83-2.45,3.21-1.58,6.33-3.03,9.33-4.22,1.27-.51,2.52-.97,3.76-1.39.4-.14.82-.28,1.23-.39,4.14-1.3,8.03-2.01,11.7-1.85.88.04,1.76.13,2.61.27.69.11,1.37.26,2.02.46,1.02.27,2.01.64,2.98,1.11h.01c1.67.78,3.26,1.82,4.76,3.18h.01c.2.19.4.37.6.56.85.82,1.65,1.68,2.4,2.59.92,1.1,1.77,2.27,2.56,3.51.84,1.3,1.59,2.68,2.29,4.12.43.9.83,1.82,1.2,2.76.96,2.39,1.74,4.94,2.34,7.58,1.57,6.76,2.03,14.25,1.53,21.92Z"/>
      <path class="cls-4" d="m247.6,1104.38c-.71,6.16-2.01,12.38-3.82,18.36H-4.32v-77.83c8.36,2,17.14,4.16,25.94,6.41h.01c3.15.8,6.29,1.62,9.43,2.44,2.21.59,4.39,1.17,6.57,1.75,1.8.48,3.61.97,5.39,1.45,1.51.42,3.02.83,4.51,1.25,1.41.38,2.81.78,4.2,1.17,2.95.83,5.83,1.66,8.65,2.49.34.1.69.2,1.03.31,1.91.56,3.79,1.13,5.63,1.68.33.09.66.2.98.31h.01c7.33,2.23,13.94,4.4,19.53,6.43h.01c2.02.73,3.88,1.45,5.6,2.14,3.06,1.25,5.63,2.41,7.61,3.48,10.18,5.52,20.19,7.57,29.9,7.4h.02c2.47-.04,4.89-.24,7.32-.56h.01c7.8-1.02,15.39-3.32,22.72-6.26h.01c1.89-.74,3.75-1.55,5.6-2.37,3.74-1.66,7.37-3.45,10.95-5.28h.01c4.83-2.45,9.5-4.96,14.01-7.29.44-.22.86-.45,1.29-.66.51-.27,1.03-.52,1.53-.79h.01c.12-.07.23-.13.35-.17,0-.01.01-.01.01-.01,1.4-.7,2.77-1.39,4.13-2.03,1.19-.58,2.36-1.13,3.52-1.64.9-.4,1.77-.79,2.62-1.13h.01s.01-.01.01-.01c1.02-.43,2.02-.83,3.02-1.19,2.46-.92,4.84-1.65,7.16-2.16.24-.07.48-.11.73-.14,2.7-.56,5.29-.78,7.76-.58.17.01.36.02.54.05,2.77.27,5.41,1.09,7.88,2.57.09.05.17.1.26.15.36.21.71.44,1.05.69.86.6,1.7,1.3,2.51,2.08.45.43.87.86,1.28,1.31.83.88,1.6,1.81,2.32,2.79.22.28.43.58.62.87,3.81,5.5,6.23,12.33,7.42,19.86,1.13,7.11,1.16,14.84.25,22.65Z"/>
      <path class="cls-7" d="m248.01,895.88c.71,1.33,1.43,2.6,2.14,3.82.79,1.31,1.56,2.57,2.35,3.77.29.46.59.92.9,1.37,2.46,3.69,4.91,6.93,7.19,10.06.17.22.33.44.49.67.5.68.99,1.37,1.46,2.04,4.65,6.59,8.47,13.19,10.19,23.17v.1s.01.01.01.01h0v.02c.07.36.13.73.2,1.09.11.7.2,1.41.28,2.14.04.28.07.58.1.87.03.28.05.58.09.87.12,1.35.21,2.77.26,4.26.03.85.05,1.73.05,2.63.02,1.03.01,2.06-.02,3.16h0c-.03,1.46-.09,2.98-.19,4.56-.12,1.97-.29,4.03-.51,6.19-.01.1-.02.2-.02.29-.66,6.98,1.08,16.44,3.87,26.42.02.05.03.11.05.17.02.08.04.15.07.23.02.05.03.12.05.17,0,.01.01.03.01.04.28.99.57,1.98.86,2.98.04.14.08.27.13.42.16.56.34,1.13.51,1.68.04.12.08.25.12.37.13.42.26.83.39,1.23l.39,1.25c.25.78.5,1.55.76,2.33.26.81.55,1.61.82,2.41,2.58,7.51,5.43,14.81,7.99,21.11.23.58.46,1.15.69,1.7-2.85,1.29-5.8,2.64-8.83,4.04-1.01.46-2.02.93-3.05,1.4-1.67.76-3.35,1.54-5.05,2.32-2.23.5-4.16,1.37-5.6,2.52,0,0,0,.01-.01.01-5.25,2.36-10.56,4.71-15.8,6.88-.79.33-1.57.66-2.36.98-.55.22-1.08.44-1.62.66-1.33.54-2.65,1.05-3.97,1.56-3.34,1.28-6.62,2.47-9.79,3.52-.08.24-.14.48-.23.72-.07.23-.13.46-.21.7.86.6,1.7,1.3,2.51,2.08.45.43.87.86,1.28,1.31.83.88,1.6,1.81,2.32,2.79.22.28.43.58.62.87,3.81,5.5,6.23,12.33,7.42,19.86,1.13,7.11,1.16,14.84.25,22.65,7.67-10.53,13.58-22.83,16.69-19.39-2.69,12.27-6.17,24.11-7.25,30.59.55,1.41-.86,3.94-3.63,7.17H58.96c-2.49-4.96-4.72-10.03-6.61-15.26-3.07-8.42-5.25-17.23-6.33-26.55-.54-4.61-1.28-11.24-2.26-18.59-.02-.15-.04-.31-.07-.47-.16-1.2-.33-2.43-.51-3.66-.05-.42-.11-.83-.17-1.25-.08-.5-.14-1.01-.23-1.51-1.15-7.7-2.56-15.74-4.26-22.84h0c-1.55-6.4-3.32-12.03-5.39-15.95-.92-1.76-1.9-3.59-2.88-5.4-3.58-6.6-7.25-12.91-8.7-15.03-1.02-1.5-2.22-2.99-3.53-4.47-.49-.56-1.01-1.13-1.53-1.68h-.01c-2.72-2.91-5.7-5.74-8.36-8.53h-.01c-4.52-4.76-8.11-9.41-7.83-14.08.14-2.44.83-4.13,1.88-5.4.49-.61,1.09-1.13,1.74-1.57,3.16-2.17,7.7-2.8,10.97-6.04.62-.62,1.19-1.33,1.7-2.17.43-.7.82-1.41,1.19-2.13.45-.86.85-1.75,1.21-2.64,1.35-3.27,2.23-6.74,2.74-10.36,1.73-12.28-.81-26.15-3.33-39.19-1.62-8.38-3.23-16.41-3.71-23.44-.58-8.52,3.97-15.33,10.77-21.01.54-.46,1.08-.91,1.65-1.33,1.52-1.18,3.14-2.31,4.82-3.4,1.8-1.16,3.68-2.28,5.6-3.34,3.54-1.99,7.21-3.81,10.8-5.54,7.53-3.63,14.71-6.8,19.52-9.92,1.08-.7,2.43-1.72,3.97-2.97,1.6-1.3,3.42-2.85,5.38-4.58.79-.68,1.59-1.39,2.43-2.13.31-.26.61-.54.93-.81,5.76-5.11,12.31-11.01,18.23-15.74,1.57-1.26,3.11-2.44,4.57-3.48,1.01-.73,1.98-1.4,2.91-2,3.97-2.58,7.13-3.88,8.81-2.96,2.17,1.2,1.64,4.56.12,8.67-.43,1.16-.93,2.38-1.46,3.64-.5,1.17-1.04,2.37-1.57,3.57-3.15,7.05-6.28,14.13-2.92,16.07,3.3,1.92,9.8-1.98,18.18-7.37.44-.28.88-.57,1.34-.86,3.81-2.46,7.99-5.18,12.39-7.77h.01c.72-.43,1.44-.84,2.17-1.26,4.2-2.37,8.59-4.59,13.08-6.31h.01c3.29-1.27,6.63-2.28,9.99-2.92,1.64-.31,3.29-.51,4.93-.63h.04s.08-.01.12-.01c.42-.02.82-.04,1.22-.05,1.54-.04,3.64.52,6.15,1.59.61.25,1.25.55,1.91.86h.01c1.82.86,3.83,1.94,5.98,3.19,1.37.79,2.8,1.65,4.26,2.57,1.89,1.19,3.85,2.46,5.84,3.81,6.83,4.59,14.18,9.99,21.05,15.25,1.04.8,2.06,1.6,3.08,2.37.62.49,1.23.97,1.85,1.44,9.03,7.06,16.73,13.43,20.5,16.65.24.21.46.4.67.58.16.14.31.27.45.39.09.08.17.15.25.22,1.23,1.08,2.99,2.63,5.11,4.51.46.42.94.83,1.43,1.28,4.02,3.57,9.07,8.1,14.17,12.79.27.25.55.49.82.74,1.87,1.73,3.74,3.45,5.55,5.17.6.56,1.2,1.13,1.78,1.67,1.4,1.33,2.75,2.63,4.05,3.9.73.71,1.45,1.41,2.14,2.09.24.24.47.48.71.71.83.83,1.63,1.64,2.37,2.4,1.94,2,3.58,3.78,4.81,5.24,1.82,2.21,2.7,3.69,2.17,4.11-1.59,1.28-3.31,2.01-5.12,2.29-1.14.19-2.31.21-3.52.08-.67-.05-1.33-.16-2.02-.32-.44-.09-.87-.2-1.32-.33-.56-.14-1.11-.32-1.68-.52-2.77-.95-5.66-2.36-8.55-3.9-.45-.24-.9-.48-1.34-.72-3.03-1.64-6.05-3.36-8.99-4.79h-.01s-.08-.03-.11-.04c-6.4-3.08-12.37-4.71-16.96-.97-5.1,4.17,4.46,5.16,7.82,11.48Z"/>
      <path class="cls-1" d="m115.94,1112.67c3.53,2.62,10.55,7.85,19.4,10.07h-33.93c-7.79-7.39-13.04-16.85-18.91-27.61-6.35-11.62-11.51-21.09-15.47-31.28-.23-.57-.45-1.16-.66-1.74-.04-.08-.07-.16-.1-.25-.45-1.2-.87-2.43-1.29-3.66-.32-.97-.63-1.94-.94-2.95-.14-.46-.28-.93-.43-1.41-.68-2.35-1.31-4.76-1.88-7.3,0-.01-.01-.02-.01-.03h0s0-.02-.01-.03c-.36-1.61-.7-3.26-1.02-4.96-3.77-20.17-3.57-15.22-2.83-29.45.02-.28.03-.57.05-.86.36-7.24.84-19.17,1.05-40.77.02-2.03.05-3.99.1-5.87.03-1.4.08-2.75.13-4.07.09-2.28.2-4.45.33-6.49.09-1.34.19-2.62.28-3.86.07-.73.13-1.44.21-2.13.03-.31.05-.61.1-.91.78-7.32,1.96-12.66,3.53-16.39,1.05-2.49,2.26-4.27,3.66-5.43,1.62-1.34,3.98-8.86,6.37-16.16,2.94-8.94,5.92-17.55,7.68-14.04.19.36.35.72.5,1.09,1.2,2.82,1.62,5.75,1.46,8.87-.48,10.35-7.1,22.98-11.88,41.95-.25,1.03-.5,2.06-.75,3.14-.09.4-.19.81-.27,1.21-.19.84-.37,1.69-.55,2.56-.44,2.12-.84,4.3-1.21,6.58-.42,2.58-.79,5.25-1.09,8.04-.37,3.44-.66,7.05-.82,10.82-.44,10.21,1.78,21.5,4.78,33.07.15.63.33,1.27.49,1.91h.01c3.21,12.15,7.18,24.55,9.72,36.31.33,1.51.67,2.99,1.04,4.44.25,1.06.52,2.1.8,3.12.05.19.1.37.15.55.28,1.06.59,2.1.9,3.11,0,.03.01.07.02.09.91,3.04,1.88,5.91,2.88,8.64h.01c10.58,28.31,26.19,40.43,28.37,42.07Z"/>
      <path class="cls-1" d="m218.16,972.6v.04c.03,4.59-.13,8.9-.36,12.8-.05.86-.11,1.7-.16,2.51-.17,2.58-.37,4.95-.55,7.07-1.44,17.39-4.48,29.84-7.93,43.79-1.11,4.5-2.41,9.7-4.01,15.44-.11.39-.22.79-.33,1.18h-.01c-.17.64-.36,1.29-.56,1.94-.08.27-.15.55-.24.83-.27.97-.57,1.96-.86,2.95-.08.24-.14.47-.22.71-1.13,3.68-2.36,7.54-3.76,11.51-3.27,9.4-7.35,19.51-12.56,29.88h-.01c-.05.12-.11.24-.16.35-3.85,7.61-7.05,13.94-10.13,19.13h-24.97c3.98-1.06,8.08-3.02,12.25-6.18.44-.34.87-.69,1.31-1.04,12.23-10.07,19.46-26.79,25.47-43.87,1.15-3.26,2.25-6.53,3.33-9.78.03-.1.07-.2.1-.31,0-.01.01-.01.01-.02.03-.11.08-.22.11-.34.09-.26.17-.51.26-.78.07-.2.13-.4.2-.6.17-.52.35-1.06.54-1.62.42-1.25.85-2.56,1.3-3.91.24-.74.48-1.5.73-2.27,5.45-16.87,12.24-40.64,12.67-66.06.08-3.76,0-7.55-.23-11.36-.29-4.69-.83-9.4-1.65-14.1-.2-1.1-.4-2.21-.63-3.31-.15-.73-.31-1.45-.47-2.16-.01,0-.01-.01-.01-.01-.14-.67-.29-1.33-.46-1.98-.24-.98-.49-1.94-.75-2.88-.37-1.38-.78-2.71-1.19-4.01-1.15-3.58-2.44-6.88-3.82-9.94-.83-1.82-1.69-3.56-2.6-5.21h0c-4.1-7.58-8.82-13.39-13.39-18.02,0-.01-.01-.01-.01-.01,0-.01-.01-.01-.01-.01-2.94-2.98-5.84-5.46-8.48-7.59-1.27-1.03-2.46-1.97-3.58-2.84-.22-.16-.63-.49-1.23-.95h-.01c-3.59-2.64-13.7-9.57-25.74-13.59h-.01c-14.87-4.97-32.69-5.48-44.81,12.04-.83,1.19-1.64,2.48-2.41,3.86-2.51,4.46-4.46,9.37-5.93,14.57-2.58,9.02-3.77,18.87-4.14,28.44-.04,1.09-.07,2.18-.09,3.27-.03,1.21-.04,2.43-.04,3.63v.82c0,1.19.02,2.38.04,3.55.01.79.03,1.57.05,2.35.01.32.02.63.03.96v.04c.47,13.08,2.02,24.4,2.87,30.64.32,2.26.96,6.7,2.05,12.36,1.1,5.66,2.65,12.55,4.77,19.72,3.15,10.62,7.55,21.86,13.59,30.62.8,1.17,1.63,2.29,2.49,3.36.74.92,1.5,1.8,2.29,2.64.26.28.54.57.81.85.05.05.12.12.17.16,3.31,3.32,7,5.89,11.13,7.37,1.57.57,5.16,1.79,9.89,1.59,4.34-.17,9.62-1.53,15.2-5.68h.01c.49-.36.99-.74,1.49-1.16.82-.68,1.61-1.39,2.37-2.13.15-.14.31-.29.46-.46,1.03-1.02,1.99-2.09,2.91-3.2,1.01-1.2,1.94-2.45,2.81-3.73,1.7-2.45,3.2-4.99,4.51-7.52v-.02c2.25-4.35,3.97-8.63,5.24-12.23.85-2.39,1.52-4.48,2.02-6.09.95-3.05,4.33-13.85,5.99-27.72h0c.45-3.76.78-7.71.88-11.82.1-3.17.07-6.41-.13-9.69-.24-4.17-.74-8.4-1.59-12.6-.12-.66-.26-1.31-.42-1.97-.33-1.45-.7-2.91-1.11-4.35-.57-1.94-1.21-3.88-1.94-5.78-.2-.52-.4-1.04-.62-1.54-.43-1.04-.87-2.04-1.34-3.03-.27-.58-.56-1.15-.86-1.7-.37-.73-.75-1.44-1.16-2.14-3.94-6.86-8.93-12.1-14.43-15.16h-.02c-5.86-3.24-12.29-4.03-18.74-1.67-3.03,1.1-11.85,5.03-19.1,17.16-.67,1.1-1.31,2.27-1.93,3.52-.56,1.08-1.09,2.22-1.59,3.41-.37.83-.72,1.68-1.06,2.58h0v.04c-.13.32-.25.63-.37.95-.23.63-.66,1.79-1.16,3.36-.51,1.56-1.1,3.55-1.67,5.86h-.01c-1.62,6.52-3.12,15.67-2.31,25.5.21,2.45.56,4.92,1.08,7.41h0c.14.68.29,1.34.46,2.01.68,2.7,1.49,5.09,2.39,7.21,6.04,14.1,16.27,16.39,17.47,16.63.37.08,2.53.44,5.57-.02,4.8-.74,11.78-3.56,17.28-12.94,1.09-1.87,3.69-6.27,5.15-12.09.55-2.2.94-4.6,1.02-7.14.01-.81.01-1.63-.03-2.47-.24-4.83-1.65-9.38-3.31-12.31-1.38-2.39-2.92-3.68-4.15-3.11-.21.1-.4.24-.57.44-1.26,1.35-1.66,4.89-2.35,8.14-.54,2.46-1.23,4.75-2.61,5.79-3.71,2.81-10.84-4.61-11.76-12.68-.13-1.03-.15-2.06-.04-3.09.63-6.19,5.45-10.05,9.69-12.08.02,0,.04-.01.07-.02.86-.42,1.7-.75,2.48-1.01.39-.13.75-.25,1.1-.34.02-.01.05-.01.08-.02.27-.08.54-.13.78-.19,2.62-.56,5-.24,7.1.55,2.03.75,3.78,1.93,5.22,3.19h.01c.84.72,1.57,1.47,2.17,2.16h.01c1.22,1.38,1.99,2.53,2.21,2.87.21.33,2.08,3.33,3.76,8.26.11.35.23.7.34,1.07h.01c.33,1.05.66,2.18.95,3.39h0s.01.04.01.07c.28,1.16.54,2.38.75,3.66.68,4.03.97,8.65.44,13.69-.11,1.01-.24,1.99-.4,2.94-.58,3.52-1.53,6.72-2.73,9.65h0c-2.04,5-4.83,9.22-7.88,12.94-3,3.69-6.27,6.88-9.31,9.85-6.06,5.93-12.53,12.27-20.86,12.9-.66.05-1.32.07-2,.04-11.02-.39-22.33-10.82-26.81-27.03-.44-1.57-.81-3.2-1.1-4.87-.64-3.62-.69-7.95-.24-13.69.57-7.35,1.93-17.02,3.83-30.45.28-2.02.56-3.93.82-5.75.24-1.72.48-3.34.71-4.89.37-2.48.72-4.76,1.08-6.88.2-1.2.4-2.36.61-3.46.22-1.2.44-2.35.67-3.44.95-4.54,2.02-8.34,3.44-12,5.01-12.92,11.55-20.66,15.86-24.76,1.72-1.63,3.08-2.69,3.86-3.27,4.04-2.97,10.5-7.75,17.93-5.94,1.57.38,3.04,1.02,5.1,3.17.43.44.87.93,1.34,1.51h.01c3.4,4.04,8.38,11.76,17.13,26.88.16.29.34.58.49.86.27.46.54.92.79,1.35,2.28,3.95,4.15,7.29,5.71,10.13.29.56.59,1.09.86,1.61.79,1.43,1.46,2.73,2.08,3.9.56,1.09,1.05,2.08,1.49,2.97,1.67,3.46,2.48,5.64,2.95,7.37.26.96.42,1.79.56,2.63.15.93.28,1.85.38,2.77.49,4.16.49,8.37.11,13.19-.05.68-.11,1.37-.17,2.06-.32,3.18-.78,6.62-1.37,10.49-.14,1.03-.31,2.06-.48,3.15h0c-.59,3.75-1.29,7.87-2.06,12.48-1.21,7.18-2.25,13.33-3.27,18.76-2.2,11.73-4.32,20.12-7.92,28.39-.51,1.21-1.07,2.43-1.67,3.64-.02.05-.05.1-.08.15-.42.85-.94,1.92-1.57,3.12-.09.17-.17.35-.27.54-.86,1.66-1.91,3.56-3.15,5.57-.32.52-.66,1.06-1.01,1.6-.47.73-.97,1.47-1.49,2.23-.01,0-.01.01-.02.01-1.3,1.87-2.76,3.75-4.36,5.53h-.01c-3.4,3.79-7.44,7.11-12.1,8.91-1.23.47-2.43.82-3.61,1.03-4.93.91-9.41-.42-14.34-3.12h-.02c-3.57-1.96-7.36-4.64-11.74-7.73-6.17-4.35-11.86-8.35-16.93-14.02-.02-.01-.04-.03-.04-.05-.63-.69-1.25-1.42-1.86-2.16-.37-.47-.74-.95-1.11-1.44-.76-1.02-1.52-2.1-2.25-3.23-2.04-3.14-3.95-6.74-5.72-10.98-2.24-5.36-3.89-10.85-5.11-16.26-1.49-6.61-2.34-13.1-2.86-19.1-.55-6.49-.7-12.39-.82-17.21-.11-4.26-.02-5.74,2.31-30.94.09-.91.17-1.86.26-2.84.03-.29.05-.59.09-.9.09-.95.17-1.94.27-2.96.11-1.17.22-2.38.34-3.65.1-1.05.2-2.14.31-3.26.2-2.2.4-4.5.63-6.95,1.73-18.83,2.73-29.9,3.99-37.31,1.1-6.52,2.38-10.2,4.53-13.83,4.24-7.18,9.06-9.32,18.53-13.31,7.2-3.03,19.58-8.04,35.24-4.52,2.06.46,4.04,1.04,5.93,1.72h.01c4.09,1.45,7.8,3.36,11.2,5.54,3.89,2.5,7.37,5.34,10.54,8.28h0c3.51,3.26,6.63,6.61,9.49,9.71,4.68,5.07,9.17,9.93,13.23,15.17,0,0,.01,0,.01.01,1.31,1.68,2.57,3.41,3.78,5.19,2.85,4.2,5.43,8.71,7.59,13.81h0c.56,1.29,1.08,2.59,1.57,3.94,1.32,3.61,2.47,7.49,3.39,11.74.29,1.31.56,2.67.81,4.05.02.12.04.25.07.38.05.31.11.6.15.91.01.01.01.03.01.04v.07c.09.48.16.96.22,1.43.39,2.53.69,5.05.9,7.52.37,4.17.52,8.24.54,12.1Z"/>
      <path class="cls-5" d="m255.49,1122.75H47.84c-1.65-5.27-3.19-10.46-4.62-15.51v-.02c-2.13-7.48-4.01-14.68-5.63-21.36-1.79-7.37-3.27-14.13-4.41-19.96-.23-1.19-.46-2.34-.66-3.44-.04-.2-.08-.39-.11-.58-.24-1.28-.45-2.5-.66-3.66-.15-.92-.29-1.8-.43-2.64-.1-.62-.19-1.22-.27-1.8-.33-2.32-.57-4.26-.69-5.82-.85-10.54-.8-18.83-.56-25.88.12-3.93.32-7.47.44-10.79.08-2.02.12-3.97.12-5.86,0-1.61-.33-3.87-.81-6.57-1.91-10.66-6.24-28.1-2.33-38.35,1.01-2.62,2.53-4.76,4.79-6.22,2.23-1.44,5.17-2.2,8.98-2.03,3.08.13,5.57.83,7.64,1.87,3.18,1.59,5.39,3.99,7.27,6.38.71.88,1.35,1.76,2,2.6.38.5.76,1.01,1.17,1.47h.01c2.24,2.72,4.61,4.61,8.49,3.97.21-.03.4-.08.62-.12,3.2-.72,7.41-3.07,13.32-7.92.45-.37.92-.75,1.39-1.16.66-.56,1.29-1.11,1.89-1.68.24-.2.46-.42.69-.63.86-.82,1.66-1.62,2.4-2.43.27-.27.52-.56.76-.83.04-.04.08-.08.11-.12,1.06-1.18,2-2.35,2.83-3.5.09-.11.16-.21.24-.32.73-1.02,1.4-2.01,2-3,6.86-11.09,6.82-20.72,20.98-30.02,4.15-2.73,8.94-5.05,14.07-6.85,7.02-2.48,14.72-4.03,22.32-4.46h.01c1.99-.09,3.95-.13,5.9-.08h.01c5.2.11,10.28.8,15,2.11,1.25.35,2.47.73,3.67,1.17,3.08,1.11,5.96,2.52,8.59,4.25,0,0,.01,0,.01.01,0,0,.01,0,.01.01,1.75,1.13,3.34,2.4,4.83,3.83,4.16,4,6.89,8.78,8.57,14.17h0c.58,1.81,1.03,3.69,1.37,5.62.46,2.61.73,5.33.84,8.14v.02c.02.47.03.94.05,1.41.02,1.31.01,2.64-.02,3.99-.02.96-.07,1.93-.12,2.91-.13,2.44-.35,4.92-.62,7.44-.09.73-.17,1.46-.26,2.2-.24,1.86-.51,3.73-.81,5.6-.72,4.71-1.61,9.5-2.53,14.3-.7,3.67-1.43,7.35-2.14,11v.02c-1.35,7.07-2.6,14.02-3.35,20.66v.02c-1.22,10.65-1.18,20.5,1.65,28.6,1.18,3.36,2.84,6.43,5.1,9.12.31.39.64.76.99,1.13.36.39.73.76,1.11,1.14.26.25.54.5.81.74.69.6,1.47,1.13,2.33,1.54.64.32,1.34.59,2.08.81,2.36.71,5.17.94,8.35.73.66-.02,1.31-.08,1.99-.15,2.35-.23,4.86-.67,7.52-1.28.04-.01.09-.02.14-.03,2.9-.66,5.95-1.51,9.14-2.51.16-.04.34-.1.5-.15.58-.19,1.17-.38,1.75-.58-.08.24-.14.48-.23.72-.07.23-.13.46-.21.7.86.6,1.7,1.3,2.51,2.08.45.43.87.86,1.28,1.31.83.88,1.6,1.81,2.32,2.79.22.28.43.58.62.87,3.81,5.5,6.23,12.33,7.42,19.86,1.13,7.11,1.16,14.84.25,22.65,7.67-10.53,13.58-22.83,16.69-19.39.25.27.48.63.69,1.1,2.76,6.19-.33,22.01-9.49,36.65Z"/>
      <path class="cls-11" d="m255.49,1122.75H55.09c-1.47-5.13-2.34-10.29-2.74-15.26,0-.04-.02-.08-.02-.13-1.59-19.97,0-31.89,0-42.52,0-.73-.07-1.59-.19-2.57-.01-.13-.02-.26-.04-.39-.1-.76-.23-1.59-.38-2.49-.07-.38-.13-.76-.2-1.17-.16-.9-.34-1.85-.54-2.83-.73-3.83-1.63-8.25-2.31-12.79h0c-1.98-13.16-2.17-27.25,8.51-30.34.21-.05.45-.11.68-.17.73-.16,1.51-.29,2.35-.36h.02c.85-.08,1.77-.1,2.73-.05,1.97.09,3.67.42,5.19.91t.02.01h.05c1.42.45,2.67,1.05,3.79,1.76h.01c.59.37,1.14.78,1.66,1.19,0,0,0,.01.01.01,5.28,4.28,7.42,10.7,12.19,12.2h.01c1.18.38,2.51.45,4.12.11,2.06-.44,4.56-1.56,7.68-3.63,1.45-.97,3.05-2.14,4.8-3.55.23-.17.45-.35.68-.52.54-.45,1.09-.93,1.67-1.41,1.56-1.32,2.96-2.62,4.2-3.91,2.13-2.17,3.85-4.27,5.28-6.35,2.36-3.38,3.97-6.61,5.41-9.76.12-.26.23-.51.34-.76,3.41-7.56,6.04-14.5,15.95-21.26h.01c.23-.16.47-.33.72-.49,4.86-3.2,10.59-5.81,16.72-7.72,3.63-1.14,7.4-2.02,11.22-2.63h.01c2.75-.45,5.52-.75,8.28-.92,1.35-.08,2.7-.12,4.03-.12.94-.01,1.87,0,2.8.03h.02c3.32.12,6.57.47,9.71,1.06,3.02.56,5.92,1.35,8.66,2.39,1.02.36,2.01.78,2.98,1.22,2.98,1.38,5.74,3.06,8.18,5.08.62.51,1.22,1.05,1.8,1.61.61.59,1.19,1.19,1.74,1.81,1.99,2.24,3.59,4.71,4.87,7.35v.05s.01.01.01.02c.45.93.85,1.89,1.22,2.86,6.11,16.16,1.66,38.22-2.57,59.88t-.01.02s-.01.03-.01.04c-.24,1.23-.48,2.45-.71,3.68-.15.76-.29,1.52-.44,2.27-.24,1.26-.47,2.5-.7,3.75-.01.09-.03.16-.04.25-.17.97-.35,1.93-.52,2.9-.04.25-.09.51-.13.76-.83,4.8-1.53,9.49-1.97,14.03-.26,2.64-.44,5.23-.5,7.76h0c-.04,1.69-.04,3.33.02,4.94h0c.17,4.87.87,9.4,2.28,13.49,1.63,4.77,4.23,8.95,8.1,12.35,9.58,8.43,18.49,0,25.78-10.05,7.67-10.53,13.58-22.83,16.69-19.39.25.27.48.63.69,1.1,2.76,6.19-.33,22.01-9.49,36.65Z"/>
      <path class="cls-8" d="m141.22,1122.75h-33.73c-7.82-7.09-13.59-15.76-19.96-25.48-8.08-12.33-14.56-22.24-19.51-33.1h-.01c-.31-.68-.61-1.37-.9-2.05-.04-.08-.08-.15-.1-.24-.52-1.2-1.02-2.41-1.5-3.66-.38-.97-.74-1.96-1.09-2.96-.14-.37-.27-.75-.39-1.14-.83-2.43-1.59-4.93-2.29-7.56,0-.01-.01-.02-.01-.03h0s0-.02-.01-.03c-.27-1.05-.55-2.13-.8-3.23-4.93-20.91-4.44-14.93-3.73-31,.02-.39.03-.8.05-1.21.31-7.39.63-19.07.56-38.97-.01-3.18.02-6.17.1-8.97.02-.88.05-1.75.09-2.6.08-2.29.19-4.45.34-6.48.1-1.34.21-2.63.33-3.87.09-.85.17-1.68.27-2.48.02-.19.04-.37.07-.56.98-7.6,2.52-12.92,4.65-16.39.01-.02.02-.03.03-.05.97-1.62,2.09-2.82,3.31-3.68,2.13-1.47,5.21-10.62,8.25-18.57,2.4-6.27,4.77-11.81,6.62-12.23h.01c.48-.12.91.12,1.31.79,1.41,2.35,2.17,4.74,2.41,7.25h0c.99,10.58-7.04,23.18-12.85,42.77-.31,1.03-.6,2.08-.9,3.15-.14.51-.28,1.03-.42,1.55-.19.73-.38,1.47-.56,2.22-.51,2.12-.99,4.3-1.43,6.58-.48,2.53-.91,5.18-1.26,7.92-.52,3.99-.88,8.22-1.05,12.68-.34,9.65,2.13,20.25,5.53,31.18.33,1.07.68,2.16,1.03,3.24,0,0,0,.01.01.01,4.02,12.42,9.02,25.14,12.28,37.17.22.79.44,1.57.67,2.35.31,1.07.62,2.12.95,3.16.08.25.15.5.24.74.31.98.63,1.96.97,2.92,0,.02.01.03.02.05,1.33,3.83,2.79,7.44,4.33,10.82,12.94,28.51,31.61,40.92,34.23,42.59,2.88,1.84,7.7,4.91,13.82,7.42Z"/>
      <path class="cls-8" d="m245.96,991.87v.02c-.08,1.23-.16,2.41-.25,3.54-.1,1.28-.2,2.5-.29,3.64-.62,7.49-1.61,14.07-2.84,20.25h0c-1.06,5.31-2.31,10.31-3.66,15.35v.02c-.05.22-.11.43-.17.64-.67,2.46-1.35,4.93-2.05,7.45-.9,3.2-1.89,6.75-3.05,10.62-.08.24-.14.48-.23.72-.07.23-.13.46-.21.7-.34,1.1-.69,2.24-1.05,3.39-.29.93-.59,1.87-.92,2.82-.08.28-.17.56-.27.84-1.68,5.13-3.66,10.65-6,16.43-3.05,7.56-6.74,15.57-11.24,23.78-.96,1.73-1.93,3.47-2.96,5.22-3.46,5.9-6.48,11.02-9.33,15.44h-22.64c1.69-.8,3.38-1.74,5.08-2.82,12.87-8.19,21.04-21.69,27.54-36.26h0c1.07-2.4,2.1-4.83,3.08-7.28,1.74-4.26,3.38-8.57,4.99-12.8.21-.56.43-1.13.66-1.72.09-.26.19-.52.29-.79.35-.93.71-1.89,1.08-2.87.19-.5.38-1.02.58-1.53.13-.37.26-.75.4-1.13,0-.01.01-.03.01-.04s.01-.02.01-.03c.16-.43.33-.86.49-1.3.33-.91.66-1.82.99-2.76,2.94-8.25,6.03-17.86,8.38-28.34h0c.57-2.5,1.09-5.05,1.56-7.64h0c1.31-7.25,2.21-14.83,2.41-22.58.01-.45.02-.88.03-1.33h0s.01-.03,0-.04c.01-.02.01-.03.01-.04.11-6.3-.23-12.74-1.16-19.2-.54-3.74-1.28-7.48-2.24-11.22-.04-.17-.09-.35-.14-.52-.69-2.65-1.46-5.17-2.32-7.57-.33-.95-.67-1.87-1.03-2.77-.4-1.06-.83-2.1-1.28-3.11,0-.01-.01-.01-.01-.02-.13-.33-.27-.66-.43-.97-1.04-2.34-2.16-4.56-3.33-6.65h-.01c-2.22-4-4.63-7.55-7.16-10.74h-.01c-.04-.07-.09-.12-.13-.17-4.46-5.64-9.24-10.13-13.81-13.82-1.44-1.16-2.85-2.24-4.23-3.24,0-.01-.01-.01-.01-.01-2.93-2.16-5.68-4.01-8.12-5.64-1.07-.71-6.42-4.18-14.15-7.92-.24-.12-.48-.23-.72-.35-8.41-3.99-19.46-8.19-30.82-9.52h-.01c-12.71-1.5-25.8.59-36.05,10.54-2.18,2.12-4.25,4.6-6.14,7.48-7.59,11.56-10.53,26.41-11.2,40.85-.03.99-.08,1.99-.1,2.98,0,.11,0,.21-.01.32-.02,1.2-.03,2.4-.03,3.59,0,2.18.04,4.34.13,6.45,0,.1.01.21.01.31.59,14.37,2.81,27.02,4.01,33.78.29,1.73.85,4.73,1.72,8.59,1.09,4.86,2.68,11.08,4.86,17.81,3.65,11.27,8.98,23.98,16.53,34.12.87,1.18,1.77,2.32,2.71,3.42,1.02,1.19,2.06,2.34,3.16,3.43.01.01.02.03.04.04.05.07.12.12.19.19,3.85,3.8,8.15,6.9,12.96,8.97.01,0,.02.01.03.01,1.02.44,2.08.83,3.15,1.17,3.08.98,12.61,3.8,23.86-.74.01,0,.01-.01.02-.01.48-.17.94-.38,1.41-.6,1.57-.7,3.16-1.56,4.76-2.58.45-.29.9-.59,1.35-.91,2.29-1.6,4.39-3.39,6.3-5.31.2-.19.38-.38.56-.58.98-.99,1.9-2.03,2.76-3.08,1.05-1.26,2.02-2.55,2.93-3.86,2.72-3.86,4.88-7.83,6.6-11.45,2.05-4.37,3.46-8.23,4.38-10.83,1.56-4.4,8.87-24.9,7.36-47.59h0c-.33-4.94-1.07-9.97-2.38-14.97-.59-2.29-1.31-4.57-2.17-6.83-.27-.73-.57-1.46-.87-2.2-.34-.81-.7-1.61-1.07-2.41-.82-1.74-1.7-3.41-2.63-5-.6-1.01-1.21-1.98-1.85-2.93-.93-1.38-1.9-2.69-2.91-3.94-1.16-1.42-2.37-2.76-3.63-4.01-3.23-3.2-6.78-5.8-10.54-7.68-.27-.15-.56-.28-.83-.4-5.19-2.45-10.72-3.53-16.33-2.97h-.02c-1.88.17-3.78.55-5.67,1.1-3.29.99-12.41,4.3-20.42,14.3-.9,1.11-1.77,2.32-2.62,3.61-.7,1.05-1.39,2.16-2.03,3.33-1.07,1.87-2.08,3.9-3,6.11-.1.23-.23.54-.38.91-.52,1.29-1.34,3.39-2.2,6.1-2.26,7.28-4.73,18.98-2.4,31.42.03.23.09.47.13.71.33,1.66.74,3.32,1.26,5,3.78,12.22,10.86,18.34,16.35,21.35.01,0,.01.01.02.01,3.79,2.08,6.83,2.68,7.51,2.8.81.14,8.91,1.4,17.28-3.51,2.52-1.47,5.07-3.51,7.45-6.33h0c.73-.86,1.44-1.78,2.13-2.79,1.39-2.01,4.83-7.02,6.3-13.61.57-2.48.84-5.19.63-8.04-.17-2.25-.63-4.45-1.3-6.45h0c-1.28-3.98-3.3-7.17-5.22-8.52-.38-.28-.76-.47-1.14-.59h-.01c-.5-.15-.97-.15-1.41.01-1.3.5-1.93,2.37-2.47,4.63-.83,3.57-1.4,8.1-3.87,9.66-.71.47-1.54.63-2.45.56h-.02c-3.57-.24-8.15-4.28-10.39-9.32h-.01c-1.04-2.29-1.58-4.79-1.32-7.21.35-3.28,2.09-5.89,4.4-7.9,2.7-2.36,6.14-3.91,9.03-4.8h.01c1.17-.35,2.25-.6,3.15-.75,2.7-.45,5.19-.24,7.43.36,1.41.38,2.72.9,3.92,1.52,1.18.6,2.27,1.29,3.22,1.99h.01c3.05,2.24,4.96,4.63,5.35,5.17.24.31,2.14,2.88,4.05,7.12.33.73.66,1.51.98,2.33,1.3,3.36,2.45,7.49,2.9,12.18v.02c.26,2.7.27,5.58-.07,8.6-.49,4.49-1.65,8.49-3.29,12.06v.02c-2.04,4.47-4.81,8.32-7.88,11.72-2.91,3.24-6.1,6.07-9.22,8.7-1.06.9-2.11,1.76-3.15,2.61-.52.45-1.07.88-1.62,1.33-7.2,5.9-15.01,11.72-25.26,11.29-3.71-.15-7.47-1.14-11.07-2.82-10.28-4.8-19.28-15.43-22.47-29.54-.2-.87-.35-1.79-.47-2.76-.48-3.97-.29-8.78.38-15.14.25-2.38.58-4.98.96-7.83.72-5.22,1.65-11.27,2.73-18.4.38-2.48.73-4.79,1.06-6.96.35-2.13.67-4.13.98-6,.25-1.52.5-2.95.74-4.32v-.03h0c.16-.9.33-1.76.49-2.59.23-1.19.47-2.33.71-3.41.27-1.22.55-2.38.84-3.5.92-3.51,1.97-6.58,3.3-9.56,8.02-17.96,19.7-25.74,22.94-27.75,1.9-1.17,4.26-2.63,6.99-3.85h.01c1.42-.62,2.95-1.18,4.56-1.58,2.94-.75,6.16-1.01,9.58-.25,2.04.45,3.92,1.19,6.77,3.87,1.05.97,2.22,2.2,3.57,3.76,3.97,4.59,9.54,12.03,18.06,24.32.57.81,1.11,1.61,1.65,2.37,1.7,2.48,3.23,4.72,4.6,6.75v.02c.33.48.64.95.95,1.41.96,1.44,1.84,2.77,2.62,3.99.67,1.04,1.28,1.99,1.84,2.88.44.7.84,1.35,1.21,1.98,0,0,0,.01.01.01,1.35,2.25,2.33,4.02,3.05,5.47,1.4,2.82,1.84,4.48,2.21,6.21.79,3.7,1.11,7.34,1.04,11.32-.03,2.68-.25,5.52-.61,8.61-.75,6.51-2.18,14.21-4.03,24.21-3.65,19.7-5.84,31.62-10.35,42.31-.16.38-.32.76-.49,1.14-.58,1.32-1.19,2.62-1.86,3.92-.34.68-.69,1.35-1.05,2.03,0,0-.01,0-.01.01-.19.32-.35.63-.54.95-.05.1-.11.2-.16.29-.01.01-.01.03-.02.04,0,.01-.01.01-.01.02-.05.1-.11.2-.17.31-1.25,2.18-3.21,5.57-5.88,9.26-4.93,6.82-12.28,14.64-21.98,17.7h-.02c-7.34,2.33-13.62,1.15-20.66-2.08-.01,0-.01-.01-.02-.01-2.23-1.04-4.57-2.27-7.01-3.68h-.01c-2.4-1.37-4.92-2.89-7.63-4.52-8.35-5.03-15.95-9.62-22.65-16.67l-.1-.1c-.51-.55-1.03-1.1-1.53-1.69h0c-.55-.61-1.06-1.23-1.57-1.87-.85-1.05-1.67-2.14-2.47-3.29-1.84-2.6-3.57-5.48-5.22-8.74-3.06-6.06-5.25-12.26-6.83-18.33-1.9-7.29-2.92-14.39-3.51-20.77-.48-5.08-.69-9.72-.87-13.65-.2-4.33-.1-5.78,2.36-31.93v-.04c.03-.32.07-.63.1-.96.07-.7.14-1.43.2-2.17.14-1.45.28-2.97.44-4.56,0-.04.01-.08.01-.12.11-1.13.22-2.29.34-3.5.1-1.06.2-2.15.31-3.28.14-1.58.29-3.22.46-4.94.91-9.7,1.63-17.34,2.29-23.49.82-7.65,1.58-12.98,2.55-17.04,1.09-4.58,2.46-7.58,4.49-10.54,4.91-7.11,10.58-9.19,21.74-13.03,7.23-2.5,18.9-6.37,33.73-5.13h.01c2.56.22,5.2.58,7.93,1.13,5.06,1.02,9.69,2.52,13.95,4.36,3.07,1.32,5.94,2.82,8.65,4.42,0,0,.01,0,.01.01,6.46,3.81,11.95,8.26,16.85,12.56h.01c1.73,1.54,3.36,3.04,4.95,4.48,2.62,2.4,5.19,4.76,7.69,7.13,1.59,1.52,3.16,3.04,4.69,4.59,1.8,1.81,3.54,3.66,5.21,5.56,7.13,8.06,13.09,17.12,16.98,29.06.45,1.34.86,2.73,1.25,4.15.24.9.47,1.8.68,2.73.14.54.26,1.07.38,1.62.44,2.01.81,4.01,1.11,6,.02.12.04.24.05.36,1.76,11.48,1.49,22.39.91,31Z"/>
      <path class="cls-3" d="m248.01,895.88c.71,1.33,1.43,2.6,2.14,3.82.79,1.31,1.56,2.57,2.35,3.77.29.46.59.92.9,1.37,2.46,3.69,4.91,6.93,7.19,10.06.17.22.33.44.49.67.5.68.99,1.37,1.46,2.04,4.65,6.59,8.47,13.19,10.19,23.17v.1s.01.01.01.01h0v.02c.07.36.13.73.2,1.09.11.7.2,1.41.28,2.14.04.28.07.58.1.87.03.28.05.58.09.87.12,1.35.21,2.77.26,4.26.03.85.05,1.73.05,2.63.02,1.03.01,2.06-.02,3.16h0c-.03,1.46-.09,2.98-.19,4.56-.12,1.97-.29,4.03-.51,6.19-.01.1-.02.2-.02.29-.66,6.98,1.08,16.44,3.87,26.42.02.05.03.11.05.17.02.08.04.15.07.23.02.05.03.12.05.17,0,.01.01.03.01.04.28.99.57,1.98.86,2.98.04.14.08.27.13.42.16.56.34,1.13.51,1.68.04.12.08.25.12.37.13.42.26.83.39,1.23l.39,1.25c.25.78.5,1.55.76,2.33.26.81.55,1.61.82,2.41,2.58,7.51,5.43,14.81,7.99,21.11.23.58.46,1.15.69,1.7-2.85,1.29-5.8,2.64-8.83,4.04-1.01.46-2.02.93-3.05,1.4-1.67.76-3.35,1.54-5.05,2.32-2.23.5-4.16,1.37-5.6,2.52,0,0,0,.01-.01.01-5.25,2.36-10.56,4.71-15.8,6.88-.79.33-1.57.66-2.36.98-.55.22-1.08.44-1.62.66-1.33.54-2.65,1.05-3.97,1.56-3.34,1.28-6.62,2.47-9.79,3.52-.08.24-.14.48-.23.72-.07.23-.13.46-.21.7.86.6,1.7,1.3,2.51,2.08.45.43.87.86,1.28,1.31.83.88,1.6,1.81,2.32,2.79.22.28.43.58.62.87,3.81,5.5,6.23,12.33,7.42,19.86,1.13,7.11,1.16,14.84.25,22.65,7.67-10.53,13.58-22.83,16.69-19.39.25.27.48.63.69,1.1,2.76,6.19-.33,22.01-9.49,36.65H-4.32v-325.3c12.5,1.04,24.6,2.1,37.26,3.07h.01c9.83.74,20,1.43,30.94,2,.52.02,1.04.05,1.56.08,1.8.09,3.62.17,5.46.26.43.02.85.03,1.28.05,8.32.36,17.12.66,26.57.84,1.57-1.26,3.11-2.44,4.57-3.48,1.01-.73,1.98-1.4,2.91-2,3.97-2.58,7.13-3.88,8.81-2.96,2.17,1.2,1.64,4.56.12,8.67,3.65.02,7.4.03,11.24.03,2.14,0,4.32-.01,6.52-.02h.01c7.43-.04,15.22-.15,23.44-.31h.01c3.29-1.27,6.63-2.28,9.99-2.92,1.64-.31,3.29-.51,4.93-.63h.04s.08-.01.12-.01c.42-.02.82-.04,1.22-.05,1.54-.04,3.64.52,6.15,1.59.61.25,1.25.55,1.91.86h.01c1.82.86,3.83,1.94,5.98,3.19,1.37.79,2.8,1.65,4.26,2.57,1.89,1.19,3.85,2.46,5.84,3.81,6.83,4.59,14.18,9.99,21.05,15.25,1.04.8,2.06,1.6,3.08,2.37.62.49,1.23.97,1.85,1.44,9.03,7.06,16.73,13.43,20.5,16.65.24.21.46.4.67.58.16.14.31.27.45.39.09.08.17.15.25.22,1.23,1.08,2.99,2.63,5.11,4.51.46.42.94.83,1.43,1.28,4.02,3.57,9.07,8.1,14.17,12.79.27.25.55.49.82.74,1.87,1.73,3.74,3.45,5.55,5.17.6.56,1.2,1.13,1.78,1.67,1.4,1.33,2.75,2.63,4.05,3.9.73.71,1.45,1.41,2.14,2.09.24.24.47.48.71.71.83.83,1.63,1.64,2.37,2.4,1.94,2,3.58,3.78,4.81,5.24,1.82,2.21,2.7,3.69,2.17,4.11-1.59,1.28-3.31,2.01-5.12,2.29-1.14.19-2.31.21-3.52.08-.67-.05-1.33-.16-2.02-.32-.44-.09-.87-.2-1.32-.33-.56-.14-1.11-.32-1.68-.52-2.77-.95-5.66-2.36-8.55-3.9-.45-.24-.9-.48-1.34-.72-3.03-1.64-6.05-3.36-8.99-4.79h-.01s-.08-.03-.11-.04c-6.4-3.08-12.37-4.71-16.96-.97-5.1,4.17,4.46,5.16,7.82,11.48Z"/>
    </g>
    <g>
      <ellipse class="cls-1" cx="130.2" cy="707.56" rx="90.59" ry="135.89"/>
      <path class="cls-9" d="m176.32,590.57c-.01,4.12-.04,8.22-.11,12.29-.03,2.37-.08,4.73-.12,7.1h0c-.07,3.14-.14,6.25-.23,9.35-.07,2.25-.14,4.47-.21,6.71-.03.95-.07,1.9-.1,2.84-.03.74-.05,1.47-.09,2.21-.05,1.51-.11,3-.17,4.5-.03.85-.07,1.7-.11,2.56l-.07,1.74c-.04.87-.08,1.74-.12,2.6-.07,1.56-.14,3.12-.22,4.68-.02.49-.04.97-.07,1.45-.02.36-.03.73-.05,1.09v.02c-.01.27-.01.54-.03.81-.19,4.07-.42,8.16-.63,12.21v.02c-.23,4.23-.48,8.42-.73,12.63-.02.47-.05.93-.09,1.4-.23,3.89-.47,7.78-.71,11.68-.05.79-.1,1.58-.15,2.39v.03s.01.01.01.01c0,0-.01,0-.01.01-.55,8.49-1.09,16.98-1.65,25.5h0c-.12,1.89-.24,3.75-.36,5.62h0c-.34,5.35-.69,10.67-1.01,16.03-.03.51-.07,1.04-.1,1.55-.04.73-.09,1.46-.13,2.2-.05,1.04-.12,2.09-.17,3.14-.03.57-.07,1.15-.1,1.72h0v.03c-.07,1.05-.13,2.11-.19,3.17-.31,5.18-.59,10.38-.84,15.61.01.01,0,.01,0,.01v.02h0c-.03.46-.05.92-.07,1.38-.05,1.06-.11,2.13-.16,3.21v.12c-.19,4.03-.37,8.08-.55,12.15-.24,6.1-.45,12.24-.6,18.42-.03.9-.05,1.79-.07,2.69-.02.54-.03,1.08-.04,1.62h0c-.09,3-.15,6.01-.2,9.05,0,.15-.01.32,0,.48-.05,2.88-.1,5.78-.12,8.71-.01,1.69-.02,3.39-.02,5.09-.02,1.35-.02,2.71-.02,4.09h0c-.01,4.81.02,9.64.09,14.51-.91.03-1.8.05-2.69.08-4.28.12-8.42.2-12.43.25-.81,0-1.62.01-2.41.02-2.73.02-5.41.03-8.03.03-4.51,0-8.87-.03-13.07-.11-8.05-.15-15.54-.43-22.57-.83h-.01c-.39-.02-.79-.04-1.17-.07h-.04c-.42-.03-.81-.05-1.22-.08-1.04-.07-2.08-.13-3.09-.21-.54-.03-1.06-.07-1.58-.11h-.01c-.85-.05-1.69-.12-2.52-.19-.56-.03-1.1-.08-1.65-.12-.8-.07-1.58-.13-2.37-.2-1.96-.15-3.87-.33-5.76-.51-.79-.07-1.57-.14-2.35-.23-.32-.03-.63-.05-.95-.1-1.23-.12-2.46-.25-3.66-.38h0c-10.86-1.22-20.68-2.71-30.09-4.35-12.01-2.1-23.34-4.45-35.29-6.78-5.6-1.1-11.35-2.2-17.35-3.26v-83.24l-.36-.16h.36v-214.39c27.16,1.79,49.13,4.22,75.95,5.83.24.02.49.03.73.04,1.1.07,2.23.13,3.35.2.17.01.36.02.54.03,1.28.07,2.57.14,3.88.21.16.01.33.02.49.02,9.03.47,18.69.83,29.31,1.04,4.48.1,9.13.16,13.97.2,10.66.08,22.29,0,35.12-.25h.01c5.13-.11,10.48-.24,16.03-.4.24,4.49.44,8.96.6,13.39.26,6.87.44,13.67.52,20.4.11,5.98.14,11.91.12,17.8Z"/>
      <path class="cls-10" d="m227.22,699.36s0,.01-.01.03t0,.03h0c-1.25,8.05-3.65,16.07-6.96,23.27h-.01v.02s-.01.01-.01.02c-.83,1.79-1.72,3.54-2.67,5.21-1.16,2.09-2.37,5.48-3.88,9.85-.43,1.25-.88,2.58-1.37,3.99-.33.94-.67,1.91-1.03,2.92-.34.97-.7,1.98-1.08,3t-.01.02s-.01.02-.01.03c-.25.68-.51,1.37-.78,2.08-.14.38-.29.79-.45,1.18-.62,1.66-1.31,3.38-2.04,5.15-2.11,5.12-4.61,10.63-7.69,16.37-3.83,7.17-8.57,14.67-14.45,22.11-1.86,2.35-3.82,4.7-5.92,7.01-1.14,1.26-2.31,2.51-3.53,3.76-2.85,2.94-5.93,5.86-9.24,8.7-.21.17-.42.36-.62.52-4.35,3.7-9.11,7.29-14.3,10.68-.16.12-.32.23-.49.33,0,0-.01,0-.01.01-9.17,5.98-19.68,11.43-31.78,16.02-.4.16-.81.32-1.22.47h-.01c-4.06,1.52-8.27,2.93-12.68,4.24-.05.01-.1.03-.15.04h-.01c-.44.14-.86.27-1.31.39-.98.27-1.97.57-2.96.83-.36-.44-.71-.88-1.07-1.33-.05-.08-.12-.16-.19-.24-.54-.03-1.06-.07-1.58-.11h-.01c-.85-.05-1.69-.12-2.52-.19-.56-.03-1.1-.08-1.65-.12-.8-.07-1.58-.13-2.37-.2-1.96-.15-3.87-.33-5.76-.51-.79-.07-1.57-.14-2.35-.23-.32-.03-.63-.05-.95-.1-1.23-.12-2.46-.25-3.66-.38h0c-10.86-1.22-20.68-2.71-30.09-4.35-12.01-2.1-23.34-4.45-35.29-6.78-5.6-1.1-11.35-2.2-17.35-3.26v-83.24l-.36-.16h.36v-83.82c3.24-1.34,5.66-4.02,7.25-8.81,0,0-2.98-1.21-7.25-3v-9.59c3.64.82,7.51,1.7,11.53,2.64h.01c3.78.88,7.71,1.82,11.71,2.81h.01c4.5,1.09,9.11,2.24,13.73,3.42h.02c3.87.97,7.75,1.98,11.59,2.99.9.23,1.79.47,2.69.72h.01c10.27,2.73,20.24,5.54,29.01,8.25.31.09.62.19.93.29,3.12.96,6.1,1.92,8.85,2.85h.01c.29.1.58.2.86.28,4.45,1.53,8.32,2.97,11.44,4.3h.01c.19.08.35.16.51.23.74.33,1.43.64,2.08.95h.01s.01.01.01.01c.11.04.21.1.32.14.57.27,1.08.55,1.57.81.5.27.99.54,1.5.79,4.18,2.11,8.32,3.55,12.42,4.44,1.78.37,3.54.63,5.29.82h.01c.43.05.84.09,1.26.12,2.25.17,4.46.19,6.66.08,6.93-.34,13.67-1.98,20.18-4.32.02,0,.03-.01.05-.02.97-.34,1.92-.69,2.88-1.08.01-.01.02-.01.04-.02.04-.01.08-.02.12-.04.02,0,.05,0,.07-.01,7.3-2.88,14.28-6.49,20.9-9.96h.01c2.1-1.09,4.17-2.2,6.19-3.23h.01c1.39-.72,2.75-1.43,4.12-2.09,2.73-1.35,5.39-2.58,7.94-3.59,1.08-.44,2.15-.83,3.2-1.18.35-.12.7-.25,1.06-.34,3.53-1.1,6.84-1.72,9.96-1.57h.01c2.28.1,4.44.59,6.48,1.57h.01c1.42.66,2.77,1.55,4.06,2.71h0c.17.15.35.32.51.47,9.84,9.44,12.37,26.7,9.66,43.89Z"/>
      <path class="cls-4" d="m237.28,785.21c.05,3.4-.13,6.88-.54,10.38-.74,6.43-2.23,12.92-4.36,19.06-1.05,3.03-2.25,5.96-3.59,8.77-.69,1.44-1.41,2.83-2.17,4.18-.29.54-.61,1.17-.92,1.89-.93.58-1.88,1.14-2.86,1.66-.05.03-.11.05-.16.08-.49.27-.98.52-1.49.76-.08.03-.15.08-.23.11-.51.24-1.03.48-1.55.71-.13.05-.25.11-.38.16-.09.03-.17.08-.26.11-.17.08-.35.14-.54.22-.11.04-.23.09-.35.13l-.08.03s-.08.03-.11.04c-.07.03-.12.05-.19.08-.14.05-.28.11-.44.15-.17.07-.36.14-.55.21-.04.02-.1.03-.15.05-.35.12-.7.24-1.05.35-.02.01-.04.01-.07.02-.23.07-.46.15-.68.22-3.67,2.73-7.34,5.36-10.83,7.75-.38.27-.76.54-1.15.79-.57.39-1.14.78-1.68,1.14-.46.31-.92.61-1.37.91-.36.24-.73.48-1.09.71-.57.37-1.14.74-1.68,1.09-.22.14-.44.28-.64.42h-.01c-.78.49-1.52.95-2.24,1.39-2.38,1.44-4.45,2.6-6.11,3.4-.52.25-1.4.38-2.56.39-.25.17-.5.33-.76.48-.26.16-.54.31-.82.46-.47.24-.96.46-1.51.67h-.01c-.15.07-.31.12-.47.17-.14.05-.29.1-.44.14-.21.07-.43.13-.64.2-.11.03-.23.07-.35.1-.51.14-1.06.26-1.65.38-.2.04-.4.08-.6.11-.42.08-.84.14-1.29.21-.47.07-.96.12-1.47.19-.11.01-.22.02-.33.03s-.22.02-.33.03h-.02c-.31.02-.62.05-.94.08-.25.02-.5.04-.76.05-.33.02-.66.04-.98.05-.13.01-.26.01-.4.02-.05.01-.11.01-.16.01-.15.01-.31.01-.46.02h-.1c-.32.01-.63.02-.96.03-.91.02-1.87.04-2.88.04-7.89.01-19.09-.68-35.51-2.22-.55-.05-1.08-.11-1.63-.17-.22-.02-.43-.04-.63-.08h-.01c-.22-.02-.43-.04-.63-.08-.28-.03-.56-.07-.84-.1-.54-.07-1.06-.14-1.58-.22-1.07-.15-2.12-.32-3.15-.5-.45-.08-.9-.15-1.33-.24-.45-.09-.88-.17-1.32-.26-.52-.1-1.05-.22-1.56-.34-.54-.11-1.06-.23-1.57-.36-.56-.13-1.11-.27-1.66-.42-.34-.09-.68-.19-1.02-.28-.63-.17-1.27-.36-1.89-.55-.62-.19-1.23-.38-1.84-.59-.24-.08-.48-.15-.72-.24-.05-.02-.12-.04-.17-.07-.15-.05-.31-.1-.45-.15-.2-.07-.39-.13-.58-.21-.19-.07-.38-.13-.57-.21-.4-.15-.82-.31-1.21-.47-.38-.14-.76-.29-1.14-.45-.81-.34-1.6-.69-2.37-1.04-.98.27-1.97.57-2.96.83-.36-.44-.71-.88-1.07-1.33-.05-.08-.12-.16-.19-.24-.54-.03-1.06-.07-1.58-.11h-.01c-.85-.05-1.69-.12-2.52-.19-.56-.03-1.1-.08-1.65-.12-.8-.07-1.58-.13-2.37-.2-1.96-.15-3.87-.33-5.76-.51-.79-.07-1.57-.14-2.35-.23-.32-.03-.63-.05-.95-.1-1.23-.12-2.46-.25-3.66-.38h0c-10.86-1.22-20.68-2.71-30.09-4.35-12.01-2.1-23.34-4.45-35.29-6.78-5.6-1.1-11.35-2.2-17.35-3.26v-66.52c8.07.5,13.48-1.34,16.32-9.85,0,0-3.7-1.5-8.78-3.64-2.31-.97-4.88-2.08-7.54-3.22l-.36-.16h.36v-7.54c.91.2,1.85.39,2.81.6,3.18.69,6.6,1.45,10.19,2.27,5.71,1.3,11.9,2.75,18.29,4.3,4.93,1.19,10,2.45,15.09,3.75.71.19,1.43.36,2.14.55h.01c2.68.68,5.36,1.38,8.03,2.08,3.44.91,6.84,1.81,10.18,2.72,2.5.69,4.99,1.38,7.42,2.06,4.53,1.27,8.91,2.56,13.04,3.81.28.08.56.16.84.26h.01c6.24,1.9,11.88,3.75,16.64,5.48h.01c1.27.46,2.47.92,3.59,1.35h.03c.4.16.76.32,1.15.47,2.61,1.06,4.8,2.05,6.49,2.96,8.67,4.71,17.2,6.46,25.48,6.3h.02c2.1-.03,4.16-.21,6.23-.47h.01c6.65-.86,13.12-2.83,19.36-5.33t.02-.01c1.53-.59,3.04-1.25,4.52-1.91h.01c.08-.03.15-.07.23-.1,8.39-3.75,16.32-8.22,23.67-11.94h.01c.1-.05.2-.11.29-.14,0-.01.01-.01.01-.01,2.24-1.13,4.4-2.18,6.52-3.12.75-.35,1.51-.68,2.23-.96h.01c3.03-1.27,5.9-2.25,8.67-2.87.21-.05.4-.09.62-.12,2.29-.47,4.5-.66,6.61-.49.15.01.31.02.46.04,2.36.24,4.6.94,6.71,2.2.38.21.75.45,1.11.71.74.51,1.45,1.11,2.14,1.77.33.32.64.63.95.96.32.33.62.67.91,1.02.15.17.29.35.44.52.03.03.07.08.09.11.07.08.12.14.17.22.05.07.11.14.16.21.22.27.43.56.62.84.13.19.26.37.39.57.37.54.73,1.09,1.06,1.66.17.28.34.57.49.86.16.29.32.59.47.88.24.45.46.91.67,1.37.13.27.25.55.36.82.23.51.44,1.03.63,1.55.08.19.15.38.22.58.11.29.21.59.31.88.13.35.24.7.35,1.06.01.02.01.03.02.05.02.09.05.17.08.27.04.14.09.27.12.42.08.24.14.49.22.74.07.23.12.45.17.68.1.37.19.73.27,1.1.11.46.21.92.31,1.39.01.04.01.08.02.12.1.47.19.94.26,1.42.01.03.01.08.02.11.08.44.14.87.21,1.31.03.2.07.39.09.59.01.04.01.1.02.14v.02c.01.08.02.15.03.23.07.52.13,1.05.19,1.58.02.25.04.49.07.73.03.25.05.5.07.74.01.17.03.36.04.55.01.17.03.36.03.55.01.02.01.05.01.08.01.11.01.21.02.32.02.55.04,1.09.07,1.65.02.39.03.78.03,1.17Z"/>
      <path class="cls-7" d="m237.09,617.94c11.49,21.56,25.01,24.28,21.3,60.34-1.38,13.38,7.77,37.71,14.23,53.52-4.56,2.07-9.42,4.32-14.42,6.61-1.9.43-3.55,1.16-4.78,2.15,0,0,0,0,0,0-9.67,4.37-19.6,8.62-28.57,11.59-.12.39-.24.79-.37,1.21.73.51,1.45,1.11,2.14,1.77,9.2,8.81,11.99,24.43,10.13,40.45,6.53-8.97,11.57-19.45,14.22-16.52-2.29,10.45-5.26,20.54-6.18,26.06,1.03,2.68-6.2,10.06-16,18.29-4.39,3.69-9.3,7.53-14.21,11.18-10.55,7.87-21.15,14.87-26.8,17.58-.52.25-1.4.37-2.55.39-6.71.13-23.1-3.19-36.75-5.24h0c-10.84-1.62-19.95-2.43-21.09-.07-.15.31-.17.67-.03,1.09.42,1.3,1.27,3.13,2.39,5.32-10.35-1.12-19.04-3.52-26.26-6.84-.98.28-1.96.57-2.96.84-.42-.52-.84-1.05-1.26-1.57-.67-.85-1.35-1.7-2.02-2.56-5.06-6.45-9.89-13.06-14.21-19.93,0,0,0,0,0-.02-5.05-8.03-9.41-16.44-12.63-25.35-2.62-7.18-4.48-14.68-5.39-22.62-.57-4.87-1.4-12.37-2.57-20.42-1.87-12.82-4.59-27.05-8.41-34.34-.78-1.5-1.62-3.06-2.46-4.6-3.05-5.62-6.18-11-7.41-12.81-1.2-1.77-2.7-3.52-4.31-5.24h0c-6.25-6.66-14.17-12.94-13.8-19.27.51-8.95,9.74-6.12,13.88-12.94,2.37-3.91,3.73-8.26,4.38-12.89,2.41-17.18-4.95-38.04-6-53.36-1.39-20.54,32.18-29.44,45.3-37.95,5.03-3.25,16.69-14.62,26.35-22.35,6.24-4.97,11.63-8.42,13.87-7.2,1.85,1.02,1.4,3.88.1,7.39-2.69,7.35-8.95,17.59-5.07,19.84,5.59,3.25,21.96-13.06,40.19-20.09h0c4.56-1.76,9.23-2.94,13.89-3.08,10.83-.34,54.31,35.52,61.34,41.69,7.85,6.9,40.87,36.08,38.44,38.02-11.75,9.45-31.48-16.66-42.29-7.86-4.35,3.56,3.8,4.39,6.66,9.78Z"/>
      <path class="cls-1" d="m156.41,685.37c2.33-1.08,5.98,5.65,6.36,13.14.45,8.86-3.82,16.12-5.22,18.5-7.66,13.02-18.66,11.19-19.47,11.03-1.18-.23-12.54-2.77-16.92-20.31-4.34-17.4,1.93-34.52,3.07-37.61,6.42-17.51,17.29-22.39,20.49-23.57,12.61-4.61,25.25,4.86,31.68,21.51,10.1,26.13.21,57.77-1.42,62.98-1.98,6.35-6.88,21.5-17.32,30.14-10.43,8.63-19.97,5.43-22.65,4.46-23.25-8.4-30.58-56.81-31.79-65.69-1.78-13.02-7.08-51.8,6.13-75.21,19.42-34.43,60.55-3.26,63.24-1.15,8.95,7,23.91,18.7,29.63,46.58,6.98,33.96-4.54,68.54-10.84,87.45-6.08,18.25-12.65,37.99-26.23,48.34-17.87,13.63-34.78,1.02-40.59-3.31-2.26-1.68-21.24-16.45-29.12-52.85-4.36-20.11-13.57-42.44-12.78-60.74,1.73-40.47,19.65-57.41,12.44-71.78-2.72-5.42-8.89,23.17-11.97,25.73-4.49,3.73-6.88,14.92-7.11,38.46-.55,57.25-3.35,34.75,1.47,60.57,3.31,17.74,9.53,29.13,18.56,45.68,5.94,10.89,11.15,20.23,20.1,26.88,5.33,3.96,10.76,5.33,21.63,8.07,13.49,3.41,20.24,5.11,25.83,2.11,8.15-4.38,12.89-13.78,21.01-29.83,10.91-21.6,16.08-42,19.36-55.21,2.95-11.89,5.53-22.49,6.76-37.31.74-8.95,1.92-23.19-.62-37.91-3.87-22.35-14.23-33.58-25.94-46.28-7.49-8.12-17.06-18.23-31.68-21.51-13.34-2.99-23.9,1.28-30.03,3.86-8.07,3.4-12.18,5.22-15.78,11.33-3.9,6.6-4.49,13.4-7.27,43.57-3.55,38.55-3.69,39.43-3.58,43.87.28,11.01.73,28.59,7.49,44.78,6.17,14.76,14.31,20.5,23.79,27.18,10.12,7.13,16.65,11.73,25.32,8.37,11.04-4.27,18.01-18.49,20.49-23.57,5.58-11.39,7.37-22.02,10.96-43.27,3.13-18.57,4.7-27.85,3.07-37.61-.61-3.67-1.55-6.99-12.72-26.27-13.67-23.61-16.54-26.01-20.1-26.88-6.33-1.54-11.83,2.53-15.27,5.06-2.36,1.74-10.84,8.49-16.8,23.87-2.86,7.38-4.03,15.36-6.24,31.04-2.88,20.38-4.32,30.57-3.07,37.61,2.88,16.16,13.48,26.81,23.79,27.18,7.92.28,13.89-5.57,19.47-11.03,7.14-6.99,15.77-15.43,17.32-30.14,1.53-14.58-4.96-25.09-5.34-25.67-.61-.95-6.07-9.2-14.25-7.47-3.63.77-11.34,4.26-12.09,11.63-.79,7.75,6.49,16.13,10.05,13.44,2.93-2.22,2.28-11.11,4.71-12.23Z"/>
      <path class="cls-5" d="m225.7,829.5c-3.17,1.99-6.64,3.66-10.38,4.86-.25.08-.5.17-.74.24-10.55,7.87-21.15,14.87-26.8,17.58-.52.25-1.4.37-2.55.39-5.55,3.79-15.42,4.88-53.87,1.27-.54-.06-1.08-.11-1.62-.18-10.35-1.12-19.04-3.52-26.26-6.84-.98.28-1.96.57-2.96.84-.42-.52-.84-1.05-1.26-1.57-7.42-.49-14.33-1.12-20.85-1.84h0c-6.28-15.2-11.61-31.4-15.81-46.23v-.02c-5.41-19.06-8.95-35.9-10.36-45.54-.28-1.97-.48-3.63-.59-4.96-1.13-13.98-.4-23.33-.1-31.25.07-1.72.1-3.38.1-4.99,0-9.52-13.53-46.26,9.06-45.29,8.14.35,11.39,5.32,14.4,9.24.33.43.65.86,1,1.26h0c1.91,2.32,3.93,3.93,7.23,3.38.18-.03.34-.07.53-.1,2.93-.66,6.87-2.93,12.53-7.74.56-.47,1.1-.95,1.61-1.43.2-.17.39-.35.59-.54.74-.7,1.41-1.38,2.05-2.07.26-.27.51-.54.74-.81.99-1.1,1.85-2.19,2.62-3.25,7.65-10.55,6.44-19.51,19.58-28.14,3.54-2.33,7.61-4.3,11.99-5.84,5.98-2.11,12.54-3.43,19.02-3.8h0c1.69-.07,3.37-.11,5.03-.07,4.43.09,8.77.68,12.79,1.8,1.06.3,2.1.62,3.13,1,2.62.95,5.08,2.15,7.32,3.62,0,0,0,0,0,0,1.49.97,2.86,2.06,4.12,3.28,3.55,3.41,5.87,7.48,7.3,12.07h0c.49,1.55.87,3.15,1.16,4.78.39,2.22.62,4.54.72,6.93v.02c.2,4.84-.17,9.98-.83,15.28-.2,1.58-.44,3.17-.69,4.78-1.09,7.08-2.6,14.38-3.98,21.56v.02c-1.15,6.02-2.22,11.94-2.86,17.6v.02c-1.04,9.08-1.01,17.46,1.41,24.37,1.01,2.87,2.42,5.48,4.35,7.77.26.34.55.65.85.96.51.56,1.06,1.09,1.64,1.6.59.51,1.26.96,1.98,1.31.55.27,1.14.5,1.77.69,2.01.61,4.4.8,7.11.62.56-.02,1.12-.07,1.69-.13,2-.2,4.14-.57,6.4-1.09.04,0,.07-.02.12-.03,2.6-.59,5.35-1.36,8.22-2.27.49-.16,1-.33,1.49-.49-.12.39-.24.79-.37,1.21.73.51,1.45,1.11,2.14,1.77,9.2,8.81,11.99,24.43,10.13,40.45,6.53-8.97,11.57-19.45,14.22-16.52.21.23.41.54.59.94,3.66,8.2-4.73,36.23-25.86,49.49Z"/>
      <path class="cls-11" d="m225.7,829.5c-3.17,1.99-6.64,3.66-10.38,4.86-.25.08-.5.17-.74.24-22.52,7.4-23.67,14.1-29.35,17.97-5.55,3.79-15.42,4.88-53.87,1.27-.54-.06-1.08-.11-1.62-.18-10.35-1.12-19.04-3.52-26.26-6.84-.38-.17-.74-.34-1.12-.53h0c-1.8-.86-3.5-1.79-5.11-2.76-12.85-7.74-20.14-18.77-23.85-30.1h0c-1.67-5.1-2.61-10.25-3.01-15.19,0-.04-.02-.07-.02-.11-1.36-17.02,0-27.17,0-36.23,0-1.18-.2-2.76-.52-4.64-2.04-12.09-8.75-36.27,4.66-40.16.18-.05.38-.09.58-.15,1.27-.29,2.72-.42,4.35-.35,3.26.15,5.72,1.02,7.72,2.28.5.32.98.66,1.42,1.01,0,0,0,0,0,0,4.5,3.65,6.32,9.11,10.39,10.4h0c1.01.33,2.14.38,3.51.09,1.76-.37,3.88-1.33,6.54-3.09,1.24-.83,2.6-1.82,4.09-3.03.2-.15.38-.3.58-.45.46-.38.93-.79,1.42-1.2,1.33-1.13,2.52-2.23,3.57-3.33,1.81-1.85,3.28-3.64,4.5-5.41,2.01-2.88,3.38-5.63,4.61-8.31,3.04-6.69,5.15-12.81,13.88-18.77.2-.14.41-.28.62-.42,4.14-2.73,9.02-4.95,14.24-6.58,3.09-.97,6.3-1.72,9.56-2.24h0c2.35-.38,4.7-.64,7.06-.78,1.15-.07,2.3-.1,3.43-.1.8,0,1.59,0,2.38.03h0c2.83.1,5.6.4,8.28.9,2.57.47,5.05,1.15,7.38,2.04.87.31,1.71.66,2.54,1.04,2.54,1.17,4.89,2.61,6.97,4.33.53.44,1.04.89,1.54,1.37.52.5,1.01,1.01,1.48,1.55,1.69,1.91,3.06,4.01,4.15,6.26v.05c6.72,13.93,2.69,33.89-1.14,53.48t0,.02s0,.03,0,.04c-.2,1.05-.41,2.09-.6,3.14-.34,1.72-.66,3.43-.97,5.13-1.41,7.64-2.53,15.06-2.7,21.89h0c-.04,1.44-.04,2.84.02,4.21.15,4.14.74,8.01,1.95,11.5,1.39,4.07,3.6,7.62,6.9,10.52,8.16,7.19,15.75,0,21.97-8.56,6.53-8.97,11.57-19.45,14.22-16.52.21.23.41.54.59.94,3.66,8.2-4.73,36.23-25.86,49.49Z"/>
      <path class="cls-8" d="m234.88,705.86c-1.23,14.81-4.12,25.39-7.44,37.25-.76,2.73-1.61,5.75-2.6,9.05-.12.39-.24.79-.37,1.21-3.44,11.29-8.44,25.4-16.6,40.27-.82,1.47-1.65,2.96-2.52,4.45-9.37,15.95-14.86,25.3-24.43,29.55-2.88,1.28-6.04,1.66-10.03,1.37-1.52-.11-3.16-.33-4.95-.61-3.06-.49-6.57-1.23-10.67-2.13-1.31-.3-2.68-.61-4.11-.93-.28-.06-.57-.12-.87-.19-12.9-2.91-19.36-4.36-25.72-8.41-10.7-6.8-17.01-16.22-24.21-27.21-6.89-10.51-12.41-18.95-16.62-28.2h0c-2.11-4.68-3.9-9.56-5.35-15.03h0c-.24-.91-.47-1.83-.69-2.78-4.2-17.82-3.78-12.72-3.17-26.42.27-6.22.59-16.33.52-34.24,0-2.71.02-5.26.08-7.64.13-5.06.42-9.42.87-13.14.83-6.73,2.16-11.41,4.02-14.44,0-.02.02-.03.03-.05.83-1.38,1.78-2.4,2.82-3.14,3.25-2.25,9.1-25.43,12.67-26.24h0c.41-.1.77.1,1.12.67,6.68,11.06-3.96,23.4-10.01,46.63-1.14,4.36-2.1,9.08-2.76,14.24-.45,3.4-.75,7-.89,10.81-.32,9.03,2.25,19.05,5.59,29.33,0,0,0,0,0,0,3.43,10.58,7.69,21.42,10.46,31.67,1.71,6.32,3.8,12,6.12,17.07,11.02,24.29,26.93,34.87,29.16,36.28,2.8,1.79,7.75,4.93,14.05,7.2t.02,0c4.98,1.78,10.8,3.01,17.06,2.52.2,0,.41-.03.62-.05,2.98-.28,6.06-.95,9.19-2.14,2.38-.89,4.78-2.09,7.19-3.62,10.97-6.98,17.93-18.48,23.47-30.89h0c2.5-5.62,4.72-11.44,6.88-17.11.69-1.82,1.43-3.79,2.22-5.88.11-.32.22-.64.34-.96,0,0,0-.03,0-.04.43-1.14.85-2.29,1.28-3.49,4.87-13.66,10.21-31.71,10.56-51.03h0s0-.03,0-.04c0-.02,0-.03,0-.04.15-8.48-.65-17.21-2.9-25.91-1.83-7.12-4.35-13.21-7.27-18.43h0c-1.89-3.41-3.95-6.43-6.1-9.15h0c-5.03-6.39-10.54-11.07-15.48-14.69,0,0,0,0,0,0-2.49-1.84-4.84-3.42-6.92-4.8-.94-.62-5.75-3.75-12.67-7.05-7.17-3.4-16.59-6.98-26.27-8.11-13.13-1.55-26.77,1.41-35.95,15.36-6.92,10.53-9.3,24.26-9.62,37.35-.07,3-.04,5.96.07,8.82.48,12.35,2.39,23.24,3.43,29.04.58,3.33,2.27,12.21,5.6,22.49,5.27,16.27,14.64,36.03,30.32,42.74,0,0,.02,0,.03,0,.87.37,1.77.71,2.68,1,2.63.84,10.74,3.24,20.33-.63,0,0,0,0,.02,0,.41-.15.8-.33,1.2-.51,1.71-.76,3.45-1.75,5.21-2.97,7.94-5.52,13.08-13.82,16.32-20.68,1.75-3.72,2.95-7.01,3.73-9.22,1.62-4.56,10.5-29.46,4.24-53.3-.5-1.95-1.12-3.89-1.85-5.82-.49-1.32-1.05-2.62-1.66-3.93-2.49-5.29-5.69-9.87-9.38-13.53-2.76-2.73-5.78-4.94-8.98-6.54-.23-.13-.47-.24-.71-.34-4.42-2.09-9.14-3.01-13.93-2.53h0c-1.6.15-3.22.47-4.83.94-3.78,1.14-16.58,5.86-23.92,23.3-.38.9-1.27,3.01-2.2,5.97-1.96,6.32-4.11,16.55-1.94,27.38.28,1.41.63,2.83,1.07,4.26,3.22,10.42,9.25,15.63,13.93,18.19,3.24,1.78,5.84,2.29,6.41,2.39.69.12,7.6,1.19,14.73-2.99,2.15-1.26,4.32-2.99,6.35-5.39h0c.62-.74,1.23-1.52,1.82-2.37,1.63-2.36,6.57-9.56,5.91-18.45-.44-5.72-3.09-11.02-5.56-12.75-.33-.24-.65-.4-.97-.5h0c-.43-.13-.83-.13-1.2,0-2.86,1.1-1.96,10.01-5.4,12.18-.6.4-1.31.54-2.08.47h-.02c-3.04-.2-6.95-3.66-8.86-7.95-.88-1.95-1.35-4.07-1.13-6.13.3-2.79,1.78-5.02,3.75-6.73,2.3-2.01,5.23-3.33,7.7-4.09h0c1-.3,1.92-.51,2.68-.64,2.3-.38,4.42-.2,6.33.31,1.2.33,2.32.76,3.34,1.29,1.01.51,1.94,1.1,2.75,1.69,2.61,1.9,4.24,3.95,4.57,4.4.2.26,1.82,2.46,3.45,6.07,1.42,3.16,2.83,7.39,3.3,12.36v.02c.22,2.3.23,4.76-.06,7.33-.42,3.83-1.41,7.23-2.8,10.28v.02c-1.74,3.81-4.1,7.09-6.71,9.99-2.48,2.76-5.19,5.18-7.86,7.41-.9.76-1.8,1.5-2.68,2.22-.45.38-.91.75-1.38,1.14-6.13,5.03-12.79,9.99-21.52,9.62-3.16-.13-6.37-.97-9.43-2.4-8.76-4.09-16.43-13.14-19.15-25.17-.17-.74-.3-1.53-.4-2.35-.56-4.64-.07-10.67,1.14-19.58.61-4.45,1.41-9.61,2.33-15.68.33-2.11.62-4.08.9-5.93.53-3.28,1.01-6.18,1.47-8.79v-.03h0c1.24-6.8,2.5-11.64,4.55-16.23,6.83-15.3,16.78-21.93,19.55-23.64,1.62-1,3.63-2.24,5.96-3.28h0c1.21-.53,2.51-1.01,3.88-1.35,2.5-.64,5.25-.86,8.16-.21,1.74.38,3.34,1.01,5.77,3.3.89.83,1.89,1.87,3.04,3.2,3.38,3.91,8.13,10.25,15.39,20.72.48.69.95,1.37,1.41,2.02,1.45,2.11,2.76,4.02,3.92,5.75v.02c2.46,3.64,4.28,6.48,5.64,8.74,0,0,0,0,0,0,3.39,5.62,4,7.73,4.48,9.95.67,3.16.95,6.26.88,9.64-.09,7.09-1.63,15.4-3.96,27.96-3.11,16.78-4.98,26.94-8.81,36.05-.86,2.05-1.82,4.04-2.9,6.04,0,0,0,0,0,0-.2.35-.39.71-.6,1.06,0,0,0,.03-.02.04,0,0,0,0,0,.02-2.9,5.1-10.94,19.15-23.89,23.23h-.02c-6.26,1.98-11.61.98-17.6-1.77,0,0,0,0-.02,0-1.9-.88-3.89-1.94-5.98-3.14h0c-2.05-1.16-4.19-2.47-6.5-3.85-11.32-6.82-21.05-12.7-28.58-27.57-2.61-5.17-4.48-10.44-5.82-15.62-2.9-11.16-3.39-21.78-3.73-29.32-.17-3.69-.08-4.92,2.01-27.21v-.04c.08-.86.18-1.74.25-2.67.12-1.27.25-2.6.38-3.98.29-3.02.6-6.32.94-9.98.77-8.27,1.39-14.77,1.95-20.01,1.5-13.86,2.72-18.74,5.99-23.5,4.18-6.06,9.01-7.83,18.52-11.1,6.16-2.13,16.1-5.43,28.74-4.37h0c2.18.19,4.43.49,6.76.96,4.31.87,8.26,2.15,11.89,3.71,8.82,3.82,15.82,9.28,21.74,14.48h0c1.47,1.31,2.87,2.59,4.22,3.82,14.06,12.89,26.5,24.29,31.42,46.73,3.24,14.77,2.05,29.01,1.3,37.97Z"/>
      <path class="cls-3" d="m237.09,617.94c.16.29.32.6.48.88.15.29.32.58.48.86.95,1.7,1.92,3.29,2.89,4.78.32.5.64.98.97,1.46.15.24.32.48.48.71.28.42.57.82.84,1.21.04.07.09.13.13.19.24.35.48.68.72,1.02.24.33.48.66.71.98.63.87,1.26,1.73,1.87,2.56.19.25.37.5.56.75.46.63.92,1.25,1.37,1.87.11.15.23.32.34.47.23.33.47.66.69.98.09.12.17.25.26.37.12.16.23.33.34.49.14.2.27.39.4.59.39.57.78,1.15,1.15,1.74.29.47.58.94.86,1.41.15.27.32.55.47.82.48.84.94,1.7,1.38,2.6.2.38.37.78.56,1.17.22.49.44.99.64,1.51.25.64.5,1.32.74,2.01.12.34.23.69.34,1.04.08.23.14.47.21.7.02.05.03.11.05.17.08.25.14.49.21.74.08.28.15.56.22.84.1.39.2.8.28,1.21.07.27.12.56.19.85.08.39.15.8.22,1.21.12.67.23,1.35.32,2.06.05.4.11.83.15,1.26.04.39.09.79.12,1.18.04.48.08.96.12,1.45v.09c.07,1.03.11,2.1.13,3.2.09,3.77-.1,8.03-.6,12.88-1.38,13.37,7.78,37.71,14.24,53.52-3.42,1.55-7,3.2-10.7,4.89-.61.28-1.23.57-1.86.85-.05.03-.1.05-.15.08h-.01c-.57.26-1.13.52-1.7.79-1.9.43-3.54,1.17-4.77,2.15,0,0,0,.01-.01.01-.91.42-1.81.82-2.73,1.22-2.11.94-4.22,1.87-6.33,2.77h-.02c-1.09.48-2.18.94-3.28,1.4-.5.22-1.02.43-1.52.63-.5.22-1.01.42-1.51.62-2.25.93-4.47,1.8-6.66,2.62-2.22.83-4.4,1.62-6.52,2.32-.12.38-.24.79-.37,1.2.74.51,1.45,1.11,2.14,1.77.33.32.64.63.95.96.32.33.62.67.91,1.02.15.17.29.35.44.52.03.03.07.08.09.11.07.08.12.14.17.22.05.07.11.14.16.21.22.27.43.56.62.84.13.19.26.37.39.57.37.54.73,1.09,1.06,1.66.17.28.34.57.49.86.16.29.32.59.47.88.24.45.46.91.67,1.37.13.27.25.55.36.82.23.51.44,1.03.63,1.55.08.19.15.38.22.58.11.29.21.59.31.88.13.35.24.7.35,1.06.01.02.01.03.02.05.02.09.05.17.08.27.04.14.09.27.12.42.08.24.14.49.22.74.07.23.12.45.17.68.1.37.19.73.27,1.1.11.46.21.92.31,1.39.01.04.01.08.02.12.1.47.19.94.26,1.42.01.03.01.08.02.11.08.44.14.87.21,1.31.03.2.07.39.09.59.01.04.01.1.02.14v.02c.01.08.02.15.03.23.07.52.13,1.05.19,1.58.02.25.04.49.07.73.03.25.05.5.07.74.01.17.03.36.04.55.01.17.03.36.03.55.01.02.01.05.01.08.01.11.01.21.02.32.02.55.04,1.09.07,1.65.02.39.03.78.03,1.17.05,3.4-.13,6.88-.54,10.38,6.53-8.97,11.57-19.46,14.22-16.52.22.23.42.54.59.94.67,1.5.94,3.66.8,6.27-.01.21-.03.43-.04.64-.01.11-.02.23-.03.35-.03.4-.08.82-.13,1.23-.1.73-.22,1.49-.37,2.27-.03.17-.05.34-.1.51-.03.16-.07.34-.11.51-.07.35-.15.7-.24,1.06-.08.35-.16.7-.25,1.06-.11.4-.22.8-.34,1.21-.12.43-.25.85-.38,1.29-.1.28-.19.57-.28.85-.12.38-.25.76-.39,1.15-.17.51-.36,1.03-.57,1.54-.2.52-.4,1.04-.62,1.56-.22.52-.45,1.05-.68,1.57-.23.5-.46,1.01-.69,1.5-.03.07-.07.13-.1.19-.12.25-.24.5-.36.74-.12.25-.25.5-.38.75-.27.54-.55,1.06-.84,1.59-.27.5-.56,1.02-.85,1.52-.29.5-.6,1.01-.91,1.51-.32.5-.63,1.01-.96,1.51-.16.25-.33.5-.49.74-.16.25-.34.5-.51.74s-.34.49-.51.73c-.16.24-.34.48-.52.72-.34.47-.7.94-1.06,1.4-.17.23-.36.46-.55.69-.17.23-.37.46-.56.69-.75.91-1.54,1.8-2.36,2.68-.24.26-.49.52-.75.78-.25.27-.51.54-.78.8-.24.24-.49.48-.74.72-.21.2-.42.38-.62.58-.07.05-.12.12-.19.17-.32.31-.64.59-.97.87-.02.02-.05.04-.08.07-.09.09-.19.16-.28.25-.44.37-.9.74-1.35,1.11-.54.43-1.07.84-1.63,1.26-.39.29-.79.58-1.19.85-.12.09-.24.16-.36.25-.49.34-.99.67-1.51.98-.93.58-1.88,1.14-2.86,1.66-.05.03-.11.05-.16.08-.49.27-.98.52-1.49.76-.08.03-.15.08-.23.11-.51.24-1.03.48-1.55.71-.13.05-.25.11-.38.16-.09.03-.17.08-.26.11-.17.08-.35.14-.54.22l-.15.07-.2.07-.08.03s-.08.03-.11.04c-.07.03-.12.05-.19.08-.14.05-.28.11-.44.15-.17.07-.36.14-.55.21-.04.02-.1.03-.15.05-.35.12-.7.24-1.05.35-.02.01-.04.01-.07.02-.23.07-.46.15-.68.22-3.67,2.73-7.34,5.36-10.83,7.75-.38.27-.76.54-1.15.79-.57.39-1.14.78-1.68,1.14-.46.31-.92.61-1.37.91-.36.24-.73.48-1.09.71-.57.37-1.14.74-1.68,1.09-.22.14-.44.28-.64.42h-.01c-.78.49-1.52.95-2.24,1.39-2.38,1.44-4.45,2.6-6.11,3.4-.52.25-1.4.38-2.56.39-.25.17-.5.33-.76.48-.26.16-.54.31-.82.46-.47.24-.96.46-1.51.67h-.01c-.15.07-.31.12-.47.17-.14.05-.29.1-.44.14-.21.07-.43.13-.64.2-.11.03-.23.07-.35.1-.51.14-1.06.26-1.65.38-.2.04-.4.08-.6.11-.42.08-.84.14-1.29.21-.47.07-.96.12-1.47.19-.11.01-.22.02-.33.03s-.22.02-.33.03h-.02c-.31.02-.62.05-.94.08-.25.02-.5.04-.76.05-.26.02-.52.03-.8.05h-.19c-.13.01-.26.01-.4.02-.05.01-.11.01-.16.01-.15.01-.31.01-.46.02h-.1c-.32.01-.63.02-.96.03-.91.02-1.87.04-2.88.04-7.89.01-19.09-.68-35.51-2.22-.55-.05-1.08-.11-1.63-.17-.22-.02-.43-.04-.63-.08h-.01c-.22-.02-.43-.04-.63-.08-.28-.03-.56-.07-.84-.1-.54-.07-1.06-.14-1.58-.22-1.07-.15-2.12-.32-3.15-.5-.45-.08-.9-.15-1.33-.24-.45-.09-.88-.17-1.32-.26-.52-.1-1.05-.22-1.56-.34-.54-.11-1.06-.23-1.57-.36-.56-.13-1.11-.27-1.66-.42-.34-.09-.68-.19-1.02-.28-.63-.17-1.27-.36-1.89-.55-.62-.19-1.23-.38-1.84-.59-.24-.08-.48-.15-.72-.24-.05-.02-.12-.04-.17-.07-.15-.05-.31-.1-.45-.15-.2-.07-.39-.13-.58-.21-.19-.07-.38-.13-.57-.21-.4-.15-.82-.31-1.21-.47-.38-.14-.76-.29-1.14-.45-.81-.34-1.6-.69-2.37-1.04-.98.27-1.97.57-2.96.83-.36-.44-.71-.88-1.07-1.33-.05-.08-.12-.16-.19-.24-.54-.03-1.06-.07-1.58-.11h-.01c-.85-.05-1.69-.12-2.52-.19-.56-.03-1.1-.08-1.65-.12-.8-.07-1.58-.13-2.37-.2-1.96-.15-3.87-.33-5.76-.51-.79-.07-1.57-.14-2.35-.23-.32-.03-.63-.05-.95-.1-1.23-.12-2.46-.25-3.66-.38h0c-10.86-1.22-20.68-2.71-30.09-4.35-12.01-2.1-23.34-4.45-35.29-6.78-5.6-1.1-11.35-2.2-17.35-3.26v-83.24l-.36-.16h.36v-214.39c27.16,1.79,49.13,4.22,75.95,5.83.24.02.49.03.73.04,1.1.07,2.23.13,3.35.2.17.01.36.02.54.03,1.28.07,2.57.14,3.88.21.16.01.33.02.49.02,9.03.47,18.69.83,29.31,1.04,6.24-4.97,11.62-8.42,13.87-7.2,1.85,1.03,1.39,3.89.1,7.4,10.66.08,22.29,0,35.12-.25h.01c4.56-1.76,9.23-2.94,13.89-3.08h.17c.15,0,.31.01.47.02.11.01.23.02.36.04.12.01.25.03.39.05.16.03.34.07.52.11.22.05.44.11.67.17.24.07.48.14.74.23.19.05.37.12.57.2.03.01.08.03.11.04.78.27,1.63.63,2.52,1.06.29.13.59.27.9.43.23.11.46.22.69.34.68.34,1.38.72,2.11,1.13.12.05.24.12.36.2.12.07.24.13.36.2.01.01.02.01.03.02.03.02.07.03.1.05.08.04.15.09.23.13.34.2.69.39,1.04.6.57.33,1.15.68,1.74,1.04.33.2.67.4,1.01.62.34.21.69.43,1.03.64.2.12.39.24.59.37.38.24.75.48,1.14.73,1.89,1.22,3.85,2.55,5.82,3.92.37.25.74.51,1.11.78.05.04.11.08.16.11.7.49,1.39.98,2.09,1.49.75.54,1.51,1.08,2.26,1.63h.01c.6.44,1.19.87,1.79,1.32.32.23.63.46.95.7,1.22.9,2.45,1.81,3.65,2.72,2.22,1.68,4.4,3.35,6.5,4.99.64.5,1.28,1.01,1.9,1.49.74.59,1.47,1.16,2.18,1.73.4.33.81.64,1.2.95.93.74,1.82,1.46,2.69,2.16.08.07.15.12.22.17.66.54,1.28,1.04,1.89,1.53.56.46,1.1.91,1.63,1.33,3.47,2.84,6.12,5.07,7.44,6.24,7.84,6.89,40.87,36.07,38.44,38.02-11.76,9.45-31.49-16.66-42.29-7.85-4.35,3.55,3.79,4.39,6.66,9.78Z"/>
    </g>
  </g>
  <polygon class="cls-6" points="1815.34 1.62 1814.45 49.49 1814.43 50.58 1813.86 81.38 1813.82 83.93 1812.96 130.32 1812.3 165.67 1808.62 364.92 1808.59 366.47 1808.59 366.48 1807.54 422.94 1807.54 422.95 1807.5 425.49 1806.13 499.13 1805.1 554.96 1804.83 569.48 1803.59 636.96 1803.57 638.03 1803.54 639.62 1803.47 643.29 1803.35 649.89 1801.85 730.75 1801.81 732.92 1801.73 737.09 1801.67 740.29 1800.05 827.79 1800 830.85 1799.94 834.1 1799.92 835.18 1798.32 921.38 1798.28 923.64 1798.21 927.71 1798.11 933.11 1796.49 1020.45 1796.45 1022.55 1796.39 1025.9 1796.37 1026.77 1795.36 1081.62 1685.56 1081.62 1684.44 1027.93 1684.39 1025.9 1684.32 1022.55 1684.3 1021.6 1682.45 933.11 1682.36 928.95 1682.25 923.64 1682.23 922.62 1680.4 835.18 1680.37 833.4 1680.31 830.85 1680.23 827.09 1678.42 740.29 1678.38 738.35 1678.26 732.92 1678.24 732.03 1676.42 644.61 1676.35 641.34 1676.31 639.62 1676.28 638.27 1676.28 638.03 1674.7 562.71 1671.8 423.81 1670.58 365.77 1669.12 296.16 1668.77 279.42 1667.54 220.59 1667.48 217.69 1666.39 165.67 1665.65 130.32 1664.64 82.04 1664.63 81.4 1663.93 47.94 1663.91 46.94 1662.96 1.62 1815.34 1.62"/>
  <polygon class="cls-1" points="1819.03 6.47 1818.14 54.34 1818.12 55.43 1817.55 86.23 1817.51 88.78 1816.65 135.17 1815.99 170.52 1812.31 369.77 1812.28 371.32 1812.28 371.33 1811.23 427.79 1811.23 427.8 1811.19 430.34 1809.82 503.98 1808.79 559.81 1808.52 574.33 1807.28 641.81 1807.27 641.81 1807.26 642.88 1807.23 644.47 1807.16 648.14 1807.04 654.74 1805.54 735.6 1805.5 737.77 1805.42 741.94 1805.36 745.14 1803.74 832.64 1803.69 835.7 1803.63 838.95 1803.61 840.03 1802.01 926.23 1801.97 928.49 1801.9 932.56 1801.8 937.96 1800.18 1025.3 1800.14 1027.4 1800.08 1030.75 1800.06 1031.62 1799.05 1086.47 1761.11 1086.47 1759.98 1032.09 1759.95 1030.75 1759.88 1027.4 1759.84 1025.76 1758.01 937.96 1757.9 933.09 1757.81 928.49 1757.77 926.76 1755.96 840.03 1755.93 838.61 1755.87 835.7 1755.8 832.3 1753.97 745.14 1753.92 742.53 1753.82 737.77 1753.78 736.2 1751.96 648.79 1751.92 646.86 1751.91 646.86 1751.86 644.47 1751.83 642.88 1751.82 642.45 1751.1 608.11 1751.1 607.95 1750.33 571.06 1748.86 500.85 1747.65 442.82 1747.65 442.81 1746.11 369.52 1745.92 360.24 1744.69 301.42 1744.64 299.18 1741.95 170.52 1741.21 135.17 1740.21 87.47 1740.19 86.57 1739.51 54.05 1739.49 53.01 1738.52 6.47 1819.03 6.47"/>
  <g>
    <polygon class="cls-1" points="1923.93 509.17 1923.93 635.1 1904.92 616.4 1902.05 613.58 1898.13 609.72 1895.8 607.43 1894.22 605.88 1891.95 603.64 1888.06 599.82 1888.06 599.81 1885.71 597.51 1883.95 595.78 1883.95 595.77 1827.03 539.77 1827.02 539.77 1819.37 532.24 1811.63 524.62 1780.07 493.57 1774.03 487.62 1770.21 483.87 1769.93 483.59 1757.07 470.94 1753.01 466.95 1681.24 396.33 1668.01 383.32 1657.07 372.55 1652.97 368.52 1652.25 367.82 1624.39 340.4 1603.12 319.48 1545.56 262.85 1545.56 262.84 1541.46 258.81 1540.19 257.57 1539.52 256.9 1520.2 237.9 1518.97 236.68 1514.59 232.37 1514.58 232.37 1514.3 232.11 1510.17 228.03 1488.76 206.97 1480.83 199.17 1476.71 195.12 1476.71 195.11 1475.3 193.73 1465.79 184.36 1458.34 177.04 1457.11 175.82 1457.1 175.82 1452.05 170.85 1452.03 170.83 1449.65 168.49 1444.78 163.7 1444.77 163.69 1424.58 143.83 1389.43 109.25 1371.25 91.37 1366.5 86.69 1366.5 86.68 1362.37 82.63 1362.37 82.62 1360.94 81.22 1342.91 63.47 1334.95 55.65 1300.9 22.13 1300.9 22.13 1300.1 21.36 1267.4 -10.81 1261.47 -16.64 1415.55 -16.64 1454.83 23.98 1455.67 24.85 1475.3 45.16 1476.68 46.58 1476.68 46.59 1480.82 50.86 1487.95 58.25 1487.96 58.25 1488.76 59.08 1492.38 62.81 1537.27 109.25 1540.19 112.27 1541.64 113.77 1541.64 113.78 1545.76 118.03 1570.7 143.83 1589.24 163 1589.25 163.01 1597.52 171.56 1603.12 177.36 1621.37 196.24 1652.25 228.17 1653.59 229.55 1653.59 229.56 1657.69 233.8 1668.01 244.48 1678.27 255.09 1750.13 329.41 1759.51 339.11 1770.21 350.18 1771.04 351.03 1771.04 351.04 1775.14 355.28 1780.07 360.37 1814.01 395.48 1814.01 395.49 1839.4 421.73 1885.59 469.5 1885.59 469.51 1885.71 469.65 1889.68 473.74 1898.03 482.38 1923.93 509.17"/>
    <g>
      <polygon class="cls-6" points="1922.16 457.24 1922.16 583.88 1896.26 558.39 1887.07 549.35 1885.87 548.17 1883.94 546.28 1882.96 545.32 1874.75 537.24 1810.86 474.38 1778.3 442.34 1772.78 436.92 1768.69 432.9 1768.44 432.64 1756.31 420.71 1750.05 414.55 1750.05 414.54 1678.27 343.93 1666.24 332.09 1655.62 321.64 1651.52 317.61 1650.48 316.59 1621.42 288.01 1621.42 288 1601.35 268.25 1567.23 234.69 1562.39 229.92 1543.93 211.76 1540.35 208.24 1539.82 207.72 1538.42 206.34 1528.37 196.45 1520.52 188.73 1513.08 181.41 1511.44 179.79 1508.39 176.8 1506.77 175.21 1506.48 174.91 1506.47 174.91 1504.42 172.91 1499.35 167.91 1499.34 167.9 1486.99 155.75 1479.32 148.2 1479.12 148 1474.99 143.93 1473.53 142.51 1444.18 113.62 1397.4 67.6 1390.68 60.99 1369.48 40.14 1364.64 35.38 1360.51 31.32 1359.17 30 1356.65 27.52 1355.84 26.71 1316.21 -12.27 1468.21 -12.27 1473.53 -6.76 1474.78 -5.47 1478.93 -1.18 1486.99 7.16 1508.39 29.29 1509.26 30.19 1538.42 60.35 1539.82 61.8 1541.51 63.55 1543.95 66.05 1543.95 66.06 1544.8 66.95 1589.92 113.62 1601.35 125.44 1618.39 143.06 1623.36 148.2 1650.48 176.25 1651.92 177.74 1656.03 181.98 1666.24 192.55 1675.3 201.92 1747.16 276.24 1758.76 288.24 1768.44 298.25 1769.57 299.41 1773.66 303.66 1778.3 308.45 1813.27 344.62 1813.27 344.63 1883.94 417.71 1884.32 418.11 1888.41 422.34 1896.26 430.45 1922.16 457.24"/>
      <polygon class="cls-1" points="1922.16 456.66 1922.16 505.11 1896.26 480.9 1887.95 473.15 1883.94 469.4 1883.86 469.32 1837.63 426.11 1812.2 402.35 1778.3 370.66 1773.33 366.02 1769.22 362.18 1768.44 361.45 1757.59 351.31 1748.54 342.85 1676.84 275.84 1666.24 265.93 1655.87 256.24 1651.77 252.4 1650.48 251.2 1620.06 222.76 1601.35 205.27 1544 151.67 1540.27 148.2 1539.88 147.83 1538.42 146.47 1503.28 113.62 1486.99 98.4 1479.1 91.01 1474.95 87.15 1473.53 85.82 1453.77 67.35 1448.01 61.96 1412.19 28.49 1411.29 27.65 1369.48 -11.43 1368.58 -12.27 1472.64 -12.27 1473.53 -11.34 1474.76 -10.05 1478.91 -5.73 1486.99 2.71 1512.55 29.36 1513.41 30.26 1538.42 56.36 1539.81 57.81 1543.94 62.11 1545.39 63.62 1548.57 66.93 1593.32 113.62 1601.35 121.99 1618.32 139.7 1618.32 139.71 1626.47 148.2 1650.48 173.25 1651.92 174.76 1656.03 179.04 1666.24 189.69 1675.24 199.08 1747.11 274.05 1758.8 286.25 1768.44 296.3 1769.58 297.49 1773.67 301.77 1778.3 306.59 1813.3 343.1 1883.94 416.79 1884.33 417.2 1888.42 421.47 1896.26 429.64 1922.16 456.66"/>
    </g>
  </g>
  <g>
    <polygon class="cls-1" points="1926.5 81.84 1926.5 161.79 .5 161.79 .5 49.22 70.69 50.41 72.08 50.44 76.3 50.51 77.8 50.53 192.07 52.47 193.46 52.49 197.68 52.56 201.36 52.63 290.34 54.13 291.73 54.16 295.96 54.23 322.74 54.68 412.81 56.21 414.21 56.23 418.43 56.3 421.01 56.35 540.25 58.37 541.65 58.39 543.48 58.42 545.88 58.46 633.56 59.95 634.97 59.97 639.18 60.04 670.92 60.58 754.93 62 756.34 62.03 760.56 62.1 764.23 62.16 879.1 64.11 880.51 64.13 884.73 64.2 885.6 64.22 1002 66.19 1003.41 66.21 1007.64 66.28 1009.77 66.32 1063.92 67.24 1069.43 67.33 1124.65 68.26 1126.07 68.29 1130.28 68.36 1132.67 68.4 1230.82 70.06 1232.24 70.09 1236.45 70.16 1255.32 70.48 1324.38 71.65 1350.95 72.1 1352.37 72.12 1356.59 72.19 1361.49 72.28 1383.16 72.64 1441.77 73.63 1467.86 74.08 1469.29 74.1 1473.51 74.17 1480.79 74.3 1480.8 74.3 1481.62 74.31 1534.2 75.2 1535.63 75.22 1537.36 75.25 1539.84 75.3 1541.32 75.32 1598.53 76.29 1614.28 76.56 1648.76 77.14 1650.19 77.16 1654.4 77.24 1664.87 77.41 1671.22 77.52 1700.99 78.03 1701.15 78.03 1743.11 78.74 1763.63 79.09 1769.35 79.18 1770.78 79.21 1775.01 79.28 1779.43 79.35 1820.41 80.05 1887.43 81.18 1888.87 81.21 1893.09 81.28 1900.02 81.4 1926.5 81.84"/>
    <polygon class="cls-6" points="1919.5 59.53 1919.5 138.57 -6.5 138.57 -6.5 26.9 63.69 28.09 65 28.11 69.22 28.18 70.8 28.21 185.07 30.14 186.38 30.17 190.6 30.24 194.36 30.3 283.34 31.81 284.65 31.83 288.88 31.9 315.74 32.36 405.81 33.88 407.13 33.91 411.35 33.98 414.01 34.02 533.25 36.04 534.57 36.07 536.48 36.1 538.8 36.14 626.56 37.62 627.89 37.65 632.1 37.72 663.92 38.26 747.93 39.68 749.26 39.7 753.49 39.77 757.23 39.84 872.1 41.78 873.43 41.81 873.44 41.81 877.66 41.88 878.6 41.89 995 43.87 996.34 43.89 1000.57 43.96 1002.77 44 1117.65 45.94 1119 45.97 1123.22 46.04 1125.67 46.08 1223.82 47.74 1225.17 47.77 1229.39 47.84 1248.32 48.16 1281.75 48.72 1340.54 49.72 1343.95 49.78 1345.31 49.8 1349.52 49.87 1354.49 49.96 1397.23 50.68 1439.93 51.4 1460.86 51.76 1462.22 51.78 1466.45 51.85 1474.62 51.99 1496.5 52.36 1500.75 52.43 1527.2 52.88 1528.57 52.91 1532.78 52.98 1591.53 53.97 1606.56 54.23 1641.76 54.82 1643.12 54.85 1647.34 54.92 1657.87 55.1 1663.5 55.19 1735.39 56.41 1757.27 56.78 1762.35 56.87 1763.72 56.89 1767.95 56.96 1772.43 57.04 1814.04 57.74 1880.43 58.87 1881.81 58.89 1886.03 58.96 1893.02 59.08 1919.5 59.53"/>
    <polygon class="cls-1" points="1923.6 57.27 1923.6 85.77 1897.12 85.89 1890.18 85.92 1885.96 85.93 1884.53 85.94 1817.55 86.23 1776.53 86.41 1772.11 86.43 1767.88 86.45 1766.45 86.46 1760.76 86.48 1740.19 86.57 1698.25 86.76 1698.09 86.76 1668.33 86.89 1661.97 86.92 1651.5 86.96 1647.29 86.98 1645.86 86.99 1611.42 87.14 1595.63 87.21 1541.67 87.44 1537.82 87.46 1536.95 87.47 1532.73 87.48 1531.3 87.49 1482.42 87.7 1478.72 87.72 1470.61 87.76 1466.39 87.77 1464.96 87.78 1444.76 87.87 1387.13 88.12 1358.59 88.25 1353.7 88.27 1349.48 88.29 1348.05 88.29 1329.61 88.37 1252.42 88.71 1233.57 88.8 1229.36 88.81 1227.92 88.82 1129.77 89.25 1127.4 89.26 1123.18 89.28 1121.75 89.29 1066.77 89.53 1057.43 89.57 1006.87 89.79 1004.76 89.8 1000.54 89.82 999.1 89.82 882.7 90.34 881.86 90.34 877.64 90.36 876.2 90.36 761.33 90.87 757.69 90.88 753.46 90.9 752.03 90.91 668.02 91.28 636.31 91.42 632.09 91.43 630.66 91.44 543.01 91.82 540.58 91.84 538.78 91.84 537.35 91.85 418.11 92.37 415.57 92.38 411.35 92.4 409.91 92.41 377.17 92.55 374.96 92.56 319.84 92.8 293.1 92.92 288.88 92.94 287.44 92.95 248.86 93.11 248.63 93.12 245 93.13 198.46 93.34 194.83 93.35 190.61 93.37 189.17 93.38 74.9 93.88 73.46 93.88 69.24 93.9 67.79 93.91 -2.4 94.22 -2.4 23.53 67.79 24.76 69.1 24.78 73.32 24.86 74.9 24.89 189.17 26.89 190.48 26.91 194.7 26.99 198.46 27.05 287.44 28.61 288.75 28.63 292.98 28.71 319.84 29.18 409.91 30.76 411.23 30.78 415.45 30.85 418.11 30.9 537.35 32.99 538.67 33.01 540.58 33.04 542.9 33.09 630.66 34.62 631.99 34.65 636.2 34.72 668.02 35.28 752.03 36.75 753.37 36.77 757.59 36.85 761.33 36.91 876.2 38.92 877.54 38.95 881.77 39.02 882.7 39.04 999.1 41.08 1000.44 41.1 1004.68 41.17 1006.87 41.21 1121.75 43.23 1123.1 43.25 1127.32 43.32 1129.77 43.37 1227.92 45.09 1229.27 45.11 1233.49 45.18 1252.42 45.52 1286.66 46.11 1286.67 46.11 1345.47 47.15 1348.05 47.19 1349.41 47.21 1353.62 47.29 1358.59 47.37 1402.25 48.14 1444.89 48.89 1464.96 49.24 1466.32 49.26 1470.55 49.34 1478.72 49.48 1501.49 49.88 1505.73 49.95 1531.3 50.4 1532.67 50.42 1536.88 50.5 1595.63 51.53 1610.68 51.79 1645.86 52.41 1647.23 52.43 1651.44 52.51 1661.97 52.69 1667.62 52.79 1739.51 54.05 1761.35 54.43 1766.45 54.52 1767.82 54.54 1772.05 54.62 1776.53 54.7 1818.12 55.43 1884.53 56.59 1885.91 56.61 1890.13 56.69 1897.12 56.81 1923.6 57.27"/>
  </g>
  <rect class="cls-2" x="36" y="53.28" width="136.3" height="648.72" rx="18.25" ry="18.25"/>
</svg>