<?xml version="1.0" encoding="UTF-8"?>
<svg xmlns="http://www.w3.org/2000/svg" viewBox="0 0 720 432">
  <defs>
    <style>
      .cls-1, .cls-2 {
        opacity: .1;
      }

      .cls-1, .cls-2, .cls-3, .cls-4, .cls-5, .cls-6, .cls-7, .cls-8, .cls-9, .cls-10, .cls-11, .cls-12, .cls-13, .cls-14, .cls-15, .cls-16, .cls-17, .cls-18, .cls-19, .cls-20, .cls-21, .cls-22, .cls-23, .cls-24, .cls-25, .cls-26, .cls-27, .cls-28, .cls-29, .cls-30, .cls-31, .cls-32, .cls-33, .cls-34, .cls-35, .cls-36, .cls-37, .cls-38, .cls-39, .cls-40, .cls-41, .cls-42, .cls-43, .cls-44, .cls-45, .cls-46 {
        stroke-width: 0px;
      }

      .cls-2, .cls-46 {
        fill: #020b72;
      }

      .cls-4 {
        opacity: .7;
      }

      .cls-5 {
        fill: #f4dac9;
      }

      .cls-6 {
        fill: #f4c097;
      }

      .cls-7 {
        fill: #f4b63e;
      }

      .cls-8 {
        fill: #f9e3d2;
      }

      .cls-9 {
        fill: #f7d1a2;
      }

      .cls-10 {
        fill: #878787;
      }

      .cls-11 {
        fill: #898989;
      }

      .cls-12 {
        fill: #9b824b;
      }

      .cls-13 {
        fill: #a38954;
      }

      .cls-14 {
        fill: #1f4d9a;
      }

      .cls-15 {
        fill: #d1a340;
      }

      .cls-16 {
        fill: #ccb25e;
      }

      .cls-17 {
        fill: #cca887;
      }

      .cls-18 {
        fill: #ccc17f;
      }

      .cls-19 {
        fill: #e0ae80;
      }

      .cls-20 {
        fill: #c6ab5d;
      }

      .cls-21 {
        fill: #d68430;
      }

      .cls-22 {
        fill: #c1a75d;
      }

      .cls-23 {
        fill: #b0662d;
      }

      .cls-24 {
        fill: #b2662d;
      }

      .cls-25 {
        fill: #b20000;
      }

      .cls-26 {
        fill: #bcc1c1;
      }

      .cls-27 {
        fill: #a4adad;
      }

      .cls-28 {
        fill: #b29a5b;
      }

      .cls-29 {
        fill: #cea578;
      }

      .cls-30 {
        fill: #8c0623;
      }

      .cls-31 {
        fill: #b3b7b7;
      }

      .cls-32 {
        fill: #803c15;
      }

      .cls-33 {
        fill: #822f0b;
      }

      .cls-34 {
        fill: #823c15;
      }

      .cls-35 {
        fill: #802f12;
      }

      .cls-36 {
        fill: #fff;
      }

      .cls-37 {
        fill: #fff6d9;
      }

      .cls-38 {
        fill: #e8bd99;
      }

      .cls-39 {
        fill: #ff99b7;
      }

      .cls-40 {
        fill: #ffcccd;
      }

      .cls-41 {
        fill: #ffcdb2;
      }

      .cls-42 {
        fill: #f5df5e;
      }

      .cls-43 {
        fill: #f6cb9d;
      }

      .cls-44 {
        fill: #683719;
      }

      .cls-45 {
        fill: #68230c;
      }
    </style>
  </defs>
  <g id="Kanin">
    <g>
      <path class="cls-5" d="m217.66,127.22c.82,4.81,4.2,13.33,12.29,13.15,13.75-.31,46.24-21.62,50.85-30.06,1.54-2.83,5.52-7.98,6.47-11.41.66-2.41,1.3-9.44-.12-8.24-7.39,6.27-9.68,12.74-17.13,19-4.84,4.07-8.17,10.15-15,11.09-8.45,1.16-38.11,2.06-37.36,6.48Z"/>
      <path class="cls-5" d="m220.29,94.05c1.74-4.09-17.88-30.59-20.64-32.57-8.7-6.28-10.58-5.13-15.67-6.63-8.76-2.58-16.58,1.31-19.33,4.02-3.43,3.37-3.78,9.48-1.34,13.83,4.7,8.37,20.28,5.92,24.44,7.05,4.69,1.28,14.4,14.87,23.55,14.6,8.12-.25,8.18,1.6,8.98-.29Z"/>
      <path class="cls-8" d="m97.95,169.43c5.91-3.41.13-6.36,9.15-12.62,21.52-14.95,23.78-4.86,45.34-8.47,8.73-1.46,27.41-2.07,42.88-16.84,5.96-5.69,13.84-15.51,11.25-19.8-.91-1.52-6.22-9.98-13.6-2.13-13.76,14.63-33.58,4.92-36.55-.58-1.45-2.68-7.7-7.36,1.43-21.14,4.29-6.47,30.7,5.84,40.67,7,5.14.6,7.6-.4,9.53-.62,7-.82,13.18-10.27,16.46-11.99,22.54-11.82,43.75,1.91,45.85,10.65,1.28,5.35-10.54,17.67-10.96,18.16-6.75,8.04-20.04,8.96-35.09,11.73-2.39.44,3.76,6.13,8.08,7.85,2.19.87,5.9,1.83,20.49-2.16,11.74-3.2,17.6-4.81,22.95-8.93,5.91-4.56,8.78-9.55,10.09-8.82,1.23.69.18,5.95-1.89,9.91-4.29,8.2-15.2,5.29-30.71,16.56-26.3,19.1-34.24,14.81-33.95,16.41.22,1.22,1.03,1.09,1.8,2.68,2.04,4.2-.75,13.87-4.95,19.55-22.28,30.15-66.96,19.81-74.6,16.87-1.8-.69-.25,3.02-1.65,6.22-2.39,5.45-7.35,10.31-11.86,11.98-13.78,5.1-26.47-7.01-36.47-7.97-1.4-.13-3.26-.35-5.11,5.64-3.22,10.38-2.51,14.63-6.41,17.69-2.03,1.59-5.59,3.09-7.54,1.6-1.53-1.17-1.84-4.01-.77-5.75,1.1-1.79,3.16-1.62,4.66-2.38,6.68-3.39.52-27.82,6.39-31.86,5-3.45,13.62,7.75,17.88,8.71,3.4.77-8.59-8.86-4.82-16.33,2.21-4.38-7.65-3.61-7.61-5.42.05-1.91,4.53-2.43,9.67-5.39Z"/>
      <g>
        <path class="cls-36" d="m231.79,99.8c4.79.9,11.5-1.16,13.42-4.98,3.37-6.72-8.12-11.76-12.24-8.98-6.13,4.15-5.74,13.1-1.18,13.95Z"/>
        <ellipse class="cls-3" cx="239.45" cy="92.54" rx="4.91" ry="4.45" transform="translate(-10.62 150.58) rotate(-34.2)"/>
        <ellipse class="cls-36" cx="241.52" cy="93.16" rx="2.65" ry="2.59" transform="translate(-10.6 151.85) rotate(-34.2)"/>
        <ellipse class="cls-36" cx="237.31" cy="91.18" rx="1.62" ry="1.31" transform="translate(-10.22 149.14) rotate(-34.2)"/>
      </g>
      <path class="cls-40" d="m170.96,69.24c1.67,2.26,14.67-.57,21.99,7.82,2.72,3.12,7.61,5.55,10.21,5.85,4.46.51.16-12.53-3.89-15.71-5.29-4.16-16.94-6.66-19.6-7-3.65-.47-14.12,1.72-8.7,9.04Z"/>
      <path class="cls-40" d="m161.46,88.54c-1.83,2.83,4.69,12.42,16.13,14.72,5.01,1.01,16.99-7.28,20.09-6.59,5.32,1.18-4.23-1.43-10.35-2.74-5.92-1.27-10.53-2.5-13.71-3.25-4.36-1.03-11.31-3.45-12.16-2.14Z"/>
      <g>
        <path class="cls-40" d="m261.59,93.66c.57,1.28,3.38,5.59,4.7,4.7,2.84-1.92,3.47-10.15.21-9.63-1.14.18-2.83.62-3.77,1.69-.33.37-1.71,1.95-1.13,3.23Z"/>
        <path class="cls-39" d="m266.55,97.58c-.25-.17,1.16-1.51,1.63-3.33.23-.89.21-2.52.99-2.64.13-.02-.08.88-.13,1.37-.06.61-.45,1.98-.67,2.38-.07.13.05.06-.53,1.08-.28.5-.55.69-.86.94-.1.08-.34.26-.44.2Z"/>
        <path class="cls-39" d="m265.21,91.32c.57-.04.85-.02,1.08-.01.13,0,2.24-.16,2.74.07,0,0,.02.39-.47.49-.6.12-.82.16-1.27.23-.21.03-1.01.03-1.42,0-.57-.04-1.05-.13-1.01-.53.02-.16.22-.24.34-.25Z"/>
      </g>
      <path class="cls-29" d="m285.31,93.67c.32-.47,1.29-1.04,1.44-1.22.08-.1.46-1.51.96-1.76,0,0,.13.18.1.67s-.05,1.17-.27,1.57c-.1.18-.78.63-1.33.93-.5.27-.62.51-.9.23-.12-.12-.06-.32.01-.42Z"/>
      <path class="cls-29" d="m283.29,113.09c.32-.47,1.29-1.04,1.44-1.22.08-.1.46-1.51.96-1.76,0,0,.13.18.1.67s-.05,1.17-.27,1.57c-.1.18-.78.63-1.33.93-.5.27-.62.51-.9.23-.12-.12-.06-.32.01-.42Z"/>
      <path class="cls-4" d="m252.08,96.79c2.81-.58,5.57-.67,5.44-1.43-.08-.46-.62-.27-.84-.21-.76.17-2.02.38-2.66.52-.64.14-1.81.27-3.22.82s-1.83.32-1.72.6c.18.45,2.03-.09,3.01-.29Z"/>
      <path class="cls-4" d="m254.16,102.16c2.26-1.77,4.69-3.08,4.23-3.7-.28-.38-.67.04-.85.18-.6.49-1.64,1.24-2.15,1.65-.51.41-1.5,1.04-2.52,2.17s-1.49,1.1-1.27,1.3c.36.32,1.77-.98,2.56-1.6Z"/>
      <path class="cls-4" d="m257.6,104.88c1.42-2.5,3.16-4.63,2.5-5.03-.4-.25-.61.29-.72.49-.37.68-1.05,1.78-1.36,2.34-.32.57-.99,1.54-1.51,2.96s-.96,1.59-.68,1.69c.45.16,1.27-1.58,1.76-2.46Z"/>
      <path class="cls-3" d="m222.25,98.22c-.64-.15-.88-3.42.3-6.29,1.37-3.33,4.45-5.6,5.01-5.19.3.22-1.22,1.52-2.84,5.07-1.83,4.02-2.04,6.5-2.48,6.4Z"/>
      <path class="cls-5" d="m112.82,169.16c7.39-.37,12.82,3.03,15.21,4.58,3.29,2.13,11.87,7.68,12.46,17.74.48,8.28-4.65,16.3-11.39,19.43-9.31,4.32-20.33,1.97-26.7-1.75-8.66-5.06-10.7-8.18-13.93-6.59-1.4.69-3.35,3.67-4.18,11.18-.31,2.79-3.26,10.98-6.11,12.41-.88.44-3.62,3.6-5.8,2.73-2.12-.84-4.39-5.57-1.64-7.75,2.34-1.86,4.71-1.9,5.88-4.4,3.71-7.92-.59-25.19,4.67-29.33,4.95-3.91,14.56,8.21,14.72,4.47.1-2.3-3.33-5.73-2.27-10.98,1.33-6.61,10.96-11.32,19.09-11.73Z"/>
      <path class="cls-36" d="m83.21,162.63c-.99,3.92,1.93,3.42,1.05,6.8-.6,2.32-3.31,1.33-3.09,5.41.21,3.78,6.93-.13,7.06,3.99.08,2.73-.06,2.7,1.49,4.98.65.96,3.4,2.4,5.23.78,3.31-2.94,2.67-3.63,3.93-4.71,1.29-1.1,5.26.86,7.69-1.46,1.22-1.17-.02-1.91-1.21-5.87-.78-2.6,5.53-6.18,3.02-9.67-4.53-6.27-6.06-.11-7.17-2.48s-3.68-7.93-6.36-5.64c-3.17,2.71.22,2.82-4.23,6.02-2.2,1.58-5.47-5.84-7.41,1.85Z"/>
    </g>
  </g>
  <g id="Alt">
    <g id="Rotte">
      <g>
        <path class="cls-37" d="m606.43,175.25c1.82,1.54,3.61,2.84,5.33,3.94,4.28,2.74,8.17,4.22,11.34,5.04,0,0,0,0,0,0,1.77.46,3.31.7,4.57.85.23.03.5.08.8.15.86.2,1.96.57,3.26,1.07,3.04,1.18,7.09,3.07,11.22,5.05,1.09.52,2.19,1.05,3.27,1.58,3.74,1.82,7.34,3.59,10.11,4.86,1.71.78,3.09,1.37,4,1.66.36.12.64.19.84.21,3.79.3,9.7-4.22,15.22-8.94,1.05-.89,2.08-1.79,3.08-2.67.76-.66,1.51-1.31,2.22-1.94,1.79-1.55,3.42-3.02,4.93-4.4h0c1-.92,1.94-1.79,2.83-2.63h0c4.64-4.35,7.98-7.66,10.99-9.82.08-.06.14-.11.21-.17h0c.53-.49.89-1.24,1.1-2.2.64-2.87,0-7.53-.92-12.12-.28-1.41-.58-2.81-.88-4.15-.28-1.29-.56-2.52-.81-3.65-.38-1.76-1.11-3.49-2.05-5.13-1.33-2.33-3.07-4.49-4.85-6.33h0c-2.94-3.06-5.95-5.21-7.24-5.77-.89-.39-.75,1.32-.18,4.24.16.87.37,1.84.6,2.91h0c1.46,6.78,3.79,16.97,2.76,24.36-.11.8-.26,1.57-.46,2.3-.32,1.18-.76,2.26-1.33,3.19-.4.64-.9,1.36-1.48,2.11-.71.93-1.56,1.93-2.51,2.96-2.07,2.27-4.63,4.67-7.32,6.78-.94.73-1.89,1.43-2.85,2.07-2.42,1.62-4.86,2.89-7.1,3.51-1.53.42-3.06.65-4.58.72-1.51.07-3.01-.01-4.46-.21-2.14-.29-4.19-.82-6.05-1.45-1.31-.45-2.53-.95-3.62-1.45-1.96-.9-3.52-1.81-4.5-2.44-3.79-2.48-5.27-3.47-6.04-3.98-.98-.66-.73-.51-2.67-1.72-.16-.1-.31-.2-.46-.29-3.62-2.38-3.99-3.93-7.63-4.93-.3-.08-.62-.16-.96-.23-1.04-.23-2.04-.69-3.04-1.28,0,0-.02,0-.03-.02-.55-.33-1.1-.71-1.65-1.11,0,0-.02-.01-.03-.02-.64-.47-1.29-.97-1.97-1.49h0c-.39-.31-.79-.62-1.2-.92,0,0-.01-.01-.02-.02-.7-.52-1.44-1.05-2.21-1.55-.97-.63-2-1.22-3.11-1.72-3.96-1.8-5.74,1.23-8.59,3.51-5.26,4.21-.41,3.55,4.1,11.68Z"/>
        <path class="cls-27" d="m538.85,44.64c2.82,4.18-.48,9.75-4.76,13.89-5.69,5.5-17.04,4.48-19.6,4.12-1.88-.26-10.59-1.48-11.85-6.45-1.4-5.5,7.41-11.29,8.57-12.04,7.36-4.72,23.89-5.08,27.64.48Z"/>
        <path class="cls-31" d="m560.08,166.26c-3.17-10.33-44-13.65-46.18-8.05-1.21,3.12,13.91,15.77,20.07,19.11,3.78,2.05,7.28,2.54,10.14,6.33.72.95,3.16,3.64,2.16,6.37s-7.94-1.3-5.84,2.45c1.95,3.49,18.75,9.93,21.32,6.52,2.03-2.7-3.7-8.8-4.1-20.08-.21-5.9,3.37-9.59,2.43-12.66Z"/>
        <path class="cls-26" d="m468.83,36.55c-.84,1.94-1.44,3.44-1.86,4.62-1.44,4.11-.59,4.4.51,6.04.66.98,1.4,2.45,1.79,5.5.01.1.02.2.04.3,0,.07.02.13.02.2.26,2.73-.91,3.64-1.24,4.82-.1.35-.12.72-.01,1.17,1.11,4.52,5.07,6.22,9.57,11.93,1.82,2.32,4.21,2.78,5.41,6.4,1.86,5.6,4.45,13.4,1.77,21.59-2.69,8.2-10.51,16.29-19.38,18.11-3.22.66-6.77.52-9.12,1.27,0,0,0,0,0,0-1.12.36-1.96.91-2.36,1.84-.51,1.19-.19,2.71.51,3.7,1.53,2.16,4.77.23,8.36,1.77.28.11.56.26.84.42,5.27,3.08,7.27,7.21,10.71,6.63,3.19-.53,3.82-.71,7.6-2.19,2.7-1.05,5.67-.13,8.86-.14,1.2,0,2.44-.13,3.7-.56.01,0,.03,0,.04,0,.09-.03.17-.03.24,0,.63.23.69,2.32.79,2.95.16.92.86,1.93,2.58,6.14,1.28,3.13,4.67,4.33,4.5,6.4-.09,1.09-1.19,1.99-2.46,2.48-2.78,1.08-4.62.97-5.25,1.89h0c-.07.11-.12.23-.16.36-.12.43-.02.99.25,1.56.61,1.32,2.06,2.7,3.41,2.6.4-.03.7-.18.96-.41.62-.52,1.05-1.44,2.07-2.16.28-.2.6-.37.99-.52,1.93-.75,2.87.18,4.12-.72,1.73-1.24,1.17-3.89,1.85-4.05.56-.13,1.11,1.66,2.02,4.19.79,2.19,1.84,4.92,3.41,7.47.33.54.68,1.07,1.07,1.58,5.2,7.02,13.66,9.05,22.2,11.11,3.61.87,10.19,2.39,15.65.81,4.44-1.29,6.57-2.15,6.57-2.15.18-.07.35-.14.51-.2,2.6-1.01,3.43-.94,4.12-1.32,3.41-1.88-2.5,5.51-3.05,10.07-1.25,10.34,7.96,19.76,9.87,22.06,8.53,10.33,22.21,13.83,21.37,19.52,0,0,0,0,0,.02-.16,1-.81,2.43-.14,4.1.71,1.77,2.79,3.51,5.01,3.2.86-.12,1.59-.52,2.2-1.09h0c1.49-1.42,2.14-3.86,1.63-5.5-.64-2.06-1.6-3.05-4-4.93-3.92-3.08-3.96-7.43-2.29-12.99,2.32-7.72,3.87-8.26,9.1-12.72,3.65-3.11,3.93,3.23,6.31,1.87,2.91-1.66,4.7-5.06,5.75-9.12.08-.3.15-.6.22-.9,1.3-5.71,1.26-12.51.9-17.67,0-.02,0-.05,0-.07-.23-3.35-.61-5.99-.83-7.18-2.42-12.64-4.12-23.28-10.23-28.76-6.86-6.16-13.06-4.23-43.7-8.15-22.28-2.85-24.6-4.59-26.14-6.12-9.9-9.8-2.08-25.33-13.73-34.95-4.91-4.06-7.04-4.98-9.27-9.23-.2-.38-.4-.79-.6-1.23-.95-2.07-.95-3.54-.68-4.86.08-.39.18-.76.3-1.13.59-2.01,1.34-3.97-.5-7.64-.03-.06-.38-.45-.99-1.05-.67-.67-1.64-1.59-2.79-2.59-.72-.63-1.51-1.28-2.36-1.93-2.42-1.86-5.22-3.64-7.76-4.34-4.25-1.17-4.51-1.59-9.04-1.6-6.44,0-11.9-3.51-15.46-5.58,0,0,0,0-.01,0-2.28-1.33-3.78-2.07-4.27-.95Z"/>
        <path class="cls-37" d="m554.71,215.56c.07.5,1.62.38,3.97,2.07,1.95,1.39,2.44.82,5.03,3.25,2.01,1.88,3.62,3.78,3.4,3.62-.58-.42-1.98-.3-4.66-.98-1.1-.28-4.09,1.2-3.85,1.68.3.61,4.03-.31,5.66.74,1.73,1.12,6.05,2.51,5.94,2.81-.1.27-1.98-.05-4.06,0-.79.02-2.56,2.55-2.52,3.8.03.76,2.66-3.18,5.43-1.73,1.73.9,3.51.55,6.92,2.62,7.45,4.54,9.92,7.29,11.4,6.43,1.01-.59.08-1.99,1.39-4.51,1.27-2.44,5.56-4.52,7.23-6.36.38-.25,1.05-.77,1.75-1.16.1-.05,1.25-1.14,1.87-2.62.17-.39.15-1.2-.09-1.06-.63.39-2.55,1.77-3.3,1.9-.27.05.73-.66,1.08-1.33.8-1.52,1.29-3.34,1.12-3.5-.1-.08-1.45,1.17-1.93,1.46-1.2.74-2.52.92-2.69.67-.08-.11.6-.24,1.16-1.1.47-.73.86-2.64.71-2.79-.16-.17-1.47,1.64-1.81,1.86-.96.64-1.22,1.01-1.36.93-.35-.19-.17-3.84-.48-3.46-.6.73-.65,3.1-1.72,4.73-.16.25-.34.48-.56.68-.16.21-.33.43-.5.66-.84,1.13-1.75,2.39-2.56,2.84-1.94,1.08-4.33.1-5.94-.38-2.66-.79-4.32-1.74-9.61-6.13-.26-.21-.97-.81-1.96-1.58-1.34-1.06-2.09-3.13-2.74-3.36-2.57-.9-6.66-2.24-6.52-1.92.67,1.6,3.34,1.72,5.36,3.76,1.29,1.29,1.46,1.53,1.67,2.66.1.5-4.35-2.85-6.27-4.35-1.83-1.43-5.99-1.1-5.96-.84Z"/>
        <path class="cls-37" d="m418.85,111.9c.07.45,1.44.34,3.54,1.84,1.74,1.24,2.17.73,4.48,2.89,1.79,1.68,3.23,3.37,3.03,3.23-.52-.37-1.77-.27-4.15-.88-.98-.25-3.64,1.07-3.43,1.5.26.54,3.6-.28,5.05.66,1.54,1,5.4,2.24,5.3,2.51-.09.24-1.76-.04-3.62,0-.7.02-2.28,2.27-2.24,3.39.02.68,2.37-2.83,4.84-1.55,1.54.81,3.13.49,6.16,2.33,6.64,4.05,8.84,6.5,10.16,5.73.9-.52.07-1.78,1.24-4.02,1.13-2.18,5.54-2.59,7.04-4.23.34-.22,1.68.39,2.29.04.09-.05.31-.03,1.74.06.74.05,2.68.8,2.63.55-.19-1.05-4.27-1.6-4.94-1.48-.24.04,2.54-.64,3.1-1.09.12-.1,1.15-.53,1.49-1.29.05-.1-3.27.43-3.74.59-1.11.39-2,.34-2.15.12-.07-.1,1.85-.45,2.35-1.22.42-.65,2.12-1.29,1.99-1.43-.15-.15-3.16.99-3.53,1-1.39.05-2.3-.38-2.43-.46-.31-.17,5.1-1.53,4.68-1.63-1.68-.38-5.11-1.24-6.06.21-.14.22-2.32,1.29-2.51,1.47-.15.18-1.69.99-1.91,1.1-1.34.68-1.18.44-1.9.84-1.73.97-2.79.42-4.23,0-2.37-.7-2.93-1.18-7.65-5.1-.23-.19-2.85-1.42-3.73-2.11-1.2-.94-1.86-2.79-2.45-3-2.29-.8-5.93-2-5.81-1.71.6,1.43,2.98,1.54,4.78,3.35,1.15,1.15,1.3,1.36,1.49,2.37.09.45-3.88-2.54-5.59-3.88-1.63-1.27-5.34-.98-5.31-.75Z"/>
        <path class="cls-37" d="m589.74,224.21c.22-.2.4-.43.56-.68-.18.2-.37.43-.56.68Z"/>
        <path class="cls-37" d="m589.24,224.87c.17-.23.34-.45.5-.66-.04.04-.07.07-.11.11-.19.17-.32.35-.39.55Z"/>
        <path class="cls-26" d="m539.56,63.39c.4,5.02-5.21,8.26-10.97,9.77-7.66,2-17.04-4.47-19.1-6.03-1.51-1.15-8.5-6.49-7.16-11.44,1.48-5.48,12-6.2,13.38-6.28,8.73-.5,23.31,7.31,23.85,13.99Z"/>
        <path class="cls-37" d="m505.36,175.08c.07.5,1.62.38,3.97,2.07,1.95,1.39,2.44.82,5.03,3.25,2.01,1.88,3.62,3.78,3.4,3.62-.58-.42-1.98-.3-4.66-.98-1.1-.28-4.09,1.2-3.85,1.68.3.61,4.03-.31,5.66.74,1.73,1.12,6.05,2.51,5.94,2.81-.1.27-1.98-.05-4.06,0-.79.02-2.56,2.55-2.52,3.8.03.76,2.66-3.18,5.43-1.73,1.73.9,3.51.55,6.92,2.62,7.45,4.54,10.58,7.96,12.06,7.09,1.01-.59.75-1.51,3.24-2.86,2.9-1.58,3.71-.61,6.32.17.43.13,3.85,1.65,4.64,1.68.11,0,.98.09,2.29-.14.19-.03-1.83-1.08-2.1-1.21-.66-.34-3.31-1.38-3.6-1.8-.15-.22,1.34.05,2.47.07,1.77.04,4.57-2.27,4.35-2.35-.59-.21-3.67.38-4.81.24-1.44-.17-5.29-1.18-5.47-1.43-.08-.11,5.8,1.03,6.36.17.47-.73.32-3.47.17-3.62-.16-.17-2.29.99-2.66,1.17-1.87.91-3.33,1.1-3.29.94.87-2.89-.48-4.84-.39-4.03.14,1.3.46,3.41-.8,3.82-.28.09-4.33-.28-4.55-.08-.16.21-4.07,1.23-4.36,1.23-1.94,0-3.38-1.74-3.97-2.46-1.81-2.18-3.36-3.16-4.67-4.23-2.46-2.02-.8-.21-6.1-4.6-.26-.21-.97-.81-1.96-1.58-1.34-1.06-2.09-3.13-2.74-3.36-2.57-.9-6.66-2.24-6.52-1.92.67,1.6,3.34,1.72,5.36,3.76,1.29,1.29,1.46,1.53,1.67,2.66.1.5-4.35-2.85-6.27-4.35-1.83-1.43-5.99-1.1-5.96-.84Z"/>
        <path class="cls-37" d="m526.96,69.07c-5.46.25-14.56-.85-15.35-6.27-.06-.44-2.75-5.45-1.18-9.06,1.59-3.67,9-.76,12.1.49,3.28,1.32,9.39,5.16,12.74,9.2.79.96-5.52,5.51-8.3,5.64Z"/>
        <path class="cls-36" d="m486.89,57.51c-1.56-1.66-1.23-5.07.38-6.16.96-.65,2.71-.02,6.17,1.26,3.59,1.33,5.85,2.13,5.4,2.85-.74,1.19-4.33,4.48-6.73,4.96-3.34.66-4-1.6-5.22-2.91Z"/>
        <path class="cls-3" d="m487.22,52.68c-1.21,1.42-1.03,3.56.39,4.76s3,.22,4.76-.39c2.15-.75,5.47-1.06-.39-4.76-1.58-1-3.56-1.03-4.76.39Z"/>
        <path class="cls-25" d="m487.39,53.69c-.49.57-.43,1.42.13,1.9s2.67-.15,3.16-.72-.75-1.12-1.4-1.35c-.7-.25-1.41-.39-1.89.18Z"/>
        <path class="cls-36" d="m470.93,51.9c.31-2.03-.17-4.06-2.04-4.79-1.87-.73-5.43,3.26-7.52,4.7-1.69,1.17,3.29.94,5.48,1.43,2.11.47,3.92-.28,4.08-1.34Z"/>
        <path class="cls-36" d="m473.65,56.92c.31-2.03-.17-4.06-2.04-4.79-1.87-.73-5.43,3.26-7.52,4.7-1.69,1.17,3.29.94,5.48,1.43,2.11.47,3.92-.28,4.08-1.34Z"/>
        <path class="cls-27" d="m468.12,47.97c1.38,1.9,1.76,1.81,2.95,4.13,1.32,2.57.96,3.32.25,7.01-.04.22,1.31,1.81,2.06,1.55,1.04-.36.73-4.13.18-6.54-.7-3.02-2.04-4.99-2.92-6.07-.5-.61-2.59-3.17-3.7-2.67-.67.3.46,1.58,1.18,2.58Z"/>
        <path class="cls-27" d="m503.73,54.41c-2.17-.89-4.45-.03-6.69-1.38-2.47-1.49-1.6-.66-2.94-4.18-.08-.21-1.08-1.35-1.58-.73-.7.85.43,4.33,2.13,6.13,1.05,1.11,6.41,2.12,7.98,1.94.78-.09,2.93,4.33,3.21,2.76.31-1.73-.97-4.08-2.11-4.55Z"/>
        <path class="cls-26" d="m623.55,184.07c.21-.54-7.16-3.34-6.66-3.52.65-.23,3.86.04,4.97-.48,1.44-.68,3.16-1.58,3.21-1.98.06-.42-.79-.86-1.86-1.42-1.13-.59-1.59-.66-2.81-1.26-1.18-.58-2.83-3.64-2.77-4.05.07-.43,1.54,1.01,2.93.1.55-.36,4.52-2.29,4.57-3.03.06-.83-3.18-1.15-3.95-1.49-1.28-.58-2.59-2.01-3.73-2.66-2.3-1.32-2.03-2.95-2.98-2.75-2.42.53-5.36,16.38-1.47,19.75.75.65,2.22,1.08,5.14,1.94,2.23.65,5.21,1.35,5.4.87Z"/>
        <path class="cls-41" d="m632.76,173.35c-.63,1.17-1.34,3.76-1.82,5.14-.76,2.19-2.14,4.85-2.47,6.74.86.2,1.96.57,3.26,1.07,1.07-1.66,2.37-4.42,2.82-6.06.47-1.72,1.28-3.48,1.34-4.87-.98-.66-.73-.51-2.67-1.72-.16-.1-.31-.2-.46-.29Z"/>
        <path class="cls-41" d="m646.42,181.79c-.44,1.23-.87,2.72-1.2,3.66-.65,1.89-1.77,4.12-2.28,5.91,1.09.52,2.19,1.05,3.27,1.58,1.02-1.68,2.19-4.2,2.62-5.74.37-1.36.96-2.75,1.21-3.96-1.31-.45-2.53-.95-3.62-1.45Z"/>
        <path class="cls-41" d="m656.09,184.69c-.04,1.68.19,4.14.24,5.58.08,2.37-.21,5.32-.01,7.53,1.71.78,3.09,1.37,4,1.66.61-2.13.98-6.5.76-8.79-.2-2.02-.06-4.21-.53-5.77-1.51.07-3.01-.01-4.46-.21Z"/>
        <path class="cls-41" d="m672.23,180.67c.5,1.31,1.35,3,1.8,4.05.8,1.87,1.49,4.33,2.34,6,1.05-.89,2.08-1.79,3.08-2.67-.42-1.63-1.03-3.4-1.58-4.48-.95-1.86-1.59-4.08-2.79-4.98-.94.73-1.89,1.43-2.85,2.07Z"/>
        <path class="cls-41" d="m682.4,171.82c.48,1.11,1.07,2.32,1.42,3.13.94,2.18,1.72,5.17,2.79,6.76,1-.91,1.94-1.79,2.83-2.63h0c-.42-1.83-1.14-4.03-1.78-5.28-.94-1.84-1.57-4.03-2.75-4.95-.71.93-1.56,1.93-2.51,2.96Z"/>
        <path class="cls-41" d="m688.18,161.26c-.11.8-.26,1.57-.46,2.3,1.05.75,3.69,1.73,5.05,2.35,2.71,1.22,6.08,3.54,7.87,3.19h0c.53-.49.89-1.24,1.1-2.2-.79-1.14-4.78-3.63-6.9-4.43-2.57-.96-5.15-2.73-6.66-1.21Z"/>
        <path class="cls-41" d="m687.79,148.62c-.2.71,3.71,2.13,5.49,2.93,2.55,1.15,5.69,3.28,7.54,3.23-.28-1.41-.58-2.81-.88-4.15-1.5-1.01-3.36-2.05-4.6-2.51-3.18-1.19-6.37-3.62-7.56.51Z"/>
        <path class="cls-41" d="m684.82,133.99c.16.87.37,1.84.6,2.91h0c1.25.61,2.97,1.28,3.99,1.74,2.62,1.18,5.85,3.38,7.68,3.22-1.33-2.33-3.07-4.49-4.85-6.33h0c-.27-.13-.53-.23-.76-.32-2.57-.96-5.14-2.73-6.66-1.21Z"/>
        <path class="cls-31" d="m494.83,129.98c.63.23.69,2.32.79,2.95.16.92.86,1.93,2.58,6.14,1.28,3.13,4.67,4.33,4.5,6.4-.09,1.09-1.19,1.99-2.46,2.48-2.78,1.08-4.62.97-5.25,1.89h0c-.08.09-.15.18-.21.27-.08.12-.46.64-.74,1.01.34.22.69.44,1.04.64,1.47.87,2.95,1.62,4.38,2.2.04.02.07.03.11.04.21-.2.82-.82,1.53-1.58.15-.17.39-.49.44-.61.28-.2.6-.37.99-.52,1.93-.75,2.87.18,4.12-.72,1.73-1.24,1.17-3.89,1.85-4.05.56-.13,1.11,1.66,2.02,4.19.42-5.43-5.7-12.45-5.99-15.99-.45-5.5-3.36-4.89-9.69-4.74Z"/>
        <path class="cls-26" d="m490.85,130.55c1.2,0,2.44-.13,3.7-.56-.5.02-1,.06-1.49.13-.63.08-1.39.22-2.21.43Z"/>
        <path class="cls-37" d="m468.58,145.26c.05.36,1.16.27,2.85,1.49,1.4,1,1.75.59,3.61,2.33,1.45,1.35,2.6,2.71,2.44,2.6-.42-.3-1.42-.22-3.35-.71-.79-.21-2.93.86-2.76,1.21.21.44,2.9-.22,4.06.54,1.25.81,4.35,1.8,4.27,2.02-.08.19-1.42-.04-2.92,0-.57.02-1.84,1.83-1.81,2.73.02.54,1.91-2.29,3.9-1.25,1.24.65,2.52.39,4.97,1.88,5.35,3.26,7.12,5.23,8.18,4.61.73-.42.06-1.43,1-3.23.91-1.75,3.99-3.25,5.19-4.57.27-.17.75-.55,1.25-.83.01,0,.04-.03.08-.07.21-.2.82-.82,1.53-1.58.15-.17.39-.49.44-.61.01-.04.01-.06-.04-.03-.45.28-2.56.93-3.1,1.02-.19.03.69-.3,1.08-.67.85-.84,1.32-1.07,1.19-1.17-.07-.06-1.35.26-1.7.47-.86.53-1.68.56-1.8.38-.06-.08.62-.17,1.19-.61.49-.39,1.54-.91,1.44-1.02-.14-.12-1.89.51-2.17.59-.79.22-1.03.12-1.14.06-.25-.14,2.12-2.15,1.78-2.06-.38.1-2.35.17-3.27,1.09h0c-.08.09-.15.18-.21.27-.08.12-.46.64-.74,1.01-.13.17-.24.31-.29.35-.12.14-.24.31-.36.47-.61.81-1.26,1.71-1.84,2.04-1.4.77-3.11.07-4.27-.27-1.91-.56-3.1-1.25-6.9-4.4-.18-.15-.7-.58-1.4-1.14-.96-.76-1.5-2.25-1.97-2.41-1.84-.65-4.78-1.61-4.68-1.38.48,1.15,2.4,1.24,3.85,2.7.92.93,1.04,1.1,1.2,1.91.07.36-3.12-2.05-4.5-3.12-1.32-1.02-4.31-.79-4.28-.61Z"/>
      </g>
    </g>
    <g>
      <ellipse class="cls-1" cx="363.55" cy="391.32" rx="12.91" ry="19.36"/>
      <path class="cls-20" d="m321.24,397.08h0c1.74,4.32,4.63,8.01,8.69,10.23,13.84.45,17.87,2.55,26.24,3.48h0c.93.1,1.91.19,2.97.26.14.01.29.02.44.03h0c.11,0,.23.01.35.02h0c1,.06,2.07.1,3.22.12.94.02,1.94.02,3,.01h0c.8,0,1.63-.02,2.5-.05-.01-.69-.01-1.38-.01-2.07,0-.2,0-.39,0-.58,0-.24,0-.48,0-.73,0-.42,0-.83.02-1.24,0-.02,0-.05,0-.07,0-.43.01-.86.03-1.29.02-1.09.06-2.17.1-3.24.02-.59.05-1.17.08-1.75,0-.15.01-.31.02-.46,0-.06,0-.13,0-.19h0c.04-.9.09-1.79.15-2.68.02-.34.04-.67.06-1.01.05-.84.1-1.67.16-2.5h0c.02-.27.03-.53.05-.8h0c.08-1.21.16-2.42.24-3.63t0,0c0-.12.01-.23.02-.35.03-.55.07-1.11.1-1.66,0-.07,0-.13.01-.2.04-.6.07-1.2.1-1.8h0c.03-.58.06-1.16.09-1.74,0-.04,0-.08,0-.12.04-.88.08-1.77.11-2.65,0-.1,0-.21.01-.31,0-.13.01-.27.01-.41.01-.32.02-.64.03-.95.01-.44.02-.89.03-1.33,0-.34.01-.67.02-1.01.01-.58.01-1.16.02-1.75,0-2.39-.04-4.84-.18-7.35-.79.02-1.55.04-2.28.06h0c-1.83.04-3.48.05-5,.04-.69,0-1.35-.01-1.99-.03-11.21-.23-14.93-1.61-30.73-1.36-5.95,3.25-9.41,9.67-10.37,16.61-.67,4.87-.12,10,1.67,14.46Z"/>
      <path class="cls-22" d="m321.24,397.08h0c1.74,4.32,4.63,8.01,8.69,10.23,13.84.45,17.87,2.55,26.24,3.48h0c.93.1,1.91.19,2.97.26.06.07.12.15.18.22.14-.04.28-.08.42-.12.06-.02.12-.04.19-.06h0c.64-.19,1.25-.39,1.83-.61,1.8-.67,3.36-1.47,4.7-2.35.02-.01.05-.03.07-.05.74-.48,1.42-1,2.04-1.52.03-.02.06-.05.09-.08,1.04-.89,1.92-1.83,2.66-2.77,1.51-1.91,2.48-3.84,3.16-5.48.1-.25.2-.5.29-.73.06-.16.12-.31.17-.46,0,0,0,0,0,0s0,0,0,0c.48-1.31.77-2.32,1.05-2.81.13-.24.26-.49.38-.75h0c.47-1.03.81-2.17.99-3.32h0s0,0,0,0c0,0,0,0,0,0,.39-2.45.03-4.91-1.38-6.25-.02-.02-.05-.05-.07-.07h0c-.18-.16-.38-.29-.58-.39-.29-.14-.6-.21-.93-.22-.44-.02-.92.07-1.42.22-.05.01-.1.03-.15.05-.15.05-.3.11-.46.17-.36.14-.74.32-1.13.51-.19.09-.39.2-.59.3-.29.15-.58.31-.88.46-.94.49-1.94,1.01-2.98,1.42,0,0,0,0,0,0-.14.06-.29.11-.44.16,0,0,0,0,0,0-.93.33-1.89.57-2.87.62-.31.02-.63.01-.95-.01-.06,0-.12-.01-.18-.02-.25-.03-.5-.06-.75-.12-.58-.13-1.17-.33-1.77-.63-.07-.04-.14-.07-.21-.11-.07-.04-.14-.08-.22-.11-.02,0-.03-.01-.05-.02-.09-.04-.19-.09-.3-.13-.02-.01-.05-.02-.07-.03-.44-.19-1-.4-1.63-.61-.04-.01-.08-.03-.12-.04-.39-.13-.82-.27-1.26-.41-.04-.01-.09-.03-.13-.04-1.25-.38-2.67-.78-4.13-1.17-.13-.03-.26-.07-.38-.1-4.96-1.31-10.3-2.48-11.05-2.48-1.21,0,5.16,2.58,5.16,2.58-1.29,3.87-6.32-1.93-15.49,2.58-2.72,1.34-6.98-1.31-10.37-3.62-.67,4.87-.12,10,1.67,14.46Z"/>
      <path class="cls-12" d="m321.24,397.08c1.74,4.32,4.63,8.01,8.69,10.23,13.84.45,17.87,2.55,26.24,3.48h0c.93.1,1.91.19,2.97.26.06.07.12.15.18.22.14-.04.28-.08.42-.12,1.03.47,2.27.82,3.74.98.08,0,.15.02.23.02,5.48.51,6.88.36,7.67-.18.16,0,.29-.02.36-.05.8-.39,2.31-1.39,3.82-2.51.03-.01.07-.02.11-.03.53-.17,1.03-.41,1.48-.69.04-.1.09-.19.13-.27.11-.19.21-.39.31-.6.58-1.21.98-2.6,1.13-3.96.27-2.28-.13-4.51-1.44-5.76-.1-.09-.2-.18-.31-.25-.05-.04-.1-.07-.16-.1-.3-.18-.62-.28-.96-.31-.02,0-.04,0-.06,0-.3-.02-.61,0-.94.07-.03,0-.06.01-.09.02-.39.09-.81.23-1.24.41-.1.04-.21.09-.32.14-.3.13-.61.29-.93.45,0,0,0,0,0,0-.01,0-.03.01-.04.02-1.05.53-2.18,1.17-3.37,1.7-.23.1-.45.2-.68.29-.89.36-1.81.64-2.76.76h0c-.29.04-.59.06-.89.07h0c-1.18.02-2.39-.23-3.63-.9-.24-.13-.55-.27-.92-.42-.21-.08-.44-.17-.68-.26-.68-.25-1.48-.51-2.37-.78h0s-.08-.03-.12-.04c-.59-.18-1.21-.36-1.86-.54-.35-.1-.7-.2-1.06-.29-.48-.13-.96-.26-1.45-.39-.38-.1-.76-.2-1.14-.3-4.56-1.17-9.07-2.14-9.75-2.14-1.21,0,5.16,2.58,5.16,2.58-1.29,3.87-6.32-1.93-15.49,2.58-2.62,1.29-6.66-1.11-9.98-3.36Z"/>
      <path class="cls-16" d="m348.71,387.24c-.05.9,1.08,1.8,1.97,2.74.23.25.44.49.62.75.17.26.62,1.02,1.06,1.82.12.22.24.44.35.66.54,1.04.93,3.07,1.2,4.89.17,1.15.29,2.22.37,2.91.13,1.13.4,2.2.77,3.22.46,1.27,1.08,2.47,1.8,3.61,0,0,0,0,0,0,.62.98,1.3,1.92,2.02,2.84.1.12.19.24.29.36.06.07.12.15.18.22.14-.04.28-.08.42-.12,1.03.47,2.27.82,3.74.98-.16-.31-.28-.57-.34-.76-.02-.06-.02-.11,0-.16.16-.34,1.46-.22,3,.01h0c1.94.29,4.28.76,5.24.75.16,0,.29-.02.36-.05.8-.39,2.31-1.39,3.82-2.51.7-.52,1.4-1.07,2.02-1.59,1.4-1.17,2.43-2.22,2.28-2.61.13-.79.55-2.22.88-3.71-.38-.42-1.1,1.08-2.03,2.35.27-2.28-.13-4.51-1.44-5.76-.1-.09-.2-.18-.31-.25.02-.06.04-.12.05-.17,1.28-.42,2.69-1.03,4.07-1.65,0,0,0,0,0,0,.17-.14.41-.25.68-.31.71-.33,1.41-.65,2.05-.94-.92-2.25-2.22-5.72-2.03-7.63.53-5.14-1.4-5.52-3.03-8.59-.41-.77-1.57-.89-.95-1.39,1.54-1.25,4.35,2.46,6.02,1.12.35-.28-4.36-4.43-5.48-5.42-1-.88-7.2-5.99-8.74-5.94-.66.02-1.33.19-1.98.44h0c-2.6,1-4.93,3.32-5.73,2.86-.55-.32.34-1.78.72-2.83.18-.5.25-.91-.01-1.05-.32-.17-1.09.32-1.98,1.03-1.38,1.1-3.04,2.72-3.75,3.18-1.87,1.21-6.65,2.48-6.45,5.41.15,2.18,1.2,5.15.85,7.6-.09.66-.29,1.28-.62,1.84-.59.97-1.9.57-1.98,1.84Z"/>
      <path class="cls-1" d="m367.29,388.16c.33-.15.85.81.91,1.87.06,1.26-.54,2.3-.74,2.64-1.09,1.86-2.66,1.59-2.77,1.57-.17-.03-1.79-.39-2.41-2.89-.62-2.48.28-4.92.44-5.36.91-2.49,2.46-3.19,2.92-3.36,1.8-.66,3.6.69,4.51,3.06,1.44,3.72.03,8.23-.2,8.97-.28.9-.98,3.06-2.47,4.29-1.49,1.23-2.85.77-3.23.64-3.31-1.2-4.36-8.09-4.53-9.36-.25-1.85-1.01-7.38.87-10.71,2.77-4.9,8.63-.46,9.01-.16,1.27,1,3.41,2.66,4.22,6.64.99,4.84-.65,9.76-1.54,12.46-.87,2.6-1.8,5.41-3.74,6.89-2.55,1.94-4.95.15-5.78-.47-.32-.24-3.03-2.34-4.15-7.53-.62-2.87-1.93-6.05-1.82-8.65.25-5.77,2.8-8.18,1.77-10.23-.39-.77-1.27,3.3-1.7,3.67-.64.53-.98,2.13-1.01,5.48-.08,8.16-.48,4.95.21,8.63.47,2.53,1.36,4.15,2.64,6.51.85,1.55,1.59,2.88,2.86,3.83.76.56,1.53.76,3.08,1.15,1.92.49,2.88.73,3.68.3,1.16-.62,1.84-1.96,2.99-4.25,1.55-3.08,2.29-5.98,2.76-7.86.42-1.69.79-3.2.96-5.31.11-1.27.27-3.3-.09-5.4-.55-3.18-2.03-4.78-3.7-6.59-1.07-1.16-2.43-2.6-4.51-3.06-1.9-.43-3.4.18-4.28.55-1.15.48-1.73.74-2.25,1.61-.56.94-.64,1.91-1.04,6.21-.51,5.49-.53,5.62-.51,6.25.04,1.57.1,4.07,1.07,6.38.88,2.1,2.04,2.92,3.39,3.87,1.44,1.02,2.37,1.67,3.61,1.19,1.57-.61,2.57-2.63,2.92-3.36.8-1.62,1.05-3.14,1.56-6.16.45-2.64.67-3.97.44-5.36-.09-.52-.22-1-1.81-3.74-1.95-3.36-2.36-3.71-2.86-3.83-.9-.22-1.69.36-2.18.72-.34.25-1.54,1.21-2.39,3.4-.41,1.05-.57,2.19-.89,4.42-.41,2.9-.62,4.35-.44,5.36.41,2.3,1.92,3.82,3.39,3.87,1.13.04,1.98-.79,2.77-1.57,1.02-1,2.25-2.2,2.47-4.29.22-2.08-.71-3.57-.76-3.66-.09-.14-.87-1.31-2.03-1.06-.52.11-1.62.61-1.72,1.66-.11,1.1.92,2.3,1.43,1.91.42-.32.32-1.58.67-1.74Z"/>
      <path class="cls-13" d="m352.35,392.55c-.04,1.13-.15,2.46.01,4.45.01.19.04.43.08.71.2,1.37.71,3.77,1.48,6.49h0c.6,2.12,1.36,4.42,2.25,6.59h0c.93.1,1.91.19,2.97.26.06.07.12.15.18.22.14-.04.28-.08.42-.12,1.03.47,2.27.82,3.74.98.08,0,.15.02.23.02,5.48.51,6.88.36,7.67-.18.16,0,.29-.02.36-.05.8-.39,2.31-1.39,3.82-2.51.03-.01.07-.02.11-.03.53-.17,1.03-.41,1.48-.69,3.01-1.89,4.2-5.88,3.68-7.05-.03-.06-.05-.1-.08-.13-.38-.42-1.1,1.08-2.03,2.35.27-2.28-.13-4.51-1.44-5.76-.1-.09-.2-.18-.31-.25.02-.06.04-.12.05-.17-.07.02-.14.05-.21.07-.41.13-.8.24-1.17.32,0,0-.01,0-.02,0-.32.07-.63.13-.91.15-.08,0-.16.02-.24.02-.39.02-.73,0-1.01-.09-.09-.03-.17-.06-.25-.1-.1-.05-.2-.11-.28-.19-.08-.07-.16-.15-.23-.23-.04-.04-.08-.09-.12-.14-.28-.33-.48-.7-.62-1.11-.34-.98-.35-2.18-.2-3.47h0c.09-.81.24-1.65.41-2.51h0c.2-1.03.41-2.06.57-3.07.04-.23.07-.45.1-.68.09-.76.15-1.49.12-2.18h0c-.01-.34-.05-.67-.1-.99-.04-.23-.09-.46-.16-.68h0c-.2-.66-.53-1.24-1.04-1.72-.18-.17-.38-.33-.59-.47-.32-.21-.67-.38-1.04-.51-.14-.05-.29-.1-.44-.14-.57-.16-1.19-.24-1.82-.26-.24,0-.47,0-.72.01h0c-.92.05-1.86.24-2.71.54-.62.22-1.2.5-1.71.83-1.87,1.23-1.7,2.51-2.79,4.01-.11.15-.23.31-.37.46-.03.04-.07.08-.11.12-.09.1-.19.2-.29.29-.03.03-.05.05-.08.08-.07.07-.15.14-.23.2-.81.68-1.37,1.01-1.79,1.1-.03,0-.05.01-.07.02-.47.08-.76-.15-1.03-.48-.05-.06-.1-.12-.14-.18-.43-.56-.89-1.27-2.05-1.32-3.22-.14-1.29,5.1-1.29,6.45,0,.23,0,.46-.01.71Z"/>
      <path class="cls-28" d="m355.03,399.06c0,1.29-.19,2.74,0,5.16,0,0,0,.01,0,.02.06.7.19,1.44.43,2.16h0c.53,1.62,1.57,3.19,3.4,4.29.23.14.47.27.73.39h0c.05.03.1.05.16.08,1.03.47,2.27.82,3.74.98.08,0,.15.02.23.02,5.48.51,6.88.36,7.67-.18.81-.55.97-1.51,4.18-2.56.03-.01.07-.02.11-.03.53-.17,1.03-.41,1.48-.69,3.01-1.89,4.2-5.88,3.68-7.05-.03-.06-.05-.1-.08-.13-.38-.42-1.1,1.08-2.03,2.35-.89,1.22-1.97,2.24-3.13,1.22-.47-.41-.78-.92-.98-1.5-.17-.5-.26-1.05-.28-1.64,0-.2,0-.39,0-.6h0c.02-.98.18-2.03.38-3.12.04-.24.09-.49.14-.73.03-.15.06-.3.09-.45,0,0,0,0,0,0s0,0,0,0c.54-2.79,1.12-5.63.16-7.62h0c-.15-.33-.35-.63-.59-.9-.07-.07-.14-.15-.21-.22-.07-.07-.14-.13-.22-.2-.3-.25-.63-.45-.99-.62-.12-.05-.24-.1-.36-.15-.33-.13-.69-.22-1.05-.29-.38-.07-.78-.11-1.18-.13-.11,0-.23,0-.34,0-.16,0-.33,0-.49.01-.34.02-.67.06-1.01.11-.46.07-.92.18-1.36.32-.74.23-1.44.55-2.03.94-.03.02-.06.04-.09.06-1.24.85-1.54,1.72-1.98,2.67-.17.38-.37.77-.66,1.18-.17.25-.38.51-.64.77-.15.16-.32.31-.51.47-.07.06-.14.12-.2.17-.03.02-.05.04-.08.06-.21.17-.41.31-.58.43-.38.25-.68.39-.93.44-.19.04-.36.03-.5-.01-.58-.18-.84-.96-1.48-1.48,0,0,0,0,0,0-.06-.05-.13-.1-.2-.14-.28-.18-.64-.3-1.1-.32-.23-.01-.44,0-.62.05-.03,0-.06.01-.08.02-1.91.55-.96,4-.66,5.72.05.27.07.49.07.66Z"/>
      <path class="cls-18" d="m356.07,396.44c.03.13.06.27.1.4.21.78.46,1.48.76,2.14h0c.6,1.32,1.39,2.52,2.37,4.02,1.03,1.57,1.92,2.91,3.45,3.88.91.58,1.83.78,3.67,1.2.04.01.08.02.12.03.2.05.4.09.59.13.58.13,1.08.23,1.52.3.26.04.49.07.71.09.57.04,1.02-.01,1.43-.2,1.37-.61,2.15-1.94,3.48-4.21.12-.21.24-.42.36-.63,1.16-2.12,1.88-4.13,2.36-5.74.02-.06.04-.12.05-.17.14-.47.26-.9.37-1.29.47-1.69.88-3.2,1.06-5.31.11-1.27.28-3.3-.19-5.41-.7-3.2-2.47-4.82-4.48-6.66-.19-.17-.39-.36-.6-.54-.84-.74-1.84-1.52-3.1-2.06-.52-.22-1.08-.41-1.69-.53-.33-.07-.65-.11-.96-.14-1.8-.15-3.22.32-4.1.62-1.35.47-2.04.72-2.64,1.58-.47.68-.64,1.37-.85,3.35-.08.75-.17,1.67-.28,2.85-.05.52-.09.99-.13,1.42-.02.2-.04.39-.05.57-.01.13-.02.26-.04.39-.3,3.17-.31,3.35-.29,3.88.05,1.07.12,2.59.53,4.18.19.74.46,1.49.83,2.23,1.07,2.12,2.46,2.96,4.07,3.93.33.2.63.38.92.55h0c.3.17.58.32.85.45.85.39,1.62.53,2.51.25h0c1.85-.58,2.99-2.58,3.4-3.31,0,0,0,0,0,0,.03-.05.06-.1.08-.15,0,0,0,0,0,0,.15-.29.29-.57.41-.86.55-1.3.81-2.74,1.26-5.14.33-1.79.55-2.97.56-3.98,0-.48-.03-.92-.13-1.37-.07-.32-.15-.62-.64-1.42-.19-.32-.45-.73-.8-1.25h0c-.17-.25-.35-.52-.56-.82-.06-.09-.13-.19-.2-.29-1.04-1.49-1.71-2.39-2.19-2.95-.16-.19-.31-.34-.43-.46-.35-.33-.57-.42-.82-.47-.41-.09-.81-.06-1.16.03-.19.05-.38.12-.55.19h0c-.33.15-.62.32-.85.47-.39.24-1.81,1.19-2.78,3.37-.29.65-.47,1.34-.65,2.31h0c-.07.37-.13.79-.21,1.26-.04.26-.08.54-.13.84-.13.86-.24,1.6-.33,2.23-.17,1.27-.24,2.13-.16,2.79.01.12.03.23.06.34.39,1.71,1.48,3,2.73,3.58.44.21.89.32,1.34.34,1.24.05,2.19-.65,3.07-1.37.07-.05.13-.11.2-.16.12-.1.25-.21.38-.32.38-.32.77-.66,1.12-1.06.37-.41.71-.88.96-1.42h0c.2-.44.34-.92.4-1.47.04-.37.04-.72,0-1.04h0c-.07-.71-.27-1.31-.47-1.76-.23-.51-.46-.83-.49-.86-.05-.06-.28-.36-.65-.63-.12-.09-.25-.17-.39-.24-.15-.07-.31-.14-.48-.18-.27-.07-.57-.1-.9-.04-.11.02-.24.05-.38.09-.35.11-.77.3-1.1.58-.28.24-.49.56-.53.96-.03.29.03.6.16.87.27.61.83,1.1,1.26,1.13.11,0,.21-.01.3-.07.49-.31.36-1.58.77-1.74.05-.02.11-.02.17,0,.05.01.09.04.14.07.35.25.73,1,.79,1.82.09,1.27-.61,2.29-.84,2.63-.08.12-.17.23-.26.34h0c-.29.34-.6.59-.9.77-1.02.6-2,.44-2.1.43-.08-.01-.45-.09-.91-.34-.67-.36-1.53-1.11-1.98-2.59-.06-.2-.11-.41-.15-.61-.31-1.54,0-3,.28-3.9.13-.42.26-.72.31-.85,1.05-2.48,2.87-3.16,3.41-3.32.23-.07.46-.11.69-.13.68-.07,1.36.06,1.98.36.03.01.07.03.1.05.46.23.89.54,1.28.93.53.52.98,1.17,1.34,1.93.09.18.16.37.24.56.1.27.19.55.26.83.89,3.4-.37,6.94-.6,7.59-.11.32-.28.78-.53,1.31-.46.98-1.19,2.16-2.32,2.95-.25.17-.5.31-.74.42-.06.03-.11.05-.17.07-1.37.55-2.53.21-2.9.09-.13-.04-.26-.09-.38-.14-2.24-.95-3.57-3.77-4.32-6.09-.47-1.46-.72-2.73-.8-3.2-.15-.83-.42-2.38-.49-4.14-.02-.41-.02-.83-.01-1.26.05-1.86.39-3.82,1.37-5.32,1.31-1.99,3.25-2.41,5.12-2.19,1.38.16,2.72.67,3.74,1.16.99.47,1.67.91,1.8,1,.3.2.63.42.99.68.71.52,1.49,1.18,2.21,2.09.31.39.6.82.87,1.3h0c.42.75.77,1.61,1.04,2.63.32,1.24.43,2.48.41,3.69,0,0,0,0,0,0t0,0h0c-.05,2.75-.81,5.33-1.5,7.27-.06.17-.12.34-.18.5-.02.05-.03.09-.05.14-.11.3-.22.58-.32.84-.31.81-.62,1.64-.98,2.44h0c-.79,1.77-1.78,3.41-3.34,4.4-.34.22-.69.39-1.02.52-.45.17-.88.27-1.31.3-.03,0-.06,0-.09,0-.89.07-1.72-.11-2.43-.36-.9-.32-1.6-.77-2-1.03-.32-.2-2.59-1.71-4.16-5.17-.33-.72-.63-1.53-.87-2.43-.4-1.46-1-3-1.49-4.51,0,0,0,0,0,0-.47-1.46-.84-2.89-.79-4.18.02-.54.06-1.06.13-1.54.09-.74.23-1.41.39-2.03.86-3.31,2.38-5.07,1.43-6.64-.05-.08-.1-.11-.16-.09-.51.11-1.34,3.42-1.8,3.74-.15.1-.28.25-.4.45-.27.43-.46,1.1-.58,2.06-.06.53-.11,1.15-.12,1.87,0,.34-.01.7-.01,1.09,0,2.55-.04,3.99-.07,4.88-.09,1.95-.15,1.22.45,3.76Z"/>
    </g>
    <g>
      <ellipse class="cls-1" cx="273.55" cy="391.32" rx="12.91" ry="19.36"/>
      <path class="cls-20" d="m231.24,397.08h0c1.74,4.32,4.63,8.01,8.69,10.23,13.84.45,17.87,2.55,26.24,3.48h0c.93.1,1.91.19,2.97.26.14.01.29.02.44.03h0c.11,0,.23.01.35.02h0c1,.06,2.07.1,3.22.12.94.02,1.94.02,3,.01h0c.8,0,1.63-.02,2.5-.05-.01-.69-.01-1.38-.01-2.07,0-.2,0-.39,0-.58,0-.24,0-.48,0-.73,0-.42,0-.83.02-1.24,0-.02,0-.05,0-.07,0-.43.01-.86.03-1.29.02-1.09.06-2.17.1-3.24.02-.59.05-1.17.08-1.75,0-.15.01-.31.02-.46,0-.06,0-.13,0-.19h0c.04-.9.09-1.79.15-2.68.02-.34.04-.67.06-1.01.05-.84.1-1.67.16-2.5h0c.02-.27.03-.53.05-.8h0c.08-1.21.16-2.42.24-3.63t0,0c0-.12.01-.23.02-.35.03-.55.07-1.11.1-1.66,0-.07,0-.13.01-.2.04-.6.07-1.2.1-1.8h0c.03-.58.06-1.16.09-1.74,0-.04,0-.08,0-.12.04-.88.08-1.77.11-2.65,0-.1,0-.21.01-.31,0-.13.01-.27.01-.41.01-.32.02-.64.03-.95.01-.44.02-.89.03-1.33,0-.34.01-.67.02-1.01.01-.58.01-1.16.02-1.75,0-2.39-.04-4.84-.18-7.35-.79.02-1.55.04-2.28.06h0c-1.83.04-3.48.05-5,.04-.69,0-1.35-.01-1.99-.03-11.21-.23-14.93-1.61-30.73-1.36-5.95,3.25-9.41,9.67-10.37,16.61-.67,4.87-.12,10,1.67,14.46Z"/>
      <path class="cls-22" d="m231.24,397.08h0c1.74,4.32,4.63,8.01,8.69,10.23,13.84.45,17.87,2.55,26.24,3.48h0c.93.1,1.91.19,2.97.26.06.07.12.15.18.22.14-.04.28-.08.42-.12.06-.02.12-.04.19-.06h0c.64-.19,1.25-.39,1.83-.61,1.8-.67,3.36-1.47,4.7-2.35.02-.01.05-.03.07-.05.74-.48,1.42-1,2.04-1.52.03-.02.06-.05.09-.08,1.04-.89,1.92-1.83,2.66-2.77,1.51-1.91,2.48-3.84,3.16-5.48.1-.25.2-.5.29-.73.06-.16.12-.31.17-.46,0,0,0,0,0,0s0,0,0,0c.48-1.31.77-2.32,1.05-2.81.13-.24.26-.49.38-.75h0c.47-1.03.81-2.17.99-3.32h0s0,0,0,0c0,0,0,0,0,0,.39-2.45.03-4.91-1.38-6.25-.02-.02-.05-.05-.07-.07h0c-.18-.16-.38-.29-.58-.39-.29-.14-.6-.21-.93-.22-.44-.02-.92.07-1.42.22-.05.01-.1.03-.15.05-.15.05-.3.11-.46.17-.36.14-.74.32-1.13.51-.19.09-.39.2-.59.3-.29.15-.58.31-.88.46-.94.49-1.94,1.01-2.98,1.42,0,0,0,0,0,0-.14.06-.29.11-.44.16,0,0,0,0,0,0-.93.33-1.89.57-2.87.62-.31.02-.63.01-.95-.01-.06,0-.12-.01-.18-.02-.25-.03-.5-.06-.75-.12-.58-.13-1.17-.33-1.77-.63-.07-.04-.14-.07-.21-.11-.07-.04-.14-.08-.22-.11-.02,0-.03-.01-.05-.02-.09-.04-.19-.09-.3-.13-.02-.01-.05-.02-.07-.03-.44-.19-1-.4-1.63-.61-.04-.01-.08-.03-.12-.04-.39-.13-.82-.27-1.26-.41-.04-.01-.09-.03-.13-.04-1.25-.38-2.67-.78-4.13-1.17-.13-.03-.26-.07-.38-.1-4.96-1.31-10.3-2.48-11.05-2.48-1.21,0,5.16,2.58,5.16,2.58-1.29,3.87-6.32-1.93-15.49,2.58-2.72,1.34-6.98-1.31-10.37-3.62-.67,4.87-.12,10,1.67,14.46Z"/>
      <path class="cls-12" d="m231.24,397.08c1.74,4.32,4.63,8.01,8.69,10.23,13.84.45,17.87,2.55,26.24,3.48h0c.93.1,1.91.19,2.97.26.06.07.12.15.18.22.14-.04.28-.08.42-.12,1.03.47,2.27.82,3.74.98.08,0,.15.02.23.02,5.48.51,6.88.36,7.67-.18.16,0,.29-.02.36-.05.8-.39,2.31-1.39,3.82-2.51.03-.01.07-.02.11-.03.53-.17,1.03-.41,1.48-.69.04-.1.09-.19.13-.27.11-.19.21-.39.31-.6.58-1.21.98-2.6,1.13-3.96.27-2.28-.13-4.51-1.44-5.76-.1-.09-.2-.18-.31-.25-.05-.04-.1-.07-.16-.1-.3-.18-.62-.28-.96-.31-.02,0-.04,0-.06,0-.3-.02-.61,0-.94.07-.03,0-.06.01-.09.02-.39.09-.81.23-1.24.41-.1.04-.21.09-.32.14-.3.13-.61.29-.93.45,0,0,0,0,0,0-.01,0-.03.01-.04.02-1.05.53-2.18,1.17-3.37,1.7-.23.1-.45.2-.68.29-.89.36-1.81.64-2.76.76h0c-.29.04-.59.06-.89.07h0c-1.18.02-2.39-.23-3.63-.9-.24-.13-.55-.27-.92-.42-.21-.08-.44-.17-.68-.26-.68-.25-1.48-.51-2.37-.78h0s-.08-.03-.12-.04c-.59-.18-1.21-.36-1.86-.54-.35-.1-.7-.2-1.06-.29-.48-.13-.96-.26-1.45-.39-.38-.1-.76-.2-1.14-.3-4.56-1.17-9.07-2.14-9.75-2.14-1.21,0,5.16,2.58,5.16,2.58-1.29,3.87-6.32-1.93-15.49,2.58-2.62,1.29-6.66-1.11-9.98-3.36Z"/>
      <path class="cls-16" d="m258.71,387.24c-.05.9,1.08,1.8,1.97,2.74.23.25.44.49.62.75.17.26.62,1.02,1.06,1.82.12.22.24.44.35.66.54,1.04.93,3.07,1.2,4.89.17,1.15.29,2.22.37,2.91.13,1.13.4,2.2.77,3.22.46,1.27,1.08,2.47,1.8,3.61,0,0,0,0,0,0,.62.98,1.3,1.92,2.02,2.84.1.12.19.24.29.36.06.07.12.15.18.22.14-.04.28-.08.42-.12,1.03.47,2.27.82,3.74.98-.16-.31-.28-.57-.34-.76-.02-.06-.02-.11,0-.16.16-.34,1.46-.22,3,.01h0c1.94.29,4.28.76,5.24.75.16,0,.29-.02.36-.05.8-.39,2.31-1.39,3.82-2.51.7-.52,1.4-1.07,2.02-1.59,1.4-1.17,2.43-2.22,2.28-2.61.13-.79.55-2.22.88-3.71-.38-.42-1.1,1.08-2.03,2.35.27-2.28-.13-4.51-1.44-5.76-.1-.09-.2-.18-.31-.25.02-.06.04-.12.05-.17,1.28-.42,2.69-1.03,4.07-1.65,0,0,0,0,0,0,.17-.14.41-.25.68-.31.71-.33,1.41-.65,2.05-.94-.92-2.25-2.22-5.72-2.03-7.63.53-5.14-1.4-5.52-3.03-8.59-.41-.77-1.57-.89-.95-1.39,1.54-1.25,4.35,2.46,6.02,1.12.35-.28-4.36-4.43-5.48-5.42-1-.88-7.2-5.99-8.74-5.94-.66.02-1.33.19-1.98.44h0c-2.6,1-4.93,3.32-5.73,2.86-.55-.32.34-1.78.72-2.83.18-.5.25-.91-.01-1.05-.32-.17-1.09.32-1.98,1.03-1.38,1.1-3.04,2.72-3.75,3.18-1.87,1.21-6.65,2.48-6.45,5.41.15,2.18,1.2,5.15.85,7.6-.09.66-.29,1.28-.62,1.84-.59.97-1.9.57-1.98,1.84Z"/>
      <path class="cls-1" d="m277.29,388.16c.33-.15.85.81.91,1.87.06,1.26-.54,2.3-.74,2.64-1.09,1.86-2.66,1.59-2.77,1.57-.17-.03-1.79-.39-2.41-2.89-.62-2.48.28-4.92.44-5.36.91-2.49,2.46-3.19,2.92-3.36,1.8-.66,3.6.69,4.51,3.06,1.44,3.72.03,8.23-.2,8.97-.28.9-.98,3.06-2.47,4.29-1.49,1.23-2.85.77-3.23.64-3.31-1.2-4.36-8.09-4.53-9.36-.25-1.85-1.01-7.38.87-10.71,2.77-4.9,8.63-.46,9.01-.16,1.27,1,3.41,2.66,4.22,6.64.99,4.84-.65,9.76-1.54,12.46-.87,2.6-1.8,5.41-3.74,6.89-2.55,1.94-4.95.15-5.78-.47-.32-.24-3.03-2.34-4.15-7.53-.62-2.87-1.93-6.05-1.82-8.65.25-5.77,2.8-8.18,1.77-10.23-.39-.77-1.27,3.3-1.7,3.67-.64.53-.98,2.13-1.01,5.48-.08,8.16-.48,4.95.21,8.63.47,2.53,1.36,4.15,2.64,6.51.85,1.55,1.59,2.88,2.86,3.83.76.56,1.53.76,3.08,1.15,1.92.49,2.88.73,3.68.3,1.16-.62,1.84-1.96,2.99-4.25,1.55-3.08,2.29-5.98,2.76-7.86.42-1.69.79-3.2.96-5.31.11-1.27.27-3.3-.09-5.4-.55-3.18-2.03-4.78-3.7-6.59-1.07-1.16-2.43-2.6-4.51-3.06-1.9-.43-3.4.18-4.28.55-1.15.48-1.73.74-2.25,1.61-.56.94-.64,1.91-1.04,6.21-.51,5.49-.53,5.62-.51,6.25.04,1.57.1,4.07,1.07,6.38.88,2.1,2.04,2.92,3.39,3.87,1.44,1.02,2.37,1.67,3.61,1.19,1.57-.61,2.57-2.63,2.92-3.36.8-1.62,1.05-3.14,1.56-6.16.45-2.64.67-3.97.44-5.36-.09-.52-.22-1-1.81-3.74-1.95-3.36-2.36-3.71-2.86-3.83-.9-.22-1.69.36-2.18.72-.34.25-1.54,1.21-2.39,3.4-.41,1.05-.57,2.19-.89,4.42-.41,2.9-.62,4.35-.44,5.36.41,2.3,1.92,3.82,3.39,3.87,1.13.04,1.98-.79,2.77-1.57,1.02-1,2.25-2.2,2.47-4.29.22-2.08-.71-3.57-.76-3.66-.09-.14-.87-1.31-2.03-1.06-.52.11-1.62.61-1.72,1.66-.11,1.1.92,2.3,1.43,1.91.42-.32.32-1.58.67-1.74Z"/>
      <path class="cls-13" d="m262.35,392.55c-.04,1.13-.15,2.46.01,4.45.01.19.04.43.08.71.2,1.37.71,3.77,1.48,6.49h0c.6,2.12,1.36,4.42,2.25,6.59h0c.93.1,1.91.19,2.97.26.06.07.12.15.18.22.14-.04.28-.08.42-.12,1.03.47,2.27.82,3.74.98.08,0,.15.02.23.02,5.48.51,6.88.36,7.67-.18.16,0,.29-.02.36-.05.8-.39,2.31-1.39,3.82-2.51.03-.01.07-.02.11-.03.53-.17,1.03-.41,1.48-.69,3.01-1.89,4.2-5.88,3.68-7.05-.03-.06-.05-.1-.08-.13-.38-.42-1.1,1.08-2.03,2.35.27-2.28-.13-4.51-1.44-5.76-.1-.09-.2-.18-.31-.25.02-.06.04-.12.05-.17-.07.02-.14.05-.21.07-.41.13-.8.24-1.17.32,0,0-.01,0-.02,0-.32.07-.63.13-.91.15-.08,0-.16.02-.24.02-.39.02-.73,0-1.01-.09-.09-.03-.17-.06-.25-.1-.1-.05-.2-.11-.28-.19-.08-.07-.16-.15-.23-.23-.04-.04-.08-.09-.12-.14-.28-.33-.48-.7-.62-1.11-.34-.98-.35-2.18-.2-3.47h0c.09-.81.24-1.65.41-2.51h0c.2-1.03.41-2.06.57-3.07.04-.23.07-.45.1-.68.09-.76.15-1.49.12-2.18h0c-.01-.34-.05-.67-.1-.99-.04-.23-.09-.46-.16-.68h0c-.2-.66-.53-1.24-1.04-1.72-.18-.17-.38-.33-.59-.47-.32-.21-.67-.38-1.04-.51-.14-.05-.29-.1-.44-.14-.57-.16-1.19-.24-1.82-.26-.24,0-.47,0-.72.01h0c-.92.05-1.86.24-2.71.54-.62.22-1.2.5-1.71.83-1.87,1.23-1.7,2.51-2.79,4.01-.11.15-.23.31-.37.46-.03.04-.07.08-.11.12-.09.1-.19.2-.29.29-.03.03-.05.05-.08.08-.07.07-.15.14-.23.2-.81.68-1.37,1.01-1.79,1.1-.03,0-.05.01-.07.02-.47.08-.76-.15-1.03-.48-.05-.06-.1-.12-.14-.18-.43-.56-.89-1.27-2.05-1.32-3.22-.14-1.29,5.1-1.29,6.45,0,.23,0,.46-.01.71Z"/>
      <path class="cls-28" d="m265.03,399.06c0,1.29-.19,2.74,0,5.16,0,0,0,.01,0,.02.06.7.19,1.44.43,2.16h0c.53,1.62,1.57,3.19,3.4,4.29.23.14.47.27.73.39h0c.05.03.1.05.16.08,1.03.47,2.27.82,3.74.98.08,0,.15.02.23.02,5.48.51,6.88.36,7.67-.18.81-.55.97-1.51,4.18-2.56.03-.01.07-.02.11-.03.53-.17,1.03-.41,1.48-.69,3.01-1.89,4.2-5.88,3.68-7.05-.03-.06-.05-.1-.08-.13-.38-.42-1.1,1.08-2.03,2.35-.89,1.22-1.97,2.24-3.13,1.22-.47-.41-.78-.92-.98-1.5-.17-.5-.26-1.05-.28-1.64,0-.2,0-.39,0-.6h0c.02-.98.18-2.03.38-3.12.04-.24.09-.49.14-.73.03-.15.06-.3.09-.45,0,0,0,0,0,0s0,0,0,0c.54-2.79,1.12-5.63.16-7.62h0c-.15-.33-.35-.63-.59-.9-.07-.07-.14-.15-.21-.22-.07-.07-.14-.13-.22-.2-.3-.25-.63-.45-.99-.62-.12-.05-.24-.1-.36-.15-.33-.13-.69-.22-1.05-.29-.38-.07-.78-.11-1.18-.13-.11,0-.23,0-.34,0-.16,0-.33,0-.49.01-.34.02-.67.06-1.01.11-.46.07-.92.18-1.36.32-.74.23-1.44.55-2.03.94-.03.02-.06.04-.09.06-1.24.85-1.54,1.72-1.98,2.67-.17.38-.37.77-.66,1.18-.17.25-.38.51-.64.77-.15.16-.32.31-.51.47-.07.06-.14.12-.2.17-.03.02-.05.04-.08.06-.21.17-.41.31-.58.43-.38.25-.68.39-.93.44-.19.04-.36.03-.5-.01-.58-.18-.84-.96-1.48-1.48,0,0,0,0,0,0-.06-.05-.13-.1-.2-.14-.28-.18-.64-.3-1.1-.32-.23-.01-.44,0-.62.05-.03,0-.06.01-.08.02-1.91.55-.96,4-.66,5.72.05.27.07.49.07.66Z"/>
      <path class="cls-18" d="m266.07,396.44c.03.13.06.27.1.4.21.78.46,1.48.76,2.14h0c.6,1.32,1.39,2.52,2.37,4.02,1.03,1.57,1.92,2.91,3.45,3.88.91.58,1.83.78,3.67,1.2.04.01.08.02.12.03.2.05.4.09.59.13.58.13,1.08.23,1.52.3.26.04.49.07.71.09.57.04,1.02-.01,1.43-.2,1.37-.61,2.15-1.94,3.48-4.21.12-.21.24-.42.36-.63,1.16-2.12,1.88-4.13,2.36-5.74.02-.06.04-.12.05-.17.14-.47.26-.9.37-1.29.47-1.69.88-3.2,1.06-5.31.11-1.27.28-3.3-.19-5.41-.7-3.2-2.47-4.82-4.48-6.66-.19-.17-.39-.36-.6-.54-.84-.74-1.84-1.52-3.1-2.06-.52-.22-1.08-.41-1.69-.53-.33-.07-.65-.11-.96-.14-1.8-.15-3.22.32-4.1.62-1.35.47-2.04.72-2.64,1.58-.47.68-.64,1.37-.85,3.35-.08.75-.17,1.67-.28,2.85-.05.52-.09.99-.13,1.42-.02.2-.04.39-.05.57-.01.13-.02.26-.04.39-.3,3.17-.31,3.35-.29,3.88.05,1.07.12,2.59.53,4.18.19.74.46,1.49.83,2.23,1.07,2.12,2.46,2.96,4.07,3.93.33.2.63.38.92.55h0c.3.17.58.32.85.45.85.39,1.62.53,2.51.25h0c1.85-.58,2.99-2.58,3.4-3.31,0,0,0,0,0,0,.03-.05.06-.1.08-.15,0,0,0,0,0,0,.15-.29.29-.57.41-.86.55-1.3.81-2.74,1.26-5.14.33-1.79.55-2.97.56-3.98,0-.48-.03-.92-.13-1.37-.07-.32-.15-.62-.64-1.42-.19-.32-.45-.73-.8-1.25h0c-.17-.25-.35-.52-.56-.82-.06-.09-.13-.19-.2-.29-1.04-1.49-1.71-2.39-2.19-2.95-.16-.19-.31-.34-.43-.46-.35-.33-.57-.42-.82-.47-.41-.09-.81-.06-1.16.03-.19.05-.38.12-.55.19h0c-.33.15-.62.32-.85.47-.39.24-1.81,1.19-2.78,3.37-.29.65-.47,1.34-.65,2.31h0c-.07.37-.13.79-.21,1.26-.04.26-.08.54-.13.84-.13.86-.24,1.6-.33,2.23-.17,1.27-.24,2.13-.16,2.79.01.12.03.23.06.34.39,1.71,1.48,3,2.73,3.58.44.21.89.32,1.34.34,1.24.05,2.19-.65,3.07-1.37.07-.05.13-.11.2-.16.12-.1.25-.21.38-.32.38-.32.77-.66,1.12-1.06.37-.41.71-.88.96-1.42h0c.2-.44.34-.92.4-1.47.04-.37.04-.72,0-1.04h0c-.07-.71-.27-1.31-.47-1.76-.23-.51-.46-.83-.49-.86-.05-.06-.28-.36-.65-.63-.12-.09-.25-.17-.39-.24-.15-.07-.31-.14-.48-.18-.27-.07-.57-.1-.9-.04-.11.02-.24.05-.38.09-.35.11-.77.3-1.1.58-.28.24-.49.56-.53.96-.03.29.03.6.16.87.27.61.83,1.1,1.26,1.13.11,0,.21-.01.3-.07.49-.31.36-1.58.77-1.74.05-.02.11-.02.17,0,.05.01.09.04.14.07.35.25.73,1,.79,1.82.09,1.27-.61,2.29-.84,2.63-.08.12-.17.23-.26.34h0c-.29.34-.6.59-.9.77-1.02.6-2,.44-2.1.43-.08-.01-.45-.09-.91-.34-.67-.36-1.53-1.11-1.98-2.59-.06-.2-.11-.41-.15-.61-.31-1.54,0-3,.28-3.9.13-.42.26-.72.31-.85,1.05-2.48,2.87-3.16,3.41-3.32.23-.07.46-.11.69-.13.68-.07,1.36.06,1.98.36.03.01.07.03.1.05.46.23.89.54,1.28.93.53.52.98,1.17,1.34,1.93.09.18.16.37.24.56.1.27.19.55.26.83.89,3.4-.37,6.94-.6,7.59-.11.32-.28.78-.53,1.31-.46.98-1.19,2.16-2.32,2.95-.25.17-.5.31-.74.42-.06.03-.11.05-.17.07-1.37.55-2.53.21-2.9.09-.13-.04-.26-.09-.38-.14-2.24-.95-3.57-3.77-4.32-6.09-.47-1.46-.72-2.73-.8-3.2-.15-.83-.42-2.38-.49-4.14-.02-.41-.02-.83-.01-1.26.05-1.86.39-3.82,1.37-5.32,1.31-1.99,3.25-2.41,5.12-2.19,1.38.16,2.72.67,3.74,1.16.99.47,1.67.91,1.8,1,.3.2.63.42.99.68.71.52,1.49,1.18,2.21,2.09.31.39.6.82.87,1.3h0c.42.75.77,1.61,1.04,2.63.32,1.24.43,2.48.41,3.69,0,0,0,0,0,0t0,0h0c-.05,2.75-.81,5.33-1.5,7.27-.06.17-.12.34-.18.5-.02.05-.03.09-.05.14-.11.3-.22.58-.32.84-.31.81-.62,1.64-.98,2.44h0c-.79,1.77-1.78,3.41-3.34,4.4-.34.22-.69.39-1.02.52-.45.17-.88.27-1.31.3-.03,0-.06,0-.09,0-.89.07-1.72-.11-2.43-.36-.9-.32-1.6-.77-2-1.03-.32-.2-2.59-1.71-4.16-5.17-.33-.72-.63-1.53-.87-2.43-.4-1.46-1-3-1.49-4.51,0,0,0,0,0,0-.47-1.46-.84-2.89-.79-4.18.02-.54.06-1.06.13-1.54.09-.74.23-1.41.39-2.03.86-3.31,2.38-5.07,1.43-6.64-.05-.08-.1-.11-.16-.09-.51.11-1.34,3.42-1.8,3.74-.15.1-.28.25-.4.45-.27.43-.46,1.1-.58,2.06-.06.53-.11,1.15-.12,1.87,0,.34-.01.7-.01,1.09,0,2.55-.04,3.99-.07,4.88-.09,1.95-.15,1.22.45,3.76Z"/>
    </g>
    <g>
      <ellipse class="cls-1" cx="462.55" cy="391.32" rx="12.91" ry="19.36"/>
      <path class="cls-20" d="m420.24,397.08h0c1.74,4.32,4.63,8.01,8.69,10.23,13.84.45,17.87,2.55,26.24,3.48h0c.93.1,1.91.19,2.97.26.14.01.29.02.44.03h0c.11,0,.23.01.35.02h0c1,.06,2.07.1,3.22.12.94.02,1.94.02,3,.01h0c.8,0,1.63-.02,2.5-.05-.01-.69-.01-1.38-.01-2.07,0-.2,0-.39,0-.58,0-.24,0-.48,0-.73,0-.42,0-.83.02-1.24,0-.02,0-.05,0-.07,0-.43.01-.86.03-1.29.02-1.09.06-2.17.1-3.24.02-.59.05-1.17.08-1.75,0-.15.01-.31.02-.46,0-.06,0-.13,0-.19h0c.04-.9.09-1.79.15-2.68.02-.34.04-.67.06-1.01.05-.84.1-1.67.16-2.5h0c.02-.27.03-.53.05-.8h0c.08-1.21.16-2.42.24-3.63t0,0c0-.12.01-.23.02-.35.03-.55.07-1.11.1-1.66,0-.07,0-.13.01-.2.04-.6.07-1.2.1-1.8h0c.03-.58.06-1.16.09-1.74,0-.04,0-.08,0-.12.04-.88.08-1.77.11-2.65,0-.1,0-.21.01-.31,0-.13.01-.27.01-.41.01-.32.02-.64.03-.95.01-.44.02-.89.03-1.33,0-.34.01-.67.02-1.01.01-.58.01-1.16.02-1.75,0-2.39-.04-4.84-.18-7.35-.79.02-1.55.04-2.28.06h0c-1.83.04-3.48.05-5,.04-.69,0-1.35-.01-1.99-.03-11.21-.23-14.93-1.61-30.73-1.36-5.95,3.25-9.41,9.67-10.37,16.61-.67,4.87-.12,10,1.67,14.46Z"/>
      <path class="cls-22" d="m420.24,397.08h0c1.74,4.32,4.63,8.01,8.69,10.23,13.84.45,17.87,2.55,26.24,3.48h0c.93.1,1.91.19,2.97.26.06.07.12.15.18.22.14-.04.28-.08.42-.12.06-.02.12-.04.19-.06h0c.64-.19,1.25-.39,1.83-.61,1.8-.67,3.36-1.47,4.7-2.35.02-.01.05-.03.07-.05.74-.48,1.42-1,2.04-1.52.03-.02.06-.05.09-.08,1.04-.89,1.92-1.83,2.66-2.77,1.51-1.91,2.48-3.84,3.16-5.48.1-.25.2-.5.29-.73.06-.16.12-.31.17-.46,0,0,0,0,0,0s0,0,0,0c.48-1.31.77-2.32,1.05-2.81.13-.24.26-.49.38-.75h0c.47-1.03.81-2.17.99-3.32h0s0,0,0,0c0,0,0,0,0,0,.39-2.45.03-4.91-1.38-6.25-.02-.02-.05-.05-.07-.07h0c-.18-.16-.38-.29-.58-.39-.29-.14-.6-.21-.93-.22-.44-.02-.92.07-1.42.22-.05.01-.1.03-.15.05-.15.05-.3.11-.46.17-.36.14-.74.32-1.13.51-.19.09-.39.2-.59.3-.29.15-.58.31-.88.46-.94.49-1.94,1.01-2.98,1.42,0,0,0,0,0,0-.14.06-.29.11-.44.16,0,0,0,0,0,0-.93.33-1.89.57-2.87.62-.31.02-.63.01-.95-.01-.06,0-.12-.01-.18-.02-.25-.03-.5-.06-.75-.12-.58-.13-1.17-.33-1.77-.63-.07-.04-.14-.07-.21-.11-.07-.04-.14-.08-.22-.11-.02,0-.03-.01-.05-.02-.09-.04-.19-.09-.3-.13-.02-.01-.05-.02-.07-.03-.44-.19-1-.4-1.63-.61-.04-.01-.08-.03-.12-.04-.39-.13-.82-.27-1.26-.41-.04-.01-.09-.03-.13-.04-1.25-.38-2.67-.78-4.13-1.17-.13-.03-.26-.07-.38-.1-4.96-1.31-10.3-2.48-11.05-2.48-1.21,0,5.16,2.58,5.16,2.58-1.29,3.87-6.32-1.93-15.49,2.58-2.72,1.34-6.98-1.31-10.37-3.62-.67,4.87-.12,10,1.67,14.46Z"/>
      <path class="cls-12" d="m420.24,397.08c1.74,4.32,4.63,8.01,8.69,10.23,13.84.45,17.87,2.55,26.24,3.48h0c.93.1,1.91.19,2.97.26.06.07.12.15.18.22.14-.04.28-.08.42-.12,1.03.47,2.27.82,3.74.98.08,0,.15.02.23.02,5.48.51,6.88.36,7.67-.18.16,0,.29-.02.36-.05.8-.39,2.31-1.39,3.82-2.51.03-.01.07-.02.11-.03.53-.17,1.03-.41,1.48-.69.04-.1.09-.19.13-.27.11-.19.21-.39.31-.6.58-1.21.98-2.6,1.13-3.96.27-2.28-.13-4.51-1.44-5.76-.1-.09-.2-.18-.31-.25-.05-.04-.1-.07-.16-.1-.3-.18-.62-.28-.96-.31-.02,0-.04,0-.06,0-.3-.02-.61,0-.94.07-.03,0-.06.01-.09.02-.39.09-.81.23-1.24.41-.1.04-.21.09-.32.14-.3.13-.61.29-.93.45,0,0,0,0,0,0-.01,0-.03.01-.04.02-1.05.53-2.18,1.17-3.37,1.7-.23.1-.45.2-.68.29-.89.36-1.81.64-2.76.76h0c-.29.04-.59.06-.89.07h0c-1.18.02-2.39-.23-3.63-.9-.24-.13-.55-.27-.92-.42-.21-.08-.44-.17-.68-.26-.68-.25-1.48-.51-2.37-.78h0s-.08-.03-.12-.04c-.59-.18-1.21-.36-1.86-.54-.35-.1-.7-.2-1.06-.29-.48-.13-.96-.26-1.45-.39-.38-.1-.76-.2-1.14-.3-4.56-1.17-9.07-2.14-9.75-2.14-1.21,0,5.16,2.58,5.16,2.58-1.29,3.87-6.32-1.93-15.49,2.58-2.62,1.29-6.66-1.11-9.98-3.36Z"/>
      <path class="cls-16" d="m447.71,387.24c-.05.9,1.08,1.8,1.97,2.74.23.25.44.49.62.75.17.26.62,1.02,1.06,1.82.12.22.24.44.35.66.54,1.04.93,3.07,1.2,4.89.17,1.15.29,2.22.37,2.91.13,1.13.4,2.2.77,3.22.46,1.27,1.08,2.47,1.8,3.61,0,0,0,0,0,0,.62.98,1.3,1.92,2.02,2.84.1.12.19.24.29.36.06.07.12.15.18.22.14-.04.28-.08.42-.12,1.03.47,2.27.82,3.74.98-.16-.31-.28-.57-.34-.76-.02-.06-.02-.11,0-.16.16-.34,1.46-.22,3,.01h0c1.94.29,4.28.76,5.24.75.16,0,.29-.02.36-.05.8-.39,2.31-1.39,3.82-2.51.7-.52,1.4-1.07,2.02-1.59,1.4-1.17,2.43-2.22,2.28-2.61.13-.79.55-2.22.88-3.71-.38-.42-1.1,1.08-2.03,2.35.27-2.28-.13-4.51-1.44-5.76-.1-.09-.2-.18-.31-.25.02-.06.04-.12.05-.17,1.28-.42,2.69-1.03,4.07-1.65,0,0,0,0,0,0,.17-.14.41-.25.68-.31.71-.33,1.41-.65,2.05-.94-.92-2.25-2.22-5.72-2.03-7.63.53-5.14-1.4-5.52-3.03-8.59-.41-.77-1.57-.89-.95-1.39,1.54-1.25,4.35,2.46,6.02,1.12.35-.28-4.36-4.43-5.48-5.42-1-.88-7.2-5.99-8.74-5.94-.66.02-1.33.19-1.98.44h0c-2.6,1-4.93,3.32-5.73,2.86-.55-.32.34-1.78.72-2.83.18-.5.25-.91-.01-1.05-.32-.17-1.09.32-1.98,1.03-1.38,1.1-3.04,2.72-3.75,3.18-1.87,1.21-6.65,2.48-6.45,5.41.15,2.18,1.2,5.15.85,7.6-.09.66-.29,1.28-.62,1.84-.59.97-1.9.57-1.98,1.84Z"/>
      <path class="cls-1" d="m466.29,388.16c.33-.15.85.81.91,1.87.06,1.26-.54,2.3-.74,2.64-1.09,1.86-2.66,1.59-2.77,1.57-.17-.03-1.79-.39-2.41-2.89-.62-2.48.28-4.92.44-5.36.91-2.49,2.46-3.19,2.92-3.36,1.8-.66,3.6.69,4.51,3.06,1.44,3.72.03,8.23-.2,8.97-.28.9-.98,3.06-2.47,4.29-1.49,1.23-2.85.77-3.23.64-3.31-1.2-4.36-8.09-4.53-9.36-.25-1.85-1.01-7.38.87-10.71,2.77-4.9,8.63-.46,9.01-.16,1.27,1,3.41,2.66,4.22,6.64.99,4.84-.65,9.76-1.54,12.46-.87,2.6-1.8,5.41-3.74,6.89-2.55,1.94-4.95.15-5.78-.47-.32-.24-3.03-2.34-4.15-7.53-.62-2.87-1.93-6.05-1.82-8.65.25-5.77,2.8-8.18,1.77-10.23-.39-.77-1.27,3.3-1.7,3.67-.64.53-.98,2.13-1.01,5.48-.08,8.16-.48,4.95.21,8.63.47,2.53,1.36,4.15,2.64,6.51.85,1.55,1.59,2.88,2.86,3.83.76.56,1.53.76,3.08,1.15,1.92.49,2.88.73,3.68.3,1.16-.62,1.84-1.96,2.99-4.25,1.55-3.08,2.29-5.98,2.76-7.86.42-1.69.79-3.2.96-5.31.11-1.27.27-3.3-.09-5.4-.55-3.18-2.03-4.78-3.7-6.59-1.07-1.16-2.43-2.6-4.51-3.06-1.9-.43-3.4.18-4.28.55-1.15.48-1.73.74-2.25,1.61-.56.94-.64,1.91-1.04,6.21-.51,5.49-.53,5.62-.51,6.25.04,1.57.1,4.07,1.07,6.38.88,2.1,2.04,2.92,3.39,3.87,1.44,1.02,2.37,1.67,3.61,1.19,1.57-.61,2.57-2.63,2.92-3.36.8-1.62,1.05-3.14,1.56-6.16.45-2.64.67-3.97.44-5.36-.09-.52-.22-1-1.81-3.74-1.95-3.36-2.36-3.71-2.86-3.83-.9-.22-1.69.36-2.18.72-.34.25-1.54,1.21-2.39,3.4-.41,1.05-.57,2.19-.89,4.42-.41,2.9-.62,4.35-.44,5.36.41,2.3,1.92,3.82,3.39,3.87,1.13.04,1.98-.79,2.77-1.57,1.02-1,2.25-2.2,2.47-4.29.22-2.08-.71-3.57-.76-3.66-.09-.14-.87-1.31-2.03-1.06-.52.11-1.62.61-1.72,1.66-.11,1.1.92,2.3,1.43,1.91.42-.32.32-1.58.67-1.74Z"/>
      <path class="cls-13" d="m451.35,392.55c-.04,1.13-.15,2.46.01,4.45.01.19.04.43.08.71.2,1.37.71,3.77,1.48,6.49h0c.6,2.12,1.36,4.42,2.25,6.59h0c.93.1,1.91.19,2.97.26.06.07.12.15.18.22.14-.04.28-.08.42-.12,1.03.47,2.27.82,3.74.98.08,0,.15.02.23.02,5.48.51,6.88.36,7.67-.18.16,0,.29-.02.36-.05.8-.39,2.31-1.39,3.82-2.51.03-.01.07-.02.11-.03.53-.17,1.03-.41,1.48-.69,3.01-1.89,4.2-5.88,3.68-7.05-.03-.06-.05-.1-.08-.13-.38-.42-1.1,1.08-2.03,2.35.27-2.28-.13-4.51-1.44-5.76-.1-.09-.2-.18-.31-.25.02-.06.04-.12.05-.17-.07.02-.14.05-.21.07-.41.13-.8.24-1.17.32,0,0-.01,0-.02,0-.32.07-.63.13-.91.15-.08,0-.16.02-.24.02-.39.02-.73,0-1.01-.09-.09-.03-.17-.06-.25-.1-.1-.05-.2-.11-.28-.19-.08-.07-.16-.15-.23-.23-.04-.04-.08-.09-.12-.14-.28-.33-.48-.7-.62-1.11-.34-.98-.35-2.18-.2-3.47h0c.09-.81.24-1.65.41-2.51h0c.2-1.03.41-2.06.57-3.07.04-.23.07-.45.1-.68.09-.76.15-1.49.12-2.18h0c-.01-.34-.05-.67-.1-.99-.04-.23-.09-.46-.16-.68h0c-.2-.66-.53-1.24-1.04-1.72-.18-.17-.38-.33-.59-.47-.32-.21-.67-.38-1.04-.51-.14-.05-.29-.1-.44-.14-.57-.16-1.19-.24-1.82-.26-.24,0-.47,0-.72.01h0c-.92.05-1.86.24-2.71.54-.62.22-1.2.5-1.71.83-1.87,1.23-1.7,2.51-2.79,4.01-.11.15-.23.31-.37.46-.03.04-.07.08-.11.12-.09.1-.19.2-.29.29-.03.03-.05.05-.08.08-.07.07-.15.14-.23.2-.81.68-1.37,1.01-1.79,1.1-.03,0-.05.01-.07.02-.47.08-.76-.15-1.03-.48-.05-.06-.1-.12-.14-.18-.43-.56-.89-1.27-2.05-1.32-3.22-.14-1.29,5.1-1.29,6.45,0,.23,0,.46-.01.71Z"/>
      <path class="cls-28" d="m454.03,399.06c0,1.29-.19,2.74,0,5.16,0,0,0,.01,0,.02.06.7.19,1.44.43,2.16h0c.53,1.62,1.57,3.19,3.4,4.29.23.14.47.27.73.39h0c.05.03.1.05.16.08,1.03.47,2.27.82,3.74.98.08,0,.15.02.23.02,5.48.51,6.88.36,7.67-.18.81-.55.97-1.51,4.18-2.56.03-.01.07-.02.11-.03.53-.17,1.03-.41,1.48-.69,3.01-1.89,4.2-5.88,3.68-7.05-.03-.06-.05-.1-.08-.13-.38-.42-1.1,1.08-2.03,2.35-.89,1.22-1.97,2.24-3.13,1.22-.47-.41-.78-.92-.98-1.5-.17-.5-.26-1.05-.28-1.64,0-.2,0-.39,0-.6h0c.02-.98.18-2.03.38-3.12.04-.24.09-.49.14-.73.03-.15.06-.3.09-.45,0,0,0,0,0,0s0,0,0,0c.54-2.79,1.12-5.63.16-7.62h0c-.15-.33-.35-.63-.59-.9-.07-.07-.14-.15-.21-.22-.07-.07-.14-.13-.22-.2-.3-.25-.63-.45-.99-.62-.12-.05-.24-.1-.36-.15-.33-.13-.69-.22-1.05-.29-.38-.07-.78-.11-1.18-.13-.11,0-.23,0-.34,0-.16,0-.33,0-.49.01-.34.02-.67.06-1.01.11-.46.07-.92.18-1.36.32-.74.23-1.44.55-2.03.94-.03.02-.06.04-.09.06-1.24.85-1.54,1.72-1.98,2.67-.17.38-.37.77-.66,1.18-.17.25-.38.51-.64.77-.15.16-.32.31-.51.47-.07.06-.14.12-.2.17-.03.02-.05.04-.08.06-.21.17-.41.31-.58.43-.38.25-.68.39-.93.44-.19.04-.36.03-.5-.01-.58-.18-.84-.96-1.48-1.48,0,0,0,0,0,0-.06-.05-.13-.1-.2-.14-.28-.18-.64-.3-1.1-.32-.23-.01-.44,0-.62.05-.03,0-.06.01-.08.02-1.91.55-.96,4-.66,5.72.05.27.07.49.07.66Z"/>
      <path class="cls-18" d="m455.07,396.44c.03.13.06.27.1.4.21.78.46,1.48.76,2.14h0c.6,1.32,1.39,2.52,2.37,4.02,1.03,1.57,1.92,2.91,3.45,3.88.91.58,1.83.78,3.67,1.2.04.01.08.02.12.03.2.05.4.09.59.13.58.13,1.08.23,1.52.3.26.04.49.07.71.09.57.04,1.02-.01,1.43-.2,1.37-.61,2.15-1.94,3.48-4.21.12-.21.24-.42.36-.63,1.16-2.12,1.88-4.13,2.36-5.74.02-.06.04-.12.05-.17.14-.47.26-.9.37-1.29.47-1.69.88-3.2,1.06-5.31.11-1.27.28-3.3-.19-5.41-.7-3.2-2.47-4.82-4.48-6.66-.19-.17-.39-.36-.6-.54-.84-.74-1.84-1.52-3.1-2.06-.52-.22-1.08-.41-1.69-.53-.33-.07-.65-.11-.96-.14-1.8-.15-3.22.32-4.1.62-1.35.47-2.04.72-2.64,1.58-.47.68-.64,1.37-.85,3.35-.08.75-.17,1.67-.28,2.85-.05.52-.09.99-.13,1.42-.02.2-.04.39-.05.57-.01.13-.02.26-.04.39-.3,3.17-.31,3.35-.29,3.88.05,1.07.12,2.59.53,4.18.19.74.46,1.49.83,2.23,1.07,2.12,2.46,2.96,4.07,3.93.33.2.63.38.92.55h0c.3.17.58.32.85.45.85.39,1.62.53,2.51.25h0c1.85-.58,2.99-2.58,3.4-3.31,0,0,0,0,0,0,.03-.05.06-.1.08-.15,0,0,0,0,0,0,.15-.29.29-.57.41-.86.55-1.3.81-2.74,1.26-5.14.33-1.79.55-2.97.56-3.98,0-.48-.03-.92-.13-1.37-.07-.32-.15-.62-.64-1.42-.19-.32-.45-.73-.8-1.25h0c-.17-.25-.35-.52-.56-.82-.06-.09-.13-.19-.2-.29-1.04-1.49-1.71-2.39-2.19-2.95-.16-.19-.31-.34-.43-.46-.35-.33-.57-.42-.82-.47-.41-.09-.81-.06-1.16.03-.19.05-.38.12-.55.19h0c-.33.15-.62.32-.85.47-.39.24-1.81,1.19-2.78,3.37-.29.65-.47,1.34-.65,2.31h0c-.07.37-.13.79-.21,1.26-.04.26-.08.54-.13.84-.13.86-.24,1.6-.33,2.23-.17,1.27-.24,2.13-.16,2.79.01.12.03.23.06.34.39,1.71,1.48,3,2.73,3.58.44.21.89.32,1.34.34,1.24.05,2.19-.65,3.07-1.37.07-.05.13-.11.2-.16.12-.1.25-.21.38-.32.38-.32.77-.66,1.12-1.06.37-.41.71-.88.96-1.42h0c.2-.44.34-.92.4-1.47.04-.37.04-.72,0-1.04h0c-.07-.71-.27-1.31-.47-1.76-.23-.51-.46-.83-.49-.86-.05-.06-.28-.36-.65-.63-.12-.09-.25-.17-.39-.24-.15-.07-.31-.14-.48-.18-.27-.07-.57-.1-.9-.04-.11.02-.24.05-.38.09-.35.11-.77.3-1.1.58-.28.24-.49.56-.53.96-.03.29.03.6.16.87.27.61.83,1.1,1.26,1.13.11,0,.21-.01.3-.07.49-.31.36-1.58.77-1.74.05-.02.11-.02.17,0,.05.01.09.04.14.07.35.25.73,1,.79,1.82.09,1.27-.61,2.29-.84,2.63-.08.12-.17.23-.26.34h0c-.29.34-.6.59-.9.77-1.02.6-2,.44-2.1.43-.08-.01-.45-.09-.91-.34-.67-.36-1.53-1.11-1.98-2.59-.06-.2-.11-.41-.15-.61-.31-1.54,0-3,.28-3.9.13-.42.26-.72.31-.85,1.05-2.48,2.87-3.16,3.41-3.32.23-.07.46-.11.69-.13.68-.07,1.36.06,1.98.36.03.01.07.03.1.05.46.23.89.54,1.28.93.53.52.98,1.17,1.34,1.93.09.18.16.37.24.56.1.27.19.55.26.83.89,3.4-.37,6.94-.6,7.59-.11.32-.28.78-.53,1.31-.46.98-1.19,2.16-2.32,2.95-.25.17-.5.31-.74.42-.06.03-.11.05-.17.07-1.37.55-2.53.21-2.9.09-.13-.04-.26-.09-.38-.14-2.24-.95-3.57-3.77-4.32-6.09-.47-1.46-.72-2.73-.8-3.2-.15-.83-.42-2.38-.49-4.14-.02-.41-.02-.83-.01-1.26.05-1.86.39-3.82,1.37-5.32,1.31-1.99,3.25-2.41,5.12-2.19,1.38.16,2.72.67,3.74,1.16.99.47,1.67.91,1.8,1,.3.2.63.42.99.68.71.52,1.49,1.18,2.21,2.09.31.39.6.82.87,1.3h0c.42.75.77,1.61,1.04,2.63.32,1.24.43,2.48.41,3.69,0,0,0,0,0,0t0,0h0c-.05,2.75-.81,5.33-1.5,7.27-.06.17-.12.34-.18.5-.02.05-.03.09-.05.14-.11.3-.22.58-.32.84-.31.81-.62,1.64-.98,2.44h0c-.79,1.77-1.78,3.41-3.34,4.4-.34.22-.69.39-1.02.52-.45.17-.88.27-1.31.3-.03,0-.06,0-.09,0-.89.07-1.72-.11-2.43-.36-.9-.32-1.6-.77-2-1.03-.32-.2-2.59-1.71-4.16-5.17-.33-.72-.63-1.53-.87-2.43-.4-1.46-1-3-1.49-4.51,0,0,0,0,0,0-.47-1.46-.84-2.89-.79-4.18.02-.54.06-1.06.13-1.54.09-.74.23-1.41.39-2.03.86-3.31,2.38-5.07,1.43-6.64-.05-.08-.1-.11-.16-.09-.51.11-1.34,3.42-1.8,3.74-.15.1-.28.25-.4.45-.27.43-.46,1.1-.58,2.06-.06.53-.11,1.15-.12,1.87,0,.34-.01.7-.01,1.09,0,2.55-.04,3.99-.07,4.88-.09,1.95-.15,1.22.45,3.76Z"/>
    </g>
  </g>
  <g id="ur">
    <g>
      <ellipse class="cls-24" cx="362.71" cy="282.74" rx="2.71" ry="2.51"/>
      <ellipse class="cls-24" cx="362.72" cy="260.96" rx="2.71" ry="2.51"/>
      <g>
        <circle class="cls-34" cx="361.49" cy="259.75" r=".48"/>
        <circle class="cls-34" cx="361.49" cy="261.93" r=".48"/>
        <circle class="cls-34" cx="363.67" cy="261.93" r=".48"/>
        <circle class="cls-34" cx="363.67" cy="259.75" r=".48"/>
      </g>
      <ellipse class="cls-24" cx="362.51" cy="269.84" rx="2.71" ry="2.51"/>
      <circle class="cls-34" cx="361.28" cy="268.63" r=".48"/>
      <circle class="cls-34" cx="361.28" cy="270.81" r=".48"/>
      <circle class="cls-34" cx="363.46" cy="270.81" r=".48"/>
      <circle class="cls-34" cx="363.46" cy="268.63" r=".48"/>
      <g>
        <path class="cls-35" d="m329.91,280.63c-.77,4.91-10.85,5.68-10.85,5.68,2.8,8.18-15.41-9.49-25.92-20.81-1.47-1.58-4.21-1.62-6.57-3.26-8.19-5.71-8.11-2.78-17.45-21.8-5.93-12.07-5.04-22.72-5.32-26.16-.45-5.53-2.16-11.25-2.48-16.06-.01-.23-.03-.45-.03-.67-.05-1.24.01-2.4.22-3.49.26-1.33.75-2.54,1.56-3.57.16-.21.35-.42.54-.62.06-.06.13-.12.19-.18.2-.19.42-.38.64-.55,1.4-1.1,3.18-1.82,5.03-2.13.25-.04.51-.08.77-.11,2.34-.25,4.74.16,6.62,1.27,1.59.94,1.26-1.13,2.16,2.5.2.8.45,1.89.8,3.35.16.64.33,1.37.53,2.17,0,0,0,0,0,0,.13.55.28,1.14.43,1.77,3.72,15.11,8.71,26.73,11.37,32.09,4.29,8.62,7,8.04,8.99,9.11,6.64,3.58,8.98,3.18,8.98,3.18.09.17,7.26.34,7.34.51,4.95,9.98-2.72,15.68,4.43,20.86,3.68,2.67,8.63,13.04,8.02,16.91Z"/>
        <path class="cls-1" d="m260.27,195.37c-.5,1.99,2.41,4.4,4.31,5.46,4.25,2.36,8.75.9,9.77.57,2-.65,5.27-1.7,5.89-4.31.66-2.76-1.95-6.02-4.74-7.04-1.74-.63-4.58.38-10.2,2.44-4.08,1.49-4.82,2.05-5.03,2.87Z"/>
        <g>
          <path class="cls-9" d="m276.98,193.57c-.27.3-.54.59-.82.87-.54.53-3.21,3.04-7.06,3.9-1.51.34-3.19.43-5,.04-2.74-.58-2.9-.04-4.89-4.3-.98-2.1-2.51-4.76-3.29-7.62s-.08-3.77,1.52-5.49c.05-.06.1-.12.14-.2.19-.33.32-.82.54-1.03,1-.93,1.94-1.57,2.42-1.9.63-.44,1.64-.64,2.38-1.02.4-.21.51-.61.93-.79,1.66-.72,3.6-.85,5.42-1.13.08-.01.16-.04.23-.07.39-.15.74-.48,1.16-.51,3.3-.22,6.45.53,8.47,2.82.08.09.17.19.25.3.49.62.87,1.31,1.16,2.03.18.45.31.92.41,1.4.86,4.16-.99,9.29-3.97,12.69Z"/>
          <path class="cls-9" d="m281.16,194.37c-.14.42-.93,3.1-3.24,3.98-2.45.93-5.38,1.33-8.42,1.31-.89,0-5.53-.22-6.38-.4-3.77-.8-.14-5.98.16-10.19.07-.99.14-1.99.16-2.96,0-.29,0-.57,0-.85v-.04c-.04-2.45,2.15-2.25,4.71-1.38.49.17,1,.36,1.5.56,2.72,1.1,5.46,2.53,6.1,2.08,2.25-1.55,3.57-4.43,4.67-6.76.04-.08.07-.15.11-.23.22-.47.44-.92.65-1.32,1.11-2.12,3.13-3.63,4.08-.71,1.64,5-2.3,11.39-4.11,16.92Z"/>
          <path class="cls-17" d="m270.1,187.87c-.4.05-.73-1.24-1.56-3.2-.06-.14-.12-.27-.18-.41-.06-.14-.13-.29-.19-.43-.93-2.08-1.93-4.19-3.82-5.86-.32-.28-.82-.72-1.42-1.13.4-.21.51-.61.93-.79.98.61,1.72,1.33,2.57,2.38,1.91,2.36,2.65,3.81,3.24,5.96h0c.02.06.07.23.13.47.25.95.75,2.96.3,3.01Z"/>
          <path class="cls-17" d="m264.64,191.75c-.37.04-.67-1.02-1.35-2.68-.12-.29-.25-.6-.39-.93-.33-.74-.66-1.49-1.03-2.22-.74-1.47-1.64-2.88-2.99-4.07-.3-.27-.75-.67-1.31-1.06.19-.33.32-.82.54-1.03,1.11.65,1.92,1.4,2.85,2.55.96,1.19,1.63,2.14,2.12,3.07.13.24.25.48.36.73.31.68.54,1.37.76,2.17.08.3.99,3.41.43,3.48Z"/>
          <path class="cls-17" d="m274.66,184.17c-.43.05-.77-1.43-1.74-3.61-.87-1.98-1.78-4.02-3.41-5.71.39-.15.74-.48,1.16-.51.11.12.21.25.32.39,1.91,2.36,2.65,3.81,3.24,5.97.08.3.99,3.41.43,3.48Z"/>
          <path class="cls-17" d="m282.55,184.17c-.41.05-.74-1.28-1.6-3.29-.04-.11-.09-.21-.14-.32-.12-.28-.25-.56-.38-.85-.39-.86-.8-1.73-1.3-2.56.08.09.17.19.25.3.49.62.87,1.31,1.16,2.03.22-.47.44-.92.65-1.32.39.8.68,1.6.93,2.53.08.3.99,3.41.43,3.48Z"/>
        </g>
      </g>
      <g>
        <path class="cls-35" d="m441.8,206.23c-.03.22-.07.44-.11.66-.86,4.74-3.21,10.23-4.29,15.67-.67,3.39-1,14.07-8.27,25.39-11.44,17.83-14.11,11.48-19.82,19.66-.19.27-.4.51-.64.72-3.89,3.5-23.83,22.65-22.89,10.28.13-1.69-1.92-3.53-6.38-.99-3.4,1.94,2.61-9.92,2.79-19.89,0-.51,4.29-1.89,4.31-2.3.01-.4.02-.76.04-1.08.11-2.59.3-2.98.58-3.76,0,0,0,0,0,0,.06-.15.11-.31.17-.5h0c.24-.76.53-2,.88-4.78,0-.05.01-.1.02-.15,0,0,2.28.66,9.28-2.13,2.1-.84,4.73.05,9.97-8.02,3.26-5.02,9.54-15.99,14.96-30.59.23-.61.44-1.17.63-1.71h0s0,0,0,0c.28-.77.54-1.46.76-2.09.52-1.42.9-2.48,1.19-3.25,1.3-3.5.74-1.48,2.42-2.23,1.99-.89,4.42-1.02,6.72-.51.25.06.5.12.75.19,1.8.52,3.48,1.44,4.75,2.69.2.2.39.4.57.62.06.07.11.14.17.21.17.22.32.44.47.67.69,1.12,1.04,2.37,1.14,3.73.08,1.1,0,2.26-.17,3.48Z"/>
        <path class="cls-1" d="m443.07,204.17c.27,2.04-2.89,4.1-4.9,4.93-4.49,1.86-8.79-.1-9.77-.54-1.91-.87-5.04-2.29-5.36-4.95-.34-2.82,2.63-5.76,5.51-6.45,1.8-.43,4.51.9,9.85,3.59,3.88,1.95,4.56,2.58,4.67,3.43Z"/>
        <g>
          <path class="cls-9" d="m426.67,200.49c.23.33.47.65.72.96.48.58,2.84,3.38,6.57,4.68,1.46.51,3.13.79,4.97.61,2.79-.26,2.88.29,5.34-3.71,1.22-1.98,3.03-4.45,4.14-7.2s.51-3.74-.88-5.62c-.05-.06-.08-.13-.12-.22-.15-.35-.22-.85-.42-1.08-.89-1.04-1.74-1.78-2.19-2.17-.58-.51-1.56-.83-2.25-1.28-.38-.25-.43-.66-.84-.89-1.57-.9-3.48-1.26-5.26-1.74-.08-.02-.15-.05-.23-.09-.38-.19-.68-.56-1.09-.64-3.26-.6-6.47-.21-8.74,1.83-.1.08-.19.17-.28.27-.56.56-1.02,1.2-1.38,1.89-.23.43-.42.88-.57,1.34-1.33,4.04-.07,9.34,2.5,13.06Z"/>
          <path class="cls-9" d="m422.43,200.8c.09.43.57,3.18,2.76,4.32,2.33,1.21,5.2,1.94,8.21,2.26.88.1,5.52.41,6.38.33,3.84-.36.82-5.92,1.01-10.14.04-.99.09-1.99.18-2.96.03-.28.06-.57.09-.85v-.04c.32-2.43-1.88-2.48-4.52-1.91-.51.11-1.03.25-1.56.39-2.83.78-5.71,1.89-6.3,1.37-2.06-1.8-3.04-4.8-3.87-7.25-.03-.08-.05-.16-.08-.24-.17-.49-.33-.96-.49-1.39-.86-2.23-2.69-3.96-3.98-1.17-2.2,4.78.99,11.58,2.16,17.27Z"/>
          <path class="cls-17" d="m434.16,195.6c.4.1.87-1.15,1.92-3,.07-.13.15-.26.23-.39.08-.13.16-.27.24-.41,1.16-1.96,2.39-3.94,4.47-5.39.35-.24.89-.62,1.54-.96-.38-.25-.43-.66-.84-.89-1.04.5-1.86,1.12-2.83,2.07-2.17,2.13-3.07,3.48-3.9,5.55h0c-.02.06-.09.22-.18.45-.36.91-1.08,2.85-.64,2.96Z"/>
          <path class="cls-17" d="m439.15,200.08c.36.08.78-.94,1.64-2.51.15-.28.32-.57.5-.88.41-.7.82-1.41,1.27-2.09.9-1.37,1.95-2.67,3.43-3.7.33-.23.82-.58,1.42-.9-.15-.35-.22-.85-.42-1.08-1.18.52-2.06,1.17-3.12,2.2-1.09,1.07-1.86,1.94-2.46,2.81-.16.23-.3.45-.44.68-.38.64-.7,1.3-1,2.06-.12.29-1.37,3.28-.82,3.41Z"/>
          <path class="cls-17" d="m430.05,191.41c.42.1.93-1.33,2.14-3.39,1.09-1.87,2.22-3.79,4.03-5.28-.38-.19-.68-.56-1.09-.64-.12.11-.24.23-.36.35-2.17,2.13-3.07,3.48-3.9,5.56-.12.29-1.37,3.28-.82,3.41Z"/>
          <path class="cls-17" d="m422.21,190.51c.4.1.88-1.19,1.96-3.09.06-.1.12-.2.18-.31.15-.27.31-.53.47-.8.49-.81,1-1.62,1.58-2.39-.1.08-.19.17-.28.27-.56.56-1.02,1.2-1.38,1.89-.17-.49-.33-.96-.49-1.39-.48.75-.86,1.51-1.21,2.41-.12.29-1.37,3.28-.82,3.41Z"/>
        </g>
      </g>
      <g>
        <g>
          <g>
            <path class="cls-21" d="m309.74,108.18c.65.62,1.16,1.27,1.48,1.6.73.75.96.99,1.81,2.04,1.06,1.32.64.68,2.26,2.87.87,1.17,1.73,2.03,1.88,3.15.03.27.17.66-.3.95-.49.32-1.02-.05-1.51-.37-.82-.54-1.42-.89-2.3-2.11-1.14-1.57-1.34-1.55-2.23-2.76-1.05-1.42-1.64-1.89-2.21-3.01-.5-.97-.48-2.91-.26-3.04.11-.07,1,.29,1.39.67Z"/>
            <path class="cls-42" d="m316.46,117.51c.18-.13.28-.32.17-1.23-.1-.85-.69-2.1-.68-1.93.02.94-.45,1.84-.35,2.55.09.63.53.85.87.61Z"/>
            <path class="cls-42" d="m315.21,116.01c.18-.13.35-.52.12-1.41-.22-.85-1.23-3.05-1.05-2.48.28.9-.09,2.39.02,3.1.09.63.58,1.03.92.79Z"/>
            <path class="cls-42" d="m313.8,114.44c.57-.18.47-1.19.06-2.07-.37-.79-1.67-3.01-1.59-2.86.55,1.03.45,2.77.55,3.48.09.63.58,1.57.98,1.45Z"/>
            <path class="cls-42" d="m309.52,108.81c.43-.45.11-1.1-.29-1.33-.75-.43-3.56-5.06-3.48-4.91.46.82,2.27,5.12,2.47,6.08.09.44,1.01.47,1.3.17Z"/>
            <path class="cls-42" d="m310.68,110.91c.41-.08.64-.55.41-1.45-.22-.85-2.45-4.5-2.37-4.34.65,1.3,1.37,3.61,1.26,3.98-.25.86.29,1.89.7,1.8Z"/>
            <path class="cls-42" d="m312.06,112.94c.75.32.69-.69.46-1.58-.22-.85-2.36-4.86-2.35-4.69.02.94,1.08,2.62,1.18,3.33.09.63.12,2.69.71,2.94Z"/>
            <path class="cls-42" d="m309.58,110.83c-.19.12-.68,0-1.43-.54-.71-.51-2.86-4.66-2.7-4.6.87.35,2.02,3.11,2.79,3.29.62.15,2.1,1.37,1.33,1.85Z"/>
            <path class="cls-42" d="m311.27,112.14c.34.9-.93.8-1.68.27-.71-.51-2.75-2.34-2.59-2.28.84.31,1.73,1.17,2.53,1.17.75,0,1.46.13,1.73.84Z"/>
            <path class="cls-42" d="m312.41,114.62c-.19.12-.46.25-1.21-.28-.71-.51-3.04-2.02-2.89-1.95.87.35,2.19.81,2.91.86,2.11.14,1.54,1.15,1.19,1.37Z"/>
            <path class="cls-42" d="m314.25,115.94c-.17.14-.52.29-1.39.1-.93-.2-4.14-1.63-3.97-1.58.9.25,3.9.31,4.44.29.64-.01,1.24.92.92,1.19Z"/>
            <path class="cls-42" d="m315.34,117.35c-.17.14-.74.24-1.26.01-.81-.36-2.05-1.38-1.89-1.34.9.25,2.11.06,2.77.33.59.24.69.72.37.99Z"/>
            <path class="cls-42" d="m316.52,118.59c-.16.15-.41.33-1.24-.06-.8-.37-1.49-.96-1.33-.92.92.19,1.45-.21,2.13.02.6.2.74.68.44.96Z"/>
          </g>
          <path class="cls-15" d="m316,118.86c.06-.19.64.03.97-.3.34-.34.06-.91.3-1.02.22-.11.16.54.3,1.03.15.52.3.55.66.99.49.6,1.02,1.35,2.74,2.42.92.58,1.05.32.89.63-.15.3-.67-.34-1.79-.9-.8-.4-.68-.57-1.87-1.66-.75-.69-.34-.79-1.29-.88-.47-.04-.94-.16-.9-.3Z"/>
        </g>
        <path class="cls-23" d="m407.18,141.47h0s-.02.09-.03.13c-.17.76-.36,1.53-.57,2.32,0,.02-.01.04-.02.07-.13.45-.25.91-.39,1.36-.11.37-.22.74-.34,1.11,0,0,0,.01,0,.02-1.32,4.17-3.17,8.43-5.58,12.07-.73,1.11-1.52,2.16-2.36,3.14-4.71,5.47-5.2-3.49-10.66-1.58-.81.29-1.68.58-2.6.87-4.65-3.25-8.7-4.85-9.58-3.57-.54.79.62,3.15,1.95,5.76-4.44,1.14-9.42,2.2-14.58,2.99-2.53.38-5.1.7-7.67.93-1.08-.72-2.15-1.51-3.2-2.36-1.62-1.31-3.16-2.79-4.6-4.42-3.07-3.49-11.51-11.08-12.45-7.62-.9,3.32-8.61,3.54-13.54,5.77-.5.22-.96.47-1.38.74-.46-.47-.88-.97-1.28-1.49-.53-.68-1.01-1.41-1.45-2.19-1.7-3.01-2.44-6.33-2.59-9.62-.2-4.17.54-8.3,1.48-11.73,0,0,0,0,0,0,.06-.2.11-.41.17-.61.5-1.75,1.04-3.29,1.53-4.54.55-1.43,1.02-2.48,1.26-3,2.6-5.78,6.74-14.99,14.99-17.24,10.84-2.95,13.87.52,30.2,8.94,3.61,1.86,6.9,1.09,16.12-.74,18.06-3.59,20.89-.51,27.64,10.97,1.05,1.79.94,7.21-.47,13.54Z"/>
        <path class="cls-45" d="m316.41,136.83c2.38,2.87,13.11,1.42,24.51-.46,7.45-1.23,17.63,3.79,31.8,5.75,11.95,1.65,23.59,3.39,30.15,6.41,3.6,1.66,3.69-5.62,4.28-6.36.91-1.14-15.9-7.91-20.27-8.61-24.33-3.91-60.53-7.86-69.63-3.9-.22.09-2.66,5-.85,7.18Z"/>
        <path class="cls-44" d="m428.04,159.56c-.51,3.88-7.81,6.53-19.36,7.73-4.65.48-10,.73-15.87.72-2.6-2.73-5.49-5.16-8.18-7.03-4.65-3.25-8.7-4.85-9.58-3.57-.54.79.62,3.15,1.95,5.76.75,1.48,1.56,3.03,2.14,4.43-5.34-.31-10.94-.79-16.72-1.44-1.64-.19-3.3-.39-4.97-.61-1.99-.26-3.96-.53-5.9-.82-1.62-1.31-3.16-2.79-4.6-4.42-3.07-3.49-11.51-11.08-12.45-7.62-.9,3.32-8.61,3.54-13.54,5.77-.9-.24-1.79-.5-2.67-.75-4.4-1.27-8.39-2.6-11.89-3.96-10.22-3.99-16.17-8.25-15.68-12,.58-4.48,10.23-7.32,25.03-8.18.05,0,.1,0,.15,0,12.34-.7,28.22-.03,45.41,2.2,17.37,2.25,33.06,5.72,44.85,9.59.02,0,.04.01.06.02,13.91,4.58,22.39,9.74,21.81,14.2Z"/>
      </g>
      <path class="cls-6" d="m364.62,236.81c0-11.88-23.53-23.54-26.2-3.3-1.36,10.33,1.74,18.62.58,29.42-.55,5.15-.98,7.26,18.21,8.63,10.07.72,11.14-.97,8.69-10.63-1.59-6.26-1.29-18.82-1.29-24.12Z"/>
      <path class="cls-9" d="m316.12,162.9c-.61,4.12-.06,17.89-.92,28.18-1.12,13.42-.1,18.01.55,19.45,3.02,6.67,10.81,18.16,16.97,20.1q20.52,6.45,26.39,5.01c13.03-3.21,24.99-10.35,29.37-17.54,1.22-2,6.67-8.2,5.2-24.84-1.49-16.94,1.66-28.29-.5-33.14-4.86-10.9-34.68-14.61-39.24-15.26-30.52-4.36-36.14,6.7-37.82,18.03Z"/>
      <path class="cls-43" d="m314.83,182.78c-2.75-1.03-7.07,1.32-8.77,4.26-2.24,3.86.39,8.16,1.82,10.5,1.3,2.12,5.07,7.25,7.67,6.57,4.42-1.16,5.17-19.11-.72-21.32Z"/>
      <path class="cls-43" d="m394.44,186.97c2.75-1.03,7.07,1.33,8.77,4.27,2.23,3.86-.4,8.16-1.83,10.49-1.3,2.12-5.08,7.24-7.68,6.55-4.42-1.17-5.14-19.12.74-21.32Z"/>
      <path class="cls-35" d="m314.09,271.41c-.77,4.91-3.28,7.49-3.28,7.49-6.29-11.34-11.46-11.29-17.67-13.39,1.75-10.35,4.54-18.38,8.48-20.36,3.7-1.85,4.26-2.13,8.76-2.28,4.95,9.98-4.39,18.72,2.76,23.91,3.68,2.67,1.56.77.95,4.64Z"/>
      <path class="cls-35" d="m408.68,268.34c-3.89,3.5-13.41-1.41-14.54-1.19-1.67.32-1.88,1.68-6.34,4.22-3.4,1.94-1.51-4.59-1.33-14.56,0-.51.02-.96.03-1.38-.06.48-.13.98-.18,1.52-.36,3.4-1.05,7.32-1.27,10.8h0c-.08,3.16.34,5.81,1.96,7.13,1.95,1.59,2,.86,3.13,2.83.52.89.75,2.25.81,3.84.38,2.05.46,4.74.41,7.35-.22-.73-.45-1.42-.7-2.09-6.51-17.75-21.54-13.54-38.03-8.57-1.66.5-3.34,1.01-5.03,1.5-12.21,3.59-24.83,6.44-35.09.29-.48-.29-.81-.5-1.05-.43,0-.02,0-.04,0-.06.07-1.12.69-1.85,1.45-2.62.43-.81,1.19-1.44,1.94-2.24.85-1.33,1.42-3.22,1.04-6.35-.74-6.07-4-20.98-2.25-25.57.27-.02.56-.06.85-.11,2.18-.37,4.74-1.4,7.55-1.99.31-.06.61-.13.92-.19.32-.07.65-.13.98-.19.34-.07.68-.13,1.02-.2.23-.04.45-.08.68-.12,0,0,0,0,.01,0,0,0,0,0,.02,0,0,0,0,0,.01,0,0,0,.01,0,.02,0,.62-.11,1.25-.22,1.88-.32,3.72-.61,7.41-1.04,10.46-1.06h0c.09,0,.17,0,.26,0h0l3.6,2.7,8.39,6.3h0l14.27-7.23h0s.03-.01.03-.01c2.49.15,5.92.54,9.75,1.51.92.23,1.87.5,2.83.8h0s.01,0,.02,0c.01,0,.02,0,.03.01,0,0,.01,0,.02,0,0,0,0,0,.01,0,0,0,0,0,0,0,.33.1.66.22,1,.33h.02c.08.03.15.06.22.08,2.3.76,3.51.69,5.91,2.08h2.18c.09.02.19.03.28.05.4.06.82.1,1.26.13,5.15.3,12.16-1.54,18.08,6.37,1.27,1.69,2.04,8.15,2.43,16.65Z"/>
      <ellipse class="cls-23" cx="350.31" cy="279.52" rx="2.71" ry="2.51"/>
      <path class="cls-2" d="m390.67,286.81c-.42,3.55-1.17,6.97-1.47,8.24-1.34,5.76-2.7,19.91-7.59,27.06-11.08,16.2-59.27,11.97-67.06-4.33-1.29-2.7-1.39-25.39-1.99-36.51-.02-.41-.03-.82-.04-1.25,0-.61.01-1.23.05-1.88.03-.47.16-.86.35-1.23.43-.81,1.19-1.44,1.94-2.24,1.31-1.39,2.6-3.31,2.08-7.59-.69-5.68-3.62-19.21-2.44-24.44,2.18-.37,4.74-1.4,7.55-1.99.31-.06.61-.13.92-.19.32-.07.65-.13.98-.19.35,4.88,1.21,11.82,2.98,17.86,1.35,4.58,1.63,8.23,2.98,10.04,4.89,6.54,35.67,6.69,39.5,2.34,0,0,4.98-3.52,6.03-7.07.11-.38.18-.75.19-1.12.22-6.03.66-10.46,1.2-13.67.43-2.54.92-4.31,1.4-5.51h0c.02-.06.04-.11.06-.16h.02c.08.03.15.06.22.08,2.3.76,3.51.69,5.91,2.08h2.18c.09.02.19.03.28.05.43,1.14.52,2.2.44,3.4-.04.62-.13,1.28-.24,2.01h0c-.16,1.08-.38,2.3-.58,3.76-.07.48-.13.98-.18,1.52-.4,3.75-1.21,8.16-1.31,11.87h0c-.08,3.16.34,5.81,1.96,7.13,1.95,1.59,2,.86,3.13,2.83.52.89.75,2.25.81,3.84.06,1.61-.07,3.46-.28,5.26Z"/>
      <polygon class="cls-1" points="339.1 266.04 336.94 269.28 324.97 240.03 327.57 239.52 339.1 266.04"/>
      <polygon class="cls-1" points="378.33 242.99 378.25 243.14 378.24 243.14 366.73 264.64 365.06 267.75 364.65 267.21 362.9 264.92 365.59 259.49 374.38 241.81 374.43 241.71 374.46 241.65 378.31 242.98 378.33 242.99"/>
      <path class="cls-45" d="m325.67,239.95c2.97,7.18,9.07,21.1,12.04,28.27,3.84-4.7,8.79-15.98,12.63-20.68l-11.99-8.99c-4.64-.65-12.68,1.4-12.68,1.4Z"/>
      <path class="cls-45" d="m377.31,242.65c-2.97,7.18-9.75,17.53-12.72,24.71-3.83-4.7-10.42-15.11-14.26-19.81l14.3-7.25c4.64-.64,12.68,2.35,12.68,2.35Z"/>
      <path class="cls-36" d="m364.39,201.22c2.43,1.66,4.74,1.96,10.81,1.03,3.73-.57,6.17-1.92,8.09-2.75,3.2-1.38,4.19-7.1-2.26-12.5-2.69-2.25-7.24-3.87-11.26-2.19-4.13,1.73-5.48,6.03-6.55,9.44-.35,1.1-1.54,5.12,1.17,6.97Z"/>
      <g>
        <g>
          <circle class="cls-14" cx="372.26" cy="194.12" r="5.66"/>
          <circle class="cls-3" cx="372.68" cy="194.45" r="2.95"/>
        </g>
        <circle class="cls-36" cx="373.81" cy="190.5" r="1.48"/>
      </g>
      <path class="cls-10" d="m359.91,183.14c-.68-.88,3.34-5.31,6.85-6.93,2.71-1.24,2.14.44,9.46.86,6.09.35,7.01-.32,9.12.84,4.1,2.24,5.98,7.68,4.97,8.57-.71.63-2.43-1.37-6.91-3.32-1.99-.87-8.12-3.54-14.93-2.5-5.2.8-7.92,3.32-8.57,2.48Z"/>
      <path class="cls-10" d="m318.1,177.59c-.68-.88,3.34-5.31,6.85-6.93,2.71-1.24,2.14.44,9.46.86,6.09.35,7.01-.32,9.12.84,4.1,2.24,5.98,7.68,4.97,8.57-.71.63-2.43-1.37-6.91-3.32-1.99-.87-8.12-3.54-14.93-2.5-5.2.8-7.92,3.32-8.57,2.48Z"/>
      <path class="cls-36" d="m326.67,196.22c2.43,1.66,4.36,2.18,8.81,2.88,4.7.74,6.55-.19,8.48-1.01,3.2-1.38,3.8-8.83-2.65-14.24-2.69-2.25-7.24-3.87-11.26-2.19-4.13,1.73-5.48,6.03-6.55,9.44-.35,1.1.46,3.27,3.18,5.12Z"/>
      <g>
        <circle class="cls-14" cx="337.79" cy="191.94" r="5.66"/>
        <circle class="cls-3" cx="338.13" cy="192.48" r="2.95"/>
        <circle class="cls-36" cx="335.73" cy="188.8" r="1.48"/>
      </g>
      <path class="cls-38" d="m384.28,164.27c-1.85,1.3-31.34-3.63-37.22-2.78-6.62.96-13.7,3.31-16.94,2-1.57-.63,8.47-1,10.73-2.46,6.62-4.27,14.53,0,16.74-.75,1.84-.62,9.37,1.29,12.41,1.29s15.76,1.66,14.28,2.7Z"/>
      <path class="cls-38" d="m367.21,210.93c.07.86,3.05.18,3.8,2.12,2.65,6.84.05,7.81,1.15,8.43.62.36,1.42-3.85,1.39-4.67-.1-2.98-1.49-3.76-1.83-4.53-.28-.64-.77-.72-1.54-1.44s-3.04-.59-2.98.1Z"/>
      <path class="cls-38" d="m337.99,208.25c0,.86-3.02.42-3.61,2.42-2.08,7.04.58,7.79-.47,8.5-.59.4-1.72-3.72-1.76-4.54-.15-2.98,1.18-3.87,1.45-4.66.23-.66.71-.78,1.42-1.56s2.98-.84,2.98-.15Z"/>
      <path class="cls-10" d="m398.45,183.16c-2.43,1.15-.18,8.33-2.18,6.54-4.27-3.79-2.95-3.69-5.04-8.96-1.44-3.66,1.32-15.15-1.14-19.53-1.85-3.29-2.33-4.5-5.02-6.38-4.65-3.25-7.41-3.31-6.61-1.9.47.84,1.77,5.25,4.36,6.54,4.36,2.18,4.36,2.85,4.36,4.36,0,2.18-13.08,2.18-15.26,0-4.36-4.36-4.36,0-13.99-2.89-1.25-.37-6.7-4.4-7.9-5-1.79-.89-6.47.72-8.34-.39-1.27-.75-6.54-5.73-7.19-5.35-1.88,1.1-6.17,4.7-11.09,6.93-.5.22-1.62-3.76-2.05-3.49-1.27.8,1.15,4.16.8,5.55-.83,3.23-4.85,9.42-4.36,13.08.49,3.67.41,12.08-.92,13.36-2.07,2-4.36-4.36-4.36-6.54s-4.65-4.27-4.8-4.41c-2.95-2.6,1.55-3.77,1.56-8.74,0-3.94,4.12-4.9,6.7-9.09,1.92-3.11,3.22-5.68,4.36-6.54s4.22-5.73,5.81-6.1c21.01-5,39.56-6.76,61.03,6.77,1.86,1.17,6.35,6.28,7.28,8.05,2.57,4.92,5.58,9.62,3.63,13.52-2.18,4.36,4.22,8.78.37,10.62Z"/>
      <ellipse class="cls-23" cx="350.32" cy="257.74" rx="2.71" ry="2.51"/>
      <g>
        <circle class="cls-32" cx="349.09" cy="256.53" r=".48"/>
        <circle class="cls-32" cx="349.09" cy="258.71" r=".48"/>
        <circle class="cls-32" cx="351.27" cy="258.71" r=".48"/>
        <circle class="cls-32" cx="351.27" cy="256.53" r=".48"/>
      </g>
      <ellipse class="cls-23" cx="350.11" cy="266.62" rx="2.71" ry="2.51"/>
      <circle class="cls-32" cx="348.88" cy="265.41" r=".48"/>
      <circle class="cls-32" cx="348.88" cy="267.59" r=".48"/>
      <circle class="cls-32" cx="351.06" cy="267.59" r=".48"/>
      <circle class="cls-32" cx="351.06" cy="265.41" r=".48"/>
      <path class="cls-46" d="m391,343.24c-11.24,16.43-74.94,14.35-82.84-2.18-1.3-2.74,3.9-47.06,3.3-58.35-.06-.98-.05-2.02.01-3.12,0-.02,0-.04,0-.06.07-1.12.69-1.85,1.45-2.62.63-.64,1.35-1.3,1.94-2.24.85-1.33,1.42-3.22,1.04-6.35-.74-6.07-4-20.98-2.25-25.57.27-.02.56-.06.85-.11,2.18-.37,4.74-1.4,7.55-1.99.31-.06.61-.13.92-.19.32,4.97,1.19,12.37,3.07,18.78,1.37,4.64,1.66,8.35,3.03,10.18,4.96,6.64,36.18,6.78,40.07,2.37,0,0,6.17-4.36,6.31-8.32,0-.02,0-.03,0-.05.24-6.73.77-11.49,1.39-14.79.53-2.81,1.14-4.56,1.71-5.58,2.3.76,3.51.69,5.91,2.08h1.47c.24.13.49.27.73.41h0c.48,1.05.68,2.01.7,3.03.01.48-.01.98-.07,1.51h0c-.15,1.45-.49,3.12-.79,5.34-.06.48-.13.98-.18,1.52-.36,3.4-1.05,7.32-1.27,10.8h0c-.23,3.75.08,6.97,1.93,8.48,1.98,1.61,2.03.87,3.18,2.87.35.61.61,1.45.79,2.45.38,2.05.46,4.74.41,7.35-.06,3.72-.37,7.27-.37,8.57,0,4.36,4.96,38.53,0,45.78Z"/>
      <path class="cls-19" d="m322.96,191.76c.48-2.1,4.84-4.28,9.2-6.46,2.76-1.38,5.79-2.49,8.72,0,2.66,2.26,4.36,5.37,4.36,4.36,0-2.18-2.18-4.36-2.18-4.36-1.54-1.54-3.77-4.34-8.72-4.36-1.22,0-5.53-.11-9.2,4.28-1.92,2.3-2.46,7.76-2.18,6.54Z"/>
      <path class="cls-19" d="m384.38,191.94c-.48-2.1-2.18-2.18-6.54-4.36-2.76-1.38-2.69-2.18-6.54-2.18-4.36,0-6.54,4.36-6.54,4.36,0-2.18,2.18-4.36,2.18-4.36,1.54-1.54,1.59-2.15,6.54-2.18,1.22,0,5.74-.29,9.2,4.28,1.7,2.26,1.98,5.65,1.7,4.44Z"/>
      <path class="cls-30" d="m341.98,212.68c.11,1.15.3,14.52,2.85,17.24.77.82,5.84,2.3,10.06,2.05,3.76-.22,6.21-12.91,7.61-16.95"/>
      <path class="cls-36" d="m344.75,212.99c-.52.79-.48,2.54-.04,3.41.48.97,1.95-.02,5.25.33,2.41.26,3.62.39,5.04.7,1.66.36,2.36,1.29,3.04.9.99-.56,1.41-2.85.87-3.86-.36-.67-1.03-.77-3.74-1.31-4.16-.82-4.93-1.05-6.69-1.05-1.95,0-3.18.01-3.74.87Z"/>
      <path class="cls-11" d="m336.59,216.76c-.68-.88,3.34-5.32,6.85-6.93,2.71-1.25,2.14.44,9.46.85,6.09.34,7.01-.32,9.12.83,4.1,2.24,5.99,7.68,4.98,8.57-.71.63-2.43-1.37-6.91-3.32-2-.87-8.12-3.53-14.93-2.49-5.2.8-7.92,3.32-8.57,2.49Z"/>
      <text/>
    </g>
    <rect class="cls-33" x="426.1" y="270.82" width="167.9" height="57.16" rx="20.36" ry="20.36"/>
    <g>
      <path class="cls-7" d="m488.54,289.82c0,4.21-3.1,8.61-9.33,13.26.12,2.98.32,5.87.6,8.77l-5.75,1.71c-.04-.6-.12-2.3-.2-5.2l-.28-9.21c-.12-4.17-.36-8.53-.63-13.02,3.73-1.23,6.87-1.83,9.41-1.83,3.53,0,5.52,1.23,5.99,3.65.12.64.2,1.27.2,1.87Zm-6.67,1.83c-.6,0-1.51.2-2.74.64-.04.75-.04,1.47-.04,2.18v2.14c.95-.52,1.79-1.11,2.5-1.87.99-.95,1.47-1.71,1.47-2.26s-.4-.83-1.19-.83Z"/>
      <path class="cls-7" d="m504.25,310.86c-3.53.32-7.78,1.23-12.82,2.7l-1.07-27.38,6.39-1.23c-.16,3.29-.24,6.59-.28,9.88-.04,3.29.04,6.63.2,9.92l6.59-1.07.99,7.18Z"/>
      <path class="cls-7" d="m516.8,314.15l-.44-4.84-2.5.48-.08,3.45-7.86,1.23c1.71-9.53,2.78-18.85,3.25-28.02l11.39-2.02c.28,7.62,1.63,16.91,4.05,27.82l-7.82,1.91Zm-.91-10.04l-1.35-14.64h-.04l-.44,15,1.83-.36Z"/>
      <path class="cls-7" d="m540.49,286.69c-3.61,10.28-6.11,19.13-7.58,26.55l-6.03-.4,2.26-8.61-6.55-15.6,6.79-3.45c.6,3.69,1.31,6.95,2.22,9.76l2.46-9.37,6.43,1.11Z"/>
    </g>
    <g>
      <rect class="cls-33" x="108" y="270" width="167.9" height="57.16" rx="20.36" ry="20.36"/>
      <g>
        <path class="cls-7" d="m157.22,312.34l-6.43-10.72-.04.04c.12,3.29.32,6.43.64,9.37l-5.79,1.71-.2-5.16-.75-18.02c-.12-2.66-.16-4.05-.12-4.25,3.73-1.23,6.91-1.83,9.49-1.83,3.53,0,5.56,1.23,6.03,3.65.12.6.16,1.15.16,1.71,0,2.98-1.51,5.87-4.52,8.77.79,1.31,1.87,2.86,3.18,4.68,1.07,1.55,2.18,3.06,3.29,4.6-1.07,1.23-2.74,3.02-4.92,5.44Zm-4.05-21.51c-.6,0-1.43.2-2.5.6-.04.87-.04,1.75-.04,2.62s0,1.75.04,2.62c.91-.56,1.75-1.27,2.46-2.1.91-1.07,1.35-1.94,1.35-2.62,0-.75-.44-1.11-1.31-1.11Z"/>
        <path class="cls-7" d="m177.9,310.04c-3.53.32-8.06,1.23-13.57,2.7l-1.31-27.78,12.5-1.91,1.03,7.22c-2.34.2-4.6.48-6.83.83-.04.75-.04,1.47-.04,2.18v2.18l5.91-1.35.79,5.36c-1.11.2-2.22.4-3.29.64l-3.33.71c0,.52,0,1.03.04,1.55l.08,1.55,6.99-1.07,1.03,7.18Z"/>
        <path class="cls-7" d="m196.12,290.91l-5.08.4c-.04,1.39-.04,2.82-.04,4.21,0,5.6.28,10.76.79,15.52l-6.15,1.71-.83-20.64-3.97.75-2.02-7.26,15.99-1.91,1.31,7.22Z"/>
        <path class="cls-7" d="m210.77,312.34l-6.43-10.72-.04.04c.12,3.29.32,6.43.64,9.37l-5.79,1.71-.2-5.16-.75-18.02c-.12-2.66-.16-4.05-.12-4.25,3.73-1.23,6.91-1.83,9.49-1.83,3.53,0,5.56,1.23,6.03,3.65.12.6.16,1.15.16,1.71,0,2.98-1.51,5.87-4.52,8.77.79,1.31,1.87,2.86,3.18,4.68,1.07,1.55,2.18,3.06,3.29,4.6-1.07,1.23-2.74,3.02-4.92,5.44Zm-4.05-21.51c-.6,0-1.43.2-2.5.6-.04.87-.04,1.75-.04,2.62s0,1.75.04,2.62c.91-.56,1.75-1.27,2.46-2.1.91-1.07,1.35-1.94,1.35-2.62,0-.75-.44-1.11-1.31-1.11Z"/>
        <path class="cls-7" d="m233.43,285.87c-3.61,10.28-6.11,19.13-7.58,26.55l-6.03-.4,2.26-8.61-6.55-15.6,6.79-3.45c.6,3.69,1.31,6.95,2.22,9.76l2.46-9.37,6.43,1.11Z"/>
      </g>
    </g>
  </g>
</svg>