<?xml version="1.0" encoding="UTF-8"?>
<svg id="ur" xmlns="http://www.w3.org/2000/svg" viewBox="0 0 1044 1359">
  <defs>
    <style>
      .cls-1, .cls-2 {
        opacity: .1;
      }

      .cls-1, .cls-2, .cls-3, .cls-4, .cls-5, .cls-6, .cls-7, .cls-8, .cls-9, .cls-10, .cls-11, .cls-12, .cls-13, .cls-14, .cls-15, .cls-16, .cls-17, .cls-18, .cls-19, .cls-20, .cls-21, .cls-22, .cls-23, .cls-24, .cls-25 {
        stroke-width: 0px;
      }

      .cls-2, .cls-25 {
        fill: #020b72;
      }

      .cls-4 {
        fill: #f4c097;
      }

      .cls-5 {
        fill: #f7d1a2;
      }

      .cls-6 {
        fill: #878787;
      }

      .cls-7 {
        fill: #898989;
      }

      .cls-8 {
        fill: #1f4d9a;
      }

      .cls-9 {
        fill: #d1a340;
      }

      .cls-10 {
        fill: #cca887;
      }

      .cls-11 {
        fill: #e0ae80;
      }

      .cls-12 {
        fill: #d68430;
      }

      .cls-13 {
        fill: #b0662d;
      }

      .cls-14 {
        fill: #b2662d;
      }

      .cls-15 {
        fill: #8c0623;
      }

      .cls-16 {
        fill: #803c15;
      }

      .cls-17 {
        fill: #823c15;
      }

      .cls-18 {
        fill: #802f12;
      }

      .cls-19 {
        fill: #fff;
      }

      .cls-20 {
        fill: #e8bd99;
      }

      .cls-21 {
        fill: #f5df5e;
      }

      .cls-22 {
        fill: #f6cb9d;
      }

      .cls-23 {
        fill: #683719;
      }

      .cls-24 {
        fill: #68230c;
      }
    </style>
  </defs>
  <ellipse class="cls-14" cx="559.26" cy="896.89" rx="11.2" ry="10.34"/>
  <ellipse class="cls-14" cx="559.32" cy="806.96" rx="11.2" ry="10.34"/>
  <g>
    <circle class="cls-17" cx="554.24" cy="801.97" r="2"/>
    <circle class="cls-17" cx="554.24" cy="810.97" r="2"/>
    <circle class="cls-17" cx="563.24" cy="810.97" r="2"/>
    <circle class="cls-17" cx="563.24" cy="801.97" r="2"/>
  </g>
  <ellipse class="cls-14" cx="558.44" cy="843.63" rx="11.2" ry="10.34"/>
  <circle class="cls-17" cx="553.36" cy="838.64" r="2"/>
  <circle class="cls-17" cx="553.36" cy="847.64" r="2"/>
  <circle class="cls-17" cx="562.36" cy="847.64" r="2"/>
  <circle class="cls-17" cx="562.36" cy="838.64" r="2"/>
  <g>
    <path class="cls-18" d="m423.86,888.17c-3.19,20.27-44.81,23.44-44.81,23.44,11.55,33.78-63.64-39.2-107.02-85.9-6.07-6.53-17.38-6.67-27.11-13.45-33.8-23.56-33.49-11.48-72.03-89.99-24.47-49.83-20.8-93.8-21.96-108.01-1.86-22.84-8.93-46.45-10.22-66.29-.06-.93-.11-1.85-.14-2.76-.19-5.1.05-9.92.92-14.39,1.07-5.51,3.09-10.48,6.44-14.75.68-.88,1.43-1.73,2.22-2.55.26-.25.52-.51.78-.76.84-.8,1.72-1.56,2.64-2.27,5.8-4.55,13.12-7.53,20.76-8.81,1.05-.18,2.11-.33,3.17-.44,9.68-1.02,19.58.65,27.32,5.25,6.56,3.9,5.22-4.68,8.9,10.31.81,3.32,1.87,7.8,3.32,13.83.64,2.66,1.36,5.64,2.17,8.95,0,.01,0,.02.01.03.54,2.27,1.14,4.71,1.78,7.31,15.34,62.4,35.96,110.35,46.96,132.49,17.7,35.6,28.91,33.19,37.11,37.61,27.42,14.76,37.07,13.11,37.07,13.11.38.7,29.98,1.41,30.32,2.11,20.44,41.22-11.22,64.73,18.28,86.14,15.18,11.01,35.63,53.85,33.12,69.8Z"/>
    <path class="cls-1" d="m136.35,536.16c-2.07,8.24,9.94,18.18,17.79,22.54,17.54,9.74,36.11,3.74,40.33,2.37,8.26-2.67,21.75-7.03,24.32-17.79,2.72-11.41-8.06-24.87-19.57-29.06-7.16-2.61-18.91,1.59-42.11,10.08-16.83,6.17-19.9,8.45-20.76,11.86Z"/>
    <g>
      <path class="cls-5" d="m205.33,528.75c-1.1,1.25-2.24,2.45-3.4,3.58-2.23,2.17-13.26,12.54-29.15,16.11-6.22,1.41-13.19,1.77-20.66.18-11.33-2.4-11.97-.18-20.17-17.73-4.06-8.68-10.35-19.66-13.6-31.46-3.3-12.01-.32-15.58,6.27-22.65.22-.23.41-.51.58-.83.8-1.38,1.32-3.39,2.25-4.25,4.14-3.83,7.99-6.48,9.99-7.86,2.61-1.8,6.77-2.66,9.83-4.21,1.66-.86,2.09-2.5,3.85-3.26,6.86-2.96,14.85-3.53,22.39-4.66.33-.05.65-.15.97-.27,1.63-.62,3.05-1.98,4.77-2.1,13.64-.91,26.65,2.18,34.98,11.63.35.39.69.8,1.02,1.22,2.03,2.57,3.61,5.39,4.77,8.39.73,1.86,1.29,3.79,1.69,5.77,3.57,17.18-4.09,38.34-16.38,52.4Z"/>
      <path class="cls-5" d="m222.59,532.02c-.57,1.73-3.84,12.79-13.36,16.42-10.12,3.85-22.23,5.5-34.75,5.4-3.66-.02-22.85-.91-26.33-1.65-15.57-3.3-.58-24.69.65-42.06.29-4.08.58-8.21.66-12.23.03-1.18.04-2.36.02-3.52v-.18c-.17-10.1,8.89-9.3,19.45-5.7,2.03.69,4.11,1.49,6.2,2.33,11.25,4.55,22.53,10.43,25.18,8.6,9.31-6.42,14.74-18.27,19.27-27.91.15-.32.3-.63.44-.94.92-1.95,1.81-3.79,2.68-5.46,4.59-8.74,12.9-14.97,16.86-2.93,6.79,20.66-9.51,47.03-16.97,69.84Z"/>
      <path class="cls-10" d="m176.91,505.2c-1.67.21-3.02-5.12-6.45-13.21-.24-.56-.48-1.13-.74-1.71-.26-.59-.52-1.19-.79-1.78-3.82-8.59-7.96-17.29-15.79-24.2-1.33-1.17-3.37-2.98-5.87-4.67,1.66-.86,2.09-2.5,3.85-3.26,4.03,2.53,7.11,5.49,10.63,9.84,7.89,9.74,10.96,15.71,13.38,24.62h0c.07.26.27.96.54,1.94,1.05,3.92,3.09,12.21,1.24,12.43Z"/>
      <path class="cls-10" d="m154.36,521.21c-1.51.18-2.76-4.21-5.56-11.08-.49-1.2-1.03-2.49-1.63-3.84-1.35-3.06-2.71-6.15-4.24-9.18-3.05-6.05-6.76-11.88-12.34-16.8-1.25-1.1-3.11-2.75-5.39-4.36.8-1.38,1.32-3.39,2.25-4.25,4.6,2.67,7.91,5.77,11.76,10.51,3.97,4.9,6.71,8.84,8.77,12.69.54,1,1.03,2,1.48,3,1.27,2.8,2.24,5.67,3.13,8.94.34,1.25,4.08,14.09,1.77,14.37Z"/>
      <path class="cls-10" d="m195.73,489.93c-1.78.22-3.19-5.89-7.19-14.92-3.61-8.19-7.33-16.59-14.06-23.57,1.63-.62,3.05-1.98,4.77-2.1.44.51.88,1.04,1.33,1.59,7.89,9.75,10.96,15.72,13.38,24.63.34,1.25,4.08,14.09,1.77,14.37Z"/>
      <path class="cls-10" d="m228.31,489.93c-1.69.21-3.05-5.29-6.6-13.58-.18-.44-.38-.88-.58-1.34-.51-1.16-1.03-2.33-1.55-3.49-1.61-3.57-3.32-7.13-5.35-10.55.35.39.69.8,1.02,1.22,2.03,2.57,3.61,5.39,4.77,8.39.92-1.95,1.81-3.79,2.68-5.46,1.63,3.29,2.8,6.59,3.84,10.44.34,1.25,4.08,14.09,1.77,14.37Z"/>
    </g>
  </g>
  <g>
    <path class="cls-18" d="m885.82,581.02c-.14.91-.29,1.82-.47,2.74-3.53,19.56-13.25,42.22-17.7,64.69-2.77,13.98-4.14,58.08-34.13,104.81-47.24,73.6-58.26,47.38-81.81,81.18-.79,1.13-1.67,2.12-2.63,2.98-16.08,14.44-98.4,93.53-94.52,42.44.53-7-7.93-14.58-26.34-4.08-14.02,8,10.76-40.97,11.51-82.13.04-2.09,17.73-7.8,17.78-9.51.05-1.64.1-3.12.16-4.45.44-10.7,1.22-12.31,2.38-15.51,0,0,0,0,0-.01.23-.6.46-1.26.71-2.05h0c.98-3.12,2.18-8.24,3.64-19.73.03-.2.05-.41.08-.62,0,0,9.4,2.74,38.32-8.8,8.66-3.45,19.52.22,41.16-33.13,13.45-20.74,39.4-66.03,61.75-126.28.93-2.51,1.8-4.85,2.61-7.04h0s0-.02.01-.03c1.16-3.18,2.21-6.04,3.15-8.61,2.14-5.87,3.71-10.22,4.9-13.43,5.36-14.45,3.05-6.09,10.01-9.21,8.22-3.69,18.25-4.22,27.74-2.1,1.04.23,2.07.5,3.1.8,7.44,2.14,14.37,5.93,19.62,11.11.83.82,1.62,1.67,2.36,2.56.24.28.47.57.69.86.7.9,1.34,1.83,1.92,2.78,2.84,4.63,4.29,9.8,4.72,15.39.35,4.53.04,9.34-.72,14.38Z"/>
    <path class="cls-1" d="m891.04,572.52c1.12,8.42-11.94,16.93-20.25,20.36-18.53,7.67-36.3-.4-40.34-2.24-7.9-3.59-20.81-9.46-22.13-20.45-1.4-11.64,10.84-23.79,22.76-26.64,7.42-1.78,18.61,3.73,40.69,14.82,16.02,8.04,18.81,10.66,19.27,14.15Z"/>
    <g>
      <path class="cls-5" d="m823.35,557.29c.95,1.37,1.95,2.69,2.97,3.94,1.97,2.41,11.74,13.97,27.12,19.33,6.02,2.11,12.9,3.26,20.5,2.53,11.53-1.09,11.91,1.19,22.06-15.32,5.02-8.16,12.52-18.35,17.09-29.71,4.65-11.55,2.09-15.44-3.65-23.21-.19-.25-.35-.55-.48-.89-.64-1.46-.93-3.52-1.75-4.48-3.68-4.28-7.2-7.35-9.03-8.95-2.39-2.09-6.42-3.41-9.29-5.3-1.55-1.04-1.79-2.72-3.45-3.68-6.48-3.72-14.35-5.2-21.71-7.18-.32-.09-.63-.22-.93-.38-1.55-.8-2.8-2.31-4.5-2.63-13.45-2.46-26.72-.87-36.08,7.57-.39.35-.78.72-1.15,1.1-2.31,2.32-4.2,4.94-5.7,7.79-.94,1.76-1.71,3.62-2.34,5.54-5.5,16.66-.31,38.56,10.3,53.93Z"/>
      <path class="cls-5" d="m805.83,558.58c.37,1.79,2.36,13.14,11.4,17.83,9.62,4.98,21.46,8,33.91,9.32,3.64.4,22.8,1.7,26.34,1.36,15.84-1.5,3.39-24.46,4.15-41.86.18-4.09.36-8.22.74-12.23.1-1.18.23-2.35.38-3.5l.02-.18c1.32-10.01-7.77-10.25-18.67-7.88-2.1.45-4.25,1.01-6.43,1.61-11.7,3.24-23.57,7.79-26,5.67-8.52-7.44-12.56-19.83-15.96-29.92-.11-.33-.23-.66-.33-.98-.69-2.04-1.37-3.97-2.04-5.73-3.56-9.21-11.11-16.35-16.42-4.83-9.1,19.75,4.09,47.81,8.9,71.32Z"/>
      <path class="cls-10" d="m854.27,537.13c1.64.4,3.58-4.74,7.91-12.39.3-.53.61-1.07.93-1.61.33-.56.65-1.12.99-1.68,4.77-8.1,9.88-16.27,18.44-22.24,1.45-1.01,3.69-2.58,6.36-3.97-1.55-1.04-1.79-2.72-3.45-3.68-4.29,2.05-7.69,4.64-11.68,8.56-8.95,8.78-12.68,14.36-16.1,22.93h0c-.1.25-.38.92-.76,1.87-1.49,3.77-4.46,11.78-2.65,12.21Z"/>
      <path class="cls-10" d="m874.85,555.61c1.48.35,3.22-3.87,6.79-10.37.62-1.14,1.31-2.36,2.06-3.63,1.69-2.89,3.39-5.8,5.26-8.64,3.72-5.66,8.07-11.03,14.17-15.28,1.37-.95,3.4-2.38,5.85-3.72-.64-1.46-.93-3.52-1.75-4.48-4.87,2.13-8.52,4.83-12.88,9.1-4.5,4.42-7.67,8.02-10.16,11.61-.65.93-1.25,1.87-1.81,2.81-1.58,2.64-2.87,5.38-4.13,8.53-.48,1.2-5.66,13.53-3.4,14.07Z"/>
      <path class="cls-10" d="m837.31,519.82c1.74.42,3.84-5.49,8.84-14,4.52-7.73,9.17-15.65,16.65-21.81-1.55-.8-2.8-2.31-4.5-2.63-.5.46-.99.93-1.5,1.43-8.95,8.79-12.68,14.37-16.1,22.94-.48,1.2-5.66,13.53-3.4,14.07Z"/>
      <path class="cls-10" d="m804.94,516.11c1.66.4,3.63-4.91,8.1-12.74.23-.42.48-.83.73-1.27.64-1.09,1.29-2.2,1.94-3.29,2.01-3.36,4.11-6.71,6.52-9.87-.39.35-.78.72-1.15,1.1-2.31,2.32-4.2,4.94-5.7,7.79-.69-2.04-1.37-3.97-2.04-5.73-1.99,3.08-3.53,6.23-5,9.93-.48,1.2-5.66,13.53-3.4,14.07Z"/>
    </g>
  </g>
  <g>
    <g>
      <g>
        <path class="cls-12" d="m340.59,176.17c2.67,2.57,4.8,5.25,6.11,6.59,3.02,3.08,3.96,4.07,7.49,8.44,4.39,5.43,2.64,2.82,9.31,11.86,3.57,4.84,7.16,8.38,7.75,13,.14,1.1.7,2.71-1.23,3.94-2.03,1.3-4.23-.2-6.23-1.53-3.37-2.24-5.86-3.66-9.5-8.71-4.69-6.5-5.54-6.39-9.23-11.39-4.32-5.86-6.76-7.8-9.13-12.41-2.05-3.99-1.97-12.02-1.09-12.56.47-.28,4.11,1.21,5.74,2.77Z"/>
        <path class="cls-21" d="m368.33,214.7c.74-.54,1.16-1.3.7-5.07-.43-3.53-2.84-8.68-2.83-7.97.07,3.87-1.88,7.6-1.45,10.54.38,2.6,2.19,3.52,3.58,2.51Z"/>
        <path class="cls-21" d="m363.16,208.51c.74-.54,1.43-2.14.48-5.82-.91-3.51-5.07-12.59-4.35-10.24,1.14,3.7-.36,9.86.07,12.81.38,2.6,2.41,4.26,3.8,3.25Z"/>
        <path class="cls-21" d="m357.33,202.03c2.37-.74,1.96-4.91.24-8.54-1.55-3.28-6.89-12.43-6.56-11.81,2.28,4.25,1.85,11.43,2.28,14.38.38,2.6,2.39,6.48,4.04,5.97Z"/>
        <path class="cls-21" d="m339.68,178.81c1.77-1.87.47-4.54-1.2-5.5-3.09-1.79-14.72-20.9-14.37-20.29,1.9,3.37,9.39,21.12,10.21,25.11.38,1.82,4.17,1.94,5.35.69Z"/>
        <path class="cls-21" d="m344.47,187.44c1.7-.35,2.63-2.29,1.67-5.97-.91-3.51-10.1-18.56-9.78-17.93,2.67,5.35,5.65,14.9,5.21,16.45-1.02,3.55,1.21,7.8,2.9,7.45Z"/>
        <path class="cls-21" d="m350.17,195.84c3.1,1.31,2.86-2.86,1.91-6.54-.91-3.51-9.73-20.06-9.72-19.36.07,3.87,4.45,10.82,4.88,13.76.38,2.6.49,11.11,2.93,12.14Z"/>
        <path class="cls-21" d="m339.92,187.15c-.78.48-2.8-.04-5.89-2.25-2.95-2.11-11.79-19.24-11.14-18.97,3.59,1.45,8.36,12.84,11.53,13.59,2.56.6,8.66,5.67,5.5,7.64Z"/>
        <path class="cls-21" d="m346.87,192.55c1.41,3.73-3.83,3.32-6.92,1.11-2.95-2.11-11.35-9.65-10.69-9.4,3.45,1.29,7.16,4.81,10.46,4.82,3.11.01,6.04.53,7.16,3.47Z"/>
        <path class="cls-21" d="m351.62,202.79c-.76.5-1.9,1.04-4.99-1.17-2.95-2.11-12.57-8.32-11.92-8.06,3.59,1.45,9.04,3.36,12.01,3.56,8.7.59,6.34,4.73,4.9,5.67Z"/>
        <path class="cls-21" d="m359.21,208.24c-.7.58-2.16,1.2-5.73.42-3.84-.84-17.09-6.71-16.41-6.53,3.73,1.02,16.12,1.26,18.35,1.21,2.63-.06,5.12,3.79,3.79,4.89Z"/>
        <path class="cls-21" d="m363.68,214.03c-.7.58-3.03,1-5.2.05-3.35-1.47-8.47-5.7-7.79-5.52,3.73,1.02,8.7.24,11.45,1.38,2.43,1.01,2.87,2.99,1.54,4.09Z"/>
        <path class="cls-21" d="m368.56,219.18c-.66.63-1.67,1.37-5.12-.24-3.28-1.53-6.16-3.96-5.48-3.82,3.79.77,5.97-.88,8.78.08,2.49.84,3.06,2.79,1.81,3.98Z"/>
      </g>
      <path class="cls-9" d="m366.41,220.28c.26-.78,2.65.11,4-1.24,1.4-1.39.27-3.75,1.24-4.22.92-.44.65,2.25,1.22,4.24.61,2.14,1.23,2.28,2.71,4.09,2.01,2.46,4.21,5.58,11.29,10,3.8,2.38,4.32,1.32,3.69,2.61-.61,1.25-2.77-1.4-7.4-3.73-3.31-1.66-2.81-2.33-7.71-6.86-3.09-2.85-1.39-3.28-5.34-3.63-1.95-.17-3.9-.65-3.7-1.26Z"/>
    </g>
    <path class="cls-13" d="m742.89,313.62v.02c-.05.18-.08.36-.13.54-.7,3.15-1.48,6.33-2.34,9.56-.02.08-.05.18-.07.28-.52,1.87-1.04,3.75-1.61,5.63-.44,1.54-.9,3.05-1.38,4.59,0,.02-.02.05-.02.06-5.45,17.22-13.08,34.79-23.04,49.81-3.02,4.58-6.27,8.93-9.75,12.97-19.43,22.59-21.46-14.42-44.01-6.51-3.36,1.18-6.95,2.38-10.73,3.6-19.22-13.42-35.93-20.04-39.54-14.74-2.23,3.28,2.57,13.01,8.05,23.78-18.33,4.71-38.88,9.1-60.18,12.33-10.44,1.58-21.06,2.89-31.68,3.83-4.48-2.97-8.89-6.22-13.19-9.73-6.67-5.43-13.06-11.5-18.98-18.25-12.69-14.43-47.53-45.75-51.4-31.47-3.71,13.7-35.55,14.61-55.89,23.83-2.05.92-3.96,1.93-5.72,3.05-1.88-1.95-3.63-4-5.29-6.14-2.19-2.83-4.19-5.83-5.99-9.03-7.01-12.44-10.07-26.13-10.71-39.74-.83-17.21,2.21-34.26,6.1-48.43,0,0-.02,0,0-.02.23-.84.46-1.67.68-2.5,2.07-7.21,4.31-13.59,6.31-18.75,2.26-5.89,4.21-10.23,5.19-12.4,10.73-23.88,27.82-61.91,61.91-71.19,44.74-12.18,57.27,2.15,124.69,36.89,14.88,7.67,28.48,4.5,66.54-3.07,74.57-14.82,86.23-2.09,114.11,45.31,4.33,7.37,3.88,29.76-1.94,55.89Z"/>
    <path class="cls-24" d="m368.11,294.46c9.82,11.84,54.14,5.86,101.18-1.9,30.77-5.07,72.78,15.64,131.29,23.72,49.34,6.82,97.41,13.98,124.49,26.48,14.84,6.85,15.25-23.21,17.68-26.27,3.76-4.71-65.66-32.66-83.67-35.56-100.43-16.13-249.92-32.43-287.46-16.11-.9.39-10.97,20.64-3.51,29.63Z"/>
    <path class="cls-23" d="m829.01,388.32c-2.09,16.02-32.23,26.95-79.94,31.9-19.21,1.98-41.29,3.01-65.52,2.99-10.72-11.29-22.65-21.3-33.75-29.04-19.22-13.42-35.93-20.04-39.54-14.74-2.23,3.28,2.57,13.01,8.05,23.78,3.11,6.09,6.44,12.52,8.84,18.29-22.03-1.26-45.15-3.24-69.02-5.96-6.79-.78-13.62-1.62-20.52-2.51-8.22-1.06-16.33-2.2-24.35-3.39-6.67-5.43-13.06-11.5-18.98-18.25-12.69-14.43-47.53-45.75-51.4-31.47-3.71,13.7-35.55,14.61-55.89,23.83-3.73-1.01-7.4-2.05-11.01-3.09-18.18-5.24-34.66-10.74-49.07-16.37-42.19-16.48-66.76-34.06-64.75-49.55,2.4-18.51,42.24-30.22,103.32-33.77.19,0,.41-.02.6-.03,50.94-2.89,116.53-.12,187.49,9.09,71.73,9.3,136.49,23.6,185.17,39.61.08.03.15.05.23.07,57.43,18.92,92.42,40.23,90.04,58.61Z"/>
  </g>
  <path class="cls-4" d="m567.16,707.27c.03-49.05-97.13-97.18-108.16-13.61-5.63,42.65,7.17,76.86,2.4,121.48-2.27,21.28-4.06,29.99,75.18,35.62,41.59,2.95,46.01-3.99,35.89-43.91-6.55-25.85-5.33-77.69-5.31-99.57Z"/>
  <path class="cls-5" d="m366.91,402.12c-2.52,17-.26,73.87-3.79,116.36-4.61,55.41-.43,74.35,2.27,80.31,12.46,27.54,44.63,74.99,70.04,82.99q84.72,26.64,108.94,20.68c53.79-13.24,103.19-42.73,121.27-72.41,5.04-8.27,27.53-33.87,21.49-102.57-6.15-69.95,6.85-116.81-2.06-136.81-20.06-45-143.2-60.31-162-63-126-18-149.21,27.64-156.14,74.45Z"/>
  <path class="cls-22" d="m361.61,484.2c-11.35-4.25-29.2,5.47-36.22,17.58-9.25,15.94,1.6,33.68,7.51,43.34,5.36,8.76,20.95,29.91,31.67,27.1,18.27-4.79,21.35-78.91-2.96-88.02Z"/>
  <path class="cls-22" d="m690.28,501.48c11.36-4.24,29.19,5.51,36.2,17.63,9.23,15.95-1.65,33.67-7.57,43.33-5.37,8.76-20.99,29.89-31.7,27.06-18.26-4.81-21.24-78.94,3.08-88.02Z"/>
  <path class="cls-18" d="m358.55,850.09c-3.19,20.27-13.55,30.92-13.55,30.92-25.99-46.81-47.3-46.62-72.97-55.3,7.24-42.75,18.73-75.89,35.02-84.04,15.28-7.64,17.59-8.79,36.18-9.43,20.44,41.22-18.12,77.3,11.38,98.71,15.18,11.01,6.45,3.19,3.94,19.14Z"/>
  <path class="cls-18" d="m749.08,837.42c-16.08,14.44-55.37-5.82-60.04-4.92-6.89,1.33-7.75,6.94-26.16,17.44-14.02,8-6.25-18.95-5.5-60.11.04-2.09.08-3.98.13-5.69-.26,1.98-.52,4.06-.75,6.26-1.49,14.02-4.34,30.22-5.25,44.58v.06c-.35,13,1.41,23.92,8.09,29.38,8.04,6.57,8.25,3.55,12.93,11.68,2.13,3.69,3.11,9.31,3.34,15.84,1.58,8.46,1.88,19.57,1.7,30.35-.91-3-1.86-5.87-2.87-8.62-26.88-73.27-88.94-55.92-157.02-35.4-6.87,2.06-13.8,4.17-20.77,6.21-50.43,14.81-102.52,26.6-144.86,1.19-1.97-1.18-3.34-2.08-4.33-1.77,0-.08,0-.15,0-.23.28-4.61,2.84-7.64,5.98-10.83,1.77-3.33,4.91-5.93,8.02-9.23,3.51-5.51,5.87-13.29,4.3-26.23-3.04-25.05-16.52-86.61-9.27-105.58,1.13-.09,2.3-.25,3.49-.46,8.99-1.53,19.59-5.8,31.19-8.21,1.26-.26,2.53-.53,3.81-.79,1.34-.27,2.69-.53,4.05-.79,1.4-.28,2.81-.54,4.23-.81.93-.17,1.87-.34,2.8-.51,0,0,.02,0,.06-.01.02-.01.04-.01.07-.02.01-.01.03-.01.05-.01.03-.01.06-.01.1-.02,2.58-.46,5.17-.91,7.75-1.34,15.34-2.52,30.58-4.28,43.2-4.36h0c.36-.01.71-.01,1.06-.01h.04l14.85,11.14,34.63,25.99h.02l58.92-29.87h0s.11-.06.11-.06c10.26.62,24.46,2.25,40.25,6.24,3.81.96,7.72,2.06,11.68,3.32h0s.06.02.09.03c.05.02.1.04.14.06.03.01.05.02.07.03.02,0,.04.01.06.02.03,0,.04.01.04.01,1.38.43,2.74.89,4.14,1.38l.07.02c.31.11.62.21.92.32,9.51,3.15,14.51,2.86,24.38,8.58h9c.38.07.77.13,1.16.19,1.67.26,3.4.42,5.19.53,21.26,1.22,50.19-6.34,74.65,26.28,5.23,6.98,8.42,33.64,10.03,68.75Z"/>
  <ellipse class="cls-13" cx="508.07" cy="883.59" rx="11.2" ry="10.34"/>
  <path class="cls-2" d="m674.7,913.67c-1.75,14.67-4.85,28.77-6.08,34.02-5.52,23.77-11.14,82.22-31.35,111.74-45.75,66.87-244.71,49.42-276.85-17.87-5.31-11.14-5.74-104.82-8.22-150.74-.09-1.68-.14-3.39-.15-5.15-.01-2.5.06-5.09.22-7.77.12-1.92.64-3.56,1.44-5.06,1.77-3.33,4.91-5.93,8.02-9.23,5.42-5.75,10.74-13.65,8.58-31.35-2.85-23.44-14.96-79.32-10.06-100.92,8.99-1.53,19.59-5.8,31.19-8.21,1.26-.26,2.53-.53,3.81-.79,1.34-.27,2.69-.53,4.05-.79,1.45,20.16,4.99,48.81,12.3,73.75,5.56,18.89,6.75,33.99,12.31,41.45,20.17,27.01,147.25,27.61,163.08,9.65,0,0,20.57-14.52,24.91-29.21.46-1.55.73-3.1.79-4.63.89-24.91,2.72-43.19,4.94-56.42,1.77-10.49,3.78-17.8,5.78-22.73l.02-.03c.08-.22.16-.43.25-.63l.07.02c.31.11.62.21.92.32,9.51,3.15,14.51,2.86,24.38,8.58h9c.38.07.77.13,1.16.19,1.76,4.72,2.15,9.1,1.82,14.02-.16,2.57-.52,5.3-.98,8.29h0c-.68,4.45-1.58,9.48-2.38,15.52-.27,1.98-.53,4.06-.76,6.27-1.65,15.5-4.98,33.7-5.4,49.02v.06c-.35,13,1.41,23.92,8.09,29.38,8.04,6.57,8.25,3.55,12.93,11.68,2.13,3.69,3.11,9.31,3.34,15.84.24,6.66-.29,14.27-1.17,21.73Z"/>
  <polygon class="cls-1" points="461.81 827.95 452.87 841.3 403.45 720.54 414.19 718.44 461.81 827.95"/>
  <polygon class="cls-1" points="623.75 732.77 623.43 733.38 623.41 733.41 575.88 822.14 568.99 835 567.27 832.75 560.04 823.32 571.18 800.9 607.45 727.9 607.65 727.48 607.78 727.23 623.68 732.75 623.75 732.77"/>
  <path class="cls-24" d="m406.33,720.23c12.24,29.64,37.46,87.1,49.7,116.74,15.85-19.4,36.28-65.98,52.13-85.39l-49.48-37.12c-19.17-2.68-52.35,5.77-52.35,5.77Z"/>
  <path class="cls-24" d="m619.54,731.37c-12.28,29.62-40.25,72.38-52.53,102-15.83-19.42-43.03-62.37-58.86-81.79l59.04-29.93c19.17-2.66,52.34,9.72,52.34,9.72Z"/>
  <path class="cls-19" d="m566.2,560.31c10.02,6.84,19.56,8.09,44.64,4.24,15.38-2.36,25.45-7.94,33.38-11.36,13.23-5.7,17.29-29.3-9.34-51.62-11.1-9.31-29.9-15.98-46.49-9.03-17.07,7.15-22.62,24.9-27.02,38.98-1.43,4.56-6.36,21.15,4.83,28.79Z"/>
  <g>
    <g>
      <circle class="cls-8" cx="598.7" cy="531.02" r="23.35"/>
      <circle class="cls-3" cx="600.44" cy="532.36" r="12.19"/>
    </g>
    <circle class="cls-19" cx="605.1" cy="516.07" r="6.09"/>
  </g>
  <path class="cls-6" d="m547.72,485.69c-2.81-3.63,13.78-21.94,28.29-28.6,11.18-5.14,8.84,1.81,39.06,3.54,25.14,1.43,28.95-1.31,37.66,3.45,16.91,9.24,24.69,31.71,20.52,35.39-2.94,2.59-10.03-5.66-28.52-13.71-8.24-3.59-33.53-14.61-61.62-10.31-21.48,3.28-32.71,13.71-35.39,10.25Z"/>
  <path class="cls-6" d="m375.1,462.77c-2.81-3.63,13.78-21.94,28.29-28.6,11.18-5.14,8.84,1.81,39.06,3.54,25.14,1.43,28.95-1.31,37.66,3.45,16.91,9.24,24.69,31.71,20.52,35.39-2.94,2.59-10.03-5.66-28.52-13.71-8.24-3.59-33.53-14.61-61.62-10.31-21.48,3.28-32.71,13.71-35.39,10.25Z"/>
  <path class="cls-19" d="m410.47,539.67c10.02,6.84,18,9,36.36,11.89,19.42,3.05,27.06-.77,34.99-4.19,13.23-5.7,15.68-36.47-10.95-58.79-11.1-9.31-29.9-15.98-46.49-9.03-17.07,7.15-22.62,24.9-27.02,38.98-1.43,4.56,1.92,13.51,13.11,21.14Z"/>
  <g>
    <circle class="cls-8" cx="456.4" cy="522.02" r="23.35"/>
    <circle class="cls-3" cx="457.8" cy="524.25" r="12.19"/>
    <circle class="cls-19" cx="447.86" cy="509.04" r="6.09"/>
  </g>
  <path class="cls-20" d="m648.34,407.76c-7.63,5.36-129.39-14.99-153.68-11.47-27.33,3.96-56.56,13.65-69.93,8.25-6.46-2.61,34.97-4.13,44.32-10.16,27.31-17.63,59.99,0,69.12-3.09,7.61-2.57,38.7,5.34,51.23,5.34s65.07,6.84,58.95,11.14Z"/>
  <path class="cls-20" d="m577.86,600.4c.3,3.55,12.58.73,15.68,8.73,10.92,28.26.22,32.23,4.77,34.82,2.57,1.47,5.86-15.9,5.75-19.29-.39-12.3-6.16-15.54-7.54-18.71-1.15-2.64-3.17-2.98-6.35-5.95-3.17-2.98-12.55-2.45-12.3.39Z"/>
  <path class="cls-20" d="m457.2,589.36c-.02,3.57-12.48,1.74-14.92,9.97-8.61,29.05,2.38,32.14-1.94,35.09-2.45,1.67-7.12-15.37-7.29-18.76-.6-12.3,4.89-15.99,6-19.26.93-2.73,2.92-3.22,5.85-6.45s12.31-3.46,12.3-.6Z"/>
  <path class="cls-6" d="m706.85,485.75c-10.02,4.77-.72,34.38-9,27-17.62-15.66-12.19-15.23-20.8-37.01-5.97-15.1,5.43-62.55-4.72-80.63-7.63-13.58-9.61-18.59-20.71-26.33-19.22-13.42-30.58-13.68-27.31-7.86,1.94,3.46,7.31,21.66,18,27,18,9,18,11.76,18,18,0,9-54,9-63,0-18-18-18,0-57.76-11.93-5.15-1.55-27.66-18.16-32.63-20.62-7.41-3.67-26.72,2.96-34.43-1.63-5.23-3.11-27-23.67-29.69-22.09-7.76,4.55-25.46,19.39-45.79,28.61-2.05.92-6.69-15.53-8.44-14.41-5.26,3.29,4.76,17.16,3.29,22.89-3.42,13.33-20.04,38.88-18,54,2.04,15.13,1.69,49.87-3.8,55.17-8.53,8.24-18-18-18-27s-19.19-17.62-19.82-18.19c-12.17-10.74,6.4-15.56,6.43-36.08.03-16.29,16.99-20.22,27.67-37.53,7.91-12.83,13.31-23.45,18-27,4.51-3.41,17.44-23.64,23.98-25.19,86.75-20.64,163.32-27.92,251.97,27.95,7.69,4.83,26.24,25.93,30.05,33.24,10.6,20.32,23.03,39.71,14.98,55.81-9,18,17.42,36.27,1.53,43.83Z"/>
  <ellipse class="cls-13" cx="508.13" cy="793.65" rx="11.2" ry="10.34"/>
  <g>
    <circle class="cls-16" cx="503.05" cy="788.67" r="2"/>
    <circle class="cls-16" cx="503.05" cy="797.67" r="2"/>
    <circle class="cls-16" cx="512.05" cy="797.67" r="2"/>
    <circle class="cls-16" cx="512.05" cy="788.67" r="2"/>
  </g>
  <ellipse class="cls-13" cx="507.25" cy="830.32" rx="11.2" ry="10.34"/>
  <circle class="cls-16" cx="502.17" cy="825.34" r="2"/>
  <circle class="cls-16" cx="502.17" cy="834.34" r="2"/>
  <circle class="cls-16" cx="511.17" cy="834.34" r="2"/>
  <circle class="cls-16" cx="511.17" cy="825.34" r="2"/>
  <path class="cls-25" d="m676.05,1146.67c-46.42,67.84-309.39,59.26-342-9-5.38-11.3,16.12-194.31,13.61-240.89-.23-4.06-.21-8.35.06-12.88,0-.08,0-.15,0-.23.28-4.61,2.84-7.64,5.98-10.83,2.59-2.64,5.58-5.38,8.02-9.23,3.51-5.51,5.87-13.29,4.3-26.23-3.04-25.05-16.52-86.61-9.27-105.58,1.13-.09,2.3-.25,3.49-.46,8.99-1.53,19.59-5.8,31.19-8.21,1.26-.26,2.53-.53,3.81-.79,1.33,20.53,4.9,51.09,12.66,77.54,5.64,19.17,6.84,34.48,12.49,42.05,20.46,27.4,149.37,28.01,165.43,9.79,0,0,25.49-17.99,26.06-34.33,0-.07,0-.13,0-.2,1.01-27.79,3.16-47.42,5.73-61.05,2.19-11.6,4.69-18.84,7.04-23.05,9.51,3.15,14.51,2.86,24.38,8.58h6.08c1,.55,2.01,1.12,3.01,1.7h0c1.98,4.35,2.79,8.31,2.89,12.51.06,2-.05,4.05-.27,6.23h0c-.6,5.99-2.03,12.87-3.25,22.03-.26,1.98-.52,4.06-.75,6.26-1.49,14.02-4.34,30.22-5.25,44.58v.06c-.97,15.41.32,28.71,7.97,34.96,8.16,6.66,8.38,3.6,13.12,11.84,1.45,2.52,2.51,6,3.27,10.1,1.58,8.46,1.88,19.57,1.7,30.35-.26,15.34-1.52,30.01-1.52,35.38,0,18,20.49,159.06,0,189Z"/>
  <path class="cls-11" d="m395.16,521.28c1.96-8.68,19.96-17.68,37.96-26.68,11.38-5.69,23.89-10.3,36,0,10.96,9.32,18,22.19,18,18,0-9-9-18-9-18-6.36-6.36-15.58-17.9-36-18-5.06-.02-22.82-.47-37.96,17.68-7.93,9.49-10.14,32.03-9,27Z"/>
  <path class="cls-11" d="m648.74,522.02c-1.96-8.68-9-9-27-18-11.38-5.69-11.1-9-27-9-18,0-27,18-27,18,0-9,9-18,9-18,6.36-6.36,6.58-8.9,27-9,5.06-.02,23.72-1.18,37.96,17.68,7.04,9.32,8.17,23.35,7.04,18.32Z"/>
  <path class="cls-15" d="m473.67,607.64c.47,4.73,1.24,59.93,11.78,71.16,3.19,3.4,24.12,9.48,41.52,8.45,15.51-.92,25.62-53.31,31.42-69.97"/>
  <path class="cls-19" d="m485.12,608.93c-2.15,3.27-1.97,10.48-.17,14.07,1.99,4,8.05-.09,21.69,1.37,9.97,1.06,14.95,1.6,20.81,2.88,6.84,1.5,9.76,5.33,12.56,3.73,4.09-2.33,5.81-11.76,3.59-15.92-1.48-2.77-4.25-3.19-15.42-5.39-17.17-3.38-20.37-4.32-27.62-4.32-8.05,0-13.11.06-15.43,3.58Z"/>
  <path class="cls-7" d="m451.44,624.48c-2.81-3.62,13.77-21.95,28.27-28.62,11.18-5.14,8.84,1.81,39.07,3.51,25.14,1.42,28.95-1.33,37.66,3.42,16.91,9.23,24.71,31.69,20.54,35.38-2.93,2.6-10.03-5.65-28.53-13.7-8.24-3.58-33.54-14.58-61.63-10.27-21.48,3.3-32.7,13.73-35.38,10.27Z"/>
  <text/>
</svg>