<?xml version="1.0" encoding="UTF-8"?>
<svg id="Farmer_frank" data-name="Farmer frank" xmlns="http://www.w3.org/2000/svg" viewBox="0 0 699.8 687.83">
  <defs>
    <style>
      .cls-1, .cls-2, .cls-3, .cls-4, .cls-5, .cls-6, .cls-7, .cls-8, .cls-9, .cls-10, .cls-11 {
        stroke-width: 0px;
      }

      .cls-2 {
        fill: #b2662d;
      }

      .cls-3 {
        fill: #8c0623;
      }

      .cls-4 {
        fill: #b5bfbf;
      }

      .cls-5 {
        fill: #00a526;
      }

      .cls-6 {
        fill: #fff;
      }

      .cls-7 {
        fill: #ffc299;
      }

      .cls-8 {
        fill: #fcdbb1;
      }

      .cls-9 {
        fill: #00bf2c;
      }

      .cls-10 {
        fill: #683719;
      }

      .cls-11 {
        fill: #000b72;
      }
    </style>
  </defs>
  <path class="cls-7" d="m378.81,392.13c0-17.8-61.48-47.5-66.62-8.34-3.45,26.27,4.44,47.34,1.53,74.82-1.39,13.11-2.49,18.47,46.32,21.9,25.61,1.8,28.34-2.48,22.09-27.06-4.05-15.92-3.31-47.85-3.31-61.32Z"/>
  <g>
    <path class="cls-2" d="m471.41,189.92h0c-.03.12-.05.23-.08.34-.43,1.94-.91,3.9-1.44,5.89-.01.05-.03.11-.04.17-.32,1.15-.64,2.31-.99,3.47-.27.95-.55,1.88-.85,2.83,0,.01-.01.03-.01.04-3.35,10.61-8.04,21.43-14.17,30.69-1.86,2.82-3.86,5.5-6,7.99-11.96,13.92-13.22-8.87-27.11-3.99-2.07.73-4.28,1.47-6.61,2.22-11.84-8.26-22.14-12.33-24.36-9.06-1.37,2.02,1.59,8.01,4.97,14.64-11.29,2.91-23.94,5.62-37.06,7.62-6.43.98-12.97,1.79-19.51,2.37-2.76-1.83-5.48-3.83-8.13-5.99-4.11-3.34-8.05-7.08-11.7-11.23-7.82-8.88-29.29-28.16-31.67-19.36-2.28,8.44-21.89,9.01-34.41,14.7-1.26.57-2.44,1.19-3.52,1.88-1.16-1.2-2.24-2.46-3.26-3.78-1.35-1.74-2.58-3.59-3.69-5.56-4.32-7.66-6.21-16.09-6.61-24.47-.52-10.6,1.35-21.1,3.74-29.83,0,0-.01,0,0-.01.14-.52.28-1.03.42-1.54,1.27-4.44,2.65-8.37,3.88-11.55,1.39-3.63,2.59-6.3,3.19-7.64,6.6-14.71,17.11-38.14,38.1-43.87,27.55-7.52,35.27,1.3,76.81,22.67,9.17,4.72,17.54,2.76,40.98-1.92,45.92-9.16,53.11-1.32,70.3,27.86,2.67,4.54,2.4,18.33-1.17,34.42Z"/>
    <path class="cls-9" d="m240.58,178.27c6.05,7.29,33.35,3.58,62.32-1.21,18.95-3.14,44.83,9.6,80.87,14.56,30.39,4.18,60,8.57,76.68,16.26,9.14,4.21,9.38-14.3,10.88-16.18,2.31-2.9-40.45-20.09-51.55-21.86-61.86-9.89-153.94-19.87-177.05-9.8-.55.24-6.75,12.71-2.15,18.25Z"/>
    <path class="cls-10" d="m524.48,235.89c-1.28,9.87-19.84,16.61-49.22,19.68-11.83,1.23-25.43,1.87-40.35,1.87-6.61-6.95-13.96-13.11-20.8-17.87-11.84-8.26-22.14-12.33-24.36-9.06-1.37,2.02,1.59,8.01,4.97,14.64,1.92,3.75,3.97,7.71,5.45,11.26-13.57-.77-27.81-1.98-42.51-3.64-4.18-.48-8.39-.99-12.64-1.54-5.06-.65-10.06-1.35-15-2.08-4.11-3.34-8.05-7.08-11.7-11.23-7.82-8.88-29.29-28.16-31.67-19.36-2.28,8.44-21.89,9.01-34.41,14.7-2.3-.62-4.56-1.26-6.78-1.9-11.2-3.22-21.35-6.6-30.23-10.06-25.99-10.13-41.13-20.95-39.9-30.49,1.47-11.4,26-18.63,63.62-20.84.12,0,.25-.01.37-.02,31.37-1.8,71.77-.12,115.48,5.52,44.18,5.7,84.07,14.48,114.06,24.32.05.02.09.03.14.04,35.38,11.63,56.94,24.74,55.48,36.06Z"/>
  </g>
  <path class="cls-8" d="m241.74,227.97c-3.78,9.89-.41,40.59-2.57,66.76-2.82,34.13,12.4,48.06,14.06,51.73,7.69,16.96,28.47,33.78,44.13,38.69q52.19,16.37,67.1,12.69c33.13-8.18,62.58-13.96,73.7-32.25,3.1-5.1,22.54-20.95,18.79-63.26-3.82-43.08-1.09-68.79-11.49-77.38-23.93-19.76-81.28-22.37-92.96-23.01-48.06-2.64-95.25-14.52-110.76,26.03Z"/>
  <path class="cls-4" d="m472.21,310.97c-6.17,2.94-4.43,15.97-9.53,11.43-10.86-9.64-3.76-12.23-9.07-25.64-3.68-9.3-1.21-29.41-7.47-40.54-4.7-8.36-17.29-19.09-24.13-23.85-11.84-8.26-22.89-14.14-20.87-10.56,1.2,2.13-1.1,1.42,3.27,7.35,2.5,3.39,11.66,9.92,13.88,13.06,2.79,3.95,13.24,13.87,12.25,15.92-4.64,9.7-41.98,3.11-77.53-10.2-3.1-1.16-17.04-11.17-20.1-12.69-4.57-2.26-15.5-10.56-20.25-13.38-3.22-1.91-16.64-14.56-18.3-13.59-4.78,2.81-15.67,11.95-28.19,17.64-1.26.57-5.08,2.83-6.16,3.52-3.24,2.03-9.85,8.21-10.75,11.74-2.1,8.21-.24,21.22,1.02,30.53,1.26,9.32-3.12,20.07-6.5,23.34-5.25,5.08-10.54-6.2-17.19-11.08-.44-.32-.85-.65-1.24-1-7.5-6.61-7.65-18.32-7.64-30.96.01-10.03-.55-24.94,6.02-35.61,4.87-7.91,12.22-13.21,15.11-15.39s15-4.73,19.03-5.69c53.42-12.75,136.05-10.88,190.67,23.49,4.74,2.97,14,13.13,16.36,17.63,6.54,12.51,6.69,10.49,9.49,16.23,11.26,23.07,7.63,53.64-2.15,58.3Z"/>
  <path class="cls-8" d="m239.5,282.91c-6.99-2.62-17.98,3.38-22.3,10.84-5.69,9.82,1,20.74,4.65,26.69,3.31,5.4,12.91,18.42,19.51,16.68,11.25-2.96,13.11-48.61-1.86-54.21Z"/>
  <path class="cls-8" d="m455.82,299.68c6.99-2.62,17.98,3.38,22.3,10.84,5.69,9.82-1,20.74-4.65,26.69-3.31,5.4-12.91,18.42-19.51,16.68-11.25-2.96-13.11-48.61,1.86-54.21Z"/>
  <g>
    <path class="cls-6" d="m283.46,315.24c6.17,4.21,12.01.52,27.49,2.59,12,1.61,16.67-.48,21.55-2.59,8.14-3.52,9.64-22.47-6.77-36.2-6.84-5.73-18.42-9.83-28.64-5.54-10.51,4.41-13.92,15.34-16.63,24.02-.88,2.81-3.91,13.03,2.99,17.73Z"/>
    <circle class="cls-1" cx="318.98" cy="301.63" r="14.38"/>
    <circle class="cls-6" cx="319.69" cy="306.31" r="7.51"/>
    <circle class="cls-6" cx="313.72" cy="293.63" r="3.75"/>
  </g>
  <g>
    <path class="cls-6" d="m375.6,322.36c6.17,4.21,12.01.52,27.49,2.59,12,1.61,16.67-.48,21.55-2.59,8.14-3.52,9.64-22.47-6.77-36.2-6.84-5.73-18.42-9.83-28.64-5.54-10.51,4.41-13.92,15.34-16.63,24.02-.88,2.81-3.91,13.03,2.99,17.73Z"/>
    <circle class="cls-1" cx="391.27" cy="308.02" r="14.38"/>
    <circle class="cls-6" cx="387.71" cy="310.97" r="7.51"/>
    <circle class="cls-6" cx="395.21" cy="298.81" r="3.75"/>
  </g>
  <path class="cls-3" d="m323.81,345.46c.29,3,1.75,25.57,8.24,32.68,1.97,2.15,14.86,6,25.58,5.34,9.55-.59,14.8-21.39,18.37-31.95"/>
  <path class="cls-6" d="m330.86,346.24c-1.33,2.02-1.21,6.45-.1,8.67,1.23,2.46,4.96-.06,13.36.83,6.14.65,9.21.98,12.82,1.77,4.21.92,6.01,3.28,7.74,2.29,2.52-1.44,3.57-7.25,2.2-9.81-.91-1.71-2.62-1.96-9.5-3.31-10.58-2.08-12.55-2.65-17.01-2.65-4.96,0-8.08.04-9.5,2.21Z"/>
  <path class="cls-4" d="m310.12,355.81c-1.73-2.23,8.48-13.52,17.41-17.63,6.88-3.17,5.45,1.11,24.06,2.16,15.49.87,17.83-.82,23.2,2.11,10.42,5.69,15.22,19.52,12.65,21.79-1.81,1.6-6.18-3.48-17.57-8.43-5.07-2.21-20.66-8.98-37.96-6.33-13.23,2.03-20.14,8.45-21.79,6.33Z"/>
  <path class="cls-9" d="m477.69,500.71c-4.23,8-11.41,11.82-22.72,13.28-27.27,3.51-78.52-6.7-170.11-5.23-8.52.14-26.6,2.13-43.41,2.24-15.25.11-29.45-1.33-34.52-7.12-17.3-19.77,2.01-71.27,30.75-92.97.8-.6,4.66-1.92,10.4-3.52,5.94-1.66,13.89-3.62,22.51-5.42,2.99-.63,6.07-1.23,9.17-1.79,0,0,.01,0,.04-.01.03-.01.07-.02.13-.03,11.27-2.04,22.85-3.54,32.04-3.54h.03l30.49,22.85,36.35-18.46c7.86.47,19.47,1.9,32.05,5.89.13.05.19.07.19.07.86.27,1.72.56,2.59.86,6.24,2.15,12.66,4.95,18.94,8.58h0c13.65,7.91,26.6,19.77,35.43,37.55,8.43,16.96,16.65,33.52,9.65,46.77Z"/>
  <path class="cls-5" d="m279.75,400.18c7.55,18.25,23.11,53.63,30.66,71.88,9.75-11.96,22.32-40.65,32.07-52.61l-30.49-22.84c-11.81-1.64-32.24,3.58-32.24,3.58Z"/>
  <path class="cls-5" d="m411.08,406.96c-7.55,18.25-24.76,44.59-32.31,62.84-9.75-11.96-26.53-38.39-36.28-50.35l36.35-18.46c11.81-1.64,32.24,5.97,32.24,5.97Z"/>
  <ellipse class="cls-2" cx="342.48" cy="445.36" rx="6.9" ry="6.37"/>
  <ellipse class="cls-2" cx="342.48" cy="474.42" rx="6.9" ry="6.37"/>
  <ellipse class="cls-2" cx="342.48" cy="500.75" rx="6.9" ry="6.37"/>
  <path class="cls-11" d="m454.97,513.99c-3.44,14.85-21.08,38.63-33.69,57.08-28.56,41.8-134.71,27.27-154.82-14.76-3.32-6.96-23.44-16.62-25.01-45.31-.14-2.54-.13-5.23.04-8.07.52-8.55,13.73-8.27,11.25-28.52-2.01-16.47-11.36-58.57-4.66-67.02,5.94-1.66,13.89-3.62,22.51-5.42.75,12.62,2.94,32.35,7.93,49.33,3.48,11.8,4.23,21.23,7.71,25.89,12.61,16.87,92.01,17.19,101.89,5.96,0,0,15.69-11.09,16.04-21.15,1.32-37.61,6.08-51.04,9.51-54.19,6.24,2.15,12.66,4.95,18.94,8.58h0c3.75,8.22.72,14.26-.83,28.97-1.89,17.92-8.05,42.47,1.71,49.02,6.7,4.49,7.71,3.69,16.03,6.37,5.72,1.84,6.98,6.66,5.45,13.24Z"/>
  <path class="cls-4" d="m260.43,262.68c-1.73-2.23,8.48-13.52,17.41-17.63,6.88-3.17,5.45,1.11,24.06,2.16,15.49.87,17.83-.82,23.2,2.11,10.42,5.69,15.22,19.52,12.65,21.79-1.81,1.6-6.18-3.48-17.57-8.43-5.07-2.21-20.66-8.98-37.96-6.33-13.23,2.03-20.14,8.45-21.79,6.33Z"/>
  <path class="cls-4" d="m366.75,276.73c-1.73-2.23,8.48-13.52,17.41-17.63,6.88-3.17,5.45,1.11,24.06,2.16,15.49.87,17.83-.82,23.2,2.11,10.42,5.69,15.22,19.52,12.65,21.79-1.81,1.6-6.18-3.48-17.57-8.43-5.07-2.21-20.66-8.98-37.96-6.33-13.23,2.03-20.14,8.45-21.79,6.33Z"/>
</svg>