<?xml version="1.0" encoding="UTF-8"?>
<svg xmlns="http://www.w3.org/2000/svg" viewBox="0 0 1044 1359">
  <defs>
    <style>
      .cls-1, .cls-2 {
        opacity: .1;
      }

      .cls-1, .cls-2, .cls-3, .cls-4, .cls-5, .cls-6, .cls-7, .cls-8, .cls-9, .cls-10, .cls-11, .cls-12, .cls-13, .cls-14, .cls-15, .cls-16, .cls-17, .cls-18, .cls-19, .cls-20, .cls-21, .cls-22, .cls-23, .cls-24 {
        stroke-width: 0px;
      }

      .cls-2, .cls-24 {
        fill: #000b72;
      }

      .cls-4 {
        fill: #f7e15e;
      }

      .cls-5 {
        fill: #898989;
      }

      .cls-6 {
        fill: #184d9b;
      }

      .cls-7 {
        fill: #e0ae80;
      }

      .cls-8 {
        fill: #d3a540;
      }

      .cls-9 {
        fill: #b2662d;
      }

      .cls-10 {
        fill: #d8852b;
      }

      .cls-11 {
        fill: #8c0623;
      }

      .cls-12 {
        fill: #b5bfbf;
      }

      .cls-13 {
        fill: #b2fffb;
      }

      .cls-14 {
        fill: #822f0b;
      }

      .cls-15 {
        fill: #823c15;
      }

      .cls-16 {
        fill: #fff;
      }

      .cls-17 {
        fill: #e3fffd;
      }

      .cls-18 {
        fill: #ffc299;
      }

      .cls-19 {
        fill: #ffcd9f;
      }

      .cls-20 {
        fill: #ffd3a4;
      }

      .cls-21 {
        fill: #eabf9b;
      }

      .cls-22 {
        fill: #683719;
      }

      .cls-23 {
        fill: #68230b;
      }
    </style>
  </defs>
  <g id="Forside_Frank" data-name="Forside Frank">
    <g>
      <g>
        <g>
          <path class="cls-10" d="m341.85,192.21c2.67,2.57,4.8,5.25,6.11,6.59,3.02,3.08,3.96,4.07,7.49,8.44,4.39,5.43,2.64,2.82,9.31,11.86,3.57,4.84,7.16,8.38,7.75,13,.14,1.1.7,2.71-1.23,3.94-2.03,1.3-4.23-.2-6.23-1.53-3.37-2.24-5.86-3.66-9.5-8.71-4.69-6.5-5.54-6.39-9.23-11.39-4.32-5.86-6.76-7.8-9.13-12.41-2.05-3.99-1.97-12.02-1.09-12.56.47-.28,4.11,1.21,5.74,2.77Z"/>
          <path class="cls-4" d="m369.59,230.74c.74-.54,1.16-1.3.7-5.07-.43-3.53-2.84-8.68-2.83-7.97.07,3.87-1.88,7.6-1.45,10.54.38,2.6,2.19,3.52,3.58,2.51Z"/>
          <path class="cls-4" d="m364.42,224.55c.74-.54,1.43-2.14.48-5.82-.91-3.51-5.07-12.59-4.35-10.24,1.14,3.7-.36,9.86.07,12.81.38,2.6,2.41,4.26,3.8,3.25Z"/>
          <path class="cls-4" d="m358.59,218.07c2.37-.74,1.96-4.91.24-8.54-1.55-3.28-6.89-12.43-6.56-11.81,2.28,4.25,1.85,11.43,2.28,14.38.38,2.6,2.39,6.48,4.04,5.97Z"/>
          <path class="cls-4" d="m340.94,194.85c1.77-1.87.47-4.54-1.2-5.5-3.09-1.79-14.72-20.9-14.37-20.29,1.9,3.37,9.39,21.12,10.21,25.11.38,1.82,4.17,1.94,5.35.69Z"/>
          <path class="cls-4" d="m345.73,203.49c1.7-.35,2.63-2.29,1.67-5.97-.91-3.51-10.1-18.56-9.78-17.93,2.67,5.35,5.65,14.9,5.21,16.45-1.02,3.55,1.21,7.8,2.9,7.45Z"/>
          <path class="cls-4" d="m351.43,211.89c3.1,1.31,2.86-2.86,1.91-6.54-.91-3.51-9.73-20.06-9.72-19.36.07,3.87,4.45,10.82,4.88,13.76.38,2.6.49,11.11,2.93,12.14Z"/>
          <path class="cls-4" d="m341.18,203.19c-.78.48-2.8-.04-5.89-2.25-2.95-2.11-11.79-19.24-11.14-18.97,3.59,1.45,8.36,12.84,11.53,13.59,2.56.6,8.66,5.67,5.5,7.64Z"/>
          <path class="cls-4" d="m348.13,208.59c1.41,3.73-3.83,3.32-6.92,1.11-2.95-2.11-11.35-9.65-10.69-9.4,3.45,1.29,7.16,4.81,10.46,4.82,3.11.01,6.04.53,7.16,3.47Z"/>
          <path class="cls-4" d="m352.88,218.83c-.76.5-1.9,1.04-4.99-1.17-2.95-2.11-12.57-8.32-11.92-8.06,3.59,1.45,9.04,3.36,12.01,3.56,8.7.59,6.34,4.73,4.9,5.67Z"/>
          <path class="cls-4" d="m360.47,224.28c-.7.58-2.16,1.2-5.73.42-3.84-.84-17.09-6.71-16.41-6.53,3.73,1.02,16.12,1.26,18.35,1.21,2.63-.06,5.12,3.79,3.79,4.89Z"/>
          <path class="cls-4" d="m364.94,230.07c-.7.58-3.03,1-5.2.05-3.35-1.47-8.47-5.7-7.79-5.52,3.73,1.02,8.7.24,11.45,1.38,2.43,1.01,2.87,2.99,1.54,4.09Z"/>
          <path class="cls-4" d="m369.82,235.22c-.66.63-1.67,1.37-5.12-.24-3.28-1.53-6.16-3.96-5.48-3.82,3.79.77,5.97-.88,8.78.08,2.49.84,3.06,2.79,1.81,3.98Z"/>
        </g>
        <path class="cls-8" d="m367.67,236.32c.26-.78,2.65.11,4-1.24,1.4-1.39.27-3.75,1.24-4.22.92-.44.65,2.25,1.22,4.24.61,2.14,1.23,2.28,2.71,4.09,2.01,2.46,4.21,5.58,11.29,10,3.8,2.38,4.32,1.32,3.69,2.61-.61,1.25-2.77-1.4-7.4-3.73-3.31-1.66-2.81-2.33-7.71-6.86-3.09-2.85-1.39-3.28-5.34-3.63-1.95-.17-3.9-.65-3.7-1.26Z"/>
      </g>
      <path class="cls-9" d="m744.15,329.66v.02c-.05.18-.08.36-.13.54-.7,3.15-1.48,6.33-2.34,9.56-.02.08-.05.18-.07.28-.52,1.87-1.04,3.75-1.61,5.63-.44,1.54-.9,3.05-1.38,4.59,0,.02-.02.05-.02.06-5.45,17.22-13.08,34.79-23.04,49.81-3.02,4.58-6.27,8.93-9.75,12.97-19.43,22.59-21.46-14.42-44.01-6.51-3.36,1.18-6.95,2.38-10.73,3.6-19.22-13.42-35.93-20.04-39.54-14.74-2.23,3.28,2.57,13.01,8.05,23.78-18.33,4.71-38.88,9.1-60.18,12.33-10.44,1.58-21.06,2.89-31.68,3.83-4.48-2.97-8.89-6.22-13.19-9.73-6.67-5.43-13.06-11.5-18.98-18.25-12.69-14.43-47.53-45.75-51.4-31.47-3.71,13.7-35.55,14.61-55.89,23.83-2.05.92-3.96,1.93-5.72,3.05-1.88-1.95-3.63-4-5.29-6.14-2.19-2.83-4.19-5.83-5.99-9.03-7.01-12.44-10.07-26.13-10.71-39.74-.83-17.21,2.21-34.26,6.1-48.43,0,0-.02,0,0-.02.23-.84.46-1.67.68-2.5,2.07-7.21,4.31-13.59,6.31-18.75,2.26-5.89,4.21-10.23,5.19-12.4,10.73-23.88,27.82-61.91,61.91-71.19,44.74-12.18,57.27,2.15,124.69,36.89,14.88,7.67,28.48,4.5,66.54-3.07,74.57-14.82,86.23-2.09,114.11,45.31,4.33,7.37,3.88,29.76-1.94,55.89Z"/>
      <path class="cls-23" d="m369.37,310.5c9.82,11.84,54.14,5.86,101.18-1.9,30.77-5.07,72.78,15.64,131.29,23.72,49.34,6.82,97.41,13.98,124.49,26.48,14.84,6.85,15.25-23.21,17.68-26.27,3.76-4.71-65.66-32.66-83.67-35.56-100.43-16.13-249.92-32.43-287.46-16.11-.9.39-10.97,20.64-3.51,29.63Z"/>
      <path class="cls-22" d="m830.27,404.36c-2.09,16.02-32.23,26.95-79.94,31.9-19.21,1.98-41.29,3.01-65.52,2.99-10.72-11.29-22.65-21.3-33.75-29.04-19.22-13.42-35.93-20.04-39.54-14.74-2.23,3.28,2.57,13.01,8.05,23.78,3.11,6.09,6.44,12.52,8.84,18.29-22.03-1.26-45.15-3.24-69.02-5.96-6.79-.78-13.62-1.62-20.52-2.51-8.22-1.06-16.33-2.2-24.35-3.39-6.67-5.43-13.06-11.5-18.98-18.25-12.69-14.43-47.53-45.75-51.4-31.47-3.71,13.7-35.55,14.61-55.89,23.83-3.73-1.01-7.4-2.05-11.01-3.09-18.18-5.24-34.66-10.74-49.07-16.37-42.19-16.48-66.76-34.06-64.75-49.55,2.4-18.51,42.24-30.22,103.32-33.77.19,0,.41-.02.6-.03,50.94-2.89,116.53-.12,187.49,9.09,71.73,9.3,136.49,23.6,185.17,39.61.08.03.15.05.23.07,57.43,18.92,92.42,40.23,90.04,58.61Z"/>
    </g>
    <path class="cls-18" d="m577.49,701.85c.03-49.05-97.13-97.18-108.16-13.61-5.63,42.65,7.17,76.86,2.4,121.48-2.27,21.28-4.06,29.99,75.18,35.62,41.59,2.95,46.01-3.99,35.89-43.91-6.55-25.85-5.33-77.69-5.31-99.57Z"/>
    <path class="cls-20" d="m377.24,396.7c-2.52,17-.26,73.87-3.79,116.36-4.61,55.41-.43,74.35,2.27,80.31,12.46,27.54,44.63,74.99,70.04,82.99q84.72,26.64,108.94,20.68c53.79-13.24,103.19-42.73,121.27-72.41,5.04-8.27,27.53-33.87,21.49-102.57-6.15-69.95,6.85-116.81-2.06-136.81-20.06-45-143.2-60.31-162-63-126-18-149.21,27.64-156.14,74.45Z"/>
    <path class="cls-19" d="m371.94,478.78c-11.35-4.25-29.2,5.47-36.22,17.58-9.25,15.94,1.6,33.68,7.51,43.34,5.36,8.76,20.95,29.91,31.67,27.1,18.27-4.79,21.35-78.91-2.96-88.02Z"/>
    <path class="cls-19" d="m700.61,496.07c11.36-4.24,29.19,5.51,36.2,17.63,9.23,15.95-1.65,33.67-7.57,43.33-5.37,8.76-20.99,29.89-31.7,27.06-18.26-4.81-21.24-78.94,3.08-88.02Z"/>
    <path class="cls-14" d="m749.38,1078.25c-6.88,12.98-55.54,36.45-54,18,7.12-85.47,3.68-142.4-7.48-179.38-.91-3-1.86-5.87-2.87-8.62-26.88-73.27-88.94-55.92-157.02-35.4-6.87,2.06-13.8,4.17-20.77,6.21-50.43,14.81-102.52,26.6-144.86,1.19-1.97-1.18-3.34-2.08-4.33-1.77-4.94,1.52-.25,33.12-13.67,208.77-1.89,24.69-45.77.41-54-9-28.07-32.12-25.3-315.85,27-342q18-9,47.83-9.76c.62-.02,1.24-.05,1.88-.11,1.13-.09,2.3-.25,3.49-.46,8.99-1.53,19.59-5.8,31.19-8.21,1.26-.26,2.53-.53,3.81-.79,1.34-.27,2.69-.53,4.05-.79,1.4-.28,2.81-.54,4.23-.81.93-.17,1.87-.34,2.8-.51,0,0,.02,0,.06-.01.02,0,.04,0,.07-.02,0-.01.03-.01.05-.01.03-.01.06-.01.1-.02,2.58-.46,5.17-.91,7.75-1.34,15.34-2.52,30.59-4.28,43.21-4.36.36,0,.71,0,1.06,0h.05l49.47,37.13h.02l58.92-29.87h0s.11-.06.11-.06c10.26.62,24.46,2.25,40.25,6.24,3.81.96,7.72,2.06,11.68,3.32h0s.06.02.09.03c.05.02.1.04.14.06.11.04.17.06.17.06,1.38.43,2.74.89,4.14,1.38l.07.02c.31.11.62.21.92.32,9.51,3.15,14.51,2.86,24.38,8.58h9c.38.07.77.13,1.16.19,21.55,3.31,53.32-8.55,79.84,26.81,18.45,24.6,11.38,293.49,0,315Z"/>
    <ellipse class="cls-9" cx="518.4" cy="878.17" rx="11.2" ry="10.34"/>
    <path class="cls-2" d="m685.03,908.25c-1.75,14.67-4.85,28.77-6.08,34.02-5.52,23.77-11.14,82.22-31.35,111.74-45.75,66.87-244.71,49.42-276.85-17.87-5.31-11.14-5.74-104.82-8.22-150.74-.09-1.68-.14-3.39-.15-5.15,0-2.5.06-5.09.22-7.77.12-1.92.64-3.56,1.44-5.06,1.77-3.33,4.91-5.93,8.02-9.23,5.42-5.75,10.74-13.65,8.58-31.35-2.85-23.44-14.96-79.32-10.06-100.92,8.99-1.53,19.59-5.8,31.19-8.21,1.26-.26,2.53-.53,3.81-.79,1.34-.27,2.69-.53,4.05-.79,1.45,20.16,4.99,48.81,12.3,73.75,5.56,18.89,6.75,33.99,12.31,41.45,20.17,27.01,147.25,27.61,163.08,9.65,0,0,20.57-14.52,24.91-29.21.46-1.55.73-3.1.79-4.63.89-24.91,2.72-43.19,4.94-56.42,1.77-10.49,3.78-17.8,5.78-22.73l.02-.03c.08-.22.16-.43.25-.63l.07.02c.31.11.62.21.92.32,9.51,3.15,14.51,2.86,24.38,8.58h9c.38.07.77.13,1.16.19,1.76,4.72,2.15,9.1,1.82,14.02-.48,7.65-2.69,16.58-4.12,30.08-1.65,15.5-4.98,33.7-5.4,49.02v.06c-.35,13,1.41,23.92,8.09,29.38,8.04,6.57,8.25,3.55,12.93,11.68,2.13,3.69,3.11,9.31,3.34,15.84.24,6.66-.29,14.27-1.17,21.73Z"/>
    <polygon class="cls-1" points="472.14 822.53 463.2 835.88 413.78 715.12 424.52 713.02 472.14 822.53"/>
    <polygon class="cls-1" points="634.08 727.35 633.76 727.96 633.74 727.99 586.21 816.72 579.32 829.58 577.6 827.33 570.37 817.9 581.51 795.48 617.78 722.48 617.98 722.06 618.11 721.81 634.01 727.33 634.08 727.35"/>
    <path class="cls-23" d="m416.66,714.81c12.24,29.64,37.46,87.1,49.7,116.74,15.85-19.4,36.28-65.98,52.13-85.39l-49.48-37.12c-19.17-2.68-52.35,5.77-52.35,5.77Z"/>
    <path class="cls-23" d="m629.87,725.96c-12.28,29.62-40.25,72.38-52.53,102-15.83-19.42-43.03-62.37-58.86-81.79l59.04-29.93c19.17-2.66,52.34,9.72,52.34,9.72Z"/>
    <path class="cls-24" d="m686.38,1141.25c-46.42,67.84-309.39,59.26-342-9-5.38-11.3,16.12-194.31,13.61-240.89-.23-4.06-.21-8.35.06-12.88,0-.08.01-.15.01-.23.28-4.61,2.84-7.64,5.98-10.83,2.59-2.64,5.58-5.38,8.02-9.23,3.51-5.51,5.87-13.29,4.3-26.23-3.04-25.05-16.52-86.61-9.27-105.58,1.13-.09,2.3-.25,3.49-.46,8.99-1.53,19.59-5.8,31.19-8.21,1.26-.26,2.53-.53,3.81-.79,1.33,20.53,4.9,51.09,12.66,77.54,5.64,19.17,6.84,34.48,12.49,42.05,20.46,27.4,149.37,28.01,165.43,9.79,0,0,25.49-17.99,26.06-34.33,0-.07,0-.13.01-.2,1.01-27.79,3.16-47.42,5.73-61.05,2.19-11.6,4.69-18.84,7.04-23.05,9.51,3.15,14.51,2.86,24.38,8.58h6.08c1,.55,2.01,1.12,3.01,1.7h0c1.98,4.35,2.79,8.31,2.89,12.51.24,8.71-2.56,18.41-4.27,34.52-1.49,14.02-4.34,30.22-5.25,44.58v.06c-.97,15.41.32,28.71,7.97,34.96,8.16,6.66,8.38,3.6,13.12,11.84,1.45,2.52,2.51,6,3.27,10.1,1.58,8.46,1.88,19.57,1.7,30.35-.26,15.34-1.52,30.01-1.52,35.38,0,18,20.49,159.06,0,189Z"/>
    <path class="cls-16" d="m576.53,554.9c10.02,6.84,19.56,8.09,44.64,4.24,15.38-2.36,25.45-7.94,33.38-11.36,13.23-5.7,17.29-29.3-9.34-51.62-11.1-9.31-29.9-15.98-46.49-9.03-17.07,7.15-22.62,24.9-27.02,38.98-1.43,4.56-6.36,21.15,4.83,28.79Z"/>
    <g>
      <g>
        <circle class="cls-6" cx="609.03" cy="525.6" r="23.35"/>
        <circle class="cls-3" cx="610.77" cy="526.94" r="12.19"/>
      </g>
      <circle class="cls-16" cx="615.43" cy="510.65" r="6.09"/>
    </g>
    <path class="cls-5" d="m558.05,480.27c-2.81-3.63,13.78-21.94,28.29-28.6,11.18-5.14,8.84,1.81,39.06,3.54,25.14,1.43,28.95-1.31,37.66,3.45,16.91,9.24,24.69,31.71,20.52,35.39-2.94,2.59-10.03-5.66-28.52-13.71-8.24-3.59-33.53-14.61-61.62-10.31-21.48,3.28-32.71,13.71-35.39,10.25Z"/>
    <path class="cls-5" d="m385.43,457.35c-2.81-3.63,13.78-21.94,28.29-28.6,11.18-5.14,8.84,1.81,39.06,3.54,25.14,1.43,28.95-1.31,37.66,3.45,16.91,9.24,24.69,31.71,20.52,35.39-2.94,2.59-10.03-5.66-28.52-13.71-8.24-3.59-33.53-14.61-61.62-10.31-21.48,3.28-32.71,13.71-35.39,10.25Z"/>
    <path class="cls-16" d="m420.8,534.25c10.02,6.84,18,9,36.36,11.89,19.42,3.05,27.06-.77,34.99-4.19,13.23-5.7,15.68-36.47-10.95-58.79-11.1-9.31-29.9-15.98-46.49-9.03-17.07,7.15-22.62,24.9-27.02,38.98-1.43,4.56,1.92,13.51,13.11,21.14Z"/>
    <g>
      <circle class="cls-6" cx="466.73" cy="516.6" r="23.35"/>
      <circle class="cls-3" cx="468.13" cy="518.83" r="12.19"/>
      <circle class="cls-16" cx="458.19" cy="503.62" r="6.09"/>
    </g>
    <path class="cls-21" d="m658.67,402.34c-7.63,5.36-129.39-14.99-153.68-11.47-27.33,3.96-56.56,13.65-69.93,8.25-6.46-2.61,34.97-4.13,44.32-10.16,27.31-17.63,59.99,0,69.12-3.09,7.61-2.57,38.7,5.34,51.23,5.34,12.52,0,65.07,6.84,58.95,11.14Z"/>
    <path class="cls-21" d="m588.19,594.98c.3,3.55,12.58.73,15.68,8.73,10.92,28.26.22,32.23,4.77,34.82,2.57,1.47,5.86-15.9,5.75-19.29-.39-12.3-6.16-15.54-7.54-18.71-1.15-2.64-3.17-2.98-6.35-5.95-3.17-2.98-12.55-2.45-12.3.39Z"/>
    <path class="cls-21" d="m467.53,583.94c-.02,3.57-12.48,1.74-14.92,9.97-8.61,29.05,2.38,32.14-1.94,35.09-2.45,1.67-7.12-15.37-7.29-18.76-.6-12.3,4.89-15.99,6-19.26.93-2.73,2.92-3.22,5.85-6.45,2.92-3.22,12.31-3.46,12.3-.6Z"/>
    <path class="cls-5" d="m717.18,480.33c-10.02,4.77-.72,34.38-9,27-17.62-15.66-12.19-15.23-20.8-37.01-5.97-15.1,5.43-62.55-4.72-80.63-7.63-13.58-9.61-18.59-20.71-26.33-19.22-13.42-30.58-13.68-27.31-7.86,1.94,3.46,7.31,21.66,18,27,18,9,18,11.76,18,18,0,9-54,9-63,0-18-18-18,0-57.76-11.93-5.15-1.55-27.66-18.16-32.63-20.62-7.41-3.67-26.72,2.96-34.43-1.63-5.23-3.11-27-23.67-29.69-22.09-7.76,4.55-25.46,19.39-45.79,28.61-2.05.92-6.69-15.53-8.44-14.41-5.26,3.29,4.76,17.16,3.29,22.89-3.42,13.33-20.04,38.88-18,54,2.04,15.13,1.69,49.87-3.8,55.17-8.53,8.24-18-18-18-27s-19.19-17.62-19.82-18.19c-12.17-10.74,6.4-15.56,6.43-36.08.03-16.29,16.99-20.22,27.67-37.53,7.91-12.83,13.31-23.45,18-27,4.51-3.41,17.44-23.64,23.98-25.19,86.75-20.64,163.32-27.92,251.97,27.95,7.69,4.83,26.24,25.93,30.05,33.24,10.6,20.32,23.03,39.71,14.98,55.81-9,18,17.42,36.27,1.53,43.83Z"/>
    <ellipse class="cls-9" cx="518.46" cy="788.24" rx="11.2" ry="10.34"/>
    <g>
      <circle class="cls-15" cx="513.38" cy="783.25" r="2"/>
      <circle class="cls-15" cx="513.38" cy="792.25" r="2"/>
      <circle class="cls-15" cx="522.38" cy="792.25" r="2"/>
      <circle class="cls-15" cx="522.38" cy="783.25" r="2"/>
    </g>
    <ellipse class="cls-9" cx="517.58" cy="824.91" rx="11.2" ry="10.34"/>
    <circle class="cls-15" cx="512.5" cy="819.92" r="2"/>
    <circle class="cls-15" cx="512.5" cy="828.92" r="2"/>
    <circle class="cls-15" cx="521.5" cy="828.92" r="2"/>
    <circle class="cls-15" cx="521.5" cy="819.92" r="2"/>
    <path class="cls-7" d="m406.99,515.4c1.96-8.68,19.96-17.68,37.96-26.68,11.38-5.69,23.89-10.3,36,0,10.96,9.32,18,22.19,18,18,0-9-9-18-9-18-6.36-6.36-15.58-17.9-36-18-5.06-.02-22.82-.47-37.96,17.68-7.93,9.49-10.14,32.03-9,27Z"/>
    <path class="cls-7" d="m660.95,515.72c-1.96-8.68-9-9-27-18-11.38-5.69-11.1-9-27-9-18,0-27,18-27,18,0-9,9-18,9-18,6.36-6.36,6.58-8.9,27-9,5.06-.02,23.72-1.18,37.96,17.68,7.04,9.32,8.17,23.35,7.04,18.32Z"/>
  </g>
  <g id="ur">
    <g id="Forside">
      <g>
        <g>
          <path class="cls-13" d="m412.44,512.89c-5.27,7.99,5.71,32.11,17.37,37,9.55,4,15.2,11.66,36.81,9.58,17.86-1.72,25.88-8.38,30.67-13.69,5.47-6.06,19.81-6.25,12.31-13.13-6.54-6-17.04,4.93-52.16,7.24-19.18,1.26-42.15-31.31-45-27Z"/>
          <path class="cls-13" d="m659.43,546.44c5.27,7.99-.92,10.22-12.58,15.11-9.55,4-15.2,11.66-36.81,9.58-17.86-1.72-25.88-8.38-30.67-13.69-5.47-6.06-19.81-6.25-12.31-13.13,6.54-6,7.56,5.08,42.68,7.39,19.18,1.26,46.85-9.58,49.69-5.26Z"/>
          <g>
            <path class="cls-13" d="m274.81,598.93c-1.62,5.98-4.63,10.73-8.37,14.29-8.96,8.55-22.12,10.27-30.37,5.91-10.83-5.73-17.25-21.09-8.61-36.6.8-1.45,1.75-2.91,2.83-4.36,5.52-7.39,35.26-37.64,46.07-34.09,11.97,3.93,2.22,40.94-1.55,54.85Z"/>
            <path class="cls-17" d="m233.66,600.89c-.54-1.77-2.14-7.28,0-13.63.82-2.44,2.04-4.53,9.09-11.81,8.84-9.14,13.26-13.7,14.99-12.72,1.78,1.01,1.11,6.93-1.36,11.36-3.7,6.62-7.06,6.33-11.36,10.45-8.89,8.52-1.72,9.91,2.3,16.91,3.13,5.45-4.89,8.74-6.85,8.99-2.68.33-5.64-5.68-6.81-9.54Z"/>
          </g>
          <g>
            <path class="cls-13" d="m401.44,593.37c-1.62,5.98-4.63,10.73-8.37,14.29-8.96,8.55-22.12,10.27-30.37,5.91-10.83-5.73-17.25-21.09-8.61-36.6.8-1.45,1.75-2.91,2.83-4.36,5.52-7.39,35.26-37.64,46.07-34.09,11.97,3.93,2.22,40.94-1.55,54.85Z"/>
            <path class="cls-17" d="m360.29,595.34c-.54-1.77-2.14-7.28,0-13.63.82-2.44,2.04-4.53,9.09-11.81,8.84-9.14,13.26-13.7,14.99-12.72,1.78,1.01,1.11,6.93-1.36,11.36-3.7,6.62-7.06,6.33-11.36,10.45-8.89,8.52-1.72,9.91,2.3,16.91,3.13,5.45-4.89,8.74-6.85,8.99-2.68.33-5.64-5.68-6.81-9.54Z"/>
          </g>
          <g>
            <path class="cls-13" d="m310.11,689.53c-1.62,5.98-4.63,10.73-8.37,14.29-8.96,8.55-22.12,10.27-30.37,5.91-10.83-5.73-17.25-21.09-8.61-36.6.8-1.45,1.75-2.91,2.83-4.36,5.52-7.39,35.26-37.64,46.07-34.09,11.97,3.93,2.22,40.94-1.55,54.85Z"/>
            <path class="cls-17" d="m268.95,691.5c-.54-1.77-2.14-7.28,0-13.63.82-2.44,2.04-4.53,9.09-11.81,8.84-9.14,13.26-13.7,14.99-12.72,1.78,1.01,1.11,6.93-1.36,11.36-3.7,6.62-7.06,6.33-11.36,10.45-8.89,8.52-1.72,9.91,2.3,16.91,3.13,5.45-4.89,8.74-6.85,8.99-2.68.33-5.64-5.68-6.81-9.54Z"/>
          </g>
          <g>
            <path class="cls-13" d="m407.39,703.73c-1.62,5.98-4.63,10.73-8.37,14.29-8.96,8.55-22.12,10.27-30.37,5.91-10.83-5.73-17.25-21.09-8.61-36.6.8-1.45,1.75-2.91,2.83-4.36,5.52-7.39,35.26-37.64,46.07-34.09,11.97,3.93,2.22,40.94-1.55,54.85Z"/>
            <path class="cls-17" d="m366.24,705.69c-.54-1.77-2.14-7.28,0-13.63.82-2.44,2.04-4.53,9.09-11.81,8.84-9.14,13.26-13.7,14.99-12.72,1.78,1.01,1.11,6.93-1.36,11.36-3.7,6.62-7.06,6.33-11.36,10.45-8.89,8.52-1.72,9.91,2.3,16.91,3.13,5.45-4.89,8.74-6.85,8.99-2.68.33-5.64-5.68-6.81-9.54Z"/>
          </g>
          <g>
            <path class="cls-13" d="m608.63,638.54c1.96,5.88,5.23,10.45,9.17,13.79,9.43,8.03,22.67,8.99,30.66,4.17,10.49-6.34,16.02-22.04,6.51-37.03-.88-1.4-1.91-2.81-3.07-4.19-5.93-7.06-37.35-35.57-47.94-31.41-11.73,4.61.12,41,4.67,54.67Z"/>
            <path class="cls-17" d="m649.83,638.15c.44-1.8,1.72-7.39-.78-13.61-.96-2.39-2.29-4.41-9.74-11.27-9.35-8.62-14.02-12.93-15.69-11.85-1.72,1.11-.72,6.98,2.01,11.26,4.07,6.4,7.41,5.92,11.93,9.78,9.36,8,2.28,9.79-1.34,17.01-2.82,5.62,5.38,8.45,7.35,8.58,2.69.18,5.3-5.99,6.26-9.91Z"/>
          </g>
          <g>
            <path class="cls-13" d="m700.2,651.49c1.96,5.88,5.23,10.45,9.17,13.79,9.43,8.03,22.67,8.99,30.66,4.17,10.49-6.34,16.02-22.04,6.51-37.03-.88-1.4-1.91-2.81-3.07-4.19-5.93-7.06-37.35-35.57-47.94-31.41-11.73,4.61.12,41,4.67,54.67Z"/>
            <path class="cls-17" d="m741.4,651.11c.44-1.8,1.72-7.39-.78-13.61-.96-2.39-2.29-4.41-9.74-11.27-9.35-8.62-14.02-12.93-15.69-11.85-1.72,1.11-.72,6.98,2.01,11.26,4.07,6.4,7.41,5.92,11.93,9.78,9.36,8,2.28,9.79-1.34,17.01-2.82,5.62,5.38,8.45,7.35,8.58,2.69.18,5.3-5.99,6.26-9.91Z"/>
          </g>
          <g>
            <path class="cls-13" d="m599.97,735.8c1.96,5.88,5.23,10.45,9.17,13.79,9.43,8.03,22.67,8.99,30.66,4.17,10.49-6.34,16.02-22.04,6.51-37.03-.88-1.4-1.91-2.81-3.07-4.19-5.93-7.06-37.35-35.57-47.94-31.41-11.73,4.61.12,41,4.67,54.67Z"/>
            <path class="cls-17" d="m641.17,735.41c.44-1.8,1.72-7.39-.78-13.61-.96-2.39-2.29-4.41-9.74-11.27-9.35-8.62-14.02-12.93-15.69-11.85-1.72,1.11-.72,6.98,2.01,11.26,4.07,6.4,7.41,5.92,11.93,9.78,9.36,8,2.28,9.79-1.34,17.01-2.82,5.62,5.38,8.45,7.35,8.58,2.69.18,5.3-5.99,6.26-9.91Z"/>
          </g>
          <g>
            <path class="cls-13" d="m706.83,735.8c1.96,5.88,5.23,10.45,9.17,13.79,9.43,8.03,22.67,8.99,30.66,4.17,10.49-6.34,16.02-22.04,6.51-37.03-.88-1.4-1.91-2.81-3.07-4.19-5.93-7.06-37.35-35.57-47.94-31.41-11.73,4.61.12,41,4.67,54.67Z"/>
            <path class="cls-17" d="m748.03,735.41c.44-1.8,1.72-7.39-.78-13.61-.96-2.39-2.29-4.41-9.74-11.27-9.35-8.62-14.02-12.93-15.69-11.85-1.72,1.11-.72,6.98,2.01,11.26,4.07,6.4,7.41,5.92,11.93,9.78,9.36,8,2.28,9.79-1.34,17.01-2.82,5.62,5.38,8.45,7.35,8.58,2.69.18,5.3-5.99,6.26-9.91Z"/>
          </g>
          <g>
            <path class="cls-13" d="m804.85,618.96c4.67,4.07,9.81,6.35,14.89,7.24,12.2,2.14,24.1-3.74,28.54-11.94,5.83-10.78,2.64-27.12-13.16-35.22-1.47-.76-3.07-1.45-4.77-2.06-8.69-3.08-50.22-11.73-57.24-2.78-7.77,9.91,20.88,35.29,31.74,44.76Z"/>
            <path class="cls-17" d="m840.17,597.75c-.53-1.77-2.26-7.24-7.57-11.34-2.04-1.57-4.21-2.64-14.11-4.78-12.43-2.69-18.64-4.04-19.53-2.26-.92,1.83,2.92,6.38,7.44,8.69,6.75,3.45,9.38,1.35,15.25,2.39,12.13,2.15,6.93,7.28,7.47,15.34.42,6.27,8.92,4.56,10.68,3.68,2.41-1.21,1.54-7.85.37-11.72Z"/>
          </g>
          <g>
            <path class="cls-13" d="m674.67,823.26c2.63,5.61,6.41,9.77,10.71,12.64,10.3,6.88,23.56,6.31,30.93.59,9.68-7.51,13.36-23.75,2.18-37.54-1.04-1.29-2.23-2.57-3.54-3.81-6.71-6.33-41.22-31-51.25-25.65-11.11,5.93,4.86,40.71,10.97,53.76Z"/>
            <path class="cls-17" d="m715.55,818.11c.23-1.84.85-7.54-2.35-13.42-1.23-2.26-2.79-4.11-10.98-10.07-10.28-7.48-15.42-11.21-16.96-9.95-1.58,1.3.1,7.01,3.3,10.95,4.78,5.88,8.04,5.02,12.99,8.34,10.23,6.86,3.4,9.46.64,17.05-2.15,5.91,6.32,7.77,8.29,7.67,2.69-.13,4.57-6.56,5.07-10.57Z"/>
          </g>
          <g>
            <path class="cls-13" d="m283.94,806.13c-1.62,5.98-4.63,10.73-8.37,14.29-8.96,8.55-22.12,10.27-30.37,5.91-10.83-5.73-17.25-21.09-8.61-36.6.8-1.45,1.75-2.91,2.83-4.36,5.52-7.39,35.26-37.64,46.07-34.09,11.97,3.93,2.22,40.94-1.55,54.85Z"/>
            <path class="cls-17" d="m242.79,808.09c-.54-1.77-2.14-7.28,0-13.63.82-2.44,2.04-4.53,9.09-11.81,8.84-9.14,13.26-13.7,14.99-12.72,1.78,1.01,1.11,6.93-1.36,11.36-3.7,6.62-7.06,6.33-11.36,10.45-8.89,8.52-1.72,9.91,2.3,16.91,3.13,5.45-4.89,8.74-6.85,8.99-2.68.33-5.64-5.68-6.81-9.54Z"/>
          </g>
        </g>
        <path class="cls-11" d="m486.16,586.81c-10.93,53.51,14.89,9.2,30.24,12.14,26.12,4.99,25.69,18.08,37.2,15.52,6.37-1.42,11.49-.61,17.28-17.75"/>
        <path class="cls-12" d="m463.92,603.61c-2.81-3.63,13.78-21.94,28.29-28.6,11.18-5.14,8.84,1.81,39.06,3.54,25.14,1.43,28.95-1.31,37.66,3.45,16.91,9.24,24.69,31.71,20.52,35.39-2.94,2.59-10.03-5.66-28.52-13.71-8.24-3.59-33.53-14.61-61.62-10.31-21.48,3.28-32.71,13.71-35.39,10.25Z"/>
      </g>
    </g>
  </g>
</svg>