<?xml version="1.0" encoding="UTF-8"?>
<svg id="ur" xmlns="http://www.w3.org/2000/svg" viewBox="0 0 558 180">
  <defs>
    <style>
      .cls-1 {
        fill: #f4b63e;
      }

      .cls-1, .cls-2 {
        stroke-width: 0px;
      }

      .cls-2 {
        fill: #822f0b;
      }
    </style>
  </defs>
  <g>
    <path class="cls-1" d="m97.74,147.68c-6.84,6.3-15.48,9.36-25.74,9.36-14.58,0-25.56-8.28-33.3-24.84-6.3-13.32-9-27.9-8.1-43.56.9-15.84,5.04-30.42,12.6-43.92,9.36-16.38,21.24-24.66,35.64-24.66,12.42,0,22.86,6.84,31.14,20.7l-15.12,20.88c-2.7-3.06-6.3-4.68-10.44-4.68-8.1,0-14.4,5.58-19.08,16.74-3.42,8.1-5.22,17.28-5.76,27.36-.36,7.2.9,13.32,3.6,18.36,3.42,5.94,8.46,8.82,15.48,8.82,5.58,0,10.08-2.52,13.68-7.56,2.88-3.96,4.86-9,5.94-15.12-7.56,1.62-15.12,3.42-22.68,5.4v-25.92l44.28-9.9c.9,4.14,1.44,8.82,1.44,14.04,0,2.88-.18,5.94-.36,9.18-1.98,20.7-9.72,37.26-23.22,49.32Z"/>
    <path class="cls-1" d="m191.52,151.1l-29.16-48.6-.18.18c.54,14.94,1.44,29.16,2.88,42.48l-26.28,7.74-.9-23.4-3.42-81.72c-.54-12.06-.72-18.36-.54-19.26,16.92-5.58,31.32-8.28,43.02-8.28,16.02,0,25.2,5.58,27.36,16.56.54,2.7.72,5.22.72,7.74,0,13.5-6.84,26.64-20.52,39.78,3.6,5.94,8.46,12.96,14.4,21.24,4.86,7.02,9.9,13.86,14.94,20.88-4.86,5.58-12.42,13.68-22.32,24.66Zm-18.36-97.56c-2.7,0-6.48.9-11.34,2.7-.18,3.96-.18,7.92-.18,11.88s0,7.92.18,11.88c4.14-2.52,7.92-5.76,11.16-9.54,4.14-4.86,6.12-8.82,6.12-11.88,0-3.42-1.98-5.04-5.94-5.04Z"/>
    <path class="cls-1" d="m263.51,155.6l-1.98-21.96-11.34,2.16-.36,15.66-35.64,5.58c7.74-43.2,12.6-85.5,14.76-127.08l51.66-9.18c1.26,34.56,7.38,76.68,18.36,126.17l-35.46,8.64Zm-4.14-45.54l-6.12-66.42h-.18l-1.98,68.04,8.28-1.62Z"/>
    <path class="cls-1" d="m369.71,92.07c-10.62,1.8-21.42,3.96-32.76,6.48.54,15.66,1.62,31.32,3.24,46.62l-28.62,7.74-6.12-125.99,58.5-8.64,4.68,32.76c-10.62.72-21.24,1.98-31.86,3.78-.18,3.24-.18,6.48-.18,9.54v9.72l29.34-6.66,3.78,24.66Z"/>
    <path class="cls-1" d="m387.17,152.9l-4.86-124.19,28.8-5.58c-.9,20.34-1.26,40.5-1.08,60.84s1.26,40.86,3.24,61.2l-26.1,7.74Z"/>
    <path class="cls-1" d="m510.83,138.5l-28.26,16.92-26.28-66.42c.18,21.06,1.26,39.78,3.24,56.16l-26.28,7.74-4.86-124.19,28.98-5.58c-.54,10.26-.9,18.36-.9,24.3,7.74-8.46,15.12-16.92,22.5-25.56l25.38,14.22-28.08,30.96,34.56,71.46Z"/>
  </g>
  <g>
    <path class="cls-2" d="m106.74,147.68c-6.84,6.3-15.48,9.36-25.74,9.36-14.58,0-25.56-8.28-33.3-24.84-6.3-13.32-9-27.9-8.1-43.56.9-15.84,5.04-30.42,12.6-43.92,9.36-16.38,21.24-24.66,35.64-24.66,12.42,0,22.86,6.84,31.14,20.7l-15.12,20.88c-2.7-3.06-6.3-4.68-10.44-4.68-8.1,0-14.4,5.58-19.08,16.74-3.42,8.1-5.22,17.28-5.76,27.36-.36,7.2.9,13.32,3.6,18.36,3.42,5.94,8.46,8.82,15.48,8.82,5.58,0,10.08-2.52,13.68-7.56,2.88-3.96,4.86-9,5.94-15.12-7.56,1.62-15.12,3.42-22.68,5.4v-25.92l44.28-9.9c.9,4.14,1.44,8.82,1.44,14.04,0,2.88-.18,5.94-.36,9.18-1.98,20.7-9.72,37.26-23.22,49.32Z"/>
    <path class="cls-2" d="m200.52,151.1l-29.16-48.6-.18.18c.54,14.94,1.44,29.16,2.88,42.48l-26.28,7.74-.9-23.4-3.42-81.72c-.54-12.06-.72-18.36-.54-19.26,16.92-5.58,31.32-8.28,43.02-8.28,16.02,0,25.2,5.58,27.36,16.56.54,2.7.72,5.22.72,7.74,0,13.5-6.84,26.64-20.52,39.78,3.6,5.94,8.46,12.96,14.4,21.24,4.86,7.02,9.9,13.86,14.94,20.88-4.86,5.58-12.42,13.68-22.32,24.66Zm-18.36-97.56c-2.7,0-6.48.9-11.34,2.7-.18,3.96-.18,7.92-.18,11.88s0,7.92.18,11.88c4.14-2.52,7.92-5.76,11.16-9.54,4.14-4.86,6.12-8.82,6.12-11.88,0-3.42-1.98-5.04-5.94-5.04Z"/>
    <path class="cls-2" d="m272.51,155.6l-1.98-21.96-11.34,2.16-.36,15.66-35.64,5.58c7.74-43.2,12.6-85.5,14.76-127.07l51.66-9.18c1.26,34.56,7.38,76.68,18.36,126.17l-35.46,8.64Zm-4.14-45.54l-6.12-66.42h-.18l-1.98,68.04,8.28-1.62Z"/>
    <path class="cls-2" d="m378.71,92.07c-10.62,1.8-21.42,3.96-32.76,6.48.54,15.66,1.62,31.32,3.24,46.62l-28.62,7.74-6.12-125.99,58.5-8.64,4.68,32.76c-10.62.72-21.24,1.98-31.86,3.78-.18,3.24-.18,6.48-.18,9.54v9.72l29.34-6.66,3.78,24.66Z"/>
    <path class="cls-2" d="m396.17,152.9l-4.86-124.19,28.8-5.58c-.9,20.34-1.26,40.5-1.08,60.84.18,20.34,1.26,40.86,3.24,61.2l-26.1,7.74Z"/>
    <path class="cls-2" d="m519.83,138.5l-28.26,16.92-26.28-66.42c.18,21.06,1.26,39.78,3.24,56.16l-26.28,7.74-4.86-124.19,28.98-5.58c-.54,10.26-.9,18.36-.9,24.3,7.74-8.46,15.12-16.92,22.5-25.56l25.38,14.22-28.08,30.96,34.56,71.46Z"/>
  </g>
</svg>