<?xml version="1.0" encoding="UTF-8"?>
<svg id="ur" xmlns="http://www.w3.org/2000/svg" viewBox="0 0 288 234">
  <defs>
    <style>
      .cls-1 {
        fill: #f4b63e;
      }

      .cls-1, .cls-2 {
        stroke-width: 0px;
      }

      .cls-2 {
        fill: #822f0b;
      }
    </style>
  </defs>
  <rect class="cls-2" x="81" y="54" width="144" height="117" rx="50.13" ry="50.13"/>
  <path class="cls-1" d="m169.5,90.96c0,6.4-3.2,13-9.7,19.8-3.8,4-9.7,8.8-17.6,14.4-.1-1.3-.9-3.4-2.4-6.4-1.5-3-2.2-5.2-2.3-6.5,3.6-1.5,7-3.3,10.2-5.5,4.7-3.2,6.9-6.1,6.6-8.6-.3-1.7-2.1-2.7-5.6-2.9s-8.9,1-16,3.6l-3-17.3c9.5-3.1,17.5-4.6,24-4.6,8.9,0,14,3.1,15.3,9.2.3,1.6.5,3.2.5,4.8Zm-14,58c-2.1,1.7-4.5,2.8-7.2,3.2-2.7.4-5,0-7.1-1.3-2.3-1.3-3.5-3.3-3.5-6s1.1-4.9,3.4-6.9c2.1-1.8,4.5-2.9,7.2-3.3,5.3-.7,10.5,2.2,10.5,7.4,0,2.6-1.1,4.9-3.3,6.9Z"/>
</svg>