<?xml version="1.0" encoding="UTF-8"?>
<svg id="ur" xmlns="http://www.w3.org/2000/svg" viewBox="0 0 270 261">
  <defs>
    <style>
      .cls-1, .cls-2, .cls-3 {
        stroke-width: 0px;
      }

      .cls-2 {
        fill: #a09f9f;
      }

      .cls-3 {
        fill: #fff;
      }
    </style>
  </defs>
  <path class="cls-2" d="m114.1,79c-1.11.32-1.98,1.66-1.98,2.83,0,2.72,4.63,5.56,8.79,5.67,5.25.13,11.18-4.08,11.06-8.5-.1-3.61-4.19-5.98-7.09-7.65-5.25-3.03-13.38-5.03-15.59-1.98-.96,1.32-.87,3.69.28,4.82,2.26,2.2,6.83-2.04,11.91,0,3.05,1.23,5.45,4.39,4.82,5.95-.61,1.52-4.3,2.06-7.09,1.13-2.61-.86-3.55-2.71-5.1-2.27Z"/>
  <path class="cls-2" d="m152.66,79.9c1.11.32,1.98,1.66,1.98,2.83,0,2.72-4.63,5.56-8.79,5.67-5.25.13-11.18-4.08-11.06-8.5.1-3.61,4.19-5.98,7.09-7.65,5.25-3.03,13.38-5.03,15.59-1.98.96,1.32.87,3.69-.28,4.82-2.26,2.2-6.83-2.04-11.91,0-3.05,1.23-5.45,4.39-4.82,5.95.61,1.52,4.3,2.06,7.09,1.13,2.61-.86,3.55-2.71,5.1-2.27Z"/>
  <path class="cls-2" d="m136.32,89.95c.9-3.59.61-9.9.28-18.31-.27-6.94,8.12-7.79,7.32-10.42-1.25-4.12-16.58-4.76-18.17-.7-.85,2.16,4.07,3.22,5.07,9.01,1.6,9.27.45,17.05.28,20.14-.1,1.8,4.8,1.92,5.21.28Z"/>
  <circle class="cls-2" cx="134.82" cy="56.08" r="4.86"/>
  <circle class="cls-2" cx="132.83" cy="144.11" r="53.74"/>
  <circle class="cls-3" cx="132.83" cy="144.11" r="47.71"/>
  <rect class="cls-1" x="130.76" y="98.27" width="4.23" height="17.02" rx="2.11" ry="2.11" transform="translate(265.75 213.57) rotate(180)"/>
  <rect class="cls-1" x="113" y="102.7" width="4.23" height="17.02" rx="2.11" ry="2.11" transform="translate(269.34 154.03) rotate(151.51)"/>
  <rect class="cls-1" x="99.36" y="115.8" width="4.23" height="17.02" rx="2.11" ry="2.11" transform="translate(260.94 106.39) rotate(122.82)"/>
  <rect class="cls-1" x="94.08" y="135.76" width="4.23" height="17.02" rx="2.11" ry="2.11" transform="translate(240.47 48.08) rotate(90)"/>
  <rect class="cls-1" x="98.42" y="152.68" width="4.23" height="17.02" rx="2.11" ry="2.11" transform="translate(195.9 -3.11) rotate(62.08)"/>
  <rect class="cls-1" x="111.73" y="167.58" width="4.23" height="17.02" rx="2.11" ry="2.11" transform="translate(103.3 -33.33) rotate(30)"/>
  <rect class="cls-1" x="149.71" y="103.61" width="4.23" height="17.02" rx="2.11" ry="2.11" transform="translate(84.99 -64.39) rotate(32.82)"/>
  <rect class="cls-1" x="130.76" y="172.57" width="4.23" height="17.02" rx="2.11" ry="2.11"/>
  <rect class="cls-1" x="148.62" y="168.58" width="4.23" height="17.02" rx="2.11" ry="2.11" transform="translate(-68.35 99.09) rotate(-30)"/>
  <rect class="cls-1" x="161.4" y="155.39" width="4.23" height="17.02" rx="2.11" ry="2.11" transform="translate(-62.85 212.49) rotate(-57.18)"/>
  <rect class="cls-1" x="167.44" y="135.76" width="4.23" height="17.02" rx="2.11" ry="2.11" transform="translate(25.28 313.83) rotate(-90)"/>
  <rect class="cls-1" x="163.33" y="118.29" width="4.23" height="17.02" rx="2.11" ry="2.11" transform="translate(138.35 333.48) rotate(-120)"/>
</svg>