<?xml version="1.0" encoding="UTF-8"?>
<svg id="Kanin" xmlns="http://www.w3.org/2000/svg" viewBox="0 0 1207.86 698.79">
  <defs>
    <style>
      .cls-1, .cls-2, .cls-3, .cls-4, .cls-5, .cls-6, .cls-7, .cls-8 {
        stroke-width: 0px;
      }

      .cls-2 {
        opacity: .7;
      }

      .cls-3 {
        fill: #f4dac9;
      }

      .cls-4 {
        fill: #f9e3d2;
      }

      .cls-5 {
        fill: #cea578;
      }

      .cls-6 {
        fill: #fff;
      }

      .cls-7 {
        fill: #ff99b7;
      }

      .cls-8 {
        fill: #ffcccd;
      }
    </style>
  </defs>
  <path class="cls-3" d="m675.39,379.89c-5.14,11.26-10.22,34,7.05,45.16,29.32,18.96,127.98,20.58,149.72,9.43,7.28-3.73,22.99-8.89,29.87-14.75,4.83-4.12,16.21-17.98,11.52-17.47-24.48,2.62-38.51,12.94-63.1,15.46-15.98,1.63-31.64,9.66-47.33,1.88-19.4-9.62-82.99-50.08-87.73-39.71Z"/>
  <path class="cls-3" d="m728.26,313.96c9.49-6.11,6.1-89.77,3.15-97.87-9.33-25.6-14.91-25.87-23.45-36.28-14.71-17.93-36.71-20.91-46.34-19.16-12.02,2.18-21.46,14.52-22.54,27.13-2.08,24.28,34.14,41.37,41.28,49.69,8.03,9.38,9.02,51.8,28.64,64.27,17.41,11.08,14.89,15.04,19.27,12.22Z"/>
  <path class="cls-4" d="m363.7,297.67c17.29,1.28,9.35-13.16,37.24-13.45,66.53-.68,56.9,23.73,107.33,46.92,20.43,9.39,60.51,34.78,114.09,25.84,20.66-3.45,51.21-12.83,51.9-25.54.24-4.49,1.17-29.83-25.54-23.89-49.79,11.08-77.56-37.6-75.95-53.39.78-7.69-5.66-26.46,33.17-42.36,18.24-7.47,56.16,56.08,75.43,72.75,9.94,8.59,16.53,10.02,20.91,12.29,15.88,8.26,42.33-2.76,51.69-1.69,64.22,7.34,89.18,66.46,81.1,87.82-4.94,13.07-47.36,22.07-48.94,22.51-25.65,7.25-54.87-9.79-90.46-25.44-5.65-2.48-.85,18.24,5.77,28.01,3.35,4.95,9.78,12.25,46.13,24.71,29.22,10.02,43.84,15.03,60.96,14,18.92-1.13,32.08-7.53,33.77-4.12,1.59,3.21-8.11,12.76-18.12,18.12-20.71,11.1-39.47-10.58-88.14-9.06-82.5,2.57-93.05-17.76-94.73-14-1.28,2.86.6,3.76-.04,8.2-1.71,11.73-21.38,28.05-38.31,34-89.83,31.52-168.92-53.96-180.77-71.03-2.79-4.02-4.83,5.98-12.36,10.71-12.8,8.04-30.15,11.17-42.01,8.24-36.22-8.96-45.6-52.5-65.23-68.8-2.75-2.28-6.34-5.38-18.79,4.55-21.57,17.2-26.17,27.14-38.72,28.01-6.53.45-16.16-1.49-18.12-7.41-1.53-4.64,1.86-11.04,6.59-13.18,4.86-2.2,8.94,1.1,13.18,1.65,18.86,2.41,40.8-57.68,58.9-57.81,15.44-.11,17.55,35.71,25.12,43.8,6.05,6.47-5.4-30.88,13.18-41.19,10.9-6.05-10.92-18.51-8.24-22.24,2.82-3.94,13,1.36,28.01,2.47Z"/>
  <g>
    <path class="cls-6" d="m744.22,342.45c8.78,8.73,25.82,13.98,35.29,8.7,16.67-9.29-.27-36.3-12.9-36.33-18.81-.03-30.74,19.32-22.4,27.62Z"/>
    <ellipse class="cls-1" cx="770.65" cy="338.15" rx="12.46" ry="11.29"/>
    <ellipse class="cls-6" cx="774.13" cy="342.4" rx="6.73" ry="6.58"/>
    <ellipse class="cls-6" cx="768.11" cy="332.22" rx="4.11" ry="3.34"/>
  </g>
  <path class="cls-8" d="m660.06,191.45c.29,7.13,31.64,19.74,35.02,47.81,1.26,10.43,8.07,22.53,13.11,26.87,8.63,7.43,18.22-26.07,14.25-38.56-5.18-16.28-26.08-38.16-31.19-42.67-7.01-6.19-32.12-16.55-31.18,6.56Z"/>
  <path class="cls-8" d="m612.55,218.41c-7.87,3.33-7.87,32.77,12.88,53.95,9.08,9.26,46.07,8.95,51.6,14.83,9.48,10.07-6.84-9.03-17.83-20.53-10.62-11.11-18.55-20.28-24.16-26.39-7.69-8.38-18.84-23.39-22.49-21.85Z"/>
  <g>
    <path class="cls-8" d="m815.57,372.09c-.62,3.51-.88,16.57,3.16,16.57,8.71,0,21.79-16.36,14.18-19.92-2.66-1.24-6.84-2.74-10.34-1.83-1.22.32-6.37,1.67-7,5.17Z"/>
    <path class="cls-7" d="m820.39,387.39c-.28-.71,4.59-1.51,8.18-4.67,1.75-1.54,4.04-5,5.84-4.13.3.15-1.42,1.72-2.22,2.69-.99,1.19-3.78,3.52-4.81,4.05-.34.17.03.2-2.65,1.52-1.3.64-2.14.68-3.14.75-.31.02-1.08.08-1.2-.21Z"/>
    <path class="cls-7" d="m826.51,372.36c1.25.74,1.82,1.16,2.3,1.52.26.2,4.93,2.85,5.64,4.06,0,0-.53.85-1.68.37-1.43-.6-1.95-.83-2.99-1.34-.48-.23-2.17-1.38-2.98-2.03-1.14-.9-2.02-1.78-1.36-2.54.28-.32.81-.2,1.08-.04Z"/>
  </g>
  <path class="cls-5" d="m865.38,405.99c1.36-.53,4.19-.35,4.76-.5.32-.09,3.13-2.52,4.52-2.33,0,0,.02.56-.74,1.56s-1.78,2.4-2.82,2.91c-.48.23-2.52.21-4.12.05-1.44-.15-2.03.19-2.23-.8-.08-.41.34-.76.63-.88Z"/>
  <path class="cls-5" d="m833.41,443.89c1.36-.53,4.19-.35,4.76-.5.32-.09,3.13-2.52,4.52-2.33,0,0,.02.56-.74,1.56s-1.78,2.4-2.82,2.91c-.48.23-2.52.21-4.12.05-1.44-.15-2.03.19-2.23-.8-.08-.41.34-.76.63-.88Z"/>
  <path class="cls-2" d="m791.14,365.09c6.73,2.8,12.65,6.54,13.46,4.76.5-1.09-.93-1.44-1.47-1.66-1.84-.73-4.8-2.09-6.33-2.71-1.54-.63-4.18-2.03-7.94-2.89-3.6-.82-4.3-1.92-4.46-1.18-.27,1.19,4.38,2.7,6.73,3.68Z"/>
  <path class="cls-2" d="m787.83,379.34c7.27-.49,14.23.22,14.17-1.73-.04-1.2-1.47-.88-2.05-.83-1.97.17-5.23.26-6.87.39-1.66.12-4.65.05-8.39.95s-4.7.19-4.52.93c.29,1.19,5.13.47,7.67.3Z"/>
  <path class="cls-2" d="m791.17,389.97c6.54-3.22,13.24-5.22,12.44-7-.49-1.09-1.7-.25-2.21.01-1.76.91-4.73,2.24-6.21,2.98-1.49.75-4.28,1.81-7.4,4.08-2.99,2.17-4.28,1.97-3.83,2.58.72.99,4.92-1.52,7.2-2.65Z"/>
  <path class="cls-1" d="m726.42,325.51c-1.14-1.23,3.03-8.44,9.61-12.77,7.64-5.02,17.35-5.4,17.93-3.75.32.9-4.73,1.47-13.2,6.61-9.58,5.82-13.57,10.74-14.34,9.91Z"/>
  <path class="cls-3" d="m395.33,318.33c16.05,9.76,22.59,24.67,25.4,31.33,3.87,9.17,13.97,33.08.85,55.04-10.81,18.08-33.02,27.61-51.66,24.56-25.74-4.21-45.51-24.88-53.58-41.79-10.96-22.98-10.81-32.45-19.84-33.72-3.93-.55-12.28,2.93-24.74,17.5-4.63,5.42-22.51,18.41-30.55,17.35-2.48-.32-12.73,2.39-16.09-2.54-3.26-4.79-1.26-17.96,7.62-18.63,7.58-.57,12.61,2.73,18.63-.85,19.09-11.33,34.71-53.75,51.67-54.95,15.98-1.13,18.87,38.03,24.54,30.39,3.48-4.69,1.18-16.78,10.91-26.31,12.24-11.99,39.17-8.14,56.83,2.6Z"/>
  <path class="cls-6" d="m342.43,262.35c-7.66,6.82-.83,9.93-7.49,15.79-4.57,4.02-8.85-1.93-14.21,6.96-4.96,8.24,14.75,9.62,9.12,18.46-3.72,5.84-3.98,5.58-3.98,12.58,0,2.94,3.72,9.9,9.87,9.1,11.14-1.45,10.79-3.83,14.99-4.28,4.29-.46,9.82,9.32,18.25,7.9,4.23-.71,2.68-4.03,5.83-14.06,2.07-6.57,20.45-5.09,20.14-16-.56-19.65-12.57-8.87-11.52-15.44s3.59-21.9-5.31-20.93c-10.52,1.15-3.55,6.24-17.49,6.61-6.87.18-3.16-20.07-18.2-6.69Z"/>
</svg>