<?xml version="1.0" encoding="UTF-8"?>
<svg id="Alt" xmlns="http://www.w3.org/2000/svg" viewBox="0 0 408.52 326.75">
  <defs>
    <style>
      .cls-1 {
        opacity: .1;
      }

      .cls-1, .cls-2, .cls-3, .cls-4, .cls-5, .cls-6, .cls-7, .cls-8 {
        stroke-width: 0px;
      }

      .cls-2 {
        fill: #9b824b;
      }

      .cls-3 {
        fill: #a38954;
      }

      .cls-4 {
        fill: #ccb25e;
      }

      .cls-5 {
        fill: #ccc17f;
      }

      .cls-6 {
        fill: #c6ab5d;
      }

      .cls-7 {
        fill: #c1a75d;
      }

      .cls-8 {
        fill: #b29a5b;
      }
    </style>
  </defs>
  <ellipse class="cls-1" cx="128.01" cy="156.95" rx="74.08" ry="56.36" transform="translate(-50.48 252.65) rotate(-79)"/>
  <path class="cls-6" d="m305.19,213.86h0c-10.6,14.79-25.72,26.24-44.74,31.17-59.64-9.85-78.48-5.32-115.03-8.8h0c-4.06-.38-8.34-.87-12.92-1.48-.63-.08-1.27-.17-1.91-.26h0c-.5-.07-.99-.14-1.5-.21h0c-4.34-.62-8.94-1.36-13.87-2.24-4.06-.72-8.35-1.54-12.89-2.46h0c-3.41-.69-6.96-1.44-10.67-2.27.55-2.6,1.07-5.19,1.57-7.76.14-.73.28-1.46.41-2.19.18-.91.35-1.82.51-2.73.29-1.56.57-3.12.84-4.67.02-.08.03-.17.04-.26.29-1.63.57-3.24.83-4.85.69-4.11,1.33-8.2,1.92-12.25.32-2.22.64-4.43.94-6.63.08-.58.16-1.16.24-1.74.04-.24.07-.49.1-.73h0c.47-3.42.91-6.82,1.33-10.2.16-1.28.32-2.55.48-3.82.4-3.19.78-6.36,1.16-9.53h0c.12-1.02.24-2.03.36-3.05h0c.55-4.63,1.09-9.23,1.64-13.84t0-.01c.05-.44.11-.88.16-1.32.26-2.11.52-4.23.78-6.34.03-.25.06-.5.09-.75.28-2.28.57-4.56.87-6.85h0c.29-2.2.58-4.41.88-6.61.02-.15.04-.29.06-.44.46-3.34.94-6.7,1.45-10.07.06-.4.12-.79.18-1.19.07-.51.16-1.03.23-1.54.19-1.2.38-2.4.57-3.61.27-1.67.55-3.35.84-5.03.22-1.27.44-2.54.67-3.82.38-2.19.79-4.39,1.21-6.59,1.71-9,3.72-18.13,6.13-27.46,3.37.74,6.62,1.45,9.74,2.12h0c7.81,1.66,14.9,3.08,21.42,4.31,2.96.56,5.81,1.08,8.55,1.56,48.22,8.5,65.18,6.39,132.73,20.52,23.15,17.16,33.28,44.18,32.33,71.04-.67,18.87-6.81,37.67-17.74,52.91Z"/>
  <path class="cls-7" d="m305.19,213.86h0c-10.6,14.79-25.72,26.24-44.74,31.17-59.64-9.85-78.48-5.32-115.03-8.8h0c-4.06-.38-8.34-.87-12.92-1.48-.31.23-.62.46-.93.69-.58-.26-1.15-.53-1.72-.8-.26-.12-.51-.24-.76-.37h0c-2.59-1.24-5.06-2.51-7.4-3.82-7.23-4.02-13.31-8.32-18.45-12.75-.09-.07-.18-.15-.27-.23-2.82-2.44-5.35-4.92-7.62-7.42-.11-.12-.22-.24-.33-.36-3.8-4.22-6.88-8.46-9.39-12.63-5.08-8.42-7.83-16.49-9.53-23.22-.26-1.03-.5-2.03-.71-2.99-.15-.65-.28-1.27-.41-1.89,0,0,0-.02,0-.02s0,0,0-.01c-1.09-5.31-1.61-9.36-2.44-11.45-.4-1.02-.77-2.06-1.08-3.13h0c-1.27-4.25-1.91-8.83-1.83-13.28h0s0-.01,0-.02c0-.01,0-.02,0-.02.13-9.52,3.47-18.45,10.46-22.33.12-.07.24-.13.36-.19h0c.91-.47,1.82-.78,2.76-.97,1.36-.28,2.73-.29,4.13-.07,1.92.3,3.89,1.01,5.92,2.02.2.1.41.2.61.31.6.31,1.21.65,1.83,1.01,1.46.85,2.95,1.82,4.48,2.87.76.52,1.53,1.06,2.3,1.61,1.13.8,2.28,1.63,3.45,2.47,3.68,2.64,7.58,5.41,11.74,7.82,0,0,.02,0,.02.01.58.34,1.16.67,1.75.98.01,0,.02.01.03.02,3.73,2.02,7.68,3.7,11.87,4.71,1.33.32,2.69.57,4.08.75.26.03.52.06.79.09,1.09.11,2.2.18,3.32.19,2.59.01,5.28-.27,8.05-.89.33-.07.66-.16,1-.24.32-.08.67-.17,1.04-.24.07-.01.15-.03.22-.05.42-.09.88-.17,1.37-.26.11-.02.22-.04.34-.06,2.04-.35,4.57-.66,7.44-.95.19-.01.38-.03.57-.05,1.78-.17,3.69-.33,5.7-.47.2-.02.4-.03.6-.05,5.63-.4,12.01-.72,18.57-.97.57-.02,1.14-.05,1.72-.06,22.23-.79,45.98-.72,49.19-.1,5.19,1.01-24.02,5.39-24.02,5.39,2.71,15.62,28.51-1.98,64.51,22.6,10.68,7.3,30.89.91,47.1-4.96-.67,18.87-6.81,37.67-17.74,52.91Z"/>
  <path class="cls-2" d="m305.19,213.86c-10.6,14.79-25.72,26.24-44.74,31.17-59.64-9.85-78.48-5.32-115.03-8.8h0c-4.06-.38-8.34-.87-12.92-1.48-.31.23-.62.46-.93.69-.58-.26-1.15-.53-1.72-.8-4.76.92-10.31,1.18-16.75.54-.33-.03-.67-.06-1.01-.1-23.85-2.63-29.77-4.39-32.76-7.07-.71-.14-1.23-.31-1.52-.51-3.17-2.12-8.91-7.13-14.53-12.59-.14-.07-.28-.14-.43-.22-2.16-1.09-4.1-2.39-5.83-3.83-.12-.42-.24-.8-.37-1.12-.32-.82-.62-1.65-.89-2.5-1.61-5.03-2.29-10.57-1.97-15.84.53-8.79,3.86-16.82,10.39-20.44.49-.27.99-.51,1.49-.69.25-.1.5-.18.76-.25,1.42-.42,2.86-.53,4.33-.37.1,0,.19.01.28.03,1.3.16,2.63.52,3.99,1.05.13.04.24.09.37.14,1.63.66,3.29,1.53,5,2.57.42.24.84.5,1.27.78,1.19.76,2.41,1.58,3.66,2.45,0,0,0,0,0,0,.06.03.11.07.17.12,4.11,2.87,8.49,6.2,13.22,9.19.89.56,1.79,1.12,2.71,1.65,3.56,2.08,7.3,3.9,11.27,5.15h0c1.23.39,2.48.72,3.76,1h0c5.04,1.06,10.43,1.14,16.21-.35,1.13-.29,2.57-.56,4.27-.82.96-.14,1.99-.28,3.11-.41,3.09-.36,6.72-.68,10.73-.96h0c.18-.01.36-.03.54-.04,2.65-.18,5.46-.35,8.36-.49,1.56-.08,3.14-.15,4.74-.22,2.14-.09,4.31-.17,6.51-.25,1.7-.06,3.42-.11,5.12-.16,20.39-.58,40.44-.48,43.37.09,5.19,1.01-24.02,5.39-24.02,5.39,2.71,15.62,28.51-1.98,64.51,22.6,10.28,7.02,29.39,1.38,45.26-4.3Z"/>
  <path class="cls-4" d="m194.61,154c-.44,3.43-5.94,5.86-10.44,8.67-1.16.73-2.26,1.49-3.18,2.29-.94.82-3.4,3.33-5.86,5.97-.67.72-1.34,1.46-1.98,2.17-3.09,3.45-6.23,10.74-8.71,17.38-1.55,4.17-2.84,8.08-3.69,10.62-1.38,4.14-3.3,7.93-5.64,11.46-2.89,4.38-6.43,8.36-10.35,12.06,0,0,0,0,0,0-3.35,3.16-6.99,6.13-10.75,8.98-.5.38-1,.76-1.5,1.13-.31.23-.62.46-.93.69-.58-.26-1.15-.53-1.72-.8-4.76.92-10.31,1.18-16.75.54.91-1.04,1.62-1.91,2.02-2.56.13-.21.16-.41.1-.59-.46-1.4-6.1-2.04-12.89-2.46h0c-8.55-.53-18.9-.7-22.99-1.56-.71-.14-1.23-.31-1.52-.51-3.17-2.12-8.91-7.13-14.53-12.59-2.62-2.54-5.22-5.18-7.52-7.67-5.13-5.56-8.78-10.38-7.87-11.69.01-3.06-.75-8.82-1.06-14.68,1.93-1.26,3.91,4.95,6.97,10.53.53-8.79,3.86-16.82,10.39-20.44.49-.27.99-.51,1.49-.69-.04-.24-.07-.47-.1-.69-5.16-2.65-10.79-6.11-16.24-9.59,0,0,0,0,0,0-.65-.67-1.58-1.26-2.69-1.72-2.82-1.82-5.55-3.6-8.12-5.25,5.59-7.69,13.71-19.63,14.26-26.95,1.48-19.73,10.03-19.58,19.29-29.76,2.31-2.54,7.37-2.03,5.09-4.44-5.68-6-20.45,5.63-26.64-.81-1.28-1.33,21.93-13.02,27.43-15.78,4.93-2.47,35.23-16.49,41.8-15.03,2.83.63,5.56,1.81,8.16,3.3h0c10.41,5.93,18.71,16.6,22.46,15.52,2.61-.74-.16-6.96-1.03-11.22-.42-2.03-.41-3.62.83-3.94,1.5-.39,4.43,2.1,7.72,5.5,5.1,5.28,11.04,12.75,13.77,15.09,7.13,6.11,26.71,14.86,23.72,25.69-2.23,8.07-8.9,18.36-9.22,27.85-.09,2.55.29,5.04,1.33,7.42,1.82,4.14,7.75,3.72,7.13,8.57Z"/>
  <path class="cls-1" d="m114.31,141.96c-1.31-.85-4.24,2.31-5.25,6.27-1.2,4.69.66,9.08,1.26,10.52,3.32,7.88,10.23,8.2,10.74,8.22.74.02,7.95,0,12.45-8.86,4.46-8.79,2.41-18.7,2.04-20.49-2.1-10.13-8.23-14.04-10.06-15.04-7.22-3.96-15.92-.4-21.58,7.75-8.89,12.78-6.14,30.89-5.69,33.87.55,3.63,1.96,12.32,7.44,18.18,5.47,5.86,11.63,5.28,13.37,5.08,15.07-1.74,24.59-26.77,26.25-31.37,2.44-6.75,9.71-26.88,4.08-40.98-8.28-20.73-36.64-8.94-38.5-8.13-6.19,2.68-16.55,7.17-22.95,21.41-7.79,17.34-4.36,37.22-2.48,48.08,1.81,10.49,3.78,21.83,10.99,28.98,9.49,9.41,21.14,4.68,25.13,3.05,1.55-.63,14.68-6.28,23.29-24.82,4.75-10.25,12.7-21.1,14.13-30.99,3.16-21.86-6.03-33.05-.13-39.89,2.22-2.58,3.02,13.45,4.63,15.19,2.35,2.53,2.65,8.8.34,21.42-5.62,30.7-1.57,18.99-7.2,32.23-3.87,9.1-8.85,14.46-16.09,22.24-4.76,5.12-8.91,9.5-15.07,11.99-3.66,1.48-7.13,1.57-14.05,1.75-8.6.22-12.89.33-15.99-1.94-4.52-3.31-6.44-8.9-9.72-18.46-4.42-12.85-5.45-24.38-6.08-31.84-.56-6.71-1.04-12.69-.24-20.76.48-4.88,1.24-12.64,4.33-20.21,4.69-11.5,12.18-16.28,20.66-21.68,5.42-3.45,12.31-7.73,21.58-7.75,8.46-.02,14.46,3.52,17.94,5.63,4.57,2.78,6.89,4.24,8.46,7.94,1.69,4,1.35,7.71-.1,24.18-1.84,21.05-1.85,21.54-2.38,23.9-1.32,5.86-3.42,15.21-9.24,23.07-5.3,7.17-10.87,9.27-17.36,11.72-6.93,2.62-11.39,4.3-16.33,1.47-6.3-3.6-9.07-12.03-10.06-15.04-2.22-6.76-2.21-12.66-2.19-24.46.02-10.31.03-15.46,2.04-20.49.76-1.89,1.67-3.55,10.5-12.55,10.81-11.01,12.81-11.95,15.07-11.99,4.02-.07,6.96,2.76,8.8,4.52,1.26,1.21,5.73,5.83,7.78,14.77.98,4.29.86,8.7.58,17.35-.36,11.25-.54,16.87-2.04,20.49-3.44,8.31-11.02,12.75-17.36,11.72-4.86-.79-7.91-4.63-10.74-8.22-3.63-4.59-8.02-10.13-7.44-18.18.58-7.98,5.64-12.84,5.93-13.1.47-.44,4.67-4.2,9.48-2.31,2.14.84,6.49,3.62,6.17,7.66-.33,4.24-5.64,7.86-7.54,6-1.56-1.53-.23-6.21-1.6-7.11Z"/>
  <path class="cls-3" d="m175.14,170.93c-.64,4.27-1.17,9.36-3.31,16.71-.2.7-.5,1.56-.87,2.59-1.86,4.99-5.78,13.58-11.06,23.14h0c-4.11,7.45-9.04,15.48-14.47,22.86h0c-4.06-.38-8.34-.87-12.92-1.48-.31.23-.62.46-.93.69-.58-.26-1.15-.53-1.72-.8-4.76.92-10.31,1.18-16.75.54-.33-.03-.67-.06-1.01-.1-23.85-2.63-29.77-4.39-32.76-7.07-.71-.14-1.23-.31-1.52-.51-3.17-2.12-8.91-7.13-14.53-12.59-.14-.07-.28-.14-.43-.22-2.16-1.09-4.1-2.39-5.83-3.83-11.52-9.61-13.73-25.6-10.64-29.55.15-.19.3-.33.45-.43,1.93-1.26,3.91,4.95,6.97,10.53.53-8.79,3.86-16.82,10.39-20.44.49-.27.99-.51,1.49-.69-.04-.24-.07-.47-.1-.69.28.15.57.3.86.44,1.66.83,3.26,1.57,4.79,2.19.02.01.05.02.07.03,1.32.54,2.59,1,3.8,1.34.34.1.68.19,1.02.27,1.64.41,3.12.6,4.41.51.4-.03.79-.08,1.15-.16.49-.1.94-.26,1.35-.46.41-.21.8-.43,1.17-.66.22-.13.42-.26.62-.41,1.42-1,2.55-2.23,3.47-3.65,2.19-3.41,3.08-7.89,3.4-12.87h0c.2-3.11.17-6.41.09-9.77h0c-.1-4.02-.26-8.1-.19-12.02.01-.89.04-1.76.08-2.63.15-2.92.46-5.71,1.08-8.28h0c.31-1.28.69-2.49,1.16-3.63.34-.84.74-1.66,1.2-2.42h0c1.35-2.29,3.19-4.2,5.71-5.6.9-.5,1.86-.92,2.87-1.27,1.52-.52,3.14-.87,4.85-1.06.66-.08,1.33-.13,2.01-.16,2.58-.12,5.29.08,8,.56,1.02.18,2.04.39,3.06.63h0c3.92.96,7.79,2.45,11.22,4.29,2.51,1.34,4.79,2.88,6.71,4.55,7.12,6.17,5.45,10.83,9.02,17.38.36.66.77,1.35,1.26,2.05.11.17.24.35.37.52.32.44.66.89,1.04,1.35.1.12.19.24.3.36.26.32.54.64.83.96,2.96,3.24,5.12,4.93,6.85,5.62.11.04.21.08.31.12,1.97.68,3.36.06,4.77-.94.25-.17.5-.37.75-.56,2.24-1.74,4.75-4.01,9.75-3.24,13.9,2.17,1.81,20.22.82,25.31-.17.86-.31,1.75-.46,2.68Z"/>
  <path class="cls-8" d="m158.9,193.12c-.94,4.85-1.17,10.44-3.77,19.39,0,.02-.01.04-.02.06-.76,2.6-1.87,5.24-3.42,7.76h0c-3.44,5.63-9.04,10.66-17.7,13.28-1.08.33-2.23.62-3.41.87h0c-.25.06-.49.11-.74.15-4.76.92-10.31,1.18-16.75.54-.33-.03-.67-.06-1.01-.1-23.85-2.63-29.77-4.39-32.76-7.07-3.07-2.74-3.07-6.47-16.06-13.1-.14-.07-.28-.14-.43-.22-2.16-1.09-4.1-2.39-5.83-3.83-11.52-9.61-13.73-25.6-10.64-29.55.15-.19.3-.33.45-.43,1.93-1.26,3.91,4.95,6.97,10.53,2.91,5.32,6.8,10.07,12.53,7.19,2.31-1.16,4.03-2.8,5.31-4.81,1.09-1.73,1.86-3.72,2.38-5.92.18-.73.32-1.47.45-2.24h0c.61-3.68.7-7.79.63-12.04-.01-.95-.03-1.9-.06-2.86-.01-.58-.03-1.16-.04-1.75,0,0,0-.02,0-.02s0,0,0-.01c-.3-10.94-.69-22.1,4.87-28.76v-.02c.9-1.08,1.96-2.04,3.19-2.86.34-.22.7-.44,1.06-.65.35-.19.71-.38,1.08-.55,1.45-.67,3.03-1.17,4.71-1.49.54-.11,1.1-.19,1.66-.26,1.52-.2,3.1-.26,4.72-.21,1.69.05,3.42.22,5.16.5.49.08.98.17,1.46.27.69.14,1.39.29,2.09.46,1.42.36,2.84.78,4.23,1.26,1.94.67,3.82,1.45,5.61,2.34,3.02,1.49,5.76,3.26,8.01,5.21.11.1.23.2.34.29,4.71,4.22,5.36,7.75,6.52,11.69.47,1.58,1.02,3.22,1.94,5,.57,1.09,1.27,2.22,2.19,3.43.53.71,1.14,1.45,1.84,2.21.26.28.51.55.75.81.1.1.2.21.3.31.79.82,1.51,1.51,2.18,2.1,1.44,1.26,2.64,2.02,3.67,2.43.81.32,1.51.42,2.15.37,2.62-.2,4.31-2.91,7.43-4.33,0,0,0,0,0,0,.31-.14.63-.26.97-.38,1.35-.44,2.95-.61,4.95-.3,1,.16,1.87.4,2.62.7.11.05.23.1.33.15,7.79,3.67,1.17,15.81-1.33,22.04-.39.97-.68,1.79-.8,2.42Z"/>
  <path class="cls-5" d="m156.35,182.42c-.23.48-.47.95-.71,1.4-1.45,2.75-3.06,5.16-4.84,7.41h0c-3.53,4.45-7.79,8.31-13.08,13.12-5.55,5.03-10.37,9.32-17.62,11.68-4.31,1.41-8.4,1.42-16.59,1.44-.19,0-.37,0-.55,0-.91,0-1.77,0-2.6,0-2.6,0-4.82-.03-6.74-.13-1.12-.06-2.15-.14-3.09-.26-2.47-.32-4.36-.89-5.99-1.92-5.41-3.42-7.78-9.06-11.85-18.71-.38-.9-.74-1.8-1.08-2.68-3.43-8.92-5.03-17.07-5.95-23.52-.04-.24-.07-.47-.1-.69-.26-1.88-.46-3.6-.64-5.15-.79-6.74-1.46-12.74-.67-20.82.48-4.88,1.23-12.64,4.75-20.16,5.33-11.42,14.12-16.04,24.05-21.27.95-.5,1.94-1.01,2.97-1.54,4.16-2.08,9-4.18,14.79-5.17,2.38-.4,4.93-.62,7.65-.58,1.47.03,2.88.13,4.22.29,7.82.93,13.56,3.88,17.1,5.75,5.47,2.89,8.23,4.41,10.16,8.15,1.51,2.94,1.74,5.69,1.22,13.29-.2,2.87-.5,6.43-.89,10.94-.17,2-.33,3.8-.47,5.45-.06.76-.12,1.49-.18,2.18-.05.51-.09,1.01-.13,1.48-1.04,12.17-1.11,12.85-1.6,14.8-.99,3.99-2.39,9.62-5.33,15.25-1.36,2.61-3.05,5.21-5.18,7.67-6.15,7.07-12.7,9.05-20.32,11.36-1.55.47-3,.91-4.37,1.29h0c-1.4.39-2.73.73-3.99.97-3.94.76-7.32.66-10.94-1.14h0c-7.49-3.73-10.93-12.19-12.17-15.27,0-.01,0-.02-.01-.04-.09-.21-.17-.42-.25-.64,0,0,0,0,0,0-.45-1.2-.83-2.38-1.14-3.58-1.39-5.33-1.48-10.99-1.63-20.34-.11-7-.18-11.62.49-15.43.31-1.82.81-3.44,1.54-5.05.52-1.13,1.11-2.19,3.78-4.79,1.07-1.05,2.47-2.35,4.35-4.01h0c.89-.79,1.89-1.66,3-2.62.34-.3.7-.6,1.07-.92,5.53-4.74,9.08-7.57,11.55-9.26.85-.57,1.56-1.02,2.19-1.35,1.73-.93,2.77-1.08,3.87-1.08,1.84,0,3.5.45,4.96,1.09.8.35,1.54.75,2.23,1.18h0c1.31.83,2.41,1.73,3.3,2.46,1.51,1.24,6.9,5.97,9.48,14.97.78,2.7,1.04,5.44,1.09,9.22h0c.02,1.46,0,3.07-.02,4.9-.02,1.02-.04,2.11-.06,3.28-.07,3.36-.12,6.21-.21,8.66-.18,4.91-.51,8.19-1.34,10.61-.15.43-.31.83-.49,1.21-2.91,6.11-8.54,10.05-14.31,11.19-2.02.41-4.06.47-6.01.17-5.37-.84-8.92-4.28-12.14-7.7-.24-.26-.49-.51-.72-.77-.46-.49-.93-.99-1.4-1.51-1.39-1.51-2.8-3.13-4.02-4.9-1.3-1.86-2.39-3.9-3.06-6.15h0c-.54-1.8-.79-3.74-.65-5.84.1-1.41.36-2.73.73-3.93h0c.81-2.62,2.11-4.72,3.3-6.23,1.37-1.74,2.59-2.72,2.74-2.84.26-.2,1.46-1.11,3.25-1.81.56-.23,1.19-.43,1.86-.58.68-.16,1.41-.26,2.17-.29,1.22-.05,2.54.11,3.9.58.45.16.99.38,1.57.66,1.43.7,3.09,1.75,4.28,3.1,1.03,1.15,1.7,2.52,1.59,4.05-.08,1.13-.58,2.21-1.33,3.15-1.61,2.07-4.36,3.45-6.24,3.2-.48-.06-.9-.22-1.24-.5-1.87-1.57-.4-6.23-2.03-7.16-.21-.12-.46-.17-.74-.15-.21.02-.42.06-.64.15-1.69.63-3.86,3.16-4.72,6.16-1.33,4.68.94,9.12,1.69,10.57.27.53.55,1.02.86,1.48h0c.99,1.53,2.13,2.71,3.32,3.64,3.92,3.08,8.25,3.33,8.68,3.35.36.01,2,.05,4.16-.52,3.12-.81,7.35-2.89,10.4-8.08.42-.71.78-1.43,1.1-2.15,2.45-5.54,2.2-11.27,1.66-14.88-.26-1.69-.58-2.92-.72-3.45-2.67-10.2-10-14.25-12.19-15.3-.93-.45-1.88-.81-2.85-1.08-2.87-.82-5.86-.89-8.77-.3-.15.03-.31.06-.47.1-2.12.48-4.2,1.3-6.17,2.43-2.64,1.52-5.07,3.59-7.14,6.13-.5.62-.98,1.26-1.42,1.9-.65.94-1.23,1.91-1.74,2.89-6.3,12.01-3.47,26.39-2.96,29.02.25,1.28.64,3.18,1.32,5.38,1.27,4.06,3.54,9.11,7.81,13.01.95.86,1.91,1.6,2.88,2.21.23.15.45.29.68.42,5.46,3.22,10.67,2.9,12.36,2.76.59-.05,1.17-.12,1.74-.22,10.28-1.72,18.07-11.19,22.98-19.27,3.1-5.1,5.06-9.66,5.76-11.37,1.23-2.98,3.53-8.58,5.11-15.13.37-1.52.7-3.1.96-4.72,1.16-7.04,1.14-14.67-1.99-21.13-4.16-8.56-12.17-11.75-20.35-12.49-6.03-.55-12.16.25-16.89,1.22-4.57.94-7.83,2.04-8.47,2.27-1.42.5-3.01,1.06-4.73,1.75-3.4,1.36-7.25,3.21-10.99,6.02-1.6,1.2-3.17,2.58-4.68,4.17h0c-2.33,2.45-4.5,5.41-6.36,9-2.28,4.39-3.68,8.97-4.47,13.53,0,0,0,.01,0,.02t0,.01h0c-1.8,10.38-.42,20.68,1.14,28.57.14.7.27,1.38.41,2.04.04.19.08.37.11.56.26,1.21.51,2.35.75,3.41.73,3.29,1.47,6.66,2.42,9.97h0c2.09,7.3,5.15,14.28,11.12,19.32,1.32,1.11,2.65,2.03,4.01,2.79,1.79,1.01,3.6,1.73,5.39,2.23.13.04.25.07.38.1,3.77,1,7.45,1.04,10.68.67,4.08-.46,7.44-1.56,9.34-2.18,1.51-.49,12.33-4.26,21.59-15.95,1.94-2.44,3.8-5.23,5.51-8.41,2.76-5.15,6.49-10.45,9.69-15.7,0,0,0,0,0,0,3.1-5.1,5.71-10.16,6.46-15.03.32-2.05.5-4.02.58-5.89.13-2.84.03-5.48-.21-7.94-1.28-13.15-6.49-21.02-1.26-26.14.27-.26.52-.32.76-.22,2.09.85,3.26,13.95,5,15.55.56.52,1.03,1.18,1.4,2.01.83,1.84,1.16,4.51.96,8.23-.11,2.05-.39,4.41-.83,7.14-.21,1.28-.46,2.65-.75,4.1-1.9,9.58-2.76,15.03-3.24,18.39-1.06,7.4-.27,4.72-4.68,13.76Z"/>
</svg>