<?xml version="1.0" encoding="UTF-8"?>
<svg id="Alt" xmlns="http://www.w3.org/2000/svg" viewBox="0 0 495 207">
  <defs>
    <style>
      .cls-1 {
        opacity: .1;
      }

      .cls-1, .cls-2, .cls-3, .cls-4, .cls-5, .cls-6, .cls-7, .cls-8 {
        stroke-width: 0px;
      }

      .cls-2 {
        fill: #9b824b;
      }

      .cls-3 {
        fill: #a38954;
      }

      .cls-4 {
        fill: #ccb25e;
      }

      .cls-5 {
        fill: #ccc17f;
      }

      .cls-6 {
        fill: #c6ab5d;
      }

      .cls-7 {
        fill: #c1a75d;
      }

      .cls-8 {
        fill: #b29a5b;
      }
    </style>
  </defs>
  <ellipse class="cls-1" cx="273.51" cy="111.31" rx="46.65" ry="69.98"/>
  <path class="cls-6" d="m120.55,132.14h0c6.28,15.63,16.75,28.97,31.43,36.98,50.02,1.62,64.61,9.22,94.85,12.58h0c3.36.38,6.92.7,10.74.95.52.04,1.06.07,1.59.1h0c.41.03.83.05,1.25.07h0c3.62.21,7.48.35,11.63.43,3.42.06,7.02.08,10.86.04h0c2.88-.03,5.88-.08,9.03-.18-.04-2.51-.05-5-.05-7.48,0-.71,0-1.4.01-2.1,0-.88,0-1.75.02-2.62.01-1.5.03-3,.06-4.48,0-.08,0-.17,0-.25.02-1.56.05-3.11.09-4.65.09-3.94.22-7.84.37-11.71.09-2.12.18-4.22.28-6.32.03-.55.05-1.1.08-1.65,0-.23.02-.47.03-.7h0c.16-3.26.34-6.48.53-9.7.07-1.21.14-2.43.21-3.63.18-3.03.37-6.03.56-9.05h0c.06-.97.12-1.93.19-2.9h0c.29-4.39.57-8.76.85-13.14t0-.01c.03-.42.05-.83.08-1.25.12-2.01.25-4.01.37-6.02.02-.24.03-.48.05-.72.13-2.17.25-4.33.37-6.51h0c.11-2.09.23-4.19.33-6.29.01-.14.02-.28.02-.42.16-3.18.3-6.38.41-9.6.02-.38.03-.76.04-1.14.02-.49.04-.98.05-1.47.04-1.15.07-2.3.11-3.45.04-1.6.08-3.2.11-4.82.03-1.22.05-2.44.06-3.66.04-2.1.05-4.21.06-6.33.03-8.65-.16-17.49-.64-26.57-2.86.08-5.61.15-8.25.21h0c-6.61.13-12.59.17-18.09.13-2.49-.02-4.89-.05-7.2-.1-40.52-.81-53.97-5.83-111.09-4.9-21.52,11.74-34.02,34.97-37.49,60.05-2.44,17.62-.42,36.16,6.05,52.27Z"/>
  <path class="cls-7" d="m120.55,132.14h0c6.28,15.63,16.75,28.97,31.43,36.98,50.02,1.62,64.61,9.22,94.85,12.58h0c3.36.38,6.92.7,10.74.95.22.27.43.54.65.81.51-.14,1.02-.29,1.52-.43.23-.06.45-.13.67-.2h0c2.3-.68,4.5-1.42,6.61-2.2,6.51-2.42,12.13-5.31,17.01-8.5.09-.05.17-.11.25-.17,2.67-1.75,5.12-3.6,7.36-5.51.11-.09.22-.18.33-.27,3.75-3.22,6.93-6.61,9.62-10.02,5.45-6.89,8.97-13.88,11.41-19.82.37-.91.73-1.79,1.05-2.65.22-.58.43-1.13.63-1.67,0,0,0-.02,0-.02s0,0,0-.01c1.73-4.73,2.79-8.39,3.79-10.18.49-.87.95-1.77,1.37-2.71h0c1.71-3.71,2.94-7.84,3.59-11.99h0s0-.01,0-.02c0-.01,0-.02,0-.02,1.39-8.85.09-17.74-4.97-22.6-.09-.08-.18-.17-.26-.24h0c-.66-.6-1.36-1.06-2.09-1.4-1.06-.51-2.17-.76-3.35-.81-1.61-.07-3.32.24-5.13.81-.18.05-.36.11-.54.18-.54.18-1.09.38-1.65.61-1.32.52-2.69,1.16-4.09,1.85-.7.34-1.41.7-2.13,1.07-1.05.54-2.11,1.1-3.19,1.67-3.41,1.79-7.01,3.65-10.78,5.13,0,0-.02,0-.02,0-.52.21-1.05.41-1.58.59-.01,0-.02.01-.03.01-3.35,1.2-6.82,2.05-10.39,2.22-1.14.06-2.28.05-3.43-.04-.22-.02-.44-.04-.65-.06-.9-.09-1.81-.23-2.73-.43-2.11-.46-4.25-1.2-6.4-2.28-.26-.13-.51-.26-.77-.4-.25-.13-.52-.27-.81-.41-.06-.03-.11-.05-.17-.08-.33-.16-.69-.32-1.07-.49-.08-.04-.18-.08-.26-.11-1.61-.69-3.61-1.44-5.89-2.22-.15-.05-.3-.1-.45-.15-1.42-.48-2.95-.97-4.56-1.47-.16-.05-.32-.1-.48-.16-4.51-1.39-9.65-2.84-14.94-4.25-.46-.12-.92-.25-1.39-.37-17.94-4.74-37.25-8.96-39.95-8.96-4.38,0,18.66,9.33,18.66,9.33-4.67,14-22.86-6.98-55.99,9.33-9.83,4.84-25.25-4.72-37.49-13.09-2.44,17.62-.42,36.16,6.05,52.27Z"/>
  <path class="cls-2" d="m120.55,132.14c6.28,15.63,16.75,28.97,31.43,36.98,50.02,1.62,64.61,9.22,94.85,12.58h0c3.36.38,6.92.7,10.74.95.22.27.43.54.65.81.51-.14,1.02-.29,1.52-.43,3.72,1.71,8.19,2.95,13.52,3.53.27.03.55.06.83.09,19.8,1.86,24.88,1.3,27.74-.65.6,0,1.05-.07,1.32-.2,2.91-1.4,8.37-5.01,13.8-9.06.12-.04.25-.08.38-.12,1.93-.62,3.71-1.48,5.34-2.5.16-.37.32-.69.48-.97.39-.7.76-1.42,1.11-2.16,2.1-4.38,3.53-9.39,4.1-14.33.96-8.25-.48-16.3-5.21-20.83-.36-.34-.73-.65-1.1-.91-.19-.13-.38-.26-.58-.37-1.08-.65-2.24-1.01-3.46-1.12-.08-.02-.16-.02-.23-.03-1.08-.08-2.22.01-3.41.25-.11.02-.21.04-.32.06-1.43.32-2.91.82-4.47,1.48-.38.15-.76.32-1.15.49-1.09.49-2.21,1.03-3.36,1.61,0,0,0,0,0,0-.05.02-.1.05-.16.08-3.79,1.92-7.87,4.22-12.19,6.14-.81.36-1.63.72-2.46,1.04-3.22,1.29-6.55,2.3-9.97,2.75h0c-1.06.14-2.13.22-3.21.24h0c-4.26.08-8.65-.82-13.12-3.25-.87-.47-2-.98-3.34-1.53-.76-.3-1.58-.62-2.46-.94-2.45-.89-5.35-1.85-8.57-2.83h0c-.15-.05-.29-.09-.44-.13-2.13-.65-4.38-1.31-6.71-1.96-1.25-.35-2.53-.71-3.82-1.06-1.73-.47-3.48-.94-5.25-1.4-1.37-.36-2.76-.72-4.14-1.07-16.47-4.21-32.78-7.73-35.25-7.73-4.38,0,18.66,9.33,18.66,9.33-4.67,14-22.86-6.98-55.99,9.33-9.46,4.66-24.09-4.02-36.1-12.15Z"/>
  <path class="cls-4" d="m219.85,96.57c-.19,3.26,3.9,6.5,7.11,9.92.83.89,1.6,1.79,2.22,2.7.63.93,2.24,3.7,3.82,6.59.43.79.86,1.6,1.27,2.37,1.97,3.75,3.37,11.08,4.33,17.69.6,4.15,1.03,8.01,1.32,10.52.47,4.08,1.43,7.95,2.77,11.65,1.66,4.59,3.9,8.92,6.51,13.05,0,0,0,0,0,.01,2.22,3.54,4.71,6.94,7.32,10.26.35.44.69.88,1.04,1.32.22.27.43.54.65.81.51-.14,1.02-.29,1.52-.43,3.72,1.71,8.19,2.95,13.52,3.53-.58-1.13-1.02-2.07-1.23-2.74-.07-.22-.06-.4.02-.57.59-1.21,5.28-.79,10.86.04h0c7.03,1.05,15.47,2.76,18.93,2.7.6,0,1.05-.07,1.32-.2,2.91-1.4,8.37-5.01,13.8-9.06,2.53-1.88,5.06-3.86,7.32-5.76,5.05-4.24,8.77-8.04,8.24-9.42.47-2.84,2-8.04,3.18-13.42-1.37-1.51-3.96,3.89-7.32,8.51.96-8.25-.48-16.3-5.21-20.83-.36-.34-.73-.65-1.1-.91.07-.21.13-.42.19-.62,4.61-1.53,9.73-3.72,14.71-5.97,0,0,0,0,0,0,.63-.51,1.48-.89,2.46-1.11,2.58-1.18,5.08-2.34,7.43-3.4-3.33-8.14-8.04-20.68-7.33-27.57,1.91-18.57-5.05-19.97-10.97-31.07-1.48-2.77-5.67-3.21-3.43-5.04,5.56-4.54,15.73,8.91,21.78,4.05,1.25-1-15.76-16.03-19.8-19.58-3.62-3.18-26.02-21.64-31.59-21.47-2.4.07-4.81.68-7.15,1.59h0c-9.39,3.62-17.82,12.02-20.7,10.35-2-1.16,1.23-6.43,2.61-10.22.66-1.81.9-3.28-.05-3.8-1.16-.63-3.93,1.15-7.14,3.71-4.98,3.98-10.98,9.83-13.57,11.51-6.76,4.38-24.05,8.96-23.33,19.54.54,7.89,4.33,18.64,3.09,27.48-.33,2.38-1.03,4.62-2.26,6.64-2.14,3.51-6.88,2.05-7.15,6.66Z"/>
  <path class="cls-1" d="m287,99.88c1.2-.56,3.08,2.91,3.27,6.77.23,4.56-1.97,8.3-2.69,9.53-3.95,6.71-9.61,5.76-10.03,5.68-.61-.12-6.46-1.43-8.71-10.46-2.24-8.96,1-17.78,1.58-19.37,3.31-9.02,8.9-11.53,10.55-12.14,6.49-2.37,13,2.5,16.31,11.08,5.2,13.46.11,29.75-.73,32.43-1.02,3.27-3.54,11.07-8.92,15.52-5.37,4.44-10.29,2.8-11.67,2.3-11.97-4.33-15.75-29.25-16.37-33.83-.92-6.7-3.64-26.67,3.16-38.73,10-17.73,31.18-1.68,32.57-.59,4.61,3.61,12.31,9.63,15.26,23.99,3.59,17.49-2.34,35.3-5.58,45.04-3.13,9.4-6.52,19.56-13.51,24.89-9.2,7.02-17.91.53-20.9-1.7-1.16-.87-10.94-8.47-15-27.22-2.24-10.36-6.99-21.86-6.58-31.28.89-20.84,10.12-29.57,6.41-36.97-1.4-2.79-4.58,11.93-6.16,13.25-2.31,1.92-3.54,7.68-3.66,19.81-.28,29.48-1.73,17.9.76,31.19,1.71,9.13,4.91,15,9.56,23.52,3.06,5.61,5.74,10.42,10.35,13.84,2.74,2.04,5.54,2.74,11.14,4.16,6.95,1.75,10.42,2.63,13.3,1.08,4.2-2.26,6.64-7.09,10.82-15.36,5.62-11.12,8.28-21.63,9.97-28.43,1.52-6.12,2.85-11.58,3.48-19.21.38-4.61.99-11.94-.32-19.52-1.99-11.51-7.33-17.29-13.36-23.83-3.86-4.18-8.78-9.39-16.31-11.08-6.87-1.54-12.31.66-15.47,1.99-4.15,1.75-6.27,2.69-8.13,5.84-2.01,3.4-2.31,6.9-3.74,22.44-1.83,19.85-1.9,20.31-1.84,22.6.14,5.67.38,14.72,3.86,23.06,3.18,7.6,7.37,10.56,12.25,14,5.21,3.67,8.57,6.04,13.04,4.31,5.69-2.2,9.27-9.52,10.55-12.14,2.87-5.87,3.8-11.34,5.64-22.29,1.61-9.56,2.42-14.34,1.58-19.37-.32-1.89-.8-3.6-6.55-13.53-7.04-12.16-8.52-13.4-10.35-13.84-3.26-.79-6.09,1.3-7.86,2.61-1.22.9-5.58,4.37-8.65,12.29-1.47,3.8-2.08,7.91-3.22,15.98-1.48,10.5-2.23,15.74-1.58,19.37,1.49,8.32,6.94,13.81,12.25,14,4.08.14,7.15-2.87,10.03-5.68,3.68-3.6,8.12-7.95,8.92-15.52.79-7.51-2.56-12.92-2.75-13.22-.31-.49-3.13-4.74-7.34-3.85-1.87.4-5.84,2.19-6.23,5.99-.4,3.99,3.34,8.31,5.17,6.92,1.51-1.14,1.17-5.72,2.43-6.3Z"/>
  <path class="cls-3" d="m233.01,115.78c-.16,4.08-.53,8.9.05,16.1.05.68.16,1.54.3,2.56.73,4.96,2.55,13.63,5.33,23.45h0c2.16,7.65,4.9,15.99,8.14,23.81h0c3.36.38,6.92.7,10.74.95.22.27.43.54.65.81.51-.14,1.02-.29,1.52-.43,3.72,1.71,8.19,2.95,13.52,3.53.27.03.55.06.83.09,19.8,1.86,24.88,1.3,27.74-.65.6,0,1.05-.07,1.32-.2,2.91-1.4,8.37-5.01,13.8-9.06.12-.04.25-.08.38-.12,1.93-.62,3.71-1.48,5.34-2.5,10.88-6.83,15.2-21.26,13.32-25.49-.09-.21-.19-.36-.3-.48-1.37-1.51-3.96,3.89-7.32,8.51.96-8.25-.48-16.3-5.21-20.83-.36-.34-.73-.65-1.1-.91.07-.21.13-.42.19-.62-.25.09-.51.17-.77.25-1.48.47-2.9.87-4.24,1.17-.02,0-.04.01-.06.02-1.16.26-2.27.46-3.3.56-.3.03-.59.06-.87.07-1.39.09-2.63-.01-3.66-.32-.32-.1-.63-.22-.91-.36-.38-.18-.72-.41-1.02-.67-.3-.26-.58-.54-.84-.82-.16-.16-.3-.32-.44-.49-1-1.18-1.72-2.53-2.24-4.01-1.24-3.56-1.26-7.87-.73-12.55h0c.33-2.92.88-5.97,1.47-9.07h0c.72-3.71,1.49-7.46,2.05-11.11.13-.82.25-1.64.35-2.46.34-2.73.53-5.38.43-7.87h0c-.05-1.24-.17-2.43-.37-3.58-.15-.84-.34-1.67-.6-2.46h0c-.74-2.37-1.93-4.47-3.76-6.22-.65-.63-1.36-1.19-2.13-1.7-1.15-.76-2.42-1.37-3.77-1.86-.52-.19-1.06-.36-1.61-.51-2.07-.58-4.31-.88-6.59-.93-.86-.02-1.72,0-2.59.04h0c-3.34.19-6.71.87-9.8,1.95-2.25.79-4.35,1.81-6.17,3.01-6.76,4.44-6.14,9.06-10.08,14.49-.39.55-.84,1.11-1.35,1.67-.12.14-.25.28-.38.42-.33.35-.68.7-1.06,1.06-.1.09-.2.19-.3.28-.26.25-.54.49-.83.74-2.91,2.47-4.94,3.64-6.45,3.98-.09.02-.18.04-.27.06-1.71.28-2.74-.55-3.73-1.74-.18-.21-.35-.43-.52-.65-1.55-2.02-3.22-4.58-7.41-4.76-11.63-.5-4.67,18.42-4.67,23.33,0,.83-.02,1.68-.05,2.57Z"/>
  <path class="cls-8" d="m242.69,139.29c0,4.67-.7,9.9,0,18.66,0,.02,0,.04,0,.06.21,2.55.69,5.19,1.55,7.82h0c1.91,5.84,5.66,11.52,12.28,15.51.83.5,1.71.98,2.63,1.42h0c.19.1.38.19.58.27,3.72,1.71,8.19,2.95,13.52,3.53.27.03.55.06.83.09,19.8,1.86,24.88,1.3,27.74-.65,2.92-1.99,3.52-5.44,15.12-9.25.12-.04.25-.08.38-.12,1.93-.62,3.71-1.48,5.34-2.5,10.88-6.83,15.2-21.26,13.32-25.49-.09-.21-.19-.36-.3-.48-1.37-1.51-3.96,3.89-7.32,8.51-3.2,4.41-7.11,8.11-11.32,4.41-1.7-1.49-2.84-3.32-3.55-5.42-.62-1.8-.92-3.79-1-5.92-.03-.7-.03-1.43-.01-2.16h0c.09-3.53.66-7.35,1.39-11.28.16-.88.33-1.76.5-2.64.1-.54.21-1.07.31-1.61,0,0,0-.02,0-.02s0,0,0-.01c1.97-10.09,4.05-20.37.59-27.55v-.02c-.56-1.16-1.26-2.24-2.14-3.23-.24-.27-.5-.53-.76-.79-.25-.24-.52-.48-.79-.7-1.07-.89-2.28-1.63-3.59-2.23-.43-.2-.86-.38-1.31-.54-1.2-.46-2.48-.8-3.8-1.05-1.38-.26-2.81-.41-4.27-.47-.41-.02-.82-.02-1.23-.02-.59,0-1.18.02-1.77.05-1.21.07-2.43.21-3.64.4-1.68.27-3.33.66-4.92,1.16-2.69.84-5.2,1.99-7.34,3.39-.11.07-.22.15-.32.21-4.49,3.07-5.58,6.22-7.15,9.67-.63,1.38-1.34,2.8-2.37,4.28-.63.91-1.38,1.83-2.32,2.78-.54.57-1.16,1.14-1.84,1.72-.25.21-.5.42-.74.62-.1.08-.2.16-.3.23-.77.62-1.47,1.13-2.1,1.56-1.37.91-2.46,1.4-3.37,1.59-.7.15-1.29.12-1.81-.05-2.1-.66-3.04-3.48-5.35-5.35,0,0,0,0,0,0-.23-.18-.47-.36-.73-.52-1.03-.65-2.3-1.1-3.98-1.17-.84-.04-1.59.03-2.24.18-.1.03-.2.05-.3.08-6.91,2-3.45,14.45-2.4,20.68.17.97.27,1.78.27,2.39Z"/>
  <path class="cls-5" d="m246.46,129.82c.11.49.23.96.36,1.43.75,2.81,1.67,5.33,2.76,7.74h0c2.17,4.76,5.01,9.11,8.56,14.53,3.71,5.66,6.96,10.51,12.47,14.01,3.28,2.08,6.6,2.83,13.25,4.33.15.04.3.07.45.1.74.17,1.44.33,2.12.48,2.11.47,3.92.84,5.49,1.1.92.15,1.77.26,2.55.32,2.06.15,3.69-.04,5.17-.7,4.94-2.19,7.76-7,12.58-15.22.45-.77.88-1.53,1.3-2.29,4.2-7.66,6.78-14.92,8.55-20.74.07-.21.13-.42.19-.62.51-1.7.94-3.26,1.34-4.66,1.71-6.11,3.2-11.55,3.83-19.19.38-4.61,1-11.94-.67-19.55-2.53-11.55-8.94-17.42-16.18-24.06-.69-.63-1.42-1.29-2.17-1.96-3.05-2.68-6.65-5.5-11.2-7.46-1.87-.8-3.9-1.47-6.12-1.91-1.2-.24-2.36-.4-3.48-.49-6.51-.54-11.63,1.16-14.81,2.25-4.9,1.69-7.39,2.6-9.54,5.72-1.69,2.45-2.32,4.97-3.09,12.1-.29,2.7-.61,6.05-1.01,10.31-.18,1.88-.34,3.59-.48,5.14-.07.72-.13,1.4-.2,2.05-.04.48-.09.95-.13,1.39-1.08,11.48-1.12,12.11-1.04,14.01.18,3.88.42,9.35,1.92,15.1.69,2.66,1.65,5.39,3,8.05,3.88,7.66,8.88,10.68,14.72,14.2,1.19.72,2.29,1.38,3.34,1.99h0c1.08.62,2.1,1.17,3.09,1.62,3.08,1.42,5.84,1.93,9.07.91h0c6.67-2.1,10.81-9.34,12.3-11.96,0-.01.01-.02.02-.03.1-.18.2-.36.31-.54,0,0,0,0,0,0,.55-1.03,1.05-2.06,1.49-3.11,1.98-4.69,2.94-9.92,4.54-18.57,1.2-6.47,1.99-10.75,2.04-14.4.03-1.74-.11-3.34-.46-4.97-.24-1.15-.56-2.23-2.31-5.13-.7-1.17-1.64-2.63-2.9-4.5h0c-.6-.9-1.27-1.88-2.02-2.97-.23-.34-.47-.68-.72-1.04-3.74-5.39-6.18-8.66-7.93-10.67-.6-.68-1.11-1.22-1.57-1.65-1.25-1.18-2.08-1.5-2.98-1.7-1.5-.33-2.91-.22-4.2.11-.7.18-1.37.42-2,.69h0c-1.2.53-2.23,1.17-3.07,1.68-1.43.88-6.55,4.3-10.07,12.18-1.06,2.36-1.71,4.86-2.34,8.36h0c-.24,1.35-.49,2.85-.76,4.55-.15.95-.3,1.96-.47,3.05-.48,3.13-.88,5.78-1.2,8.07-.63,4.59-.88,7.69-.59,10.08.05.43.12.83.21,1.21,1.4,6.19,5.35,10.85,9.86,12.96,1.58.74,3.22,1.17,4.86,1.24,4.49.19,7.92-2.36,11.08-4.95.24-.2.48-.39.71-.59.45-.37.91-.75,1.38-1.15,1.37-1.15,2.77-2.39,4.04-3.82,1.35-1.49,2.56-3.18,3.46-5.15h0c.72-1.58,1.23-3.33,1.45-5.3.15-1.33.14-2.59.03-3.77h0c-.24-2.57-.97-4.75-1.7-6.38-.84-1.86-1.67-2.99-1.78-3.13-.18-.23-1.01-1.29-2.35-2.27-.42-.31-.9-.61-1.42-.88-.53-.27-1.1-.5-1.72-.66-.98-.26-2.08-.36-3.26-.16-.39.07-.87.18-1.38.33-1.27.39-2.79,1.07-3.97,2.1-1.02.88-1.78,2.03-1.93,3.47-.11,1.06.12,2.16.58,3.16.98,2.21,3,3.99,4.57,4.1.4.03.77-.04,1.08-.24,1.77-1.12,1.31-5.71,2.78-6.27.19-.07.4-.07.62,0,.17.05.33.13.5.26,1.27.89,2.64,3.62,2.86,6.57.34,4.58-2.2,8.28-3.04,9.5-.3.44-.61.84-.93,1.22h0c-1.05,1.24-2.16,2.13-3.27,2.78-3.67,2.15-7.23,1.6-7.58,1.54-.3-.05-1.63-.32-3.3-1.23-2.41-1.32-5.52-4-7.17-9.37-.23-.74-.41-1.47-.55-2.19-1.12-5.58-.01-10.84,1-14.1.48-1.52.93-2.61,1.13-3.07,3.78-8.98,10.37-11.41,12.32-12,.83-.25,1.66-.41,2.49-.49,2.46-.24,4.9.23,7.17,1.31.12.05.24.11.36.18,1.65.82,3.21,1.96,4.63,3.37,1.9,1.89,3.55,4.25,4.83,6.97.31.67.6,1.34.85,2.02.38.99.69,1.99.95,3,3.22,12.28-1.35,25.1-2.18,27.45-.4,1.14-1.02,2.84-1.92,4.75-1.67,3.54-4.31,7.81-8.4,10.65-.91.63-1.8,1.14-2.69,1.53-.21.1-.41.19-.62.26-4.95,2-9.13.76-10.48.33-.47-.15-.93-.32-1.38-.51-8.08-3.45-12.92-13.63-15.63-22.02-1.72-5.29-2.59-9.87-2.89-11.59-.53-2.99-1.51-8.59-1.76-14.96-.06-1.48-.08-3-.04-4.55.17-6.74,1.39-13.81,4.96-19.23,4.73-7.18,11.75-8.7,18.51-7.91,4.99.58,9.84,2.43,13.53,4.18,3.56,1.7,6.04,3.31,6.52,3.63,1.07.72,2.28,1.52,3.57,2.47,2.55,1.87,5.39,4.28,7.98,7.57,1.11,1.4,2.17,2.96,3.14,4.71h0c1.5,2.7,2.8,5.83,3.74,9.5,1.16,4.48,1.57,8.98,1.49,13.35,0,0,0,.01,0,.02t0,.01h0c-.18,9.95-2.93,19.25-5.44,26.29-.22.62-.44,1.23-.66,1.81-.06.17-.12.33-.18.5-.4,1.08-.79,2.09-1.15,3.03-1.11,2.92-2.25,5.91-3.54,8.81h0c-2.85,6.4-6.44,12.32-12.08,15.91-1.24.79-2.48,1.4-3.7,1.87-1.61.61-3.2.96-4.73,1.1-.11.01-.22.02-.32.03-3.22.25-6.22-.38-8.79-1.3-3.24-1.16-5.8-2.79-7.24-3.71-1.15-.73-9.35-6.17-15.02-18.69-1.19-2.61-2.27-5.54-3.15-8.79-1.43-5.28-3.62-10.86-5.39-16.31,0,0,0,0,0,0-1.72-5.29-3.04-10.46-2.87-15.11.07-1.96.23-3.82.46-5.57.34-2.66.84-5.09,1.43-7.33,3.12-11.96,8.59-18.32,5.15-24.02-.18-.29-.37-.39-.58-.34-1.84.41-4.85,12.35-6.52,13.51-.54.38-1.03.91-1.46,1.61-.96,1.56-1.66,3.98-2.08,7.46-.23,1.92-.38,4.16-.45,6.77-.03,1.23-.05,2.54-.04,3.93.03,9.23-.13,14.43-.27,17.64-.31,7.05-.53,4.43,1.63,13.6Z"/>
</svg>