<?xml version="1.0" encoding="UTF-8"?>
<svg id="ur" xmlns="http://www.w3.org/2000/svg" viewBox="0 0 1863 378">
  <defs>
    <style>
      .cls-1 {
        fill: #f4b63e;
      }

      .cls-1, .cls-2 {
        stroke-width: 0px;
      }

      .cls-2 {
        fill: #822f0b;
      }
    </style>
  </defs>
  <g>
    <path class="cls-1" d="m490.14,196.2c-10.62,1.8-21.42,3.96-32.76,6.48.54,15.66,1.62,31.32,3.24,46.62l-28.62,7.74-6.12-125.99,58.5-8.64,4.68,32.76c-10.62.72-21.24,1.98-31.86,3.78-.18,3.24-.18,6.48-.18,9.54v9.72l29.34-6.66,3.78,24.66Z"/>
    <path class="cls-1" d="m539.46,259.74l-1.98-21.96-11.34,2.16-.36,15.66-35.64,5.58c7.74-43.2,12.6-85.5,14.76-127.07l51.66-9.18c1.26,34.56,7.38,76.68,18.36,126.17l-35.46,8.64Zm-4.14-45.54l-6.12-66.42h-.18l-1.98,68.04,8.28-1.62Z"/>
    <path class="cls-1" d="m642.24,255.24l-29.16-48.6-.18.18c.54,14.94,1.44,29.16,2.88,42.48l-26.28,7.74-.9-23.4-3.42-81.72c-.54-12.06-.72-18.36-.54-19.26,16.92-5.58,31.32-8.28,43.02-8.28,16.02,0,25.2,5.58,27.36,16.56.54,2.7.72,5.22.72,7.74,0,13.5-6.84,26.64-20.52,39.78,3.6,5.94,8.46,12.96,14.4,21.24,4.86,7.02,9.9,13.86,14.94,20.88-4.86,5.58-12.42,13.68-22.32,24.66Zm-18.36-97.56c-2.7,0-6.48.9-11.34,2.7-.18,3.96-.18,7.92-.18,11.88s0,7.92.18,11.88c4.14-2.52,7.92-5.76,11.16-9.54,4.14-4.86,6.12-8.82,6.12-11.88,0-3.42-1.98-5.04-5.94-5.04Z"/>
    <path class="cls-1" d="m750.59,254.34l-10.08-76.86-4.86,85.14-18.72,2.7-11.52-108.36-4.5,95.94-35.46,5.04c7.38-40.86,10.8-81.54,10.08-122.4l40.68-6.84,7.74,64.62,3.78-59.76,38.7-7.02c3.42,42.84,9.72,83.34,18.72,121.5l-34.56,6.3Z"/>
    <path class="cls-1" d="m860.75,244.8c-16.02,1.44-36.54,5.58-61.56,12.24l-5.94-125.99,56.7-8.64,4.68,32.76c-10.62.9-20.88,2.16-30.96,3.78-.18,3.42-.18,6.66-.18,9.9v9.9l26.82-6.12,3.6,24.3c-5.04.9-10.08,1.8-14.94,2.88l-15.12,3.24c0,2.34,0,4.68.18,7.02l.36,7.02,31.68-4.86,4.68,32.58Z"/>
    <path class="cls-1" d="m930.95,255.24l-29.16-48.6-.18.18c.54,14.94,1.44,29.16,2.88,42.48l-26.28,7.74-.9-23.4-3.42-81.72c-.54-12.06-.72-18.36-.54-19.26,16.92-5.58,31.32-8.28,43.02-8.28,16.02,0,25.2,5.58,27.36,16.56.54,2.7.72,5.22.72,7.74,0,13.5-6.84,26.64-20.52,39.78,3.6,5.94,8.46,12.96,14.4,21.24,4.86,7.02,9.9,13.86,14.94,20.88-4.86,5.58-12.42,13.68-22.32,24.66Zm-18.36-97.56c-2.7,0-6.48.9-11.34,2.7-.18,3.96-.18,7.92-.18,11.88s0,7.92.18,11.88c4.14-2.52,7.92-5.76,11.16-9.54,4.14-4.86,6.12-8.82,6.12-11.88,0-3.42-1.98-5.04-5.94-5.04Z"/>
    <path class="cls-1" d="m1099.42,196.2c-10.62,1.8-21.42,3.96-32.76,6.48.54,15.66,1.62,31.32,3.24,46.62l-28.62,7.74-6.12-125.99,58.5-8.64,4.68,32.76c-10.62.72-21.24,1.98-31.86,3.78-.18,3.24-.18,6.48-.18,9.54v9.72l29.34-6.66,3.78,24.66Z"/>
    <path class="cls-1" d="m1169.44,255.24l-29.16-48.6-.18.18c.54,14.94,1.44,29.16,2.88,42.48l-26.28,7.74-.9-23.4-3.42-81.72c-.54-12.06-.72-18.36-.54-19.26,16.92-5.58,31.32-8.28,43.02-8.28,16.02,0,25.2,5.58,27.36,16.56.54,2.7.72,5.22.72,7.74,0,13.5-6.84,26.64-20.52,39.78,3.6,5.94,8.46,12.96,14.4,21.24,4.86,7.02,9.9,13.86,14.94,20.88-4.86,5.58-12.42,13.68-22.32,24.66Zm-18.36-97.56c-2.7,0-6.48.9-11.34,2.7-.18,3.96-.18,7.92-.18,11.88s0,7.92.18,11.88c4.14-2.52,7.92-5.76,11.16-9.54,4.14-4.86,6.12-8.82,6.12-11.88,0-3.42-1.98-5.04-5.94-5.04Z"/>
    <path class="cls-1" d="m1241.44,259.74l-1.98-21.96-11.34,2.16-.36,15.66-35.64,5.58c7.74-43.2,12.6-85.5,14.76-127.07l51.66-9.18c1.26,34.56,7.38,76.68,18.36,126.17l-35.46,8.64Zm-4.14-45.54l-6.12-66.42h-.18l-1.98,68.04,8.28-1.62Z"/>
    <path class="cls-1" d="m1335.76,257.04l-3.42-6.12-7.38-12.6c-3.06-5.22-7.02-12.24-11.7-21.42.54,13.5,1.44,27,2.7,40.14l-26.28,8.46-4.86-132.29,28.98-5.94c2.7,17.64,7.2,36.72,13.5,57.42,1.98,6.84,4.14,12.42,6.3,16.56l-2.7-68.4,28.8-5.58c-.9,20.34-1.26,40.5-1.08,60.84.18,20.34,1.26,40.86,3.42,61.2l-26.28,7.74Z"/>
    <path class="cls-1" d="m1457.79,242.64l-28.26,16.92-26.28-66.42c.18,21.06,1.26,39.78,3.24,56.16l-26.28,7.74-4.86-124.19,28.98-5.58c-.54,10.26-.9,18.36-.9,24.3,7.74-8.46,15.12-16.92,22.5-25.56l25.38,14.22-28.08,30.96,34.56,71.46Z"/>
  </g>
  <g>
    <path class="cls-2" d="m499.14,196.2c-10.62,1.8-21.42,3.96-32.76,6.48.54,15.66,1.62,31.32,3.24,46.62l-28.62,7.74-6.12-125.99,58.5-8.64,4.68,32.76c-10.62.72-21.24,1.98-31.86,3.78-.18,3.24-.18,6.48-.18,9.54v9.72l29.34-6.66,3.78,24.66Z"/>
    <path class="cls-2" d="m548.46,259.74l-1.98-21.96-11.34,2.16-.36,15.66-35.64,5.58c7.74-43.2,12.6-85.5,14.76-127.07l51.66-9.18c1.26,34.56,7.38,76.68,18.36,126.17l-35.46,8.64Zm-4.14-45.54l-6.12-66.42h-.18l-1.98,68.04,8.28-1.62Z"/>
    <path class="cls-2" d="m651.24,255.24l-29.16-48.6-.18.18c.54,14.94,1.44,29.16,2.88,42.48l-26.28,7.74-.9-23.4-3.42-81.72c-.54-12.06-.72-18.36-.54-19.26,16.92-5.58,31.32-8.28,43.02-8.28,16.02,0,25.2,5.58,27.36,16.56.54,2.7.72,5.22.72,7.74,0,13.5-6.84,26.64-20.52,39.78,3.6,5.94,8.46,12.96,14.4,21.24,4.86,7.02,9.9,13.86,14.94,20.88-4.86,5.58-12.42,13.68-22.32,24.66Zm-18.36-97.56c-2.7,0-6.48.9-11.34,2.7-.18,3.96-.18,7.92-.18,11.88s0,7.92.18,11.88c4.14-2.52,7.92-5.76,11.16-9.54,4.14-4.86,6.12-8.82,6.12-11.88,0-3.42-1.98-5.04-5.94-5.04Z"/>
    <path class="cls-2" d="m759.59,254.34l-10.08-76.86-4.86,85.14-18.72,2.7-11.52-108.36-4.5,95.94-35.46,5.04c7.38-40.86,10.8-81.54,10.08-122.4l40.68-6.84,7.74,64.62,3.78-59.76,38.7-7.02c3.42,42.84,9.72,83.34,18.72,121.5l-34.56,6.3Z"/>
    <path class="cls-2" d="m869.75,244.8c-16.02,1.44-36.54,5.58-61.56,12.24l-5.94-125.99,56.7-8.64,4.68,32.76c-10.62.9-20.88,2.16-30.96,3.78-.18,3.42-.18,6.66-.18,9.9v9.9l26.82-6.12,3.6,24.3c-5.04.9-10.08,1.8-14.94,2.88l-15.12,3.24c0,2.34,0,4.68.18,7.02l.36,7.02,31.68-4.86,4.68,32.58Z"/>
    <path class="cls-2" d="m939.95,255.24l-29.16-48.6-.18.18c.54,14.94,1.44,29.16,2.88,42.48l-26.28,7.74-.9-23.4-3.42-81.72c-.54-12.06-.72-18.36-.54-19.26,16.92-5.58,31.32-8.28,43.02-8.28,16.02,0,25.2,5.58,27.36,16.56.54,2.7.72,5.22.72,7.74,0,13.5-6.84,26.64-20.52,39.78,3.6,5.94,8.46,12.96,14.4,21.24,4.86,7.02,9.9,13.86,14.94,20.88-4.86,5.58-12.42,13.68-22.32,24.66Zm-18.36-97.56c-2.7,0-6.48.9-11.34,2.7-.18,3.96-.18,7.92-.18,11.88s0,7.92.18,11.88c4.14-2.52,7.92-5.76,11.16-9.54,4.14-4.86,6.12-8.82,6.12-11.88,0-3.42-1.98-5.04-5.94-5.04Z"/>
    <path class="cls-2" d="m1108.42,196.2c-10.62,1.8-21.42,3.96-32.76,6.48.54,15.66,1.62,31.32,3.24,46.62l-28.62,7.74-6.12-125.99,58.5-8.64,4.68,32.76c-10.62.72-21.24,1.98-31.86,3.78-.18,3.24-.18,6.48-.18,9.54v9.72l29.34-6.66,3.78,24.66Z"/>
    <path class="cls-2" d="m1178.44,255.24l-29.16-48.6-.18.18c.54,14.94,1.44,29.16,2.88,42.48l-26.28,7.74-.9-23.4-3.42-81.72c-.54-12.06-.72-18.36-.54-19.26,16.92-5.58,31.32-8.28,43.02-8.28,16.02,0,25.2,5.58,27.36,16.56.54,2.7.72,5.22.72,7.74,0,13.5-6.84,26.64-20.52,39.78,3.6,5.94,8.46,12.96,14.4,21.24,4.86,7.02,9.9,13.86,14.94,20.88-4.86,5.58-12.42,13.68-22.32,24.66Zm-18.36-97.56c-2.7,0-6.48.9-11.34,2.7-.18,3.96-.18,7.92-.18,11.88s0,7.92.18,11.88c4.14-2.52,7.92-5.76,11.16-9.54,4.14-4.86,6.12-8.82,6.12-11.88,0-3.42-1.98-5.04-5.94-5.04Z"/>
    <path class="cls-2" d="m1250.44,259.74l-1.98-21.96-11.34,2.16-.36,15.66-35.64,5.58c7.74-43.2,12.6-85.5,14.76-127.07l51.66-9.18c1.26,34.56,7.38,76.68,18.36,126.17l-35.46,8.64Zm-4.14-45.54l-6.12-66.42h-.18l-1.98,68.04,8.28-1.62Z"/>
    <path class="cls-2" d="m1344.76,257.04l-3.42-6.12-7.38-12.6c-3.06-5.22-7.02-12.24-11.7-21.42.54,13.5,1.44,27,2.7,40.14l-26.28,8.46-4.86-132.29,28.98-5.94c2.7,17.64,7.2,36.72,13.5,57.42,1.98,6.84,4.14,12.42,6.3,16.56l-2.7-68.4,28.8-5.58c-.9,20.34-1.26,40.5-1.08,60.84.18,20.34,1.26,40.86,3.42,61.2l-26.28,7.74Z"/>
    <path class="cls-2" d="m1466.8,242.64l-28.26,16.92-26.28-66.42c.18,21.06,1.26,39.78,3.24,56.16l-26.28,7.74-4.86-124.19,28.98-5.58c-.54,10.26-.9,18.36-.9,24.3,7.74-8.46,15.12-16.92,22.5-25.56l25.38,14.22-28.08,30.96,34.56,71.46Z"/>
  </g>
</svg>