<?xml version="1.0" encoding="UTF-8"?>
<svg id="ur" xmlns="http://www.w3.org/2000/svg" viewBox="0 0 639 270">
  <defs>
    <style>
      .cls-1 {
        fill: #f4b63e;
      }

      .cls-1, .cls-2 {
        stroke-width: 0px;
      }

      .cls-2 {
        fill: #822f0b;
      }
    </style>
  </defs>
  <rect class="cls-2" x="108" y="67.99" width="423" height="144" rx="50.13" ry="50.13"/>
  <g>
    <path class="cls-1" d="m265.31,115.86c0,10.6-7.8,21.7-23.5,33.4.3,7.5.8,14.8,1.5,22.1l-14.5,4.3c-.1-1.5-.3-5.8-.5-13.1l-.7-23.2c-.3-10.5-.9-21.5-1.6-32.8,9.4-3.1,17.3-4.6,23.7-4.6,8.9,0,13.9,3.1,15.1,9.2.3,1.6.5,3.2.5,4.7Zm-16.8,4.6c-1.5,0-3.8.5-6.9,1.6-.1,1.9-.1,3.7-.1,5.5v5.4c2.4-1.3,4.5-2.8,6.3-4.7,2.5-2.4,3.7-4.3,3.7-5.7s-1-2.1-3-2.1Z"/>
    <path class="cls-1" d="m304.91,168.86c-8.9.8-19.6,3.1-32.3,6.8l-2.7-69,16.1-3.1c-.4,8.3-.6,16.6-.7,24.9s.1,16.7.5,25l16.6-2.7,2.5,18.1Z"/>
    <path class="cls-1" d="m336.51,177.16l-1.1-12.2-6.3,1.2-.2,8.7-19.8,3.1c4.3-24,7-47.5,8.2-70.6l28.7-5.1c.7,19.2,4.1,42.6,10.2,70.1l-19.7,4.8Zm-2.3-25.3l-3.4-36.9h-.1l-1.1,37.8,4.6-.9Z"/>
    <path class="cls-1" d="m396.21,107.96c-9.1,25.9-15.4,48.2-19.1,66.9l-15.2-1,5.7-21.7-16.5-39.3,17.1-8.7c1.5,9.3,3.3,17.5,5.6,24.6l6.2-23.6,16.2,2.8Z"/>
  </g>
</svg>