<?xml version="1.0" encoding="UTF-8"?>
<svg id="ur" xmlns="http://www.w3.org/2000/svg" viewBox="0 0 495 207">
  <defs>
    <style>
      .cls-1 {
        fill: #f4b63e;
      }

      .cls-1, .cls-2 {
        stroke-width: 0px;
      }

      .cls-2 {
        fill: #822f0b;
      }
    </style>
  </defs>
  <rect class="cls-2" x="36" y="31.99" width="423" height="144" rx="50.13" ry="50.13"/>
  <g>
    <path class="cls-1" d="m160.01,138.66l-16.2-27-.1.1c.3,8.3.8,16.2,1.6,23.6l-14.6,4.3-.5-13-1.9-45.4c-.3-6.7-.4-10.2-.3-10.7,9.4-3.1,17.4-4.6,23.9-4.6,8.9,0,14,3.1,15.2,9.2.3,1.5.4,2.9.4,4.3,0,7.5-3.8,14.8-11.4,22.1,2,3.3,4.7,7.2,8,11.8,2.7,3.9,5.5,7.7,8.3,11.6-2.7,3.1-6.9,7.6-12.4,13.7Zm-10.2-54.2c-1.5,0-3.6.5-6.3,1.5-.1,2.2-.1,4.4-.1,6.6s0,4.4.1,6.6c2.3-1.4,4.4-3.2,6.2-5.3,2.3-2.7,3.4-4.9,3.4-6.6,0-1.9-1.1-2.8-3.3-2.8Z"/>
    <path class="cls-1" d="m212.11,132.86c-8.9.8-20.3,3.1-34.2,6.8l-3.3-70,31.5-4.8,2.6,18.2c-5.9.5-11.6,1.2-17.2,2.1-.1,1.9-.1,3.7-.1,5.5v5.5l14.9-3.4,2,13.5c-2.8.5-5.6,1-8.3,1.6l-8.4,1.8c0,1.3,0,2.6.1,3.9l.2,3.9,17.6-2.7,2.6,18.1Z"/>
    <path class="cls-1" d="m258.01,84.66l-12.8,1c-.1,3.5-.1,7.1-.1,10.6,0,14.1.7,27.1,2,39.1l-15.5,4.3-2.1-52-10,1.9-5.1-18.3,40.3-4.8,3.3,18.2Z"/>
    <path class="cls-1" d="m294.91,138.66l-16.2-27-.1.1c.3,8.3.8,16.2,1.6,23.6l-14.6,4.3-.5-13-1.9-45.4c-.3-6.7-.4-10.2-.3-10.7,9.4-3.1,17.4-4.6,23.9-4.6,8.9,0,14,3.1,15.2,9.2.3,1.5.4,2.9.4,4.3,0,7.5-3.8,14.8-11.4,22.1,2,3.3,4.7,7.2,8,11.8,2.7,3.9,5.5,7.7,8.3,11.6-2.7,3.1-6.9,7.6-12.4,13.7Zm-10.2-54.2c-1.5,0-3.6.5-6.3,1.5-.1,2.2-.1,4.4-.1,6.6s0,4.4.1,6.6c2.3-1.4,4.4-3.2,6.2-5.3,2.3-2.7,3.4-4.9,3.4-6.6,0-1.9-1.1-2.8-3.3-2.8Z"/>
    <path class="cls-1" d="m352.01,71.96c-9.1,25.9-15.4,48.2-19.1,66.9l-15.2-1,5.7-21.7-16.5-39.3,17.1-8.7c1.5,9.3,3.3,17.5,5.6,24.6l6.2-23.6,16.2,2.8Z"/>
  </g>
</svg>