<?xml version="1.0" encoding="UTF-8"?>
<svg id="Farmer_frank" data-name="Farmer frank" xmlns="http://www.w3.org/2000/svg" viewBox="0 0 1215.93 750.55">
  <defs>
    <style>
      .cls-1, .cls-2, .cls-3, .cls-4, .cls-5, .cls-6, .cls-7, .cls-8, .cls-9 {
        stroke-width: 0px;
      }

      .cls-2 {
        fill: #b20000;
      }

      .cls-3 {
        fill: #bcc1c1;
      }

      .cls-4 {
        fill: #a4adad;
      }

      .cls-5 {
        fill: #b3b7b7;
      }

      .cls-6 {
        fill: #fff;
      }

      .cls-7 {
        fill: #fff6d9;
      }

      .cls-8 {
        fill: #ffcccd;
      }

      .cls-9 {
        fill: #ffcdb2;
      }
    </style>
  </defs>
  <g id="Rotte">
    <path class="cls-7" d="m436.04,405.31c-5.5,0-10.58-.38-15.24-1.01-11.6-1.57-20.65-4.78-27.44-8.06,0,0-.01,0-.01,0-3.79-1.84-6.87-3.7-9.3-5.32-.45-.3-1-.62-1.63-.93-1.81-.93-4.31-1.92-7.33-2.97-7.1-2.46-17.03-5.18-27.25-7.85-2.7-.71-5.41-1.41-8.1-2.1-9.29-2.38-18.26-4.64-25.01-6.53-4.16-1.18-7.48-2.2-9.5-3.04-.81-.32-1.41-.63-1.78-.89-7.1-5.13-10.75-21.89-13.43-38.41-.51-3.13-.98-6.25-1.43-9.28-.35-2.3-.69-4.56-1.02-6.72-.83-5.39-1.51-10.4-2.1-15.08h0c-.39-3.1-.74-6.04-1.05-8.84h0c-1.68-14.56-2.61-25.36-4.67-33.66-.05-.21-.09-.41-.12-.62h0c-.21-1.66.29-3.51,1.34-5.5,3.15-5.99,11.24-13.22,19.68-19.93,2.59-2.07,5.21-4.08,7.73-5.99,2.42-1.85,4.75-3.6,6.87-5.21,3.3-2.52,7.16-4.47,11.26-5.95,5.81-2.12,12.1-3.31,17.96-3.89h.01c9.72-.98,18.23-.28,21.32.65,2.15.64-.65,3.44-6,7.72-1.59,1.29-3.4,2.69-5.39,4.22h-.01c-12.67,9.74-31.96,24.17-41.18,38.7-1,1.58-1.88,3.15-2.62,4.72-1.21,2.55-2.04,5.1-2.42,7.6-.26,1.72-.45,3.72-.55,5.92-.13,2.7-.14,5.72-.01,8.94.26,7.08,1.16,15.11,2.75,22.83.56,2.68,1.2,5.33,1.93,7.88,1.83,6.45,4.23,12.32,7.25,16.76,2.05,3.02,4.41,5.7,6.98,8.09,2.55,2.38,5.3,4.46,8.14,6.28,4.2,2.69,8.59,4.81,12.8,6.47,2.97,1.17,5.86,2.11,8.53,2.86,4.79,1.35,8.89,2.08,11.55,2.41,10.35,1.29,14.45,1.76,16.54,2.01,2.72.3,2.04.2,7.25.95.43.06.85.12,1.25.17,9.91,1.21,12.87-.95,20.77,2.72.64.3,1.32.64,2.03,1.02,2.17,1.15,4.61,1.84,7.25,2.27.02.01.04.01.07.01,1.46.23,2.99.38,4.56.51.02,0,.05,0,.08,0,1.82.13,3.71.22,5.67.32h.03c1.14.05,2.3.11,3.47.18.02.01.04,0,.06,0,2.02.13,4.1.3,6.2.57,2.64.34,5.32.84,8.03,1.61,9.64,2.74,8.25,10.72,9.86,18.98,2.97,15.25-4.57,6.85-24.63,14.41Z"/>
    <path class="cls-4" d="m749.59,276.53c-11.18,3.14-13.7,17.86-12.35,31.52,1.79,18.15,23.27,33.28,28.3,36.47,3.7,2.34,20.81,13.19,30.45,6.34,10.66-7.58,3.82-30.9,2.89-33.94-5.89-19.27-34.43-44.55-49.29-40.38Z"/>
    <path class="cls-5" d="m530.89,458.62c20.96-13.42,97.7,41.63,93.16,54.72-2.52,7.29-47.97,6.97-63.76,3.66-9.71-2.03-16.58-6.39-27.27-3.99-2.68.6-10.99,1.68-13.3,7.98s15.88,9.56,6.61,13.01c-8.63,3.22-47.76-10.51-47.18-20.33.45-7.77,19.63-9.96,37.14-29.18,9.16-10.06,8.37-21.88,14.61-25.88Z"/>
    <path class="cls-3" d="m884.71,366.73c-1.41,4.67-2.59,8.2-3.63,10.9-3.6,9.37-5.53,8.61-9.91,9.86-2.62.75-6.11,2.22-11.36,7-.17.16-.34.32-.52.48-.11.11-.23.21-.33.32-4.53,4.4-3.84,7.76-5.01,10.32-.35.76-.86,1.45-1.72,2.07-8.69,6.3-18.18,3.37-34.61,6.71-6.66,1.36-11.55-1.39-19.05,3.17-11.63,7.07-27.81,16.92-35.31,35.31-7.51,18.42-5.82,44.31,7.06,60.72,4.69,5.96,11.12,11.01,14.13,15.82,0,0,.01,0,.01,0,1.43,2.29,2.08,4.52,1.4,6.76-.87,2.86-3.7,5.05-6.41,5.74-5.91,1.5-8.73-6.72-17.33-9.36-.66-.22-1.37-.39-2.11-.52-13.85-2.45-23.52,1.83-28.71-4.32-4.81-5.69-5.65-6.95-10.1-15.18-3.18-5.88-9.77-8.69-15.36-13.45-2.11-1.79-4.09-3.87-5.67-6.5-.02-.02-.04-.05-.05-.07-.11-.19-.26-.31-.43-.36-1.44-.54-4.67,3.06-5.79,4.01-1.64,1.38-4.39,2.12-13.69,6.94-6.93,3.59-14.67.64-17.45,4.54-1.46,2.05-.88,5.26.62,8.03,3.28,6.04,6.68,8.6,6.41,11.16v.02c-.03.29-.11.57-.24.86-.42.94-1.45,1.77-2.77,2.37-3.05,1.41-7.65,1.66-9.88-.52-.66-.64-.96-1.35-1.09-2.15-.3-1.84.31-4.1-.43-6.88-.2-.76-.5-1.55-.95-2.39-2.27-4.2-5.31-3.96-6.18-7.41-1.2-4.76,3.75-8.59,2.78-9.88-.8-1.06-4.43,1.26-9.8,4.35-4.64,2.67-10.58,5.91-17.14,8.04-1.39.45-2.8.86-4.24,1.19-19.62,4.58-37.51-4.46-55.57-13.58-7.64-3.86-21.47-11-28.71-21.92-5.88-8.88-8.33-13.58-8.33-13.58-.2-.39-.4-.77-.6-1.12-3.06-5.65-4.63-6.78-5.27-8.45-3.2-8.39-3.82,13.42-9.65,22.24-13.22,20.03-43.47,22.86-50.24,24.06-30.4,5.43-59.65-8.81-66.66,2.44,0,0,0,0-.02.03-1.22,1.99-2.2,5.48-5.87,7.41-3.89,2.06-10.13,2-13.58-1.85-1.33-1.48-2.03-3.29-2.24-5.19v-.02c-.51-4.71,1.99-9.96,5.33-12.08,4.2-2.67,7.36-2.96,14.38-2.69,11.47.43,18.04-7.15,23.4-19.42,7.44-17.02,5.53-20.29,2.97-35.92-1.79-10.91-11.72-.19-13.89-6.12-2.65-7.26-.73-15.9,3.49-24.61.31-.64.63-1.28.96-1.92,6.23-11.96,16.44-23.87,24.77-32.41.04-.04.08-.08.11-.12,5.4-5.53,10-9.62,12.17-11.37,23.1-18.61,41.97-34.77,60.87-35.3,21.25-.59,29.26,12.04,88.96,50.84,43.41,28.21,50.09,28.62,55.07,28.24,32.01-2.46,41.42-41.41,76.26-40.95,14.68.19,19.79,1.75,30.05-2.4.92-.37,1.88-.79,2.89-1.26,4.76-2.21,6.95-4.8,8.44-7.53.43-.8.81-1.61,1.17-2.43,1.97-4.41,3.57-8.97,12.27-12.68.14-.06,1.35-.22,3.31-.37,2.17-.18,5.24-.35,8.77-.38,2.2-.03,4.57,0,7.02.13,7.03.33,14.6,1.38,20.11,3.94,9.21,4.27,10.29,3.93,18.27,10.67,11.33,9.59,26.14,11.58,35.5,13.24.01,0,.02,0,.03.01,5.99,1.06,9.74,2,8.92,4.71Z"/>
    <path class="cls-7" d="m466.82,553.27c-.88.77-3.41-1.74-10.06-2.28-5.5-.46-5.51-2.19-13.68-1.79-6.35.31-11.99,1.24-11.37,1.29,1.65.13,3.93,2.43,9.66,5.22,2.35,1.14,5.4,8.2,4.26,8.7-1.43.63-6.63-6.56-11.06-7.14-4.71-.61-14.38-4.62-14.64-3.92-.22.62,3.55,2.86,7.14,6.06,1.35,1.21.69,8.3-1.25,10.44-1.18,1.3.06-9.56-6.96-11.15-4.39-.99-6.99-4.28-16.06-5.71-19.86-3.13-28.31-1.98-29.62-5.71-.9-2.54,2.83-3.62,4.28-9.99,1.41-6.19-3.02-16.24-3.22-21.97-.3-1-.7-2.93-1.34-4.64-.09-.24-.49-3.87.62-7.4.29-.94,1.53-2.34,1.73-1.73.53,1.63,1.85,6.92,2.96,8.27.4.48-.29-2.25.08-3.94.86-3.87,2.72-7.8,3.25-7.81.29,0,.81,4.21,1.21,5.44,1.01,3.08,3.06,5.37,3.73,5.19.31-.08-.69-1.31-.39-3.66.26-1.99,2.42-5.92,2.91-5.97.54-.05.15,5.07.41,5.97.73,2.55.63,3.59,1.01,3.66.9.18,6.02-6.49,6-5.37-.04,2.18-3.48,6.43-4.04,10.88-.09.67-.11,1.35-.03,2.03-.02.61-.06,1.25-.1,1.9-.2,3.24-.48,6.81.27,8.81,1.8,4.8,7.45,6.63,11.01,8.2,5.85,2.58,10.19,3.38,26.04,3.56.77.01,2.91.03,5.8.13,3.94.14,8.34-2.39,9.84-1.82,5.85,2.25,15.04,5.99,14.32,6.36-3.57,1.81-8.44-1.95-15.03-1.39-4.19.35-4.84.52-6.91,2.18-.92.74,11.9,1.47,17.5,1.7,5.35.22,12.18,7,11.73,7.4Z"/>
    <path class="cls-7" d="m860.17,573.69c-.78.69-3.04-1.55-8.97-2.03-4.9-.41-4.91-1.95-12.19-1.6-5.66.28-10.69,1.11-10.13,1.15,1.47.12,3.5,2.17,8.61,4.65,2.09,1.02,4.81,7.31,3.8,7.75-1.27.56-5.91-5.85-9.86-6.36-4.2-.54-12.82-4.12-13.05-3.49-.2.55,3.16,2.55,6.36,5.4,1.2,1.08.62,7.4-1.11,9.31-1.05,1.16.05-8.52-6.2-9.94-3.91-.88-6.23-3.81-14.32-5.09-17.7-2.79-25.23-1.76-26.4-5.09-.8-2.26,2.52-3.23,3.82-8.9,1.26-5.52-5.89-12.81-6.06-17.92-.27-.89-3.52-1.82-4.09-3.34-.08-.21-.49-.52-3.14-2.48-1.38-1.02-5.89-2.59-5.45-2.96,1.89-1.57,9.89,3.55,10.88,4.76.36.43-3.51-4.91-3.82-6.55-.07-.35-1.24-2.64-.7-4.49.07-.25,5.1,5.62,5.69,6.62,1.37,2.33,3,3.58,3.59,3.42.28-.07-2.58-3.55-2.31-5.65.23-1.77-1.81-5.44-1.37-5.48.48-.04,4.09,6.46,4.7,7.02,2.37,2.15,4.62,2.76,4.96,2.82.8.16-6.69-10.3-5.8-9.84,3.52,1.83,10.83,5.45,10.33,9.42-.08.6,2.15,5.72,2.22,6.33-.02.54,1.49,4.25,1.71,4.79,1.34,3.19,1.41,2.53,2.08,4.32,1.6,4.28,4.27,4.9,7.44,6.3,5.21,2.3,6.92,2.3,21.05,2.46.69,0,7.13,1.76,9.71,1.84,3.51.12,7.43-2.13,8.77-1.62,5.21,2.01,13.41,5.34,12.76,5.67-3.18,1.61-7.52-1.74-13.4-1.24-3.73.31-4.31.46-6.16,1.94-.82.66,10.61,1.31,15.6,1.52,4.77.2,10.86,6.24,10.46,6.6Z"/>
    <path class="cls-7" d="m392.35,516.24c-.08-.68-.06-1.36.03-2.03.02.62.01,1.3-.03,2.03Z"/>
    <path class="cls-7" d="m392.25,518.14c.04-.65.08-1.29.1-1.9.01.12.02.24.04.36.09.58.04,1.09-.14,1.54Z"/>
    <path class="cls-3" d="m720.38,308.42c-8.2,8.22-3.17,22.28,4.71,33.52,10.47,14.94,36.62,17.57,42.56,17.88,4.37.23,24.61,1.27,29.64-9.43,5.57-11.84-11.84-28.79-14.15-30.99-14.59-13.89-51.87-21.91-62.77-10.98Z"/>
    <path class="cls-7" d="m613.92,555.72c-.88.77-3.41-1.74-10.06-2.28-5.5-.46-5.51-2.19-13.68-1.79-6.35.31-11.99,1.24-11.37,1.29,1.65.13,3.93,2.43,9.66,5.22,2.35,1.14,5.4,8.2,4.26,8.7-1.43.63-6.63-6.56-11.06-7.14-4.71-.61-14.38-4.62-14.64-3.92-.22.62,3.55,2.86,7.14,6.06,1.35,1.21.69,8.3-1.25,10.44-1.18,1.3.06-9.56-6.96-11.15-4.39-.99-6.99-4.28-16.06-5.71-19.86-3.13-30.47-1.79-31.78-5.52-.9-2.54.92-3.77-1.44-9.87-2.74-7.09-5.62-6.61-11.36-9.13-.96-.42-9.22-2.85-10.66-3.97-.2-.16-1.85-1.3-3.81-3.66-.28-.33,4.82.84,5.51,1,1.67.39,7.87,2.52,9.03,2.2.6-.16-2.43-1.9-4.44-3.57-3.17-2.56-4.64-10.81-4.15-10.62,1.34.51,5.89,6.13,8.1,7.59,2.78,1.84,11.07,5.81,11.74,5.63.31-.08-11.74-6.84-11.44-9.19.26-1.99,4.61-6.56,5.1-6.61.54-.05,2.55,5.16,2.93,6.02,1.93,4.38,4.23,6.9,4.38,6.54,2.77-6.37,8.07-7.79,6.69-6.49-2.18,2.07-5.9,5.3-4.29,7.9.36.57,8.03,5.97,8.11,6.65-.02.61,5.33,8.23,5.83,8.65,3.4,2.92,8.53,1.97,10.63,1.6,6.44-1.14,10.62-.53,14.51-.47,7.33.13,1.73.82,17.58,1,.77.01,2.91.03,5.8.13,3.94.14,8.34-2.39,9.84-1.82,5.85,2.25,15.04,5.99,14.32,6.36-3.57,1.81-8.44-1.95-15.03-1.39-4.19.35-4.84.52-6.91,2.18-.92.74,11.9,1.47,17.5,1.7,5.35.22,12.18,7,11.73,7.4Z"/>
    <path class="cls-7" d="m734.04,337.2c9.23,8.59,26.86,20.23,36.33,11.88.77-.68,12.96-5.48,15.59-14.15,2.67-8.82-14.68-14.77-22-17.19-7.73-2.56-24.21-4.94-36.11-2.83-2.82.5,1.5,17.92,6.19,22.29Z"/>
    <path class="cls-6" d="m821.72,376.63c5.21-.59,9.73-7.07,8.52-11.4-.72-2.58-4.73-4.08-12.73-6.99-8.3-3.01-13.46-4.98-13.74-3.03-.46,3.19.92,14.32,4.43,18.74,4.88,6.15,9.41,3.14,13.52,2.68Z"/>
    <path class="cls-1" d="m828.32,367.66c0,4.3-3.49,7.79-7.79,7.79s-5.6-4.09-7.79-7.79c-2.67-4.52-8.03-10.01,7.79-7.79,4.26.6,7.79,3.49,7.79,7.79Z"/>
    <path class="cls-2" d="m826.52,369.18c0,1.73-1.37,3.13-3.06,3.13s-4.47-4.25-4.47-5.98,2.98-.85,4.47-.29c1.6.61,3.06,1.4,3.06,3.13Z"/>
    <path class="cls-6" d="m858.13,390.56c2.48-4.04,6.35-6.89,10.72-5.37,4.37,1.51,4.69,13.82,6.22,19.48,1.24,4.58-7.18-3.25-11.77-5.66s-6.46-6.34-5.17-8.44Z"/>
    <path class="cls-6" d="m845.85,395.34c2.48-4.04,6.35-6.89,10.72-5.37,4.37,1.51,4.69,13.82,6.22,19.48,1.24,4.58-7.18-3.25-11.77-5.66s-6.46-6.34-5.17-8.44Z"/>
    <path class="cls-8" d="m890.06,366.1c-1.29,1.29-7.13,11.74-9.43,11.63-1.45-.07-4.29-1.49-7.28-5.95-2.29-3.42-.59-8.14.03-9.06,1.12-1.68,6.57.14,10.51.14.91,0,10.24-.85,6.17,3.24Z"/>
    <path class="cls-4" d="m868.92,387.87c-5.25,1.28-5.78.56-11.35,2.87-6.15,2.55-6.65,4.4-10.89,11.96-.26.46-5,1.23-5.94-.35-1.3-2.18,4.87-8.35,9.44-11.75,5.72-4.26,11.01-5.72,14.18-6.3,1.77-.33,9.28-1.7,10.48.82.73,1.53-3.15,2.09-5.92,2.76Z"/>
    <path class="cls-4" d="m796.72,346.08c5.14,1.68,7.87,6.59,13.82,7.56,6.57,1.07,3.81,1.23,11.39-2.96.46-.26,3.91-.77,3.87,1.07-.05,2.54-7.22,6.96-12.88,7.59-3.49.39-14.43-5.84-16.93-8.48-1.24-1.31-11.6,3.25-9.76.07,2.04-3.51,7.78-5.73,10.49-4.85Z"/>
    <path class="cls-3" d="m392.79,395.27c.43-1.26,17.57,4.81,16.95,3.75-.8-1.37-6.85-5.69-8.02-8.26-1.53-3.35-3.19-7.48-2.68-8.28.52-.82,2.67-.33,5.4.28,2.87.65,3.78,1.21,6.82,1.99,2.94.75,10.4-2.17,10.91-3,.53-.86-4.22-.52-5.29-4.2-.42-1.46-4.52-10.77-3.51-12.14,1.13-1.55,7.3,2.72,9.17,3.26,3.12.89,7.56.33,10.52.87,6.01,1.11,7.97-2.16,9.33-.39,3.47,4.53-15,36.78-26.87,36.9-2.3.02-5.51-1.4-11.93-4.26-4.89-2.17-11.18-5.4-10.79-6.53Z"/>
    <path class="cls-9" d="m392.59,362.7c-.63,2.99-3.25,8.62-4.47,11.75-1.94,4.98-3.46,11.71-5.7,15.53-1.81-.93-4.31-1.92-7.33-2.97.59-4.51,2.42-11.31,4.08-14.87,1.74-3.73,2.93-8.03,4.92-10.56,2.72.3,2.04.2,7.25.95.43.06.85.12,1.25.17Z"/>
    <path class="cls-9" d="m356,357.16c-1.06,2.82-2.53,6.09-3.35,8.22-1.67,4.29-3.03,9.87-4.81,13.78-2.7-.71-5.41-1.41-8.1-2.1.7-4.47,2.41-10.65,3.96-14,1.38-2.95,2.41-6.26,3.77-8.76,2.97,1.17,5.86,2.11,8.53,2.86Z"/>
    <path class="cls-9" d="m334.67,347.83c-2.44,3.02-6.5,6.99-8.73,9.45-3.68,4.05-7.57,9.67-11.21,13.25-4.16-1.18-7.48-2.2-9.5-3.04,2.11-4.66,7.96-12.89,11.77-16.58,3.37-3.26,6.39-7.3,9.53-9.36,2.55,2.38,5.3,4.46,8.14,6.28Z"/>
    <path class="cls-9" d="m312.3,316.7c-2.83,1.55-6.85,3.27-9.21,4.44-4.2,2.09-9.08,5.38-13.07,7.05-.51-3.13-.98-6.25-1.43-9.28,3.18-2.24,6.89-4.44,9.45-5.51,4.45-1.86,8.87-4.8,12.33-4.58.56,2.68,1.2,5.33,1.93,7.88Z"/>
    <path class="cls-9" d="m307.62,285.99c-2.5,1.24-5.33,2.48-7.16,3.39-4.9,2.43-10.72,6.52-14.99,7.72-.39-3.09-.74-6.03-1.05-8.83h0c3.45-2.59,8.01-5.38,10.99-6.63,4.4-1.84,8.78-4.74,12.22-4.59-.13,2.7-.14,5.72-.01,8.94Z"/>
    <path class="cls-9" d="m313.22,258.81c-1,1.58-1.88,3.15-2.62,4.72-2.95-.25-9.06-2.46-12.38-3.41-6.58-1.89-15.96-2.85-18.59-6.13h0c-.21-1.66.29-3.51,1.34-5.5,3.08-.82,13.81.74,18.74,2.51,5.96,2.14,13.12,2.87,13.51,7.81Z"/>
    <path class="cls-9" d="m332.74,237.18c-.7,1.55-9.7-1.8-14.02-3.04-6.2-1.78-14.89-2.73-18.07-5.58,2.59-2.07,5.21-4.08,7.73-5.99,4.14.46,8.96,1.42,11.84,2.45,7.37,2.65,16.6,3.14,12.52,12.16Z"/>
    <path class="cls-9" d="m359.8,215.89c-1.59,1.29-3.4,2.69-5.39,4.22h-.01c-3.11-.79-7.12-2.19-9.6-2.9-6.36-1.83-15.33-2.78-18.29-5.8,5.81-2.12,12.1-3.31,17.96-3.89h.01c.66.19,1.27.38,1.81.57,5.95,2.14,13.11,2.87,13.51,7.8Z"/>
    <path class="cls-5" d="m699.69,492.16c-1.44-.54-4.67,3.06-5.79,4.01-1.64,1.38-4.39,2.12-13.69,6.94-6.93,3.59-14.67.64-17.45,4.54-1.46,2.05-.88,5.26.62,8.03,3.28,6.04,6.68,8.6,6.41,11.16v.02c.02.26.01.52-.02.78-.05.33-.15,1.81-.2,2.87-.94-.12-1.87-.27-2.79-.42-3.87-.66-7.59-1.55-10.97-2.67-.09-.03-.17-.06-.25-.09-.08-.67-.22-2.67-.33-5.06-.02-.52.05-1.45.15-1.73-.2-.76-.5-1.55-.95-2.39-2.27-4.2-5.31-3.96-6.18-7.41-1.2-4.76,3.75-8.59,2.78-9.88-.8-1.06-4.43,1.26-9.8,4.35,7.36-10.17,28.57-13.38,34.36-19.17,9-9,13.19-3.58,24.1,6.12Z"/>
    <path class="cls-3" d="m705.84,499.09c-2.11-1.79-4.09-3.87-5.67-6.5.85.79,1.66,1.6,2.42,2.45.99,1.09,2.11,2.47,3.25,4.05Z"/>
    <path class="cls-7" d="m723.03,558.15c-.63.56-2.45-1.25-7.22-1.63-3.95-.33-3.96-1.58-9.82-1.29-4.56.22-8.61.89-8.17.93,1.19.09,2.82,1.74,6.94,3.75,1.69.81,3.88,5.88,3.06,6.24-1.03.46-4.76-4.71-7.94-5.12-3.39-.44-10.33-3.32-10.52-2.82-.15.45,2.55,2.05,5.13,4.35.97.87.5,5.96-.9,7.5-.84.93.05-6.87-4.99-8.01-3.16-.71-5.02-3.07-11.54-4.1-14.26-2.24-20.32-1.42-21.26-4.1-.65-1.82,2.03-2.6,3.07-7.17,1.01-4.44-2.17-11.66-2.31-15.78-.22-.71-.5-2.1-.96-3.33-.01-.03-.02-.11-.04-.24-.08-.67-.22-2.67-.33-5.06-.02-.52.05-1.45.15-1.73.04-.1.07-.12.11,0,.38,1.17,3.12,5.45,3.92,6.42.29.34-.77-1.55-.89-2.79-.25-2.74-.73-3.84-.35-3.84.21,0,2,2.47,2.29,3.36.73,2.21,2.11,3.49,2.59,3.36.22-.06-.83-1.22-1.17-2.85-.28-1.41-1.35-3.9-1-3.94.41,0,2.57,3.71,2.94,4.27,1.05,1.57,1.63,1.76,1.91,1.81.64.13-.53-6.94-.06-6.28.52.75,3.87,3.81,4.12,6.78v.02c.02.26.01.52-.02.78-.05.33-.15,1.81-.2,2.87-.02.5-.03.9-.01,1.06-.01.43-.04.89-.07,1.36-.14,2.33-.34,4.89.19,6.33,1.3,3.44,5.35,4.76,7.91,5.88,4.2,1.86,7.32,2.43,18.7,2.56.55,0,2.09.02,4.16.09,2.83.1,5.99-1.71,7.07-1.3,4.2,1.61,10.8,4.3,10.28,4.56-2.56,1.3-6.06-1.4-10.79-1-3.01.26-3.48.38-4.96,1.57-.67.53,8.54,1.06,12.56,1.22,3.84.16,8.75,5.03,8.42,5.31Z"/>
  </g>
</svg>