<?xml version="1.0" encoding="UTF-8"?>
<svg id="ur" xmlns="http://www.w3.org/2000/svg" viewBox="0 0 585 324">
  <defs>
    <style>
      .cls-1 {
        fill: #f4b63e;
      }

      .cls-1, .cls-2 {
        stroke-width: 0px;
      }

      .cls-2 {
        fill: #822f0b;
      }
    </style>
  </defs>
  <g>
    <path class="cls-1" d="m103.14,125.91l-23.04,1.8c-.18,6.3-.18,12.78-.18,19.08,0,25.38,1.26,48.78,3.6,70.38l-27.9,7.74-3.78-93.6-18,3.42-9.18-32.94,72.54-8.64,5.94,32.76Z"/>
    <path class="cls-1" d="m177.84,212.66c-16.02,1.44-36.54,5.58-61.56,12.24l-5.94-125.99,56.7-8.64,4.68,32.76c-10.62.9-20.88,2.16-30.96,3.78-.18,3.42-.18,6.66-.18,9.9v9.9l26.82-6.12,3.6,24.3c-5.04.9-10.08,1.8-14.94,2.88l-15.12,3.24c0,2.34,0,4.68.18,7.02l.36,7.02,31.68-4.86,4.68,32.58Z"/>
    <path class="cls-1" d="m272.87,210.5l-28.26,16.92-26.28-66.42c.18,21.06,1.26,39.78,3.24,56.16l-26.28,7.74-4.86-124.19,28.98-5.58c-.54,10.26-.9,18.36-.9,24.3,7.74-8.46,15.12-16.92,22.5-25.56l25.38,14.22-28.08,30.96,34.56,71.46Z"/>
    <path class="cls-1" d="m328.67,224.9l-3.42-6.12-7.38-12.6c-3.06-5.22-7.02-12.24-11.7-21.42.54,13.5,1.44,27,2.7,40.14l-26.28,8.46-4.86-132.29,28.98-5.94c2.7,17.64,7.2,36.72,13.5,57.42,1.98,6.84,4.14,12.42,6.3,16.56l-2.7-68.4,28.8-5.58c-.9,20.34-1.26,40.5-1.08,60.84.18,20.34,1.26,40.86,3.42,61.2l-26.28,7.74Z"/>
    <path class="cls-1" d="m373.31,224.9l-4.86-124.19,28.8-5.58c-.9,20.34-1.26,40.5-1.08,60.84.18,20.34,1.26,40.86,3.24,61.2l-26.1,7.74Z"/>
    <path class="cls-1" d="m496.97,210.5l-28.26,16.92-26.28-66.42c.18,21.06,1.26,39.78,3.24,56.16l-26.28,7.74-4.86-124.19,28.98-5.58c-.54,10.26-.9,18.36-.9,24.3,7.74-8.46,15.12-16.92,22.5-25.56l25.38,14.22-28.08,30.96,34.56,71.46Z"/>
  </g>
  <g>
    <path class="cls-2" d="m112.14,125.91l-23.04,1.8c-.18,6.3-.18,12.78-.18,19.08,0,25.38,1.26,48.78,3.6,70.38l-27.9,7.74-3.78-93.6-18,3.42-9.18-32.94,72.54-8.64,5.94,32.76Z"/>
    <path class="cls-2" d="m186.84,212.66c-16.02,1.44-36.54,5.58-61.56,12.24l-5.94-125.99,56.7-8.64,4.68,32.76c-10.62.9-20.88,2.16-30.96,3.78-.18,3.42-.18,6.66-.18,9.9v9.9l26.82-6.12,3.6,24.3c-5.04.9-10.08,1.8-14.94,2.88l-15.12,3.24c0,2.34,0,4.68.18,7.02l.36,7.02,31.68-4.86,4.68,32.58Z"/>
    <path class="cls-2" d="m281.88,210.5l-28.26,16.92-26.28-66.42c.18,21.06,1.26,39.78,3.24,56.16l-26.28,7.74-4.86-124.19,28.98-5.58c-.54,10.26-.9,18.36-.9,24.3,7.74-8.46,15.12-16.92,22.5-25.56l25.38,14.22-28.08,30.96,34.56,71.46Z"/>
    <path class="cls-2" d="m337.67,224.9l-3.42-6.12-7.38-12.6c-3.06-5.22-7.02-12.24-11.7-21.42.54,13.5,1.44,27,2.7,40.14l-26.28,8.46-4.86-132.29,28.98-5.94c2.7,17.64,7.2,36.72,13.5,57.42,1.98,6.84,4.14,12.42,6.3,16.56l-2.7-68.4,28.8-5.58c-.9,20.34-1.26,40.5-1.08,60.84.18,20.34,1.26,40.86,3.42,61.2l-26.28,7.74Z"/>
    <path class="cls-2" d="m382.31,224.9l-4.86-124.19,28.8-5.58c-.9,20.34-1.26,40.5-1.08,60.84.18,20.34,1.26,40.86,3.24,61.2l-26.1,7.74Z"/>
    <path class="cls-2" d="m505.97,210.5l-28.26,16.92-26.28-66.42c.18,21.06,1.26,39.78,3.24,56.16l-26.28,7.74-4.86-124.19,28.98-5.58c-.54,10.26-.9,18.36-.9,24.3,7.74-8.46,15.12-16.92,22.5-25.56l25.38,14.22-28.08,30.96,34.56,71.46Z"/>
  </g>
</svg>