<?xml version="1.0" encoding="UTF-8"?>
<svg xmlns="http://www.w3.org/2000/svg" viewBox="0 0 495 207">
  <defs>
    <style>
      .cls-1, .cls-2, .cls-3 {
        stroke-width: 0px;
      }

      .cls-2 {
        fill: #a09f9f;
      }

      .cls-3 {
        fill: #fff;
      }
    </style>
  </defs>
  <g id="Alt">
    <rect class="cls-3" x="167" y="18" width="153" height="171"/>
  </g>
  <g id="ur">
    <g>
      <path class="cls-2" d="m222.76,50.94c-1.11.32-1.98,1.66-1.98,2.83,0,2.72,4.63,5.56,8.79,5.67,5.25.13,11.18-4.08,11.06-8.5-.1-3.61-4.19-5.98-7.09-7.65-5.25-3.03-13.38-5.03-15.59-1.98-.96,1.32-.87,3.69.28,4.82,2.26,2.2,6.83-2.04,11.91,0,3.05,1.23,5.45,4.39,4.82,5.95-.61,1.52-4.3,2.06-7.09,1.13-2.61-.86-3.55-2.71-5.1-2.27Z"/>
      <path class="cls-2" d="m261.32,51.84c1.11.32,1.98,1.66,1.98,2.83,0,2.72-4.63,5.56-8.79,5.67-5.25.13-11.18-4.08-11.06-8.5.1-3.61,4.19-5.98,7.09-7.65,5.25-3.03,13.38-5.03,15.59-1.98.96,1.32.87,3.69-.28,4.82-2.26,2.2-6.83-2.04-11.91,0-3.05,1.23-5.45,4.39-4.82,5.95.61,1.52,4.3,2.06,7.09,1.13,2.61-.86,3.55-2.71,5.1-2.27Z"/>
      <path class="cls-2" d="m244.98,61.89c.9-3.59.61-9.9.28-18.31-.27-6.94,8.12-7.79,7.32-10.42-1.25-4.12-16.58-4.76-18.17-.7-.85,2.16,4.07,3.22,5.07,9.01,1.6,9.27.45,17.05.28,20.14-.1,1.8,4.8,1.92,5.21.28Z"/>
      <circle class="cls-2" cx="243.48" cy="28.02" r="4.86"/>
      <circle class="cls-2" cx="241.48" cy="116.06" r="53.74"/>
      <circle class="cls-3" cx="241.48" cy="116.06" r="47.71"/>
      <rect class="cls-1" x="239.41" y="70.22" width="4.23" height="17.02" rx="2.11" ry="2.11" transform="translate(483.06 157.46) rotate(180)"/>
      <rect class="cls-1" x="221.66" y="74.64" width="4.23" height="17.02" rx="2.11" ry="2.11" transform="translate(460.1 49.48) rotate(151.51)"/>
      <rect class="cls-1" x="208.02" y="87.74" width="4.23" height="17.02" rx="2.11" ry="2.11" transform="translate(404.9 -28.18) rotate(122.82)"/>
      <rect class="cls-1" x="202.74" y="107.7" width="4.23" height="17.02" rx="2.11" ry="2.11" transform="translate(321.06 -88.63) rotate(90)"/>
      <rect class="cls-1" x="207.07" y="124.62" width="4.23" height="17.02" rx="2.11" ry="2.11" transform="translate(228.89 -114.04) rotate(62.08)"/>
      <rect class="cls-1" x="220.38" y="139.52" width="4.23" height="17.02" rx="2.11" ry="2.11" transform="translate(103.83 -91.42) rotate(30)"/>
      <rect class="cls-1" x="258.37" y="75.55" width="4.23" height="17.02" rx="2.11" ry="2.11" transform="translate(87.13 -127.75) rotate(32.82)"/>
      <rect class="cls-1" x="239.41" y="144.52" width="4.23" height="17.02" rx="2.11" ry="2.11"/>
      <rect class="cls-1" x="257.27" y="140.53" width="4.23" height="17.02" rx="2.11" ry="2.11" transform="translate(-39.77 149.66) rotate(-30)"/>
      <rect class="cls-1" x="270.05" y="127.33" width="4.23" height="17.02" rx="2.11" ry="2.11" transform="translate(10.5 290.95) rotate(-57.18)"/>
      <rect class="cls-1" x="276.1" y="107.7" width="4.23" height="17.02" rx="2.11" ry="2.11" transform="translate(161.99 394.42) rotate(-90)"/>
      <rect class="cls-1" x="271.98" y="90.23" width="4.23" height="17.02" rx="2.11" ry="2.11" transform="translate(325.62 385.49) rotate(-120)"/>
    </g>
  </g>
</svg>